999
DXF gemstone file C:\temp\_gems\Asashi.dxf created by GemCad for Windows
0
SECTION
2
HEADER
0
ENDSEC
0
SECTION
2
TABLES
0
TABLE
2
LAYER
70
153
0
LAYER
2
GEM
70
0
62
15
6
CONTINUOUS
0
ENDTAB
0
ENDSEC
0
SECTION
2
ENTITIES
0
3DFACE
8
GEM
10
-0.829393
20
0.474827
30
-0.184086
11
0.000000
21
-0.000000
31
-1.000000
12
-0.653945
22
0.123940
32
-0.400679
13
-0.653945
23
0.123940
33
-0.400679
62
0
0
3DFACE
8
GEM
10
0.000000
20
-0.000000
30
-1.000000
11
-0.829393
21
-0.474827
31
-0.184086
12
-0.653945
22
-0.123940
32
-0.400679
13
-0.653945
23
-0.123940
33
-0.400679
62
0
0
3DFACE
8
GEM
10
-0.211280
20
0.510075
30
-0.512399
11
0.000000
21
-0.000000
31
-1.000000
12
-0.646354
22
0.657867
32
-0.184086
13
-0.646354
23
0.657867
33
-0.184086
62
0
0
3DFACE
8
GEM
10
0.000000
20
-0.000000
30
-1.000000
11
-0.211280
21
-0.510075
31
-0.512399
12
-0.646354
22
-0.657867
32
-0.184086
13
-0.646354
23
-0.657867
33
-0.184086
62
0
0
3DFACE
8
GEM
10
0.000000
20
-0.000000
30
-1.000000
11
-0.211280
21
0.510075
31
-0.512399
12
0.000000
22
0.482340
32
-0.574009
13
0.000000
23
0.482340
33
-0.574009
62
0
0
3DFACE
8
GEM
10
-0.211280
20
-0.510075
30
-0.512399
11
0.000000
21
-0.000000
31
-1.000000
12
0.000000
22
-0.482340
32
-0.574009
13
0.000000
23
-0.482340
33
-0.574009
62
0
0
3DFACE
8
GEM
10
0.000000
20
-0.482340
30
-0.574009
11
0.000000
21
-0.000000
31
-1.000000
12
0.211280
22
-0.510075
32
-0.512399
13
0.211280
23
-0.510075
33
-0.512399
62
0
0
3DFACE
8
GEM
10
0.000000
20
-0.000000
30
-1.000000
11
0.000000
21
0.482340
31
-0.574009
12
0.211280
22
0.510075
32
-0.512399
13
0.211280
23
0.510075
33
-0.512399
62
0
0
3DFACE
8
GEM
10
0.211280
20
-0.510075
30
-0.512399
11
0.000000
21
-0.000000
31
-1.000000
12
0.646354
22
-0.657867
32
-0.184086
13
0.646354
23
-0.657867
33
-0.184086
62
0
0
3DFACE
8
GEM
10
0.000000
20
-0.000000
30
-1.000000
11
0.211280
21
0.510075
31
-0.512399
12
0.646354
22
0.657867
32
-0.184086
13
0.646354
23
0.657867
33
-0.184086
62
0
0
3DFACE
8
GEM
10
0.829393
20
-0.474827
30
-0.184086
11
0.000000
21
-0.000000
31
-1.000000
12
0.653945
22
-0.123940
32
-0.400679
13
0.653945
23
-0.123940
33
-0.400679
62
0
0
3DFACE
8
GEM
10
0.000000
20
-0.000000
30
-1.000000
11
0.829393
21
0.474827
31
-0.184086
12
0.653945
22
0.123940
32
-0.400679
13
0.653945
23
0.123940
33
-0.400679
62
0
0
3DFACE
8
GEM
10
0.000000
20
-0.000000
30
-1.000000
11
-0.829393
21
0.474827
31
-0.184086
12
-0.646354
22
0.657867
32
-0.184086
13
-0.646354
23
0.657867
33
-0.184086
62
0
0
3DFACE
8
GEM
10
-0.829393
20
-0.474827
30
-0.184086
11
0.000000
21
-0.000000
31
-1.000000
12
-0.646354
22
-0.657867
32
-0.184086
13
-0.646354
23
-0.657867
33
-0.184086
62
0
0
3DFACE
8
GEM
10
0.646354
20
-0.657867
30
-0.184086
11
0.000000
21
-0.000000
31
-1.000000
12
0.829393
22
-0.474827
32
-0.184086
13
0.829393
23
-0.474827
33
-0.184086
62
0
0
3DFACE
8
GEM
10
0.000000
20
-0.000000
30
-1.000000
11
0.646354
21
0.657867
31
-0.184086
12
0.829393
22
0.474827
32
-0.184086
13
0.829393
23
0.474827
33
-0.184086
62
0
0
3DFACE
8
GEM
10
-0.653945
20
0.123940
30
-0.400679
11
0.000000
21
-0.000000
31
-1.000000
12
-0.653945
22
-0.123940
32
-0.400679
13
-0.653945
23
-0.123940
33
-0.400679
62
0
0
3DFACE
8
GEM
10
0.653945
20
-0.123940
30
-0.400679
11
0.000000
21
-0.000000
31
-1.000000
12
0.653945
22
0.123940
32
-0.400679
13
0.653945
23
0.123940
33
-0.400679
62
0
0
3DFACE
8
GEM
10
-0.646354
20
-0.657867
30
-0.139860
11
-0.646354
21
-0.657867
31
-0.184086
12
0.646354
22
-0.657867
32
-0.184086
13
0.646354
23
-0.657867
33
-0.184086
62
0
0
3DFACE
8
GEM
10
-0.646354
20
-0.657867
30
-0.139860
11
0.646354
21
-0.657867
31
-0.184086
12
0.646354
22
-0.657867
32
-0.139860
13
0.646354
23
-0.657867
33
-0.139860
62
0
0
3DFACE
8
GEM
10
-0.646354
20
0.657867
30
-0.184086
11
-0.646354
21
0.657867
31
-0.139860
12
0.646354
22
0.657867
32
-0.139860
13
0.646354
23
0.657867
33
-0.139860
62
0
0
3DFACE
8
GEM
10
-0.646354
20
0.657867
30
-0.184086
11
0.646354
21
0.657867
31
-0.139860
12
0.646354
22
0.657867
32
-0.184086
13
0.646354
23
0.657867
33
-0.184086
62
0
0
3DFACE
8
GEM
10
-0.646354
20
0.657867
30
-0.184086
11
-0.829393
21
0.474827
31
-0.184086
12
-0.829393
22
0.474827
32
-0.139860
13
-0.829393
23
0.474827
33
-0.139860
62
0
0
3DFACE
8
GEM
10
-0.646354
20
0.657867
30
-0.184086
11
-0.829393
21
0.474827
31
-0.139860
12
-0.646354
22
0.657867
32
-0.139860
13
-0.646354
23
0.657867
33
-0.139860
62
0
0
3DFACE
8
GEM
10
-0.829393
20
-0.474827
30
-0.184086
11
-0.646354
21
-0.657867
31
-0.184086
12
-0.646354
22
-0.657867
32
-0.139860
13
-0.646354
23
-0.657867
33
-0.139860
62
0
0
3DFACE
8
GEM
10
-0.829393
20
-0.474827
30
-0.184086
11
-0.646354
21
-0.657867
31
-0.139860
12
-0.829393
22
-0.474827
32
-0.139860
13
-0.829393
23
-0.474827
33
-0.139860
62
0
0
3DFACE
8
GEM
10
0.646354
20
-0.657867
30
-0.184086
11
0.829393
21
-0.474827
31
-0.184086
12
0.829393
22
-0.474827
32
-0.139860
13
0.829393
23
-0.474827
33
-0.139860
62
0
0
3DFACE
8
GEM
10
0.646354
20
-0.657867
30
-0.184086
11
0.829393
21
-0.474827
31
-0.139860
12
0.646354
22
-0.657867
32
-0.139860
13
0.646354
23
-0.657867
33
-0.139860
62
0
0
3DFACE
8
GEM
10
0.829393
20
0.474827
30
-0.184086
11
0.646354
21
0.657867
31
-0.184086
12
0.646354
22
0.657867
32
-0.139860
13
0.646354
23
0.657867
33
-0.139860
62
0
0
3DFACE
8
GEM
10
0.829393
20
0.474827
30
-0.184086
11
0.646354
21
0.657867
31
-0.139860
12
0.829393
22
0.474827
32
-0.139860
13
0.829393
23
0.474827
33
-0.139860
62
0
0
3DFACE
8
GEM
10
-0.829393
20
0.474827
30
-0.139860
11
-0.829393
21
0.474827
31
-0.184086
12
-0.829393
22
-0.474827
32
-0.184086
13
-0.829393
23
-0.474827
33
-0.184086
62
0
0
3DFACE
8
GEM
10
-0.829393
20
0.474827
30
-0.139860
11
-0.829393
21
-0.474827
31
-0.184086
12
-0.829393
22
-0.474827
32
-0.139860
13
-0.829393
23
-0.474827
33
-0.139860
62
0
0
3DFACE
8
GEM
10
0.829393
20
-0.474827
30
-0.139860
11
0.829393
21
-0.474827
31
-0.184086
12
0.829393
22
0.474827
32
-0.184086
13
0.829393
23
0.474827
33
-0.184086
62
0
0
3DFACE
8
GEM
10
0.829393
20
-0.474827
30
-0.139860
11
0.829393
21
0.474827
31
-0.184086
12
0.829393
22
0.474827
32
-0.139860
13
0.829393
23
0.474827
33
-0.139860
62
0
0
3DFACE
8
GEM
10
-0.829393
20
0.474827
30
-0.184086
11
-0.653945
21
0.123940
31
-0.400679
12
-0.653945
22
-0.123940
32
-0.400679
13
-0.653945
23
-0.123940
33
-0.400679
62
0
0
3DFACE
8
GEM
10
-0.829393
20
0.474827
30
-0.184086
11
-0.653945
21
-0.123940
31
-0.400679
12
-0.829393
22
-0.474827
32
-0.184086
13
-0.829393
23
-0.474827
33
-0.184086
62
0
0
3DFACE
8
GEM
10
0.829393
20
-0.474827
30
-0.184086
11
0.653945
21
-0.123940
31
-0.400679
12
0.653945
22
0.123940
32
-0.400679
13
0.653945
23
0.123940
33
-0.400679
62
0
0
3DFACE
8
GEM
10
0.829393
20
-0.474827
30
-0.184086
11
0.653945
21
0.123940
31
-0.400679
12
0.829393
22
0.474827
32
-0.184086
13
0.829393
23
0.474827
33
-0.184086
62
0
0
3DFACE
8
GEM
10
-0.646354
20
-0.657867
30
-0.184086
11
-0.211280
21
-0.510075
31
-0.512399
12
0.000000
22
-0.482340
32
-0.574009
13
0.000000
23
-0.482340
33
-0.574009
62
0
0
3DFACE
8
GEM
10
-0.646354
20
-0.657867
30
-0.184086
11
0.000000
21
-0.482340
31
-0.574009
12
0.211280
22
-0.510075
32
-0.512399
13
0.211280
23
-0.510075
33
-0.512399
62
0
0
3DFACE
8
GEM
10
-0.646354
20
-0.657867
30
-0.184086
11
0.211280
21
-0.510075
31
-0.512399
12
0.646354
22
-0.657867
32
-0.184086
13
0.646354
23
-0.657867
33
-0.184086
62
0
0
3DFACE
8
GEM
10
-0.211280
20
0.510075
30
-0.512399
11
-0.646354
21
0.657867
31
-0.184086
12
0.646354
22
0.657867
32
-0.184086
13
0.646354
23
0.657867
33
-0.184086
62
0
0
3DFACE
8
GEM
10
-0.211280
20
0.510075
30
-0.512399
11
0.646354
21
0.657867
31
-0.184086
12
0.211280
22
0.510075
32
-0.512399
13
0.211280
23
0.510075
33
-0.512399
62
0
0
3DFACE
8
GEM
10
-0.211280
20
0.510075
30
-0.512399
11
0.211280
21
0.510075
31
-0.512399
12
0.000000
22
0.482340
32
-0.574009
13
0.000000
23
0.482340
33
-0.574009
62
0
0
3DFACE
8
GEM
10
0.700904
20
-0.577063
30
-0.114001
11
0.829393
21
-0.474827
31
-0.139860
12
0.797088
22
-0.190920
32
-0.094861
13
0.797088
23
-0.190920
33
-0.094861
62
0
0
3DFACE
8
GEM
10
0.700904
20
-0.577063
30
-0.114001
11
0.797088
21
-0.190920
31
-0.094861
12
0.085629
22
-0.049402
32
0.136306
13
0.085629
23
-0.049402
33
0.136306
62
0
0
3DFACE
8
GEM
10
0.700904
20
-0.577063
30
-0.114001
11
0.085629
21
-0.049402
31
0.136306
12
0.047819
22
-0.140685
32
0.136306
13
0.047819
23
-0.140685
33
0.136306
62
0
0
3DFACE
8
GEM
10
0.829393
20
0.474827
30
-0.139860
11
0.700904
21
0.577063
31
-0.114001
12
0.047819
22
0.140685
32
0.136306
13
0.047819
23
0.140685
33
0.136306
62
0
0
3DFACE
8
GEM
10
0.829393
20
0.474827
30
-0.139860
11
0.047819
21
0.140685
31
0.136306
12
0.085629
22
0.049402
32
0.136306
13
0.085629
23
0.049402
33
0.136306
62
0
0
3DFACE
8
GEM
10
0.829393
20
0.474827
30
-0.139860
11
0.085629
21
0.049402
31
0.136306
12
0.797088
22
0.190920
32
-0.094861
13
0.797088
23
0.190920
33
-0.094861
62
0
0
3DFACE
8
GEM
10
0.646354
20
-0.657867
30
-0.139860
11
0.829393
21
-0.474827
31
-0.139860
12
0.700904
22
-0.577063
32
-0.114001
13
0.700904
23
-0.577063
33
-0.114001
62
0
0
3DFACE
8
GEM
10
0.646354
20
-0.657867
30
-0.139860
11
0.700904
21
-0.577063
31
-0.114001
12
0.631803
22
-0.646163
32
-0.114001
13
0.631803
23
-0.646163
33
-0.114001
62
0
0
3DFACE
8
GEM
10
0.829393
20
0.474827
30
-0.139860
11
0.646354
21
0.657867
31
-0.139860
12
0.631803
22
0.646163
32
-0.114001
13
0.631803
23
0.646163
33
-0.114001
62
0
0
3DFACE
8
GEM
10
0.829393
20
0.474827
30
-0.139860
11
0.631803
21
0.646163
31
-0.114001
12
0.700904
22
0.577063
32
-0.114001
13
0.700904
23
0.577063
33
-0.114001
62
0
0
3DFACE
8
GEM
10
-0.646354
20
-0.657867
30
-0.139860
11
0.646354
21
-0.657867
31
-0.139860
12
0.631803
22
-0.646163
32
-0.114001
13
0.631803
23
-0.646163
33
-0.114001
62
0
0
3DFACE
8
GEM
10
-0.646354
20
-0.657867
30
-0.139860
11
0.631803
21
-0.646163
31
-0.114001
12
0.238525
22
-0.600524
32
-0.013158
13
0.238525
23
-0.600524
33
-0.013158
62
0
0
3DFACE
8
GEM
10
-0.646354
20
-0.657867
30
-0.139860
11
0.238525
21
-0.600524
31
-0.013158
12
-0.046978
22
-0.581931
32
0.027923
13
-0.046978
23
-0.581931
33
0.027923
62
0
0
3DFACE
8
GEM
10
-0.646354
20
-0.657867
30
-0.139860
11
-0.046978
21
-0.581931
31
0.027923
12
-0.278485
22
-0.581931
32
0.027923
13
-0.278485
23
-0.581931
33
0.027923
62
0
0
3DFACE
8
GEM
10
-0.646354
20
-0.657867
30
-0.139860
11
-0.278485
21
-0.581931
31
0.027923
12
-0.563989
22
-0.600524
32
-0.013158
13
-0.563989
23
-0.600524
33
-0.013158
62
0
0
3DFACE
8
GEM
10
0.646354
20
0.657867
30
-0.139860
11
-0.646354
21
0.657867
31
-0.139860
12
-0.563989
22
0.600524
32
-0.013158
13
-0.563989
23
0.600524
33
-0.013158
62
0
0
3DFACE
8
GEM
10
0.646354
20
0.657867
30
-0.139860
11
-0.563989
21
0.600524
31
-0.013158
12
-0.278485
22
0.581931
32
0.027923
13
-0.278485
23
0.581931
33
0.027923
62
0
0
3DFACE
8
GEM
10
0.646354
20
0.657867
30
-0.139860
11
-0.278485
21
0.581931
31
0.027923
12
-0.046978
22
0.581931
32
0.027923
13
-0.046978
23
0.581931
33
0.027923
62
0
0
3DFACE
8
GEM
10
0.646354
20
0.657867
30
-0.139860
11
-0.046978
21
0.581931
31
0.027923
12
0.238525
22
0.600524
32
-0.013158
13
0.238525
23
0.600524
33
-0.013158
62
0
0
3DFACE
8
GEM
10
0.646354
20
0.657867
30
-0.139860
11
0.238525
21
0.600524
31
-0.013158
12
0.631803
22
0.646163
32
-0.114001
13
0.631803
23
0.646163
33
-0.114001
62
0
0
3DFACE
8
GEM
10
-0.829393
20
0.474827
30
-0.139860
11
-0.829393
21
-0.474827
31
-0.139860
12
-0.763255
22
-0.401257
32
-0.013158
13
-0.763255
23
-0.401257
33
-0.013158
62
0
0
3DFACE
8
GEM
10
-0.829393
20
0.474827
30
-0.139860
11
-0.763255
21
-0.401257
31
-0.013158
12
-0.741228
22
-0.115070
32
0.029039
13
-0.741228
23
-0.115070
33
0.029039
62
0
0
3DFACE
8
GEM
10
-0.829393
20
0.474827
30
-0.139860
11
-0.741228
21
-0.115070
31
0.029039
12
-0.741228
22
0.115070
32
0.029039
13
-0.741228
23
0.115070
33
0.029039
62
0
0
3DFACE
8
GEM
10
-0.829393
20
0.474827
30
-0.139860
11
-0.741228
21
0.115070
31
0.029039
12
-0.763255
22
0.401257
32
-0.013158
13
-0.763255
23
0.401257
33
-0.013158
62
0
0
3DFACE
8
GEM
10
0.829393
20
-0.474827
30
-0.139860
11
0.829393
21
0.474827
31
-0.139860
12
0.797088
22
0.190920
32
-0.094861
13
0.797088
23
0.190920
33
-0.094861
62
0
0
3DFACE
8
GEM
10
0.829393
20
-0.474827
30
-0.139860
11
0.797088
21
0.190920
31
-0.094861
12
0.797088
22
-0.190920
32
-0.094861
13
0.797088
23
-0.190920
33
-0.094861
62
0
0
3DFACE
8
GEM
10
-0.646354
20
0.657867
30
-0.139860
11
-0.829393
21
0.474827
31
-0.139860
12
-0.763255
22
0.401257
32
-0.013158
13
-0.763255
23
0.401257
33
-0.013158
62
0
0
3DFACE
8
GEM
10
-0.646354
20
0.657867
30
-0.139860
11
-0.763255
21
0.401257
31
-0.013158
12
-0.563989
22
0.600524
32
-0.013158
13
-0.563989
23
0.600524
33
-0.013158
62
0
0
3DFACE
8
GEM
10
-0.829393
20
-0.474827
30
-0.139860
11
-0.646354
21
-0.657867
31
-0.139860
12
-0.563989
22
-0.600524
32
-0.013158
13
-0.563989
23
-0.600524
33
-0.013158
62
0
0
3DFACE
8
GEM
10
-0.829393
20
-0.474827
30
-0.139860
11
-0.563989
21
-0.600524
31
-0.013158
12
-0.763255
22
-0.401257
32
-0.013158
13
-0.763255
23
-0.401257
33
-0.013158
62
0
0
3DFACE
8
GEM
10
-0.563989
20
0.600524
30
-0.013158
11
-0.763255
21
0.401257
31
-0.013158
12
-0.373282
22
0.140685
32
0.136306
13
-0.373282
23
0.140685
33
0.136306
62
0
0
3DFACE
8
GEM
10
-0.563989
20
0.600524
30
-0.013158
11
-0.373282
21
0.140685
31
0.136306
12
-0.303417
22
0.210550
32
0.136306
13
-0.303417
23
0.210550
33
0.136306
62
0
0
3DFACE
8
GEM
10
-0.763255
20
-0.401257
30
-0.013158
11
-0.563989
21
-0.600524
31
-0.013158
12
-0.303417
22
-0.210550
32
0.136306
13
-0.303417
23
-0.210550
33
0.136306
62
0
0
3DFACE
8
GEM
10
-0.763255
20
-0.401257
30
-0.013158
11
-0.303417
21
-0.210550
31
0.136306
12
-0.373282
22
-0.140685
32
0.136306
13
-0.373282
23
-0.140685
33
0.136306
62
0
0
3DFACE
8
GEM
10
-0.563989
20
-0.600524
30
-0.013158
11
-0.278485
21
-0.581931
31
0.027923
12
-0.212134
22
-0.248361
32
0.136306
13
-0.212134
23
-0.248361
33
0.136306
62
0
0
3DFACE
8
GEM
10
-0.563989
20
-0.600524
30
-0.013158
11
-0.212134
21
-0.248361
31
0.136306
12
-0.303417
22
-0.210550
32
0.136306
13
-0.303417
23
-0.210550
33
0.136306
62
0
0
3DFACE
8
GEM
10
-0.278485
20
0.581931
30
0.027923
11
-0.563989
21
0.600524
31
-0.013158
12
-0.303417
22
0.210550
32
0.136306
13
-0.303417
23
0.210550
33
0.136306
62
0
0
3DFACE
8
GEM
10
-0.278485
20
0.581931
30
0.027923
11
-0.303417
21
0.210550
31
0.136306
12
-0.212134
22
0.248361
32
0.136306
13
-0.212134
23
0.248361
33
0.136306
62
0
0
3DFACE
8
GEM
10
-0.046978
20
0.581931
30
0.027923
11
-0.278485
21
0.581931
31
0.027923
12
-0.212134
22
0.248361
32
0.136306
13
-0.212134
23
0.248361
33
0.136306
62
0
0
3DFACE
8
GEM
10
-0.046978
20
0.581931
30
0.027923
11
-0.212134
21
0.248361
31
0.136306
12
-0.113330
22
0.248361
32
0.136306
13
-0.113330
23
0.248361
33
0.136306
62
0
0
3DFACE
8
GEM
10
-0.278485
20
-0.581931
30
0.027923
11
-0.046978
21
-0.581931
31
0.027923
12
-0.113330
22
-0.248361
32
0.136306
13
-0.113330
23
-0.248361
33
0.136306
62
0
0
3DFACE
8
GEM
10
-0.278485
20
-0.581931
30
0.027923
11
-0.113330
21
-0.248361
31
0.136306
12
-0.212134
22
-0.248361
32
0.136306
13
-0.212134
23
-0.248361
33
0.136306
62
0
0
3DFACE
8
GEM
10
-0.046978
20
-0.581931
30
0.027923
11
0.238525
21
-0.600524
31
-0.013158
12
-0.022046
22
-0.210550
32
0.136306
13
-0.022046
23
-0.210550
33
0.136306
62
0
0
3DFACE
8
GEM
10
-0.046978
20
-0.581931
30
0.027923
11
-0.022046
21
-0.210550
31
0.136306
12
-0.113330
22
-0.248361
32
0.136306
13
-0.113330
23
-0.248361
33
0.136306
62
0
0
3DFACE
8
GEM
10
0.238525
20
0.600524
30
-0.013158
11
-0.046978
21
0.581931
31
0.027923
12
-0.113330
22
0.248361
32
0.136306
13
-0.113330
23
0.248361
33
0.136306
62
0
0
3DFACE
8
GEM
10
0.238525
20
0.600524
30
-0.013158
11
-0.113330
21
0.248361
31
0.136306
12
-0.022046
22
0.210550
32
0.136306
13
-0.022046
23
0.210550
33
0.136306
62
0
0
3DFACE
8
GEM
10
0.047819
20
0.140685
30
0.136306
11
0.700904
21
0.577063
31
-0.114001
12
0.631803
22
0.646163
32
-0.114001
13
0.631803
23
0.646163
33
-0.114001
62
0
0
3DFACE
8
GEM
10
0.047819
20
0.140685
30
0.136306
11
0.631803
21
0.646163
31
-0.114001
12
0.238525
22
0.600524
32
-0.013158
13
0.238525
23
0.600524
33
-0.013158
62
0
0
3DFACE
8
GEM
10
0.047819
20
0.140685
30
0.136306
11
0.238525
21
0.600524
31
-0.013158
12
-0.022046
22
0.210550
32
0.136306
13
-0.022046
23
0.210550
33
0.136306
62
0
0
3DFACE
8
GEM
10
0.700904
20
-0.577063
30
-0.114001
11
0.047819
21
-0.140685
31
0.136306
12
-0.022046
22
-0.210550
32
0.136306
13
-0.022046
23
-0.210550
33
0.136306
62
0
0
3DFACE
8
GEM
10
0.700904
20
-0.577063
30
-0.114001
11
-0.022046
21
-0.210550
31
0.136306
12
0.238525
22
-0.600524
32
-0.013158
13
0.238525
23
-0.600524
33
-0.013158
62
0
0
3DFACE
8
GEM
10
0.700904
20
-0.577063
30
-0.114001
11
0.238525
21
-0.600524
31
-0.013158
12
0.631803
22
-0.646163
32
-0.114001
13
0.631803
23
-0.646163
33
-0.114001
62
0
0
3DFACE
8
GEM
10
0.085629
20
-0.049402
30
0.136306
11
0.797088
21
-0.190920
31
-0.094861
12
0.797088
22
0.190920
32
-0.094861
13
0.797088
23
0.190920
33
-0.094861
62
0
0
3DFACE
8
GEM
10
0.085629
20
-0.049402
30
0.136306
11
0.797088
21
0.190920
31
-0.094861
12
0.085629
22
0.049402
32
0.136306
13
0.085629
23
0.049402
33
0.136306
62
0
0
3DFACE
8
GEM
10
-0.741228
20
-0.115070
30
0.029039
11
-0.763255
21
-0.401257
31
-0.013158
12
-0.373282
22
-0.140685
32
0.136306
13
-0.373282
23
-0.140685
33
0.136306
62
0
0
3DFACE
8
GEM
10
-0.741228
20
-0.115070
30
0.029039
11
-0.373282
21
-0.140685
31
0.136306
12
-0.411092
22
-0.049402
32
0.136306
13
-0.411092
23
-0.049402
33
0.136306
62
0
0
3DFACE
8
GEM
10
-0.763255
20
0.401257
30
-0.013158
11
-0.741228
21
0.115070
31
0.029039
12
-0.411092
22
0.049402
32
0.136306
13
-0.411092
23
0.049402
33
0.136306
62
0
0
3DFACE
8
GEM
10
-0.763255
20
0.401257
30
-0.013158
11
-0.411092
21
0.049402
31
0.136306
12
-0.373282
22
0.140685
32
0.136306
13
-0.373282
23
0.140685
33
0.136306
62
0
0
3DFACE
8
GEM
10
-0.741228
20
0.115070
30
0.029039
11
-0.741228
21
-0.115070
31
0.029039
12
-0.411092
22
-0.049402
32
0.136306
13
-0.411092
23
-0.049402
33
0.136306
62
0
0
3DFACE
8
GEM
10
-0.741228
20
0.115070
30
0.029039
11
-0.411092
21
-0.049402
31
0.136306
12
-0.411092
22
0.049402
32
0.136306
13
-0.411092
23
0.049402
33
0.136306
62
0
0
3DFACE
8
GEM
10
0.047819
20
-0.140685
30
0.136306
11
0.085629
21
-0.049402
31
0.136306
12
0.085629
22
0.049402
32
0.136306
13
0.085629
23
0.049402
33
0.136306
62
0
0
3DFACE
8
GEM
10
0.047819
20
-0.140685
30
0.136306
11
0.085629
21
0.049402
31
0.136306
12
0.047819
22
0.140685
32
0.136306
13
0.047819
23
0.140685
33
0.136306
62
0
0
3DFACE
8
GEM
10
0.047819
20
-0.140685
30
0.136306
11
0.047819
21
0.140685
31
0.136306
12
-0.022046
22
0.210550
32
0.136306
13
-0.022046
23
0.210550
33
0.136306
62
0
0
3DFACE
8
GEM
10
0.047819
20
-0.140685
30
0.136306
11
-0.022046
21
0.210550
31
0.136306
12
-0.113330
22
0.248361
32
0.136306
13
-0.113330
23
0.248361
33
0.136306
62
0
0
3DFACE
8
GEM
10
0.047819
20
-0.140685
30
0.136306
11
-0.113330
21
0.248361
31
0.136306
12
-0.212134
22
0.248361
32
0.136306
13
-0.212134
23
0.248361
33
0.136306
62
0
0
3DFACE
8
GEM
10
0.047819
20
-0.140685
30
0.136306
11
-0.212134
21
0.248361
31
0.136306
12
-0.303417
22
0.210550
32
0.136306
13
-0.303417
23
0.210550
33
0.136306
62
0
0
3DFACE
8
GEM
10
0.047819
20
-0.140685
30
0.136306
11
-0.303417
21
0.210550
31
0.136306
12
-0.373282
22
0.140685
32
0.136306
13
-0.373282
23
0.140685
33
0.136306
62
0
0
3DFACE
8
GEM
10
0.047819
20
-0.140685
30
0.136306
11
-0.373282
21
0.140685
31
0.136306
12
-0.411092
22
0.049402
32
0.136306
13
-0.411092
23
0.049402
33
0.136306
62
0
0
3DFACE
8
GEM
10
0.047819
20
-0.140685
30
0.136306
11
-0.411092
21
0.049402
31
0.136306
12
-0.411092
22
-0.049402
32
0.136306
13
-0.411092
23
-0.049402
33
0.136306
62
0
0
3DFACE
8
GEM
10
0.047819
20
-0.140685
30
0.136306
11
-0.411092
21
-0.049402
31
0.136306
12
-0.373282
22
-0.140685
32
0.136306
13
-0.373282
23
-0.140685
33
0.136306
62
0
0
3DFACE
8
GEM
10
0.047819
20
-0.140685
30
0.136306
11
-0.373282
21
-0.140685
31
0.136306
12
-0.303417
22
-0.210550
32
0.136306
13
-0.303417
23
-0.210550
33
0.136306
62
0
0
3DFACE
8
GEM
10
0.047819
20
-0.140685
30
0.136306
11
-0.303417
21
-0.210550
31
0.136306
12
-0.212134
22
-0.248361
32
0.136306
13
-0.212134
23
-0.248361
33
0.136306
62
0
0
3DFACE
8
GEM
10
0.047819
20
-0.140685
30
0.136306
11
-0.212134
21
-0.248361
31
0.136306
12
-0.113330
22
-0.248361
32
0.136306
13
-0.113330
23
-0.248361
33
0.136306
62
0
0
3DFACE
8
GEM
10
0.047819
20
-0.140685
30
0.136306
11
-0.113330
21
-0.248361
31
0.136306
12
-0.022046
22
-0.210550
32
0.136306
13
-0.022046
23
-0.210550
33
0.136306
62
0
0
ENDSEC
0
EOF
