999
DXF gemstone file C:\temp\_gems\Bugbarion.dxf created by GemCad for Windows
0
SECTION
2
HEADER
0
ENDSEC
0
SECTION
2
TABLES
0
TABLE
2
LAYER
70
153
0
LAYER
2
GEM
70
0
62
15
6
CONTINUOUS
0
ENDTAB
0
ENDSEC
0
SECTION
2
ENTITIES
0
3DFACE
8
GEM
10
0.000000
20
-0.000000
30
-1.000000
11
-0.415038
21
0.415038
31
-0.528609
12
-0.107865
22
0.542274
32
-0.528609
13
-0.107865
23
0.542274
33
-0.528609
62
0
0
3DFACE
8
GEM
10
-0.415038
20
0.415038
30
-0.528609
11
0.000000
21
-0.000000
31
-1.000000
12
-0.839720
22
0.167031
32
-0.270042
13
-0.839720
23
0.167031
33
-0.270042
62
0
0
3DFACE
8
GEM
10
0.000000
20
-0.000000
30
-1.000000
11
-0.415038
21
-0.415038
31
-0.528609
12
-0.839720
22
-0.167031
32
-0.270042
13
-0.839720
23
-0.167031
33
-0.270042
62
0
0
3DFACE
8
GEM
10
-0.415038
20
-0.415038
30
-0.528609
11
0.000000
21
-0.000000
31
-1.000000
12
-0.107865
22
-0.542274
32
-0.528609
13
-0.107865
23
-0.542274
33
-0.528609
62
0
0
3DFACE
8
GEM
10
0.000000
20
-0.000000
30
-1.000000
11
0.415038
21
-0.415038
31
-0.528609
12
0.107865
22
-0.542274
32
-0.528609
13
0.107865
23
-0.542274
33
-0.528609
62
0
0
3DFACE
8
GEM
10
0.415038
20
-0.415038
30
-0.528609
11
0.000000
21
-0.000000
31
-1.000000
12
0.839720
22
-0.167031
32
-0.270042
13
0.839720
23
-0.167031
33
-0.270042
62
0
0
3DFACE
8
GEM
10
0.000000
20
-0.000000
30
-1.000000
11
0.415038
21
0.415038
31
-0.528609
12
0.839720
22
0.167031
32
-0.270042
13
0.839720
23
0.167031
33
-0.270042
62
0
0
3DFACE
8
GEM
10
0.415038
20
0.415038
30
-0.528609
11
0.000000
21
-0.000000
31
-1.000000
12
0.107865
22
0.542274
32
-0.528609
13
0.107865
23
0.542274
33
-0.528609
62
0
0
3DFACE
8
GEM
10
0.000000
20
-0.000000
30
-1.000000
11
-0.107865
21
0.542274
31
-0.528609
12
0.107865
22
0.542274
32
-0.528609
13
0.107865
23
0.542274
33
-0.528609
62
0
0
3DFACE
8
GEM
10
-0.107865
20
-0.542274
30
-0.528609
11
0.000000
21
-0.000000
31
-1.000000
12
0.107865
22
-0.542274
32
-0.528609
13
0.107865
23
-0.542274
33
-0.528609
62
0
0
3DFACE
8
GEM
10
-0.839720
20
0.167031
30
-0.270042
11
0.000000
21
-0.000000
31
-1.000000
12
-0.839720
22
-0.167031
32
-0.270042
13
-0.839720
23
-0.167031
33
-0.270042
62
0
0
3DFACE
8
GEM
10
0.839720
20
-0.167031
30
-0.270042
11
0.000000
21
-0.000000
31
-1.000000
12
0.839720
22
0.167031
32
-0.270042
13
0.839720
23
0.167031
33
-0.270042
62
0
0
3DFACE
8
GEM
10
-0.130823
20
0.657692
30
-0.225899
11
-0.130823
21
0.657692
31
-0.270042
12
-0.503376
22
0.503376
32
-0.270042
13
-0.503376
23
0.503376
33
-0.270042
62
0
0
3DFACE
8
GEM
10
-0.130823
20
0.657692
30
-0.225899
11
-0.503376
21
0.503376
31
-0.270042
12
-0.503376
22
0.503376
32
-0.225899
13
-0.503376
23
0.503376
33
-0.225899
62
0
0
3DFACE
8
GEM
10
-0.130823
20
-0.657692
30
-0.270042
11
-0.130823
21
-0.657692
31
-0.225899
12
-0.503376
22
-0.503376
32
-0.225899
13
-0.503376
23
-0.503376
33
-0.225899
62
0
0
3DFACE
8
GEM
10
-0.130823
20
-0.657692
30
-0.270042
11
-0.503376
21
-0.503376
31
-0.225899
12
-0.503376
22
-0.503376
32
-0.270042
13
-0.503376
23
-0.503376
33
-0.270042
62
0
0
3DFACE
8
GEM
10
0.130823
20
-0.657692
30
-0.225899
11
0.130823
21
-0.657692
31
-0.270042
12
0.503376
22
-0.503376
32
-0.270042
13
0.503376
23
-0.503376
33
-0.270042
62
0
0
3DFACE
8
GEM
10
0.130823
20
-0.657692
30
-0.225899
11
0.503376
21
-0.503376
31
-0.270042
12
0.503376
22
-0.503376
32
-0.225899
13
0.503376
23
-0.503376
33
-0.225899
62
0
0
3DFACE
8
GEM
10
0.130823
20
0.657692
30
-0.270042
11
0.130823
21
0.657692
31
-0.225899
12
0.503376
22
0.503376
32
-0.225899
13
0.503376
23
0.503376
33
-0.225899
62
0
0
3DFACE
8
GEM
10
0.130823
20
0.657692
30
-0.270042
11
0.503376
21
0.503376
31
-0.225899
12
0.503376
22
0.503376
32
-0.270042
13
0.503376
23
0.503376
33
-0.270042
62
0
0
3DFACE
8
GEM
10
-0.130823
20
0.657692
30
-0.270042
11
-0.130823
21
0.657692
31
-0.225899
12
0.130823
22
0.657692
32
-0.225899
13
0.130823
23
0.657692
33
-0.225899
62
0
0
3DFACE
8
GEM
10
-0.130823
20
0.657692
30
-0.270042
11
0.130823
21
0.657692
31
-0.225899
12
0.130823
22
0.657692
32
-0.270042
13
0.130823
23
0.657692
33
-0.270042
62
0
0
3DFACE
8
GEM
10
-0.130823
20
-0.657692
30
-0.225899
11
-0.130823
21
-0.657692
31
-0.270042
12
0.130823
22
-0.657692
32
-0.270042
13
0.130823
23
-0.657692
33
-0.270042
62
0
0
3DFACE
8
GEM
10
-0.130823
20
-0.657692
30
-0.225899
11
0.130823
21
-0.657692
31
-0.270042
12
0.130823
22
-0.657692
32
-0.225899
13
0.130823
23
-0.657692
33
-0.225899
62
0
0
3DFACE
8
GEM
10
0.503376
20
-0.503376
30
-0.225899
11
0.503376
21
-0.503376
31
-0.270042
12
0.839720
22
-0.167031
32
-0.270042
13
0.839720
23
-0.167031
33
-0.270042
62
0
0
3DFACE
8
GEM
10
0.503376
20
-0.503376
30
-0.225899
11
0.839720
21
-0.167031
31
-0.270042
12
0.839720
22
-0.167031
32
-0.225899
13
0.839720
23
-0.167031
33
-0.225899
62
0
0
3DFACE
8
GEM
10
0.503376
20
0.503376
30
-0.270042
11
0.503376
21
0.503376
31
-0.225899
12
0.839720
22
0.167031
32
-0.225899
13
0.839720
23
0.167031
33
-0.225899
62
0
0
3DFACE
8
GEM
10
0.503376
20
0.503376
30
-0.270042
11
0.839720
21
0.167031
31
-0.225899
12
0.839720
22
0.167031
32
-0.270042
13
0.839720
23
0.167031
33
-0.270042
62
0
0
3DFACE
8
GEM
10
-0.503376
20
0.503376
30
-0.225899
11
-0.503376
21
0.503376
31
-0.270042
12
-0.839720
22
0.167031
32
-0.270042
13
-0.839720
23
0.167031
33
-0.270042
62
0
0
3DFACE
8
GEM
10
-0.503376
20
0.503376
30
-0.225899
11
-0.839720
21
0.167031
31
-0.270042
12
-0.839720
22
0.167031
32
-0.225899
13
-0.839720
23
0.167031
33
-0.225899
62
0
0
3DFACE
8
GEM
10
-0.503376
20
-0.503376
30
-0.270042
11
-0.503376
21
-0.503376
31
-0.225899
12
-0.839720
22
-0.167031
32
-0.225899
13
-0.839720
23
-0.167031
33
-0.225899
62
0
0
3DFACE
8
GEM
10
-0.503376
20
-0.503376
30
-0.270042
11
-0.839720
21
-0.167031
31
-0.225899
12
-0.839720
22
-0.167031
32
-0.270042
13
-0.839720
23
-0.167031
33
-0.270042
62
0
0
3DFACE
8
GEM
10
-0.839720
20
0.167031
30
-0.270042
11
-0.839720
21
-0.167031
31
-0.270042
12
-0.839720
22
-0.167031
32
-0.225899
13
-0.839720
23
-0.167031
33
-0.225899
62
0
0
3DFACE
8
GEM
10
-0.839720
20
0.167031
30
-0.270042
11
-0.839720
21
-0.167031
31
-0.225899
12
-0.839720
22
0.167031
32
-0.225899
13
-0.839720
23
0.167031
33
-0.225899
62
0
0
3DFACE
8
GEM
10
0.839720
20
-0.167031
30
-0.270042
11
0.839720
21
0.167031
31
-0.270042
12
0.839720
22
0.167031
32
-0.225899
13
0.839720
23
0.167031
33
-0.225899
62
0
0
3DFACE
8
GEM
10
0.839720
20
-0.167031
30
-0.270042
11
0.839720
21
0.167031
31
-0.225899
12
0.839720
22
-0.167031
32
-0.225899
13
0.839720
23
-0.167031
33
-0.225899
62
0
0
3DFACE
8
GEM
10
0.415038
20
-0.415038
30
-0.528609
11
0.839720
21
-0.167031
31
-0.270042
12
0.503376
22
-0.503376
32
-0.270042
13
0.503376
23
-0.503376
33
-0.270042
62
0
0
3DFACE
8
GEM
10
-0.415038
20
0.415038
30
-0.528609
11
-0.839720
21
0.167031
31
-0.270042
12
-0.503376
22
0.503376
32
-0.270042
13
-0.503376
23
0.503376
33
-0.270042
62
0
0
3DFACE
8
GEM
10
0.839720
20
0.167031
30
-0.270042
11
0.415038
21
0.415038
31
-0.528609
12
0.503376
22
0.503376
32
-0.270042
13
0.503376
23
0.503376
33
-0.270042
62
0
0
3DFACE
8
GEM
10
-0.839720
20
-0.167031
30
-0.270042
11
-0.415038
21
-0.415038
31
-0.528609
12
-0.503376
22
-0.503376
32
-0.270042
13
-0.503376
23
-0.503376
33
-0.270042
62
0
0
3DFACE
8
GEM
10
0.107865
20
-0.542274
30
-0.528609
11
0.415038
21
-0.415038
31
-0.528609
12
0.503376
22
-0.503376
32
-0.270042
13
0.503376
23
-0.503376
33
-0.270042
62
0
0
3DFACE
8
GEM
10
0.107865
20
-0.542274
30
-0.528609
11
0.503376
21
-0.503376
31
-0.270042
12
0.130823
22
-0.657692
32
-0.270042
13
0.130823
23
-0.657692
33
-0.270042
62
0
0
3DFACE
8
GEM
10
-0.107865
20
0.542274
30
-0.528609
11
-0.415038
21
0.415038
31
-0.528609
12
-0.503376
22
0.503376
32
-0.270042
13
-0.503376
23
0.503376
33
-0.270042
62
0
0
3DFACE
8
GEM
10
-0.107865
20
0.542274
30
-0.528609
11
-0.503376
21
0.503376
31
-0.270042
12
-0.130823
22
0.657692
32
-0.270042
13
-0.130823
23
0.657692
33
-0.270042
62
0
0
3DFACE
8
GEM
10
0.415038
20
0.415038
30
-0.528609
11
0.107865
21
0.542274
31
-0.528609
12
0.130823
22
0.657692
32
-0.270042
13
0.130823
23
0.657692
33
-0.270042
62
0
0
3DFACE
8
GEM
10
0.415038
20
0.415038
30
-0.528609
11
0.130823
21
0.657692
31
-0.270042
12
0.503376
22
0.503376
32
-0.270042
13
0.503376
23
0.503376
33
-0.270042
62
0
0
3DFACE
8
GEM
10
-0.415038
20
-0.415038
30
-0.528609
11
-0.107865
21
-0.542274
31
-0.528609
12
-0.130823
22
-0.657692
32
-0.270042
13
-0.130823
23
-0.657692
33
-0.270042
62
0
0
3DFACE
8
GEM
10
-0.415038
20
-0.415038
30
-0.528609
11
-0.130823
21
-0.657692
31
-0.270042
12
-0.503376
22
-0.503376
32
-0.270042
13
-0.503376
23
-0.503376
33
-0.270042
62
0
0
3DFACE
8
GEM
10
0.107865
20
0.542274
30
-0.528609
11
-0.107865
21
0.542274
31
-0.528609
12
-0.130823
22
0.657692
32
-0.270042
13
-0.130823
23
0.657692
33
-0.270042
62
0
0
3DFACE
8
GEM
10
0.107865
20
0.542274
30
-0.528609
11
-0.130823
21
0.657692
31
-0.270042
12
0.130823
22
0.657692
32
-0.270042
13
0.130823
23
0.657692
33
-0.270042
62
0
0
3DFACE
8
GEM
10
-0.107865
20
-0.542274
30
-0.528609
11
0.107865
21
-0.542274
31
-0.528609
12
0.130823
22
-0.657692
32
-0.270042
13
0.130823
23
-0.657692
33
-0.270042
62
0
0
3DFACE
8
GEM
10
-0.107865
20
-0.542274
30
-0.528609
11
0.130823
21
-0.657692
31
-0.270042
12
-0.130823
22
-0.657692
32
-0.270042
13
-0.130823
23
-0.657692
33
-0.270042
62
0
0
3DFACE
8
GEM
10
0.503376
20
0.503376
30
-0.225899
11
0.130823
21
0.657692
31
-0.225899
12
0.130847
22
0.504938
32
-0.115848
13
0.130847
23
0.504938
33
-0.115848
62
0
0
3DFACE
8
GEM
10
0.503376
20
0.503376
30
-0.225899
11
0.130847
21
0.504938
31
-0.115848
12
0.500077
22
0.500077
32
-0.222538
13
0.500077
23
0.500077
33
-0.222538
62
0
0
3DFACE
8
GEM
10
0.130823
20
-0.657692
30
-0.225899
11
0.503376
21
-0.503376
31
-0.225899
12
0.500077
22
-0.500077
32
-0.222538
13
0.500077
23
-0.500077
33
-0.222538
62
0
0
3DFACE
8
GEM
10
0.130823
20
-0.657692
30
-0.225899
11
0.500077
21
-0.500077
31
-0.222538
12
0.130847
22
-0.504938
32
-0.115848
13
0.130847
23
-0.504938
33
-0.115848
62
0
0
3DFACE
8
GEM
10
-0.503376
20
-0.503376
30
-0.225899
11
-0.130823
21
-0.657692
31
-0.225899
12
-0.130847
22
-0.504938
32
-0.115848
13
-0.130847
23
-0.504938
33
-0.115848
62
0
0
3DFACE
8
GEM
10
-0.503376
20
-0.503376
30
-0.225899
11
-0.130847
21
-0.504938
31
-0.115848
12
-0.500077
22
-0.500077
32
-0.222538
13
-0.500077
23
-0.500077
33
-0.222538
62
0
0
3DFACE
8
GEM
10
-0.130823
20
0.657692
30
-0.225899
11
-0.503376
21
0.503376
31
-0.225899
12
-0.500077
22
0.500077
32
-0.222538
13
-0.500077
23
0.500077
33
-0.222538
62
0
0
3DFACE
8
GEM
10
-0.130823
20
0.657692
30
-0.225899
11
-0.500077
21
0.500077
31
-0.222538
12
-0.130847
22
0.504938
32
-0.115848
13
-0.130847
23
0.504938
33
-0.115848
62
0
0
3DFACE
8
GEM
10
0.839720
20
0.167031
30
-0.225899
11
0.503376
21
0.503376
31
-0.225899
12
0.500077
22
0.500077
32
-0.222538
13
0.500077
23
0.500077
33
-0.222538
62
0
0
3DFACE
8
GEM
10
0.839720
20
0.167031
30
-0.225899
11
0.500077
21
0.500077
31
-0.222538
12
0.495880
22
0.166993
32
-0.050704
13
0.495880
23
0.166993
33
-0.050704
62
0
0
3DFACE
8
GEM
10
0.503376
20
-0.503376
30
-0.225899
11
0.839720
21
-0.167031
31
-0.225899
12
0.495880
22
-0.166993
32
-0.050704
13
0.495880
23
-0.166993
33
-0.050704
62
0
0
3DFACE
8
GEM
10
0.503376
20
-0.503376
30
-0.225899
11
0.495880
21
-0.166993
31
-0.050704
12
0.500077
22
-0.500077
32
-0.222538
13
0.500077
23
-0.500077
33
-0.222538
62
0
0
3DFACE
8
GEM
10
-0.839720
20
-0.167031
30
-0.225899
11
-0.503376
21
-0.503376
31
-0.225899
12
-0.500077
22
-0.500077
32
-0.222538
13
-0.500077
23
-0.500077
33
-0.222538
62
0
0
3DFACE
8
GEM
10
-0.839720
20
-0.167031
30
-0.225899
11
-0.500077
21
-0.500077
31
-0.222538
12
-0.495880
22
-0.166993
32
-0.050704
13
-0.495880
23
-0.166993
33
-0.050704
62
0
0
3DFACE
8
GEM
10
-0.503376
20
0.503376
30
-0.225899
11
-0.839720
21
0.167031
31
-0.225899
12
-0.495880
22
0.166993
32
-0.050704
13
-0.495880
23
0.166993
33
-0.050704
62
0
0
3DFACE
8
GEM
10
-0.503376
20
0.503376
30
-0.225899
11
-0.495880
21
0.166993
31
-0.050704
12
-0.500077
22
0.500077
32
-0.222538
13
-0.500077
23
0.500077
33
-0.222538
62
0
0
3DFACE
8
GEM
10
0.130823
20
0.657692
30
-0.225899
11
-0.130823
21
0.657692
31
-0.225899
12
-0.130847
22
0.504938
32
-0.115848
13
-0.130847
23
0.504938
33
-0.115848
62
0
0
3DFACE
8
GEM
10
0.130823
20
0.657692
30
-0.225899
11
-0.130847
21
0.504938
31
-0.115848
12
0.130847
22
0.504938
32
-0.115848
13
0.130847
23
0.504938
33
-0.115848
62
0
0
3DFACE
8
GEM
10
-0.130823
20
-0.657692
30
-0.225899
11
0.130823
21
-0.657692
31
-0.225899
12
0.130847
22
-0.504938
32
-0.115848
13
0.130847
23
-0.504938
33
-0.115848
62
0
0
3DFACE
8
GEM
10
-0.130823
20
-0.657692
30
-0.225899
11
0.130847
21
-0.504938
31
-0.115848
12
-0.130847
22
-0.504938
32
-0.115848
13
-0.130847
23
-0.504938
33
-0.115848
62
0
0
3DFACE
8
GEM
10
-0.839720
20
0.167031
30
-0.225899
11
-0.839720
21
-0.167031
31
-0.225899
12
-0.495880
22
-0.166993
32
-0.050704
13
-0.495880
23
-0.166993
33
-0.050704
62
0
0
3DFACE
8
GEM
10
-0.839720
20
0.167031
30
-0.225899
11
-0.495880
21
-0.166993
31
-0.050704
12
-0.495880
22
0.166993
32
-0.050704
13
-0.495880
23
0.166993
33
-0.050704
62
0
0
3DFACE
8
GEM
10
0.839720
20
-0.167031
30
-0.225899
11
0.839720
21
0.167031
31
-0.225899
12
0.495880
22
0.166993
32
-0.050704
13
0.495880
23
0.166993
33
-0.050704
62
0
0
3DFACE
8
GEM
10
0.839720
20
-0.167031
30
-0.225899
11
0.495880
21
0.166993
31
-0.050704
12
0.495880
22
-0.166993
32
-0.050704
13
0.495880
23
-0.166993
33
-0.050704
62
0
0
3DFACE
8
GEM
10
-0.500077
20
-0.500077
30
-0.222538
11
-0.130847
21
-0.504938
31
-0.115848
12
-0.130847
22
-0.166976
32
0.057244
13
-0.130847
23
-0.166976
33
0.057244
62
0
0
3DFACE
8
GEM
10
-0.500077
20
-0.500077
30
-0.222538
11
-0.130847
21
-0.166976
31
0.057244
12
-0.495880
22
-0.166993
32
-0.050704
13
-0.495880
23
-0.166993
33
-0.050704
62
0
0
3DFACE
8
GEM
10
0.500077
20
0.500077
30
-0.222538
11
0.130847
21
0.504938
31
-0.115848
12
0.130847
22
0.166976
32
0.057244
13
0.130847
23
0.166976
33
0.057244
62
0
0
3DFACE
8
GEM
10
0.500077
20
0.500077
30
-0.222538
11
0.130847
21
0.166976
31
0.057244
12
0.495880
22
0.166993
32
-0.050704
13
0.495880
23
0.166993
33
-0.050704
62
0
0
3DFACE
8
GEM
10
-0.130847
20
0.504938
30
-0.115848
11
-0.500077
21
0.500077
31
-0.222538
12
-0.495880
22
0.166993
32
-0.050704
13
-0.495880
23
0.166993
33
-0.050704
62
0
0
3DFACE
8
GEM
10
-0.130847
20
0.504938
30
-0.115848
11
-0.495880
21
0.166993
31
-0.050704
12
-0.130847
22
0.166976
32
0.057244
13
-0.130847
23
0.166976
33
0.057244
62
0
0
3DFACE
8
GEM
10
0.130847
20
-0.504938
30
-0.115848
11
0.500077
21
-0.500077
31
-0.222538
12
0.495880
22
-0.166993
32
-0.050704
13
0.495880
23
-0.166993
33
-0.050704
62
0
0
3DFACE
8
GEM
10
0.130847
20
-0.504938
30
-0.115848
11
0.495880
21
-0.166993
31
-0.050704
12
0.130847
22
-0.166976
32
0.057244
13
0.130847
23
-0.166976
33
0.057244
62
0
0
3DFACE
8
GEM
10
-0.495880
20
0.166993
30
-0.050704
11
-0.495880
21
-0.166993
31
-0.050704
12
-0.130847
22
-0.166976
32
0.057244
13
-0.130847
23
-0.166976
33
0.057244
62
0
0
3DFACE
8
GEM
10
-0.495880
20
0.166993
30
-0.050704
11
-0.130847
21
-0.166976
31
0.057244
12
-0.130847
22
0.166976
32
0.057244
13
-0.130847
23
0.166976
33
0.057244
62
0
0
3DFACE
8
GEM
10
0.495880
20
-0.166993
30
-0.050704
11
0.495880
21
0.166993
31
-0.050704
12
0.130847
22
0.166976
32
0.057244
13
0.130847
23
0.166976
33
0.057244
62
0
0
3DFACE
8
GEM
10
0.495880
20
-0.166993
30
-0.050704
11
0.130847
21
0.166976
31
0.057244
12
0.130847
22
-0.166976
32
0.057244
13
0.130847
23
-0.166976
33
0.057244
62
0
0
3DFACE
8
GEM
10
0.130847
20
0.504938
30
-0.115848
11
-0.130847
21
0.504938
31
-0.115848
12
-0.130847
22
0.166976
32
0.057244
13
-0.130847
23
0.166976
33
0.057244
62
0
0
3DFACE
8
GEM
10
0.130847
20
0.504938
30
-0.115848
11
-0.130847
21
0.166976
31
0.057244
12
0.130847
22
0.166976
32
0.057244
13
0.130847
23
0.166976
33
0.057244
62
0
0
3DFACE
8
GEM
10
-0.130847
20
-0.504938
30
-0.115848
11
0.130847
21
-0.504938
31
-0.115848
12
0.130847
22
-0.166976
32
0.057244
13
0.130847
23
-0.166976
33
0.057244
62
0
0
3DFACE
8
GEM
10
-0.130847
20
-0.504938
30
-0.115848
11
0.130847
21
-0.166976
31
0.057244
12
-0.130847
22
-0.166976
32
0.057244
13
-0.130847
23
-0.166976
33
0.057244
62
0
0
3DFACE
8
GEM
10
-0.130847
20
0.166976
30
0.057244
11
-0.130847
21
-0.166976
31
0.057244
12
0.130847
22
-0.166976
32
0.057244
13
0.130847
23
-0.166976
33
0.057244
62
0
0
3DFACE
8
GEM
10
-0.130847
20
0.166976
30
0.057244
11
0.130847
21
-0.166976
31
0.057244
12
0.130847
22
0.166976
32
0.057244
13
0.130847
23
0.166976
33
0.057244
62
0
0
ENDSEC
0
EOF
