999
DXF gemstone file C:\Projects\pov_spectral\gems\Bugbarionegg.dxf created by GemCad for Windows
0
SECTION
2
HEADER
0
ENDSEC
0
SECTION
2
TABLES
0
TABLE
2
LAYER
70
153
0
LAYER
2
GEM
70
0
62
15
6
CONTINUOUS
0
ENDTAB
0
ENDSEC
0
SECTION
2
ENTITIES
0
3DFACE
8
GEM
10
-0.000000
20
-0.000000
30
-1.000000
11
0.415038
21
0.415038
31
-0.528609
12
0.542274
22
0.107865
32
-0.528609
13
0.542274
23
0.107865
33
-0.528609
62
0
0
3DFACE
8
GEM
10
0.415038
20
0.415038
30
-0.528609
11
-0.000000
21
-0.000000
31
-1.000000
12
0.107865
22
0.542274
32
-0.528609
13
0.107865
23
0.542274
33
-0.528609
62
0
0
3DFACE
8
GEM
10
-0.000000
20
-0.000000
30
-1.000000
11
-0.415038
21
0.415038
31
-0.528609
12
-0.107865
22
0.542274
32
-0.528609
13
-0.107865
23
0.542274
33
-0.528609
62
0
0
3DFACE
8
GEM
10
-0.415038
20
0.415038
30
-0.528609
11
-0.000000
21
-0.000000
31
-1.000000
12
-0.542274
22
0.107865
32
-0.528609
13
-0.542274
23
0.107865
33
-0.528609
62
0
0
3DFACE
8
GEM
10
-0.000000
20
-0.000000
30
-1.000000
11
-0.415038
21
-0.415038
31
-0.528609
12
-0.542274
22
-0.107865
32
-0.528609
13
-0.542274
23
-0.107865
33
-0.528609
62
0
0
3DFACE
8
GEM
10
-0.415038
20
-0.415038
30
-0.528609
11
-0.000000
21
-0.000000
31
-1.000000
12
-0.167031
22
-0.839720
32
-0.270042
13
-0.167031
23
-0.839720
33
-0.270042
62
0
0
3DFACE
8
GEM
10
-0.000000
20
-0.000000
30
-1.000000
11
0.415038
21
-0.415038
31
-0.528609
12
0.167031
22
-0.839720
32
-0.270042
13
0.167031
23
-0.839720
33
-0.270042
62
0
0
3DFACE
8
GEM
10
0.415038
20
-0.415038
30
-0.528609
11
-0.000000
21
-0.000000
31
-1.000000
12
0.542274
22
-0.107865
32
-0.528609
13
0.542274
23
-0.107865
33
-0.528609
62
0
0
3DFACE
8
GEM
10
-0.000000
20
-0.000000
30
-1.000000
11
0.542274
21
0.107865
31
-0.528609
12
0.542274
22
-0.107865
32
-0.528609
13
0.542274
23
-0.107865
33
-0.528609
62
0
0
3DFACE
8
GEM
10
-0.542274
20
0.107865
30
-0.528609
11
-0.000000
21
-0.000000
31
-1.000000
12
-0.542274
22
-0.107865
32
-0.528609
13
-0.542274
23
-0.107865
33
-0.528609
62
0
0
3DFACE
8
GEM
10
0.107865
20
0.542274
30
-0.528609
11
-0.000000
21
-0.000000
31
-1.000000
12
-0.107865
22
0.542274
32
-0.528609
13
-0.107865
23
0.542274
33
-0.528609
62
0
0
3DFACE
8
GEM
10
-0.167031
20
-0.839720
30
-0.270042
11
-0.000000
21
-0.000000
31
-1.000000
12
0.167031
22
-0.839720
32
-0.270042
13
0.167031
23
-0.839720
33
-0.270042
62
0
0
3DFACE
8
GEM
10
-0.415038
20
-0.415038
30
-0.528609
11
-0.167031
21
-0.839720
31
-0.270042
12
-0.503376
22
-0.503376
32
-0.270042
13
-0.503376
23
-0.503376
33
-0.270042
62
0
0
3DFACE
8
GEM
10
0.167031
20
-0.839720
30
-0.270042
11
0.415038
21
-0.415038
31
-0.528609
12
0.503376
22
-0.503376
32
-0.270042
13
0.503376
23
-0.503376
33
-0.270042
62
0
0
3DFACE
8
GEM
10
-0.542274
20
-0.107865
30
-0.528609
11
-0.415038
21
-0.415038
31
-0.528609
12
-0.503376
22
-0.503376
32
-0.270042
13
-0.503376
23
-0.503376
33
-0.270042
62
0
0
3DFACE
8
GEM
10
-0.542274
20
-0.107865
30
-0.528609
11
-0.503376
21
-0.503376
31
-0.270042
12
-0.657692
22
-0.130823
32
-0.270042
13
-0.657692
23
-0.130823
33
-0.270042
62
0
0
3DFACE
8
GEM
10
0.542274
20
0.107865
30
-0.528609
11
0.415038
21
0.415038
31
-0.528609
12
0.503376
22
0.503376
32
-0.270042
13
0.503376
23
0.503376
33
-0.270042
62
0
0
3DFACE
8
GEM
10
0.542274
20
0.107865
30
-0.528609
11
0.503376
21
0.503376
31
-0.270042
12
0.657692
22
0.130823
32
-0.270042
13
0.657692
23
0.130823
33
-0.270042
62
0
0
3DFACE
8
GEM
10
0.415038
20
-0.415038
30
-0.528609
11
0.542274
21
-0.107865
31
-0.528609
12
0.657692
22
-0.130823
32
-0.270042
13
0.657692
23
-0.130823
33
-0.270042
62
0
0
3DFACE
8
GEM
10
0.415038
20
-0.415038
30
-0.528609
11
0.657692
21
-0.130823
31
-0.270042
12
0.503376
22
-0.503376
32
-0.270042
13
0.503376
23
-0.503376
33
-0.270042
62
0
0
3DFACE
8
GEM
10
-0.415038
20
0.415038
30
-0.528609
11
-0.542274
21
0.107865
31
-0.528609
12
-0.657692
22
0.130823
32
-0.270042
13
-0.657692
23
0.130823
33
-0.270042
62
0
0
3DFACE
8
GEM
10
-0.415038
20
0.415038
30
-0.528609
11
-0.657692
21
0.130823
31
-0.270042
12
-0.503376
22
0.503376
32
-0.270042
13
-0.503376
23
0.503376
33
-0.270042
62
0
0
3DFACE
8
GEM
10
0.542274
20
-0.107865
30
-0.528609
11
0.542274
21
0.107865
31
-0.528609
12
0.657692
22
0.130823
32
-0.270042
13
0.657692
23
0.130823
33
-0.270042
62
0
0
3DFACE
8
GEM
10
0.542274
20
-0.107865
30
-0.528609
11
0.657692
21
0.130823
31
-0.270042
12
0.657692
22
-0.130823
32
-0.270042
13
0.657692
23
-0.130823
33
-0.270042
62
0
0
3DFACE
8
GEM
10
-0.542274
20
0.107865
30
-0.528609
11
-0.542274
21
-0.107865
31
-0.528609
12
-0.657692
22
-0.130823
32
-0.270042
13
-0.657692
23
-0.130823
33
-0.270042
62
0
0
3DFACE
8
GEM
10
-0.542274
20
0.107865
30
-0.528609
11
-0.657692
21
-0.130823
31
-0.270042
12
-0.657692
22
0.130823
32
-0.270042
13
-0.657692
23
0.130823
33
-0.270042
62
0
0
3DFACE
8
GEM
10
-0.107865
20
0.542274
30
-0.528609
11
-0.415038
21
0.415038
31
-0.528609
12
-0.503376
22
0.503376
32
-0.270042
13
-0.503376
23
0.503376
33
-0.270042
62
0
0
3DFACE
8
GEM
10
-0.107865
20
0.542274
30
-0.528609
11
-0.503376
21
0.503376
31
-0.270042
12
-0.130823
22
0.657692
32
-0.270042
13
-0.130823
23
0.657692
33
-0.270042
62
0
0
3DFACE
8
GEM
10
0.415038
20
0.415038
30
-0.528609
11
0.107865
21
0.542274
31
-0.528609
12
0.130823
22
0.657692
32
-0.270042
13
0.130823
23
0.657692
33
-0.270042
62
0
0
3DFACE
8
GEM
10
0.415038
20
0.415038
30
-0.528609
11
0.130823
21
0.657692
31
-0.270042
12
0.503376
22
0.503376
32
-0.270042
13
0.503376
23
0.503376
33
-0.270042
62
0
0
3DFACE
8
GEM
10
0.107865
20
0.542274
30
-0.528609
11
-0.107865
21
0.542274
31
-0.528609
12
-0.130823
22
0.657692
32
-0.270042
13
-0.130823
23
0.657692
33
-0.270042
62
0
0
3DFACE
8
GEM
10
0.107865
20
0.542274
30
-0.528609
11
-0.130823
21
0.657692
31
-0.270042
12
0.130823
22
0.657692
32
-0.270042
13
0.130823
23
0.657692
33
-0.270042
62
0
0
3DFACE
8
GEM
10
-0.503376
20
-0.503376
30
-0.270042
11
-0.167031
21
-0.839720
31
-0.270042
12
-0.167031
22
-0.839720
32
-0.225899
13
-0.167031
23
-0.839720
33
-0.225899
62
0
0
3DFACE
8
GEM
10
-0.503376
20
-0.503376
30
-0.270042
11
-0.167031
21
-0.839720
31
-0.225899
12
-0.503376
22
-0.503376
32
-0.225899
13
-0.503376
23
-0.503376
33
-0.225899
62
0
0
3DFACE
8
GEM
10
0.167031
20
-0.839720
30
-0.270042
11
0.503376
21
-0.503376
31
-0.270042
12
0.503376
22
-0.503376
32
-0.225899
13
0.503376
23
-0.503376
33
-0.225899
62
0
0
3DFACE
8
GEM
10
0.167031
20
-0.839720
30
-0.270042
11
0.503376
21
-0.503376
31
-0.225899
12
0.167031
22
-0.839720
32
-0.225899
13
0.167031
23
-0.839720
33
-0.225899
62
0
0
3DFACE
8
GEM
10
-0.503376
20
0.503376
30
-0.270042
11
-0.657692
21
0.130823
31
-0.270042
12
-0.657692
22
0.130823
32
-0.225899
13
-0.657692
23
0.130823
33
-0.225899
62
0
0
3DFACE
8
GEM
10
-0.503376
20
0.503376
30
-0.270042
11
-0.657692
21
0.130823
31
-0.225899
12
-0.503376
22
0.503376
32
-0.225899
13
-0.503376
23
0.503376
33
-0.225899
62
0
0
3DFACE
8
GEM
10
-0.130823
20
0.657692
30
-0.270042
11
-0.503376
21
0.503376
31
-0.270042
12
-0.503376
22
0.503376
32
-0.225899
13
-0.503376
23
0.503376
33
-0.225899
62
0
0
3DFACE
8
GEM
10
-0.130823
20
0.657692
30
-0.270042
11
-0.503376
21
0.503376
31
-0.225899
12
-0.500015
22
0.504767
32
-0.223627
13
-0.500015
23
0.504767
33
-0.223627
62
0
0
3DFACE
8
GEM
10
-0.130823
20
0.657692
30
-0.270042
11
-0.500015
21
0.504767
31
-0.223627
12
-0.130823
22
0.657692
32
-0.223627
13
-0.130823
23
0.657692
33
-0.223627
62
0
0
3DFACE
8
GEM
10
0.503376
20
0.503376
30
-0.270042
11
0.130823
21
0.657692
31
-0.270042
12
0.130823
22
0.657692
32
-0.223627
13
0.130823
23
0.657692
33
-0.223627
62
0
0
3DFACE
8
GEM
10
0.503376
20
0.503376
30
-0.270042
11
0.130823
21
0.657692
31
-0.223627
12
0.500015
22
0.504767
32
-0.223627
13
0.500015
23
0.504767
33
-0.223627
62
0
0
3DFACE
8
GEM
10
0.503376
20
0.503376
30
-0.270042
11
0.500015
21
0.504767
31
-0.223627
12
0.503376
22
0.503376
32
-0.225899
13
0.503376
23
0.503376
33
-0.225899
62
0
0
3DFACE
8
GEM
10
0.130823
20
0.657692
30
-0.270042
11
-0.130823
21
0.657692
31
-0.270042
12
-0.130823
22
0.657692
32
-0.223627
13
-0.130823
23
0.657692
33
-0.223627
62
0
0
3DFACE
8
GEM
10
0.130823
20
0.657692
30
-0.270042
11
-0.130823
21
0.657692
31
-0.223627
12
0.130823
22
0.657692
32
-0.223627
13
0.130823
23
0.657692
33
-0.223627
62
0
0
3DFACE
8
GEM
10
-0.657692
20
-0.130823
30
-0.270042
11
-0.503376
21
-0.503376
31
-0.270042
12
-0.503376
22
-0.503376
32
-0.225899
13
-0.503376
23
-0.503376
33
-0.225899
62
0
0
3DFACE
8
GEM
10
-0.657692
20
-0.130823
30
-0.270042
11
-0.503376
21
-0.503376
31
-0.225899
12
-0.657692
22
-0.130823
32
-0.225899
13
-0.657692
23
-0.130823
33
-0.225899
62
0
0
3DFACE
8
GEM
10
0.503376
20
-0.503376
30
-0.270042
11
0.657692
21
-0.130823
31
-0.270042
12
0.657692
22
-0.130823
32
-0.225899
13
0.657692
23
-0.130823
33
-0.225899
62
0
0
3DFACE
8
GEM
10
0.503376
20
-0.503376
30
-0.270042
11
0.657692
21
-0.130823
31
-0.225899
12
0.503376
22
-0.503376
32
-0.225899
13
0.503376
23
-0.503376
33
-0.225899
62
0
0
3DFACE
8
GEM
10
0.657692
20
-0.130823
30
-0.270042
11
0.657692
21
0.130823
31
-0.270042
12
0.657692
22
0.130823
32
-0.225899
13
0.657692
23
0.130823
33
-0.225899
62
0
0
3DFACE
8
GEM
10
0.657692
20
-0.130823
30
-0.270042
11
0.657692
21
0.130823
31
-0.225899
12
0.657692
22
-0.130823
32
-0.225899
13
0.657692
23
-0.130823
33
-0.225899
62
0
0
3DFACE
8
GEM
10
-0.657692
20
0.130823
30
-0.270042
11
-0.657692
21
-0.130823
31
-0.270042
12
-0.657692
22
-0.130823
32
-0.225899
13
-0.657692
23
-0.130823
33
-0.225899
62
0
0
3DFACE
8
GEM
10
-0.657692
20
0.130823
30
-0.270042
11
-0.657692
21
-0.130823
31
-0.225899
12
-0.657692
22
0.130823
32
-0.225899
13
-0.657692
23
0.130823
33
-0.225899
62
0
0
3DFACE
8
GEM
10
0.657692
20
0.130823
30
-0.270042
11
0.503376
21
0.503376
31
-0.270042
12
0.503376
22
0.503376
32
-0.225899
13
0.503376
23
0.503376
33
-0.225899
62
0
0
3DFACE
8
GEM
10
0.657692
20
0.130823
30
-0.270042
11
0.503376
21
0.503376
31
-0.225899
12
0.657692
22
0.130823
32
-0.225899
13
0.657692
23
0.130823
33
-0.225899
62
0
0
3DFACE
8
GEM
10
-0.167031
20
-0.839720
30
-0.270042
11
0.167031
21
-0.839720
31
-0.270042
12
0.167031
22
-0.839720
32
-0.225899
13
0.167031
23
-0.839720
33
-0.225899
62
0
0
3DFACE
8
GEM
10
-0.167031
20
-0.839720
30
-0.270042
11
0.167031
21
-0.839720
31
-0.225899
12
-0.167031
22
-0.839720
32
-0.225899
13
-0.167031
23
-0.839720
33
-0.225899
62
0
0
3DFACE
8
GEM
10
0.500015
20
0.504767
30
-0.223627
11
0.130823
21
0.657692
31
-0.223627
12
0.166993
22
0.503375
32
-0.029895
13
0.166993
23
0.503375
33
-0.029895
62
0
0
3DFACE
8
GEM
10
-0.130823
20
0.657692
30
-0.223627
11
-0.500015
21
0.504767
31
-0.223627
12
-0.166993
22
0.503375
32
-0.029895
13
-0.166993
23
0.503375
33
-0.029895
62
0
0
3DFACE
8
GEM
10
0.130823
20
0.657692
30
-0.223627
11
-0.130823
21
0.657692
31
-0.223627
12
-0.166993
22
0.503375
32
-0.029895
13
-0.166993
23
0.503375
33
-0.029895
62
0
0
3DFACE
8
GEM
10
0.130823
20
0.657692
30
-0.223627
11
-0.166993
21
0.503375
31
-0.029895
12
0.166993
22
0.503375
32
-0.029895
13
0.166993
23
0.503375
33
-0.029895
62
0
0
3DFACE
8
GEM
10
-0.657692
20
-0.130823
30
-0.225899
11
-0.503376
21
-0.503376
31
-0.225899
12
-0.500077
22
-0.500077
32
-0.222091
13
-0.500077
23
-0.500077
33
-0.222091
62
0
0
3DFACE
8
GEM
10
-0.657692
20
-0.130823
30
-0.225899
11
-0.500077
21
-0.500077
31
-0.222091
12
-0.504938
22
-0.130847
32
-0.101198
13
-0.504938
23
-0.130847
33
-0.101198
62
0
0
3DFACE
8
GEM
10
-0.503376
20
0.503376
30
-0.225899
11
-0.657692
21
0.130823
31
-0.225899
12
-0.504938
22
0.130847
32
-0.101198
13
-0.504938
23
0.130847
33
-0.101198
62
0
0
3DFACE
8
GEM
10
-0.503376
20
0.503376
30
-0.225899
11
-0.504938
21
0.130847
31
-0.101198
12
-0.500015
22
0.504767
32
-0.223627
13
-0.500015
23
0.504767
33
-0.223627
62
0
0
3DFACE
8
GEM
10
0.503376
20
0.503376
30
-0.225899
11
0.500015
21
0.504767
31
-0.223627
12
0.504938
22
0.130847
32
-0.101198
13
0.504938
23
0.130847
33
-0.101198
62
0
0
3DFACE
8
GEM
10
0.503376
20
0.503376
30
-0.225899
11
0.504938
21
0.130847
31
-0.101198
12
0.657692
22
0.130823
32
-0.225899
13
0.657692
23
0.130823
33
-0.225899
62
0
0
3DFACE
8
GEM
10
0.503376
20
-0.503376
30
-0.225899
11
0.657692
21
-0.130823
31
-0.225899
12
0.504938
22
-0.130847
32
-0.101198
13
0.504938
23
-0.130847
33
-0.101198
62
0
0
3DFACE
8
GEM
10
0.503376
20
-0.503376
30
-0.225899
11
0.504938
21
-0.130847
31
-0.101198
12
0.500077
22
-0.500077
32
-0.222091
13
0.500077
23
-0.500077
33
-0.222091
62
0
0
3DFACE
8
GEM
10
-0.657692
20
0.130823
30
-0.225899
11
-0.657692
21
-0.130823
31
-0.225899
12
-0.504938
22
-0.130847
32
-0.101198
13
-0.504938
23
-0.130847
33
-0.101198
62
0
0
3DFACE
8
GEM
10
-0.657692
20
0.130823
30
-0.225899
11
-0.504938
21
-0.130847
31
-0.101198
12
-0.504938
22
0.130847
32
-0.101198
13
-0.504938
23
0.130847
33
-0.101198
62
0
0
3DFACE
8
GEM
10
0.657692
20
-0.130823
30
-0.225899
11
0.657692
21
0.130823
31
-0.225899
12
0.504938
22
0.130847
32
-0.101198
13
0.504938
23
0.130847
33
-0.101198
62
0
0
3DFACE
8
GEM
10
0.657692
20
-0.130823
30
-0.225899
11
0.504938
21
0.130847
31
-0.101198
12
0.504938
22
-0.130847
32
-0.101198
13
0.504938
23
-0.130847
33
-0.101198
62
0
0
3DFACE
8
GEM
10
-0.503376
20
-0.503376
30
-0.225899
11
-0.167031
21
-0.839720
31
-0.225899
12
-0.166993
22
-0.495880
32
-0.027383
13
-0.166993
23
-0.495880
33
-0.027383
62
0
0
3DFACE
8
GEM
10
-0.503376
20
-0.503376
30
-0.225899
11
-0.166993
21
-0.495880
31
-0.027383
12
-0.500077
22
-0.500077
32
-0.222091
13
-0.500077
23
-0.500077
33
-0.222091
62
0
0
3DFACE
8
GEM
10
0.167031
20
-0.839720
30
-0.225899
11
0.503376
21
-0.503376
31
-0.225899
12
0.500077
22
-0.500077
32
-0.222091
13
0.500077
23
-0.500077
33
-0.222091
62
0
0
3DFACE
8
GEM
10
0.167031
20
-0.839720
30
-0.225899
11
0.500077
21
-0.500077
31
-0.222091
12
0.166993
22
-0.495880
32
-0.027383
13
0.166993
23
-0.495880
33
-0.027383
62
0
0
3DFACE
8
GEM
10
-0.167031
20
-0.839720
30
-0.225899
11
0.167031
21
-0.839720
31
-0.225899
12
0.166993
22
-0.495880
32
-0.027383
13
0.166993
23
-0.495880
33
-0.027383
62
0
0
3DFACE
8
GEM
10
-0.167031
20
-0.839720
30
-0.225899
11
0.166993
21
-0.495880
31
-0.027383
12
-0.166993
22
-0.495880
32
-0.027383
13
-0.166993
23
-0.495880
33
-0.027383
62
0
0
3DFACE
8
GEM
10
-0.166993
20
0.503375
30
-0.029895
11
-0.500015
21
0.504767
31
-0.223627
12
-0.504938
22
0.130847
32
-0.101198
13
-0.504938
23
0.130847
33
-0.101198
62
0
0
3DFACE
8
GEM
10
-0.166993
20
0.503375
30
-0.029895
11
-0.504938
21
0.130847
31
-0.101198
12
-0.166976
22
0.130847
32
0.094934
13
-0.166976
23
0.130847
33
0.094934
62
0
0
3DFACE
8
GEM
10
0.500077
20
-0.500077
30
-0.222091
11
0.504938
21
-0.130847
31
-0.101198
12
0.166976
22
-0.130847
32
0.094934
13
0.166976
23
-0.130847
33
0.094934
62
0
0
3DFACE
8
GEM
10
0.500077
20
-0.500077
30
-0.222091
11
0.166976
21
-0.130847
31
0.094934
12
0.166993
22
-0.495880
32
-0.027383
13
0.166993
23
-0.495880
33
-0.027383
62
0
0
3DFACE
8
GEM
10
0.500015
20
0.504767
30
-0.223627
11
0.166993
21
0.503375
31
-0.029895
12
0.166976
22
0.130847
32
0.094934
13
0.166976
23
0.130847
33
0.094934
62
0
0
3DFACE
8
GEM
10
0.500015
20
0.504767
30
-0.223627
11
0.166976
21
0.130847
31
0.094934
12
0.504938
22
0.130847
32
-0.101198
13
0.504938
23
0.130847
33
-0.101198
62
0
0
3DFACE
8
GEM
10
-0.504938
20
-0.130847
30
-0.101198
11
-0.500077
21
-0.500077
31
-0.222091
12
-0.166993
22
-0.495880
32
-0.027383
13
-0.166993
23
-0.495880
33
-0.027383
62
0
0
3DFACE
8
GEM
10
-0.504938
20
-0.130847
30
-0.101198
11
-0.166993
21
-0.495880
31
-0.027383
12
-0.166976
22
-0.130847
32
0.094934
13
-0.166976
23
-0.130847
33
0.094934
62
0
0
3DFACE
8
GEM
10
0.504938
20
-0.130847
30
-0.101198
11
0.504938
21
0.130847
31
-0.101198
12
0.166976
22
0.130847
32
0.094934
13
0.166976
23
0.130847
33
0.094934
62
0
0
3DFACE
8
GEM
10
0.504938
20
-0.130847
30
-0.101198
11
0.166976
21
0.130847
31
0.094934
12
0.166976
22
-0.130847
32
0.094934
13
0.166976
23
-0.130847
33
0.094934
62
0
0
3DFACE
8
GEM
10
-0.504938
20
0.130847
30
-0.101198
11
-0.504938
21
-0.130847
31
-0.101198
12
-0.166976
22
-0.130847
32
0.094934
13
-0.166976
23
-0.130847
33
0.094934
62
0
0
3DFACE
8
GEM
10
-0.504938
20
0.130847
30
-0.101198
11
-0.166976
21
-0.130847
31
0.094934
12
-0.166976
22
0.130847
32
0.094934
13
-0.166976
23
0.130847
33
0.094934
62
0
0
3DFACE
8
GEM
10
-0.166993
20
-0.495880
30
-0.027383
11
0.166993
21
-0.495880
31
-0.027383
12
0.166976
22
-0.130847
32
0.094934
13
0.166976
23
-0.130847
33
0.094934
62
0
0
3DFACE
8
GEM
10
-0.166993
20
-0.495880
30
-0.027383
11
0.166976
21
-0.130847
31
0.094934
12
-0.166976
22
-0.130847
32
0.094934
13
-0.166976
23
-0.130847
33
0.094934
62
0
0
3DFACE
8
GEM
10
0.166993
20
0.503375
30
-0.029895
11
-0.166993
21
0.503375
31
-0.029895
12
-0.166976
22
0.130847
32
0.094934
13
-0.166976
23
0.130847
33
0.094934
62
0
0
3DFACE
8
GEM
10
0.166993
20
0.503375
30
-0.029895
11
-0.166976
21
0.130847
31
0.094934
12
0.166976
22
0.130847
32
0.094934
13
0.166976
23
0.130847
33
0.094934
62
0
0
3DFACE
8
GEM
10
0.166976
20
-0.130847
30
0.094934
11
0.166976
21
0.130847
31
0.094934
12
-0.166976
22
0.130847
32
0.094934
13
-0.166976
23
0.130847
33
0.094934
62
0
0
3DFACE
8
GEM
10
0.166976
20
-0.130847
30
0.094934
11
-0.166976
21
0.130847
31
0.094934
12
-0.166976
22
-0.130847
32
0.094934
13
-0.166976
23
-0.130847
33
0.094934
62
0
0
ENDSEC
0
EOF
