999
DXF gemstone file C:\temp\_gems\Maya_drop.dxf created by GemCad for Windows
0
SECTION
2
HEADER
0
ENDSEC
0
SECTION
2
TABLES
0
TABLE
2
LAYER
70
153
0
LAYER
2
GEM
70
0
62
15
6
CONTINUOUS
0
ENDTAB
0
ENDSEC
0
SECTION
2
ENTITIES
0
3DFACE
8
GEM
10
0.599456
20
-0.400544
30
-0.092524
11
-0.000000
21
-1.000000
31
-0.092524
12
0.105642
22
-0.127242
32
-0.593459
13
0.105642
23
-0.127242
33
-0.593459
62
0
0
3DFACE
8
GEM
10
0.707107
20
-0.140652
30
-0.092524
11
0.599456
21
-0.400544
31
-0.092524
12
0.201227
22
-0.083351
32
-0.544392
13
0.201227
23
-0.083351
33
-0.544392
62
0
0
3DFACE
8
GEM
10
0.707107
20
0.140652
30
-0.092524
11
0.707107
21
-0.140652
31
-0.092524
12
0.217806
22
-0.000000
32
-0.544392
13
0.217806
23
-0.000000
33
-0.544392
62
0
0
3DFACE
8
GEM
10
0.599456
20
0.400544
30
-0.092524
11
0.707107
21
0.140652
31
-0.092524
12
0.201227
22
0.083351
32
-0.544392
13
0.201227
23
0.083351
33
-0.544392
62
0
0
3DFACE
8
GEM
10
0.400544
20
0.599456
30
-0.092524
11
0.599456
21
0.400544
31
-0.092524
12
0.154012
22
0.154012
32
-0.544392
13
0.154012
23
0.154012
33
-0.544392
62
0
0
3DFACE
8
GEM
10
-0.000000
20
0.096581
30
-0.663132
11
-0.000000
21
0.765367
31
-0.092524
12
0.400544
22
0.599456
32
-0.092524
13
0.400544
23
0.599456
33
-0.092524
62
0
0
3DFACE
8
GEM
10
-0.000000
20
0.765367
30
-0.092524
11
-0.000000
21
0.096581
31
-0.663132
12
-0.400544
22
0.599456
32
-0.092524
13
-0.400544
23
0.599456
33
-0.092524
62
0
0
3DFACE
8
GEM
10
-0.599456
20
0.400544
30
-0.092524
11
-0.400544
21
0.599456
31
-0.092524
12
-0.154012
22
0.154012
32
-0.544392
13
-0.154012
23
0.154012
33
-0.544392
62
0
0
3DFACE
8
GEM
10
-0.707107
20
0.140652
30
-0.092524
11
-0.599456
21
0.400544
31
-0.092524
12
-0.201227
22
0.083351
32
-0.544392
13
-0.201227
23
0.083351
33
-0.544392
62
0
0
3DFACE
8
GEM
10
-0.707107
20
-0.140652
30
-0.092524
11
-0.707107
21
0.140652
31
-0.092524
12
-0.217806
22
-0.000000
32
-0.544392
13
-0.217806
23
-0.000000
33
-0.544392
62
0
0
3DFACE
8
GEM
10
-0.599456
20
-0.400544
30
-0.092524
11
-0.707107
21
-0.140652
31
-0.092524
12
-0.201227
22
-0.083351
32
-0.544392
13
-0.201227
23
-0.083351
33
-0.544392
62
0
0
3DFACE
8
GEM
10
-0.000000
20
-1.000000
30
-0.092524
11
-0.599456
21
-0.400544
31
-0.092524
12
-0.105642
22
-0.127242
32
-0.593459
13
-0.105642
23
-0.127242
33
-0.593459
62
0
0
3DFACE
8
GEM
10
-0.000000
20
-1.000000
30
-0.092524
11
0.599456
21
-0.400544
31
-0.092524
12
0.599456
22
-0.400544
32
-0.014202
13
0.599456
23
-0.400544
33
-0.014202
62
0
0
3DFACE
8
GEM
10
-0.000000
20
-1.000000
30
-0.092524
11
0.599456
21
-0.400544
31
-0.014202
12
-0.000000
22
-1.000000
32
-0.014202
13
-0.000000
23
-1.000000
33
-0.014202
62
0
0
3DFACE
8
GEM
10
0.599456
20
-0.400544
30
-0.092524
11
0.707107
21
-0.140652
31
-0.092524
12
0.707107
22
-0.140652
32
-0.014202
13
0.707107
23
-0.140652
33
-0.014202
62
0
0
3DFACE
8
GEM
10
0.599456
20
-0.400544
30
-0.092524
11
0.707107
21
-0.140652
31
-0.014202
12
0.599456
22
-0.400544
32
-0.014202
13
0.599456
23
-0.400544
33
-0.014202
62
0
0
3DFACE
8
GEM
10
0.707107
20
-0.140652
30
-0.092524
11
0.707107
21
0.140652
31
-0.092524
12
0.707107
22
0.140652
32
-0.014202
13
0.707107
23
0.140652
33
-0.014202
62
0
0
3DFACE
8
GEM
10
0.707107
20
-0.140652
30
-0.092524
11
0.707107
21
0.140652
31
-0.014202
12
0.707107
22
-0.140652
32
-0.014202
13
0.707107
23
-0.140652
33
-0.014202
62
0
0
3DFACE
8
GEM
10
0.707107
20
0.140652
30
-0.092524
11
0.599456
21
0.400544
31
-0.092524
12
0.599456
22
0.400544
32
-0.014202
13
0.599456
23
0.400544
33
-0.014202
62
0
0
3DFACE
8
GEM
10
0.707107
20
0.140652
30
-0.092524
11
0.599456
21
0.400544
31
-0.014202
12
0.707107
22
0.140652
32
-0.014202
13
0.707107
23
0.140652
33
-0.014202
62
0
0
3DFACE
8
GEM
10
0.599456
20
0.400544
30
-0.092524
11
0.400544
21
0.599456
31
-0.092524
12
0.400544
22
0.599456
32
-0.014202
13
0.400544
23
0.599456
33
-0.014202
62
0
0
3DFACE
8
GEM
10
0.599456
20
0.400544
30
-0.092524
11
0.400544
21
0.599456
31
-0.014202
12
0.599456
22
0.400544
32
-0.014202
13
0.599456
23
0.400544
33
-0.014202
62
0
0
3DFACE
8
GEM
10
0.400544
20
0.599456
30
-0.092524
11
-0.000000
21
0.765367
31
-0.092524
12
-0.000000
22
0.765367
32
-0.016036
13
-0.000000
23
0.765367
33
-0.016036
62
0
0
3DFACE
8
GEM
10
0.400544
20
0.599456
30
-0.092524
11
-0.000000
21
0.765367
31
-0.016036
12
0.009946
22
0.761247
32
-0.014202
13
0.009946
23
0.761247
33
-0.014202
62
0
0
3DFACE
8
GEM
10
0.400544
20
0.599456
30
-0.092524
11
0.009946
21
0.761247
31
-0.014202
12
0.400544
22
0.599456
32
-0.014202
13
0.400544
23
0.599456
33
-0.014202
62
0
0
3DFACE
8
GEM
10
-0.000000
20
0.765367
30
-0.092524
11
-0.400544
21
0.599456
31
-0.092524
12
-0.400544
22
0.599456
32
-0.014202
13
-0.400544
23
0.599456
33
-0.014202
62
0
0
3DFACE
8
GEM
10
-0.000000
20
0.765367
30
-0.092524
11
-0.400544
21
0.599456
31
-0.014202
12
-0.009946
22
0.761247
32
-0.014202
13
-0.009946
23
0.761247
33
-0.014202
62
0
0
3DFACE
8
GEM
10
-0.000000
20
0.765367
30
-0.092524
11
-0.009946
21
0.761247
31
-0.014202
12
-0.000000
22
0.765367
32
-0.016036
13
-0.000000
23
0.765367
33
-0.016036
62
0
0
3DFACE
8
GEM
10
-0.400544
20
0.599456
30
-0.092524
11
-0.599456
21
0.400544
31
-0.092524
12
-0.599456
22
0.400544
32
-0.014202
13
-0.599456
23
0.400544
33
-0.014202
62
0
0
3DFACE
8
GEM
10
-0.400544
20
0.599456
30
-0.092524
11
-0.599456
21
0.400544
31
-0.014202
12
-0.400544
22
0.599456
32
-0.014202
13
-0.400544
23
0.599456
33
-0.014202
62
0
0
3DFACE
8
GEM
10
-0.599456
20
0.400544
30
-0.092524
11
-0.707107
21
0.140652
31
-0.092524
12
-0.707107
22
0.140652
32
-0.014202
13
-0.707107
23
0.140652
33
-0.014202
62
0
0
3DFACE
8
GEM
10
-0.599456
20
0.400544
30
-0.092524
11
-0.707107
21
0.140652
31
-0.014202
12
-0.599456
22
0.400544
32
-0.014202
13
-0.599456
23
0.400544
33
-0.014202
62
0
0
3DFACE
8
GEM
10
-0.707107
20
0.140652
30
-0.092524
11
-0.707107
21
-0.140652
31
-0.092524
12
-0.707107
22
-0.140652
32
-0.014202
13
-0.707107
23
-0.140652
33
-0.014202
62
0
0
3DFACE
8
GEM
10
-0.707107
20
0.140652
30
-0.092524
11
-0.707107
21
-0.140652
31
-0.014202
12
-0.707107
22
0.140652
32
-0.014202
13
-0.707107
23
0.140652
33
-0.014202
62
0
0
3DFACE
8
GEM
10
-0.707107
20
-0.140652
30
-0.092524
11
-0.599456
21
-0.400544
31
-0.092524
12
-0.599456
22
-0.400544
32
-0.014202
13
-0.599456
23
-0.400544
33
-0.014202
62
0
0
3DFACE
8
GEM
10
-0.707107
20
-0.140652
30
-0.092524
11
-0.599456
21
-0.400544
31
-0.014202
12
-0.707107
22
-0.140652
32
-0.014202
13
-0.707107
23
-0.140652
33
-0.014202
62
0
0
3DFACE
8
GEM
10
-0.599456
20
-0.400544
30
-0.092524
11
-0.000000
21
-1.000000
31
-0.092524
12
-0.000000
22
-1.000000
32
-0.014202
13
-0.000000
23
-1.000000
33
-0.014202
62
0
0
3DFACE
8
GEM
10
-0.599456
20
-0.400544
30
-0.092524
11
-0.000000
21
-1.000000
31
-0.014202
12
-0.599456
22
-0.400544
32
-0.014202
13
-0.599456
23
-0.400544
33
-0.014202
62
0
0
3DFACE
8
GEM
10
0.599456
20
0.400544
30
-0.092524
11
0.201227
21
0.083351
31
-0.544392
12
0.000000
22
0.000000
32
-0.734656
13
0.000000
23
0.000000
33
-0.734656
62
0
0
3DFACE
8
GEM
10
0.599456
20
0.400544
30
-0.092524
11
0.000000
21
0.000000
31
-0.734656
12
0.154012
22
0.154012
32
-0.544392
13
0.154012
23
0.154012
33
-0.544392
62
0
0
3DFACE
8
GEM
10
0.707107
20
0.140652
30
-0.092524
11
0.217806
21
-0.000000
31
-0.544392
12
0.000000
22
0.000000
32
-0.734656
13
0.000000
23
0.000000
33
-0.734656
62
0
0
3DFACE
8
GEM
10
0.707107
20
0.140652
30
-0.092524
11
0.000000
21
0.000000
31
-0.734656
12
0.201227
22
0.083351
32
-0.544392
13
0.201227
23
0.083351
33
-0.544392
62
0
0
3DFACE
8
GEM
10
0.707107
20
-0.140652
30
-0.092524
11
0.201227
21
-0.083351
31
-0.544392
12
0.000000
22
0.000000
32
-0.734656
13
0.000000
23
0.000000
33
-0.734656
62
0
0
3DFACE
8
GEM
10
0.707107
20
-0.140652
30
-0.092524
11
0.000000
21
0.000000
31
-0.734656
12
0.217806
22
-0.000000
32
-0.544392
13
0.217806
23
-0.000000
33
-0.544392
62
0
0
3DFACE
8
GEM
10
0.599456
20
-0.400544
30
-0.092524
11
0.105642
21
-0.127242
31
-0.593459
12
0.000000
22
0.000000
32
-0.734656
13
0.000000
23
0.000000
33
-0.734656
62
0
0
3DFACE
8
GEM
10
0.599456
20
-0.400544
30
-0.092524
11
0.000000
21
0.000000
31
-0.734656
12
0.201227
22
-0.083351
32
-0.544392
13
0.201227
23
-0.083351
33
-0.544392
62
0
0
3DFACE
8
GEM
10
-0.599456
20
-0.400544
30
-0.092524
11
-0.201227
21
-0.083351
31
-0.544392
12
0.000000
22
0.000000
32
-0.734656
13
0.000000
23
0.000000
33
-0.734656
62
0
0
3DFACE
8
GEM
10
-0.599456
20
-0.400544
30
-0.092524
11
0.000000
21
0.000000
31
-0.734656
12
-0.105642
22
-0.127242
32
-0.593459
13
-0.105642
23
-0.127242
33
-0.593459
62
0
0
3DFACE
8
GEM
10
-0.707107
20
-0.140652
30
-0.092524
11
-0.217806
21
-0.000000
31
-0.544392
12
0.000000
22
0.000000
32
-0.734656
13
0.000000
23
0.000000
33
-0.734656
62
0
0
3DFACE
8
GEM
10
-0.707107
20
-0.140652
30
-0.092524
11
0.000000
21
0.000000
31
-0.734656
12
-0.201227
22
-0.083351
32
-0.544392
13
-0.201227
23
-0.083351
33
-0.544392
62
0
0
3DFACE
8
GEM
10
-0.707107
20
0.140652
30
-0.092524
11
-0.201227
21
0.083351
31
-0.544392
12
0.000000
22
0.000000
32
-0.734656
13
0.000000
23
0.000000
33
-0.734656
62
0
0
3DFACE
8
GEM
10
-0.707107
20
0.140652
30
-0.092524
11
0.000000
21
0.000000
31
-0.734656
12
-0.217806
22
-0.000000
32
-0.544392
13
-0.217806
23
-0.000000
33
-0.544392
62
0
0
3DFACE
8
GEM
10
-0.599456
20
0.400544
30
-0.092524
11
-0.154012
21
0.154012
31
-0.544392
12
0.000000
22
0.000000
32
-0.734656
13
0.000000
23
0.000000
33
-0.734656
62
0
0
3DFACE
8
GEM
10
-0.599456
20
0.400544
30
-0.092524
11
0.000000
21
0.000000
31
-0.734656
12
-0.201227
22
0.083351
32
-0.544392
13
-0.201227
23
0.083351
33
-0.544392
62
0
0
3DFACE
8
GEM
10
-0.400544
20
0.599456
30
-0.092524
11
-0.000000
21
0.096581
31
-0.663132
12
0.000000
22
0.000000
32
-0.734656
13
0.000000
23
0.000000
33
-0.734656
62
0
0
3DFACE
8
GEM
10
-0.400544
20
0.599456
30
-0.092524
11
0.000000
21
0.000000
31
-0.734656
12
-0.154012
22
0.154012
32
-0.544392
13
-0.154012
23
0.154012
33
-0.544392
62
0
0
3DFACE
8
GEM
10
0.400544
20
0.599456
30
-0.092524
11
0.154012
21
0.154012
31
-0.544392
12
0.000000
22
0.000000
32
-0.734656
13
0.000000
23
0.000000
33
-0.734656
62
0
0
3DFACE
8
GEM
10
0.400544
20
0.599456
30
-0.092524
11
0.000000
21
0.000000
31
-0.734656
12
-0.000000
22
0.096581
32
-0.663132
13
-0.000000
23
0.096581
33
-0.663132
62
0
0
3DFACE
8
GEM
10
-0.000000
20
-1.000000
30
-0.092524
11
-0.105642
21
-0.127242
31
-0.593459
12
0.000000
22
0.000000
32
-0.734656
13
0.000000
23
0.000000
33
-0.734656
62
0
0
3DFACE
8
GEM
10
0.105642
20
-0.127242
30
-0.593459
11
-0.000000
21
-1.000000
31
-0.092524
12
0.000000
22
0.000000
32
-0.734656
13
0.000000
23
0.000000
33
-0.734656
62
0
0
3DFACE
8
GEM
10
-0.000000
20
-1.000000
30
-0.014202
11
0.599456
21
-0.400544
31
-0.014202
12
0.490248
22
-0.327573
32
0.067257
13
0.490248
23
-0.327573
33
0.067257
62
0
0
3DFACE
8
GEM
10
-0.000000
20
-1.000000
30
-0.014202
11
0.490248
21
-0.327573
31
0.067257
12
-0.000000
22
-0.817821
32
0.067257
13
-0.000000
23
-0.817821
33
0.067257
62
0
0
3DFACE
8
GEM
10
-0.599456
20
-0.400544
30
-0.014202
11
-0.000000
21
-1.000000
31
-0.014202
12
-0.000000
22
-0.817821
32
0.067257
13
-0.000000
23
-0.817821
33
0.067257
62
0
0
3DFACE
8
GEM
10
-0.599456
20
-0.400544
30
-0.014202
11
-0.000000
21
-0.817821
31
0.067257
12
-0.490248
22
-0.327573
32
0.067257
13
-0.490248
23
-0.327573
33
0.067257
62
0
0
3DFACE
8
GEM
10
-0.707107
20
-0.140652
30
-0.014202
11
-0.599456
21
-0.400544
31
-0.014202
12
-0.490248
22
-0.327573
32
0.067257
13
-0.490248
23
-0.327573
33
0.067257
62
0
0
3DFACE
8
GEM
10
-0.707107
20
-0.140652
30
-0.014202
11
-0.490248
21
-0.327573
31
0.067257
12
-0.452339
22
-0.187365
32
0.123333
13
-0.452339
23
-0.187365
33
0.123333
62
0
0
3DFACE
8
GEM
10
-0.707107
20
-0.140652
30
-0.014202
11
-0.452339
21
-0.187365
31
0.123333
12
-0.578287
22
-0.115028
32
0.067257
13
-0.578287
23
-0.115028
33
0.067257
62
0
0
3DFACE
8
GEM
10
-0.707107
20
0.140652
30
-0.014202
11
-0.707107
21
-0.140652
31
-0.014202
12
-0.578287
22
-0.115028
32
0.067257
13
-0.578287
23
-0.115028
33
0.067257
62
0
0
3DFACE
8
GEM
10
-0.707107
20
0.140652
30
-0.014202
11
-0.578287
21
-0.115028
31
0.067257
12
-0.578287
22
0.115028
32
0.067257
13
-0.578287
23
0.115028
33
0.067257
62
0
0
3DFACE
8
GEM
10
-0.599456
20
0.400544
30
-0.014202
11
-0.707107
21
0.140652
31
-0.014202
12
-0.578287
22
0.115028
32
0.067257
13
-0.578287
23
0.115028
33
0.067257
62
0
0
3DFACE
8
GEM
10
-0.599456
20
0.400544
30
-0.014202
11
-0.578287
21
0.115028
31
0.067257
12
-0.452339
22
0.187365
32
0.123333
13
-0.452339
23
0.187365
33
0.123333
62
0
0
3DFACE
8
GEM
10
-0.599456
20
0.400544
30
-0.014202
11
-0.452339
21
0.187365
31
0.123333
12
-0.490248
22
0.327573
32
0.067257
13
-0.490248
23
0.327573
33
0.067257
62
0
0
3DFACE
8
GEM
10
-0.400544
20
0.599456
30
-0.014202
11
-0.599456
21
0.400544
31
-0.014202
12
-0.490248
22
0.327573
32
0.067257
13
-0.490248
23
0.327573
33
0.067257
62
0
0
3DFACE
8
GEM
10
-0.400544
20
0.599456
30
-0.014202
11
-0.490248
21
0.327573
31
0.067257
12
-0.327573
22
0.490248
32
0.067257
13
-0.327573
23
0.490248
33
0.067257
62
0
0
3DFACE
8
GEM
10
-0.009946
20
0.761247
30
-0.014202
11
-0.400544
21
0.599456
31
-0.014202
12
-0.327573
22
0.490248
32
0.067257
13
-0.327573
23
0.490248
33
0.067257
62
0
0
3DFACE
8
GEM
10
-0.009946
20
0.761247
30
-0.014202
11
-0.327573
21
0.490248
31
0.067257
12
-0.187365
22
0.452339
32
0.123333
13
-0.187365
23
0.452339
33
0.123333
62
0
0
3DFACE
8
GEM
10
0.400544
20
0.599456
30
-0.014202
11
0.009946
21
0.761247
31
-0.014202
12
0.187365
22
0.452339
32
0.123333
13
0.187365
23
0.452339
33
0.123333
62
0
0
3DFACE
8
GEM
10
0.400544
20
0.599456
30
-0.014202
11
0.187365
21
0.452339
31
0.123333
12
0.327573
22
0.490248
32
0.067257
13
0.327573
23
0.490248
33
0.067257
62
0
0
3DFACE
8
GEM
10
0.599456
20
0.400544
30
-0.014202
11
0.400544
21
0.599456
31
-0.014202
12
0.327573
22
0.490248
32
0.067257
13
0.327573
23
0.490248
33
0.067257
62
0
0
3DFACE
8
GEM
10
0.599456
20
0.400544
30
-0.014202
11
0.327573
21
0.490248
31
0.067257
12
0.490248
22
0.327573
32
0.067257
13
0.490248
23
0.327573
33
0.067257
62
0
0
3DFACE
8
GEM
10
0.707107
20
0.140652
30
-0.014202
11
0.599456
21
0.400544
31
-0.014202
12
0.490248
22
0.327573
32
0.067257
13
0.490248
23
0.327573
33
0.067257
62
0
0
3DFACE
8
GEM
10
0.707107
20
0.140652
30
-0.014202
11
0.490248
21
0.327573
31
0.067257
12
0.452339
22
0.187365
32
0.123333
13
0.452339
23
0.187365
33
0.123333
62
0
0
3DFACE
8
GEM
10
0.707107
20
0.140652
30
-0.014202
11
0.452339
21
0.187365
31
0.123333
12
0.578287
22
0.115028
32
0.067257
13
0.578287
23
0.115028
33
0.067257
62
0
0
3DFACE
8
GEM
10
0.707107
20
-0.140652
30
-0.014202
11
0.707107
21
0.140652
31
-0.014202
12
0.578287
22
0.115028
32
0.067257
13
0.578287
23
0.115028
33
0.067257
62
0
0
3DFACE
8
GEM
10
0.707107
20
-0.140652
30
-0.014202
11
0.578287
21
0.115028
31
0.067257
12
0.578287
22
-0.115028
32
0.067257
13
0.578287
23
-0.115028
33
0.067257
62
0
0
3DFACE
8
GEM
10
0.599456
20
-0.400544
30
-0.014202
11
0.707107
21
-0.140652
31
-0.014202
12
0.578287
22
-0.115028
32
0.067257
13
0.578287
23
-0.115028
33
0.067257
62
0
0
3DFACE
8
GEM
10
0.599456
20
-0.400544
30
-0.014202
11
0.578287
21
-0.115028
31
0.067257
12
0.452339
22
-0.187365
32
0.123333
13
0.452339
23
-0.187365
33
0.123333
62
0
0
3DFACE
8
GEM
10
0.599456
20
-0.400544
30
-0.014202
11
0.452339
21
-0.187365
31
0.123333
12
0.490248
22
-0.327573
32
0.067257
13
0.490248
23
-0.327573
33
0.067257
62
0
0
3DFACE
8
GEM
10
-0.490248
20
0.327573
30
0.067257
11
-0.452339
21
0.187365
31
0.123333
12
-0.334375
22
0.138503
32
0.175854
13
-0.334375
23
0.138503
33
0.175854
62
0
0
3DFACE
8
GEM
10
-0.490248
20
0.327573
30
0.067257
11
-0.334375
21
0.138503
31
0.175854
12
-0.138503
22
0.334375
32
0.175854
13
-0.138503
23
0.334375
33
0.175854
62
0
0
3DFACE
8
GEM
10
-0.490248
20
0.327573
30
0.067257
11
-0.138503
21
0.334375
31
0.175854
12
-0.187365
22
0.452339
32
0.123333
13
-0.187365
23
0.452339
33
0.123333
62
0
0
3DFACE
8
GEM
10
-0.490248
20
0.327573
30
0.067257
11
-0.187365
21
0.452339
31
0.123333
12
-0.327573
22
0.490248
32
0.067257
13
-0.327573
23
0.490248
33
0.067257
62
0
0
3DFACE
8
GEM
10
0.009946
20
0.761247
30
-0.014202
11
-0.000000
21
0.765367
31
-0.016036
12
-0.009946
22
0.761247
32
-0.014202
13
-0.009946
23
0.761247
33
-0.014202
62
0
0
3DFACE
8
GEM
10
0.009946
20
0.761247
30
-0.014202
11
-0.009946
21
0.761247
31
-0.014202
12
-0.187365
22
0.452339
32
0.123333
13
-0.187365
23
0.452339
33
0.123333
62
0
0
3DFACE
8
GEM
10
0.009946
20
0.761247
30
-0.014202
11
-0.187365
21
0.452339
31
0.123333
12
-0.138503
22
0.334375
32
0.175854
13
-0.138503
23
0.334375
33
0.175854
62
0
0
3DFACE
8
GEM
10
0.009946
20
0.761247
30
-0.014202
11
-0.138503
21
0.334375
31
0.175854
12
0.138503
22
0.334375
32
0.175854
13
0.138503
23
0.334375
33
0.175854
62
0
0
3DFACE
8
GEM
10
0.009946
20
0.761247
30
-0.014202
11
0.138503
21
0.334375
31
0.175854
12
0.187365
22
0.452339
32
0.123333
13
0.187365
23
0.452339
33
0.123333
62
0
0
3DFACE
8
GEM
10
0.327573
20
0.490248
30
0.067257
11
0.187365
21
0.452339
31
0.123333
12
0.138503
22
0.334375
32
0.175854
13
0.138503
23
0.334375
33
0.175854
62
0
0
3DFACE
8
GEM
10
0.327573
20
0.490248
30
0.067257
11
0.138503
21
0.334375
31
0.175854
12
0.334375
22
0.138503
32
0.175854
13
0.334375
23
0.138503
33
0.175854
62
0
0
3DFACE
8
GEM
10
0.327573
20
0.490248
30
0.067257
11
0.334375
21
0.138503
31
0.175854
12
0.452339
22
0.187365
32
0.123333
13
0.452339
23
0.187365
33
0.123333
62
0
0
3DFACE
8
GEM
10
0.327573
20
0.490248
30
0.067257
11
0.452339
21
0.187365
31
0.123333
12
0.490248
22
0.327573
32
0.067257
13
0.490248
23
0.327573
33
0.067257
62
0
0
3DFACE
8
GEM
10
0.578287
20
0.115028
30
0.067257
11
0.452339
21
0.187365
31
0.123333
12
0.334375
22
0.138503
32
0.175854
13
0.334375
23
0.138503
33
0.175854
62
0
0
3DFACE
8
GEM
10
0.578287
20
0.115028
30
0.067257
11
0.334375
21
0.138503
31
0.175854
12
0.334375
22
-0.138503
32
0.175854
13
0.334375
23
-0.138503
33
0.175854
62
0
0
3DFACE
8
GEM
10
0.578287
20
0.115028
30
0.067257
11
0.334375
21
-0.138503
31
0.175854
12
0.452339
22
-0.187365
32
0.123333
13
0.452339
23
-0.187365
33
0.123333
62
0
0
3DFACE
8
GEM
10
0.578287
20
0.115028
30
0.067257
11
0.452339
21
-0.187365
31
0.123333
12
0.578287
22
-0.115028
32
0.067257
13
0.578287
23
-0.115028
33
0.067257
62
0
0
3DFACE
8
GEM
10
-0.000000
20
-0.817821
30
0.067257
11
0.490248
21
-0.327573
31
0.067257
12
0.452339
22
-0.187365
32
0.123333
13
0.452339
23
-0.187365
33
0.123333
62
0
0
3DFACE
8
GEM
10
-0.000000
20
-0.817821
30
0.067257
11
0.452339
21
-0.187365
31
0.123333
12
0.334375
22
-0.138503
32
0.175854
13
0.334375
23
-0.138503
33
0.175854
62
0
0
3DFACE
8
GEM
10
-0.000000
20
-0.817821
30
0.067257
11
0.334375
21
-0.138503
31
0.175854
12
-0.000000
22
-0.472877
32
0.175854
13
-0.000000
23
-0.472877
33
0.175854
62
0
0
3DFACE
8
GEM
10
-0.490248
20
-0.327573
30
0.067257
11
-0.000000
21
-0.817821
31
0.067257
12
-0.000000
22
-0.472877
32
0.175854
13
-0.000000
23
-0.472877
33
0.175854
62
0
0
3DFACE
8
GEM
10
-0.490248
20
-0.327573
30
0.067257
11
-0.000000
21
-0.472877
31
0.175854
12
-0.334375
22
-0.138503
32
0.175854
13
-0.334375
23
-0.138503
33
0.175854
62
0
0
3DFACE
8
GEM
10
-0.490248
20
-0.327573
30
0.067257
11
-0.334375
21
-0.138503
31
0.175854
12
-0.452339
22
-0.187365
32
0.123333
13
-0.452339
23
-0.187365
33
0.123333
62
0
0
3DFACE
8
GEM
10
-0.578287
20
-0.115028
30
0.067257
11
-0.452339
21
-0.187365
31
0.123333
12
-0.334375
22
-0.138503
32
0.175854
13
-0.334375
23
-0.138503
33
0.175854
62
0
0
3DFACE
8
GEM
10
-0.578287
20
-0.115028
30
0.067257
11
-0.334375
21
-0.138503
31
0.175854
12
-0.334375
22
0.138503
32
0.175854
13
-0.334375
23
0.138503
33
0.175854
62
0
0
3DFACE
8
GEM
10
-0.578287
20
-0.115028
30
0.067257
11
-0.334375
21
0.138503
31
0.175854
12
-0.452339
22
0.187365
32
0.123333
13
-0.452339
23
0.187365
33
0.123333
62
0
0
3DFACE
8
GEM
10
-0.578287
20
-0.115028
30
0.067257
11
-0.452339
21
0.187365
31
0.123333
12
-0.578287
22
0.115028
32
0.067257
13
-0.578287
23
0.115028
33
0.067257
62
0
0
3DFACE
8
GEM
10
0.138503
20
0.334375
30
0.175854
11
-0.138503
21
0.334375
31
0.175854
12
-0.084741
22
0.204582
32
0.215615
13
-0.084741
23
0.204582
33
0.215615
62
0
0
3DFACE
8
GEM
10
0.138503
20
0.334375
30
0.175854
11
-0.084741
21
0.204582
31
0.215615
12
0.084741
22
0.204582
32
0.215615
13
0.084741
23
0.204582
33
0.215615
62
0
0
3DFACE
8
GEM
10
0.334375
20
0.138503
30
0.175854
11
0.138503
21
0.334375
31
0.175854
12
0.084741
22
0.204582
32
0.215615
13
0.084741
23
0.204582
33
0.215615
62
0
0
3DFACE
8
GEM
10
0.334375
20
0.138503
30
0.175854
11
0.084741
21
0.204582
31
0.215615
12
0.204582
22
0.084741
32
0.215615
13
0.204582
23
0.084741
33
0.215615
62
0
0
3DFACE
8
GEM
10
0.334375
20
-0.138503
30
0.175854
11
0.334375
21
0.138503
31
0.175854
12
0.204582
22
0.084741
32
0.215615
13
0.204582
23
0.084741
33
0.215615
62
0
0
3DFACE
8
GEM
10
0.334375
20
-0.138503
30
0.175854
11
0.204582
21
0.084741
31
0.215615
12
0.204582
22
-0.084741
32
0.215615
13
0.204582
23
-0.084741
33
0.215615
62
0
0
3DFACE
8
GEM
10
-0.000000
20
-0.472877
30
0.175854
11
0.334375
21
-0.138503
31
0.175854
12
0.204582
22
-0.084741
32
0.215615
13
0.204582
23
-0.084741
33
0.215615
62
0
0
3DFACE
8
GEM
10
-0.000000
20
-0.472877
30
0.175854
11
0.204582
21
-0.084741
31
0.215615
12
-0.000000
22
-0.289322
32
0.215615
13
-0.000000
23
-0.289322
33
0.215615
62
0
0
3DFACE
8
GEM
10
-0.334375
20
-0.138503
30
0.175854
11
-0.000000
21
-0.472877
31
0.175854
12
-0.000000
22
-0.289322
32
0.215615
13
-0.000000
23
-0.289322
33
0.215615
62
0
0
3DFACE
8
GEM
10
-0.334375
20
-0.138503
30
0.175854
11
-0.000000
21
-0.289322
31
0.215615
12
-0.204582
22
-0.084741
32
0.215615
13
-0.204582
23
-0.084741
33
0.215615
62
0
0
3DFACE
8
GEM
10
-0.334375
20
0.138503
30
0.175854
11
-0.334375
21
-0.138503
31
0.175854
12
-0.204582
22
-0.084741
32
0.215615
13
-0.204582
23
-0.084741
33
0.215615
62
0
0
3DFACE
8
GEM
10
-0.334375
20
0.138503
30
0.175854
11
-0.204582
21
-0.084741
31
0.215615
12
-0.204582
22
0.084741
32
0.215615
13
-0.204582
23
0.084741
33
0.215615
62
0
0
3DFACE
8
GEM
10
-0.138503
20
0.334375
30
0.175854
11
-0.334375
21
0.138503
31
0.175854
12
-0.204582
22
0.084741
32
0.215615
13
-0.204582
23
0.084741
33
0.215615
62
0
0
3DFACE
8
GEM
10
-0.138503
20
0.334375
30
0.175854
11
-0.204582
21
0.084741
31
0.215615
12
-0.084741
22
0.204582
32
0.215615
13
-0.084741
23
0.204582
33
0.215615
62
0
0
3DFACE
8
GEM
10
0.084741
20
0.204582
30
0.215615
11
-0.084741
21
0.204582
31
0.215615
12
-0.204582
22
0.084741
32
0.215615
13
-0.204582
23
0.084741
33
0.215615
62
0
0
3DFACE
8
GEM
10
0.084741
20
0.204582
30
0.215615
11
-0.204582
21
0.084741
31
0.215615
12
-0.204582
22
-0.084741
32
0.215615
13
-0.204582
23
-0.084741
33
0.215615
62
0
0
3DFACE
8
GEM
10
0.084741
20
0.204582
30
0.215615
11
-0.204582
21
-0.084741
31
0.215615
12
-0.000000
22
-0.289322
32
0.215615
13
-0.000000
23
-0.289322
33
0.215615
62
0
0
3DFACE
8
GEM
10
0.084741
20
0.204582
30
0.215615
11
-0.000000
21
-0.289322
31
0.215615
12
0.204582
22
-0.084741
32
0.215615
13
0.204582
23
-0.084741
33
0.215615
62
0
0
3DFACE
8
GEM
10
0.084741
20
0.204582
30
0.215615
11
0.204582
21
-0.084741
31
0.215615
12
0.204582
22
0.084741
32
0.215615
13
0.204582
23
0.084741
33
0.215615
62
0
0
ENDSEC
0
EOF
