999
DXF gemstone file C:\temp\_gems\pc01035.dxf created by GemCad for Windows
0
SECTION
2
HEADER
0
ENDSEC
0
SECTION
2
TABLES
0
TABLE
2
LAYER
70
153
0
LAYER
2
GEM
70
0
62
15
6
CONTINUOUS
0
ENDTAB
0
ENDSEC
0
SECTION
2
ENTITIES
0
3DFACE
8
GEM
10
-0.004604
20
0.011115
30
-1.020000
11
0.004604
21
0.011115
31
-1.020000
12
0.011115
22
0.004604
32
-1.020000
13
0.011115
23
0.004604
33
-1.020000
62
0
0
3DFACE
8
GEM
10
-0.004604
20
0.011115
30
-1.020000
11
0.011115
21
0.004604
31
-1.020000
12
0.011115
22
-0.004604
32
-1.020000
13
0.011115
23
-0.004604
33
-1.020000
62
0
0
3DFACE
8
GEM
10
-0.004604
20
0.011115
30
-1.020000
11
0.011115
21
-0.004604
31
-1.020000
12
0.004604
22
-0.011115
32
-1.020000
13
0.004604
23
-0.011115
33
-1.020000
62
0
0
3DFACE
8
GEM
10
-0.004604
20
0.011115
30
-1.020000
11
0.004604
21
-0.011115
31
-1.020000
12
-0.004604
22
-0.011115
32
-1.020000
13
-0.004604
23
-0.011115
33
-1.020000
62
0
0
3DFACE
8
GEM
10
-0.004604
20
0.011115
30
-1.020000
11
-0.004604
21
-0.011115
31
-1.020000
12
-0.011115
22
-0.004604
32
-1.020000
13
-0.011115
23
-0.004604
33
-1.020000
62
0
0
3DFACE
8
GEM
10
-0.004604
20
0.011115
30
-1.020000
11
-0.011115
21
-0.004604
31
-1.020000
12
-0.011115
22
0.004604
32
-1.020000
13
-0.011115
23
0.004604
33
-1.020000
62
0
0
3DFACE
8
GEM
10
-0.044214
20
0.900000
30
0.007161
11
-0.044214
21
0.900000
31
0.060375
12
-0.000000
22
0.900000
32
0.073658
13
-0.000000
23
0.900000
33
0.073658
62
0
0
3DFACE
8
GEM
10
-0.044214
20
0.900000
30
0.007161
11
-0.000000
21
0.900000
31
0.073658
12
0.044214
22
0.900000
32
0.060375
13
0.044214
23
0.900000
33
0.060375
62
0
0
3DFACE
8
GEM
10
-0.044214
20
0.900000
30
0.007161
11
0.044214
21
0.900000
31
0.060375
12
0.044214
22
0.900000
32
0.007161
13
0.044214
23
0.900000
33
0.007161
62
0
0
3DFACE
8
GEM
10
-0.044214
20
0.900000
30
0.007161
11
0.044214
21
0.900000
31
0.007161
12
-0.000000
22
0.900000
32
-0.010524
13
-0.000000
23
0.900000
33
-0.010524
62
0
0
3DFACE
8
GEM
10
-0.044214
20
0.900000
30
0.060375
11
-0.044214
21
0.900000
31
0.007161
12
-0.132217
22
0.891333
32
0.024932
13
-0.132217
23
0.891333
33
0.024932
62
0
0
3DFACE
8
GEM
10
-0.044214
20
0.900000
30
0.060375
11
-0.132217
21
0.891333
31
0.024932
12
-0.132217
22
0.891333
32
0.047028
13
-0.132217
23
0.891333
33
0.047028
62
0
0
3DFACE
8
GEM
10
-0.132217
20
0.891333
30
0.047028
11
-0.132217
21
0.891333
31
0.024932
12
-0.218946
22
0.874081
32
0.024932
13
-0.218946
23
0.874081
33
0.024932
62
0
0
3DFACE
8
GEM
10
-0.132217
20
0.891333
30
0.047028
11
-0.218946
21
0.874081
31
0.024932
12
-0.218946
22
0.874081
32
0.047028
13
-0.218946
23
0.874081
33
0.047028
62
0
0
3DFACE
8
GEM
10
-0.218946
20
0.874081
30
0.047028
11
-0.218946
21
0.874081
31
0.024932
12
-0.303567
22
0.848412
32
0.007161
13
-0.303567
23
0.848412
33
0.007161
62
0
0
3DFACE
8
GEM
10
-0.218946
20
0.874081
30
0.047028
11
-0.303567
21
0.848412
31
0.007161
12
-0.303567
22
0.848412
32
0.060375
13
-0.303567
23
0.848412
33
0.060375
62
0
0
3DFACE
8
GEM
10
-0.303567
20
0.848412
30
0.060375
11
-0.303567
21
0.848412
31
0.007161
12
-0.344415
22
0.831492
32
-0.010524
13
-0.344415
23
0.831492
33
-0.010524
62
0
0
3DFACE
8
GEM
10
-0.303567
20
0.848412
30
0.060375
11
-0.344415
21
0.831492
31
-0.010524
12
-0.385264
22
0.814572
32
0.007161
13
-0.385264
23
0.814572
33
0.007161
62
0
0
3DFACE
8
GEM
10
-0.303567
20
0.848412
30
0.060375
11
-0.385264
21
0.814572
31
0.007161
12
-0.385264
22
0.814572
32
0.060375
13
-0.385264
23
0.814572
33
0.060375
62
0
0
3DFACE
8
GEM
10
-0.303567
20
0.848412
30
0.060375
11
-0.385264
21
0.814572
31
0.060375
12
-0.344415
22
0.831492
32
0.073658
13
-0.344415
23
0.831492
33
0.073658
62
0
0
3DFACE
8
GEM
10
-0.385264
20
0.814572
30
0.060375
11
-0.385264
21
0.814572
31
0.007161
12
-0.463250
22
0.772887
32
0.024932
13
-0.463250
23
0.772887
33
0.024932
62
0
0
3DFACE
8
GEM
10
-0.385264
20
0.814572
30
0.060375
11
-0.463250
21
0.772887
31
0.024932
12
-0.463250
22
0.772887
32
0.047028
13
-0.463250
23
0.772887
33
0.047028
62
0
0
3DFACE
8
GEM
10
-0.463250
20
0.772887
30
0.047028
11
-0.463250
21
0.772887
31
0.024932
12
-0.536776
22
0.723759
32
0.024932
13
-0.536776
23
0.723759
33
0.024932
62
0
0
3DFACE
8
GEM
10
-0.463250
20
0.772887
30
0.047028
11
-0.536776
21
0.723759
31
0.024932
12
-0.536776
22
0.723759
32
0.047028
13
-0.536776
23
0.723759
33
0.047028
62
0
0
3DFACE
8
GEM
10
-0.536776
20
0.723759
30
0.047028
11
-0.536776
21
0.723759
31
0.024932
12
-0.605132
22
0.667660
32
0.007161
13
-0.605132
23
0.667660
33
0.007161
62
0
0
3DFACE
8
GEM
10
-0.536776
20
0.723759
30
0.047028
11
-0.605132
21
0.667660
31
0.007161
12
-0.605132
22
0.667660
32
0.060375
13
-0.605132
23
0.667660
33
0.060375
62
0
0
3DFACE
8
GEM
10
-0.605132
20
0.667660
30
0.060375
11
-0.605132
21
0.667660
31
0.007161
12
-0.636396
22
0.636396
32
-0.010524
13
-0.636396
23
0.636396
33
-0.010524
62
0
0
3DFACE
8
GEM
10
-0.605132
20
0.667660
30
0.060375
11
-0.636396
21
0.636396
31
-0.010524
12
-0.667660
22
0.605132
32
0.007161
13
-0.667660
23
0.605132
33
0.007161
62
0
0
3DFACE
8
GEM
10
-0.605132
20
0.667660
30
0.060375
11
-0.667660
21
0.605132
31
0.007161
12
-0.667660
22
0.605132
32
0.060375
13
-0.667660
23
0.605132
33
0.060375
62
0
0
3DFACE
8
GEM
10
-0.605132
20
0.667660
30
0.060375
11
-0.667660
21
0.605132
31
0.060375
12
-0.636396
22
0.636396
32
0.073658
13
-0.636396
23
0.636396
33
0.073658
62
0
0
3DFACE
8
GEM
10
-0.667660
20
0.605132
30
0.060375
11
-0.667660
21
0.605132
31
0.007161
12
-0.723759
22
0.536776
32
0.024932
13
-0.723759
23
0.536776
33
0.024932
62
0
0
3DFACE
8
GEM
10
-0.667660
20
0.605132
30
0.060375
11
-0.723759
21
0.536776
31
0.024932
12
-0.723759
22
0.536776
32
0.047028
13
-0.723759
23
0.536776
33
0.047028
62
0
0
3DFACE
8
GEM
10
-0.723759
20
0.536776
30
0.047028
11
-0.723759
21
0.536776
31
0.024932
12
-0.772887
22
0.463250
32
0.024932
13
-0.772887
23
0.463250
33
0.024932
62
0
0
3DFACE
8
GEM
10
-0.723759
20
0.536776
30
0.047028
11
-0.772887
21
0.463250
31
0.024932
12
-0.772887
22
0.463250
32
0.047028
13
-0.772887
23
0.463250
33
0.047028
62
0
0
3DFACE
8
GEM
10
-0.772887
20
0.463250
30
0.047028
11
-0.772887
21
0.463250
31
0.024932
12
-0.814572
22
0.385264
32
0.007161
13
-0.814572
23
0.385264
33
0.007161
62
0
0
3DFACE
8
GEM
10
-0.772887
20
0.463250
30
0.047028
11
-0.814572
21
0.385264
31
0.007161
12
-0.814572
22
0.385264
32
0.060375
13
-0.814572
23
0.385264
33
0.060375
62
0
0
3DFACE
8
GEM
10
-0.814572
20
0.385264
30
0.060375
11
-0.814572
21
0.385264
31
0.007161
12
-0.831492
22
0.344415
32
-0.010524
13
-0.831492
23
0.344415
33
-0.010524
62
0
0
3DFACE
8
GEM
10
-0.814572
20
0.385264
30
0.060375
11
-0.831492
21
0.344415
31
-0.010524
12
-0.848412
22
0.303567
32
0.007161
13
-0.848412
23
0.303567
33
0.007161
62
0
0
3DFACE
8
GEM
10
-0.814572
20
0.385264
30
0.060375
11
-0.848412
21
0.303567
31
0.007161
12
-0.848412
22
0.303567
32
0.060375
13
-0.848412
23
0.303567
33
0.060375
62
0
0
3DFACE
8
GEM
10
-0.814572
20
0.385264
30
0.060375
11
-0.848412
21
0.303567
31
0.060375
12
-0.831492
22
0.344415
32
0.073658
13
-0.831492
23
0.344415
33
0.073658
62
0
0
3DFACE
8
GEM
10
-0.848412
20
0.303567
30
0.060375
11
-0.848412
21
0.303567
31
0.007161
12
-0.874081
22
0.218946
32
0.024932
13
-0.874081
23
0.218946
33
0.024932
62
0
0
3DFACE
8
GEM
10
-0.848412
20
0.303567
30
0.060375
11
-0.874081
21
0.218946
31
0.024932
12
-0.874081
22
0.218946
32
0.047028
13
-0.874081
23
0.218946
33
0.047028
62
0
0
3DFACE
8
GEM
10
-0.874081
20
0.218946
30
0.047028
11
-0.874081
21
0.218946
31
0.024932
12
-0.891333
22
0.132217
32
0.024932
13
-0.891333
23
0.132217
33
0.024932
62
0
0
3DFACE
8
GEM
10
-0.874081
20
0.218946
30
0.047028
11
-0.891333
21
0.132217
31
0.024932
12
-0.891333
22
0.132217
32
0.047028
13
-0.891333
23
0.132217
33
0.047028
62
0
0
3DFACE
8
GEM
10
-0.891333
20
0.132217
30
0.047028
11
-0.891333
21
0.132217
31
0.024932
12
-0.900000
22
0.044214
32
0.007161
13
-0.900000
23
0.044214
33
0.007161
62
0
0
3DFACE
8
GEM
10
-0.891333
20
0.132217
30
0.047028
11
-0.900000
21
0.044214
31
0.007161
12
-0.900000
22
0.044214
32
0.060375
13
-0.900000
23
0.044214
33
0.060375
62
0
0
3DFACE
8
GEM
10
-0.900000
20
0.044214
30
0.060375
11
-0.900000
21
0.044214
31
0.007161
12
-0.900000
22
-0.000000
32
-0.010524
13
-0.900000
23
-0.000000
33
-0.010524
62
0
0
3DFACE
8
GEM
10
-0.900000
20
0.044214
30
0.060375
11
-0.900000
21
-0.000000
31
-0.010524
12
-0.900000
22
-0.044214
32
0.007161
13
-0.900000
23
-0.044214
33
0.007161
62
0
0
3DFACE
8
GEM
10
-0.900000
20
0.044214
30
0.060375
11
-0.900000
21
-0.044214
31
0.007161
12
-0.900000
22
-0.044214
32
0.060375
13
-0.900000
23
-0.044214
33
0.060375
62
0
0
3DFACE
8
GEM
10
-0.900000
20
0.044214
30
0.060375
11
-0.900000
21
-0.044214
31
0.060375
12
-0.900000
22
-0.000000
32
0.073658
13
-0.900000
23
-0.000000
33
0.073658
62
0
0
3DFACE
8
GEM
10
-0.900000
20
-0.044214
30
0.060375
11
-0.900000
21
-0.044214
31
0.007161
12
-0.891333
22
-0.132217
32
0.024932
13
-0.891333
23
-0.132217
33
0.024932
62
0
0
3DFACE
8
GEM
10
-0.900000
20
-0.044214
30
0.060375
11
-0.891333
21
-0.132217
31
0.024932
12
-0.891333
22
-0.132217
32
0.047028
13
-0.891333
23
-0.132217
33
0.047028
62
0
0
3DFACE
8
GEM
10
-0.891333
20
-0.132217
30
0.047028
11
-0.891333
21
-0.132217
31
0.024932
12
-0.874081
22
-0.218946
32
0.024932
13
-0.874081
23
-0.218946
33
0.024932
62
0
0
3DFACE
8
GEM
10
-0.891333
20
-0.132217
30
0.047028
11
-0.874081
21
-0.218946
31
0.024932
12
-0.874081
22
-0.218946
32
0.047028
13
-0.874081
23
-0.218946
33
0.047028
62
0
0
3DFACE
8
GEM
10
-0.874081
20
-0.218946
30
0.047028
11
-0.874081
21
-0.218946
31
0.024932
12
-0.848412
22
-0.303567
32
0.007161
13
-0.848412
23
-0.303567
33
0.007161
62
0
0
3DFACE
8
GEM
10
-0.874081
20
-0.218946
30
0.047028
11
-0.848412
21
-0.303567
31
0.007161
12
-0.848412
22
-0.303567
32
0.060375
13
-0.848412
23
-0.303567
33
0.060375
62
0
0
3DFACE
8
GEM
10
-0.848412
20
-0.303567
30
0.060375
11
-0.848412
21
-0.303567
31
0.007161
12
-0.831492
22
-0.344415
32
-0.010524
13
-0.831492
23
-0.344415
33
-0.010524
62
0
0
3DFACE
8
GEM
10
-0.848412
20
-0.303567
30
0.060375
11
-0.831492
21
-0.344415
31
-0.010524
12
-0.814572
22
-0.385264
32
0.007161
13
-0.814572
23
-0.385264
33
0.007161
62
0
0
3DFACE
8
GEM
10
-0.848412
20
-0.303567
30
0.060375
11
-0.814572
21
-0.385264
31
0.007161
12
-0.814572
22
-0.385264
32
0.060375
13
-0.814572
23
-0.385264
33
0.060375
62
0
0
3DFACE
8
GEM
10
-0.848412
20
-0.303567
30
0.060375
11
-0.814572
21
-0.385264
31
0.060375
12
-0.831492
22
-0.344415
32
0.073658
13
-0.831492
23
-0.344415
33
0.073658
62
0
0
3DFACE
8
GEM
10
-0.814572
20
-0.385264
30
0.060375
11
-0.814572
21
-0.385264
31
0.007161
12
-0.772887
22
-0.463250
32
0.024932
13
-0.772887
23
-0.463250
33
0.024932
62
0
0
3DFACE
8
GEM
10
-0.814572
20
-0.385264
30
0.060375
11
-0.772887
21
-0.463250
31
0.024932
12
-0.772887
22
-0.463250
32
0.047028
13
-0.772887
23
-0.463250
33
0.047028
62
0
0
3DFACE
8
GEM
10
-0.772887
20
-0.463250
30
0.047028
11
-0.772887
21
-0.463250
31
0.024932
12
-0.723759
22
-0.536776
32
0.024932
13
-0.723759
23
-0.536776
33
0.024932
62
0
0
3DFACE
8
GEM
10
-0.772887
20
-0.463250
30
0.047028
11
-0.723759
21
-0.536776
31
0.024932
12
-0.723759
22
-0.536776
32
0.047028
13
-0.723759
23
-0.536776
33
0.047028
62
0
0
3DFACE
8
GEM
10
-0.723759
20
-0.536776
30
0.047028
11
-0.723759
21
-0.536776
31
0.024932
12
-0.667660
22
-0.605132
32
0.007161
13
-0.667660
23
-0.605132
33
0.007161
62
0
0
3DFACE
8
GEM
10
-0.723759
20
-0.536776
30
0.047028
11
-0.667660
21
-0.605132
31
0.007161
12
-0.667660
22
-0.605132
32
0.060375
13
-0.667660
23
-0.605132
33
0.060375
62
0
0
3DFACE
8
GEM
10
-0.667660
20
-0.605132
30
0.060375
11
-0.667660
21
-0.605132
31
0.007161
12
-0.636396
22
-0.636396
32
-0.010524
13
-0.636396
23
-0.636396
33
-0.010524
62
0
0
3DFACE
8
GEM
10
-0.667660
20
-0.605132
30
0.060375
11
-0.636396
21
-0.636396
31
-0.010524
12
-0.605132
22
-0.667660
32
0.007161
13
-0.605132
23
-0.667660
33
0.007161
62
0
0
3DFACE
8
GEM
10
-0.667660
20
-0.605132
30
0.060375
11
-0.605132
21
-0.667660
31
0.007161
12
-0.605132
22
-0.667660
32
0.060375
13
-0.605132
23
-0.667660
33
0.060375
62
0
0
3DFACE
8
GEM
10
-0.667660
20
-0.605132
30
0.060375
11
-0.605132
21
-0.667660
31
0.060375
12
-0.636396
22
-0.636396
32
0.073658
13
-0.636396
23
-0.636396
33
0.073658
62
0
0
3DFACE
8
GEM
10
-0.605132
20
-0.667660
30
0.060375
11
-0.605132
21
-0.667660
31
0.007161
12
-0.536776
22
-0.723759
32
0.024932
13
-0.536776
23
-0.723759
33
0.024932
62
0
0
3DFACE
8
GEM
10
-0.605132
20
-0.667660
30
0.060375
11
-0.536776
21
-0.723759
31
0.024932
12
-0.536776
22
-0.723759
32
0.047028
13
-0.536776
23
-0.723759
33
0.047028
62
0
0
3DFACE
8
GEM
10
-0.536776
20
-0.723759
30
0.047028
11
-0.536776
21
-0.723759
31
0.024932
12
-0.463250
22
-0.772887
32
0.024932
13
-0.463250
23
-0.772887
33
0.024932
62
0
0
3DFACE
8
GEM
10
-0.536776
20
-0.723759
30
0.047028
11
-0.463250
21
-0.772887
31
0.024932
12
-0.463250
22
-0.772887
32
0.047028
13
-0.463250
23
-0.772887
33
0.047028
62
0
0
3DFACE
8
GEM
10
-0.463250
20
-0.772887
30
0.047028
11
-0.463250
21
-0.772887
31
0.024932
12
-0.385264
22
-0.814572
32
0.007161
13
-0.385264
23
-0.814572
33
0.007161
62
0
0
3DFACE
8
GEM
10
-0.463250
20
-0.772887
30
0.047028
11
-0.385264
21
-0.814572
31
0.007161
12
-0.385264
22
-0.814572
32
0.060375
13
-0.385264
23
-0.814572
33
0.060375
62
0
0
3DFACE
8
GEM
10
-0.385264
20
-0.814572
30
0.060375
11
-0.385264
21
-0.814572
31
0.007161
12
-0.344415
22
-0.831492
32
-0.010524
13
-0.344415
23
-0.831492
33
-0.010524
62
0
0
3DFACE
8
GEM
10
-0.385264
20
-0.814572
30
0.060375
11
-0.344415
21
-0.831492
31
-0.010524
12
-0.303567
22
-0.848412
32
0.007161
13
-0.303567
23
-0.848412
33
0.007161
62
0
0
3DFACE
8
GEM
10
-0.385264
20
-0.814572
30
0.060375
11
-0.303567
21
-0.848412
31
0.007161
12
-0.303567
22
-0.848412
32
0.060375
13
-0.303567
23
-0.848412
33
0.060375
62
0
0
3DFACE
8
GEM
10
-0.385264
20
-0.814572
30
0.060375
11
-0.303567
21
-0.848412
31
0.060375
12
-0.344415
22
-0.831492
32
0.073658
13
-0.344415
23
-0.831492
33
0.073658
62
0
0
3DFACE
8
GEM
10
-0.303567
20
-0.848412
30
0.060375
11
-0.303567
21
-0.848412
31
0.007161
12
-0.218946
22
-0.874081
32
0.024932
13
-0.218946
23
-0.874081
33
0.024932
62
0
0
3DFACE
8
GEM
10
-0.303567
20
-0.848412
30
0.060375
11
-0.218946
21
-0.874081
31
0.024932
12
-0.218946
22
-0.874081
32
0.047028
13
-0.218946
23
-0.874081
33
0.047028
62
0
0
3DFACE
8
GEM
10
-0.218946
20
-0.874081
30
0.047028
11
-0.218946
21
-0.874081
31
0.024932
12
-0.132217
22
-0.891333
32
0.024932
13
-0.132217
23
-0.891333
33
0.024932
62
0
0
3DFACE
8
GEM
10
-0.218946
20
-0.874081
30
0.047028
11
-0.132217
21
-0.891333
31
0.024932
12
-0.132217
22
-0.891333
32
0.047028
13
-0.132217
23
-0.891333
33
0.047028
62
0
0
3DFACE
8
GEM
10
-0.132217
20
-0.891333
30
0.047028
11
-0.132217
21
-0.891333
31
0.024932
12
-0.044214
22
-0.900000
32
0.007161
13
-0.044214
23
-0.900000
33
0.007161
62
0
0
3DFACE
8
GEM
10
-0.132217
20
-0.891333
30
0.047028
11
-0.044214
21
-0.900000
31
0.007161
12
-0.044214
22
-0.900000
32
0.060375
13
-0.044214
23
-0.900000
33
0.060375
62
0
0
3DFACE
8
GEM
10
-0.044214
20
-0.900000
30
0.060375
11
-0.044214
21
-0.900000
31
0.007161
12
0.000000
22
-0.900000
32
-0.010524
13
0.000000
23
-0.900000
33
-0.010524
62
0
0
3DFACE
8
GEM
10
-0.044214
20
-0.900000
30
0.060375
11
0.000000
21
-0.900000
31
-0.010524
12
0.044214
22
-0.900000
32
0.007161
13
0.044214
23
-0.900000
33
0.007161
62
0
0
3DFACE
8
GEM
10
-0.044214
20
-0.900000
30
0.060375
11
0.044214
21
-0.900000
31
0.007161
12
0.044214
22
-0.900000
32
0.060375
13
0.044214
23
-0.900000
33
0.060375
62
0
0
3DFACE
8
GEM
10
-0.044214
20
-0.900000
30
0.060375
11
0.044214
21
-0.900000
31
0.060375
12
-0.000000
22
-0.900000
32
0.073658
13
-0.000000
23
-0.900000
33
0.073658
62
0
0
3DFACE
8
GEM
10
0.044214
20
-0.900000
30
0.060375
11
0.044214
21
-0.900000
31
0.007161
12
0.132217
22
-0.891333
32
0.024932
13
0.132217
23
-0.891333
33
0.024932
62
0
0
3DFACE
8
GEM
10
0.044214
20
-0.900000
30
0.060375
11
0.132217
21
-0.891333
31
0.024932
12
0.132217
22
-0.891333
32
0.047028
13
0.132217
23
-0.891333
33
0.047028
62
0
0
3DFACE
8
GEM
10
0.132217
20
-0.891333
30
0.047028
11
0.132217
21
-0.891333
31
0.024932
12
0.218946
22
-0.874081
32
0.024932
13
0.218946
23
-0.874081
33
0.024932
62
0
0
3DFACE
8
GEM
10
0.132217
20
-0.891333
30
0.047028
11
0.218946
21
-0.874081
31
0.024932
12
0.218946
22
-0.874081
32
0.047028
13
0.218946
23
-0.874081
33
0.047028
62
0
0
3DFACE
8
GEM
10
0.218946
20
-0.874081
30
0.047028
11
0.218946
21
-0.874081
31
0.024932
12
0.303567
22
-0.848412
32
0.007161
13
0.303567
23
-0.848412
33
0.007161
62
0
0
3DFACE
8
GEM
10
0.218946
20
-0.874081
30
0.047028
11
0.303567
21
-0.848412
31
0.007161
12
0.303567
22
-0.848412
32
0.060375
13
0.303567
23
-0.848412
33
0.060375
62
0
0
3DFACE
8
GEM
10
0.303567
20
-0.848412
30
0.060375
11
0.303567
21
-0.848412
31
0.007161
12
0.344415
22
-0.831492
32
-0.010524
13
0.344415
23
-0.831492
33
-0.010524
62
0
0
3DFACE
8
GEM
10
0.303567
20
-0.848412
30
0.060375
11
0.344415
21
-0.831492
31
-0.010524
12
0.385264
22
-0.814572
32
0.007161
13
0.385264
23
-0.814572
33
0.007161
62
0
0
3DFACE
8
GEM
10
0.303567
20
-0.848412
30
0.060375
11
0.385264
21
-0.814572
31
0.007161
12
0.385264
22
-0.814572
32
0.060375
13
0.385264
23
-0.814572
33
0.060375
62
0
0
3DFACE
8
GEM
10
0.303567
20
-0.848412
30
0.060375
11
0.385264
21
-0.814572
31
0.060375
12
0.344415
22
-0.831492
32
0.073658
13
0.344415
23
-0.831492
33
0.073658
62
0
0
3DFACE
8
GEM
10
0.385264
20
-0.814572
30
0.060375
11
0.385264
21
-0.814572
31
0.007161
12
0.463250
22
-0.772887
32
0.024932
13
0.463250
23
-0.772887
33
0.024932
62
0
0
3DFACE
8
GEM
10
0.385264
20
-0.814572
30
0.060375
11
0.463250
21
-0.772887
31
0.024932
12
0.463250
22
-0.772887
32
0.047028
13
0.463250
23
-0.772887
33
0.047028
62
0
0
3DFACE
8
GEM
10
0.463250
20
-0.772887
30
0.047028
11
0.463250
21
-0.772887
31
0.024932
12
0.536776
22
-0.723759
32
0.024932
13
0.536776
23
-0.723759
33
0.024932
62
0
0
3DFACE
8
GEM
10
0.463250
20
-0.772887
30
0.047028
11
0.536776
21
-0.723759
31
0.024932
12
0.536776
22
-0.723759
32
0.047028
13
0.536776
23
-0.723759
33
0.047028
62
0
0
3DFACE
8
GEM
10
0.536776
20
-0.723759
30
0.047028
11
0.536776
21
-0.723759
31
0.024932
12
0.605132
22
-0.667660
32
0.007161
13
0.605132
23
-0.667660
33
0.007161
62
0
0
3DFACE
8
GEM
10
0.536776
20
-0.723759
30
0.047028
11
0.605132
21
-0.667660
31
0.007161
12
0.605132
22
-0.667660
32
0.060375
13
0.605132
23
-0.667660
33
0.060375
62
0
0
3DFACE
8
GEM
10
0.605132
20
-0.667660
30
0.060375
11
0.605132
21
-0.667660
31
0.007161
12
0.636396
22
-0.636396
32
-0.010524
13
0.636396
23
-0.636396
33
-0.010524
62
0
0
3DFACE
8
GEM
10
0.605132
20
-0.667660
30
0.060375
11
0.636396
21
-0.636396
31
-0.010524
12
0.667660
22
-0.605132
32
0.007161
13
0.667660
23
-0.605132
33
0.007161
62
0
0
3DFACE
8
GEM
10
0.605132
20
-0.667660
30
0.060375
11
0.667660
21
-0.605132
31
0.007161
12
0.667660
22
-0.605132
32
0.060375
13
0.667660
23
-0.605132
33
0.060375
62
0
0
3DFACE
8
GEM
10
0.605132
20
-0.667660
30
0.060375
11
0.667660
21
-0.605132
31
0.060375
12
0.636396
22
-0.636396
32
0.073658
13
0.636396
23
-0.636396
33
0.073658
62
0
0
3DFACE
8
GEM
10
0.667660
20
-0.605132
30
0.060375
11
0.667660
21
-0.605132
31
0.007161
12
0.723759
22
-0.536776
32
0.024932
13
0.723759
23
-0.536776
33
0.024932
62
0
0
3DFACE
8
GEM
10
0.667660
20
-0.605132
30
0.060375
11
0.723759
21
-0.536776
31
0.024932
12
0.723759
22
-0.536776
32
0.047028
13
0.723759
23
-0.536776
33
0.047028
62
0
0
3DFACE
8
GEM
10
0.723759
20
-0.536776
30
0.047028
11
0.723759
21
-0.536776
31
0.024932
12
0.772887
22
-0.463250
32
0.024932
13
0.772887
23
-0.463250
33
0.024932
62
0
0
3DFACE
8
GEM
10
0.723759
20
-0.536776
30
0.047028
11
0.772887
21
-0.463250
31
0.024932
12
0.772887
22
-0.463250
32
0.047028
13
0.772887
23
-0.463250
33
0.047028
62
0
0
3DFACE
8
GEM
10
0.772887
20
-0.463250
30
0.047028
11
0.772887
21
-0.463250
31
0.024932
12
0.814572
22
-0.385264
32
0.007161
13
0.814572
23
-0.385264
33
0.007161
62
0
0
3DFACE
8
GEM
10
0.772887
20
-0.463250
30
0.047028
11
0.814572
21
-0.385264
31
0.007161
12
0.814572
22
-0.385264
32
0.060375
13
0.814572
23
-0.385264
33
0.060375
62
0
0
3DFACE
8
GEM
10
0.814572
20
-0.385264
30
0.060375
11
0.814572
21
-0.385264
31
0.007161
12
0.831492
22
-0.344415
32
-0.010524
13
0.831492
23
-0.344415
33
-0.010524
62
0
0
3DFACE
8
GEM
10
0.814572
20
-0.385264
30
0.060375
11
0.831492
21
-0.344415
31
-0.010524
12
0.848412
22
-0.303567
32
0.007161
13
0.848412
23
-0.303567
33
0.007161
62
0
0
3DFACE
8
GEM
10
0.814572
20
-0.385264
30
0.060375
11
0.848412
21
-0.303567
31
0.007161
12
0.848412
22
-0.303567
32
0.060375
13
0.848412
23
-0.303567
33
0.060375
62
0
0
3DFACE
8
GEM
10
0.814572
20
-0.385264
30
0.060375
11
0.848412
21
-0.303567
31
0.060375
12
0.831492
22
-0.344415
32
0.073658
13
0.831492
23
-0.344415
33
0.073658
62
0
0
3DFACE
8
GEM
10
0.848412
20
-0.303567
30
0.060375
11
0.848412
21
-0.303567
31
0.007161
12
0.874081
22
-0.218946
32
0.024932
13
0.874081
23
-0.218946
33
0.024932
62
0
0
3DFACE
8
GEM
10
0.848412
20
-0.303567
30
0.060375
11
0.874081
21
-0.218946
31
0.024932
12
0.874081
22
-0.218946
32
0.047028
13
0.874081
23
-0.218946
33
0.047028
62
0
0
3DFACE
8
GEM
10
0.874081
20
-0.218946
30
0.047028
11
0.874081
21
-0.218946
31
0.024932
12
0.891333
22
-0.132217
32
0.024932
13
0.891333
23
-0.132217
33
0.024932
62
0
0
3DFACE
8
GEM
10
0.874081
20
-0.218946
30
0.047028
11
0.891333
21
-0.132217
31
0.024932
12
0.891333
22
-0.132217
32
0.047028
13
0.891333
23
-0.132217
33
0.047028
62
0
0
3DFACE
8
GEM
10
0.891333
20
-0.132217
30
0.047028
11
0.891333
21
-0.132217
31
0.024932
12
0.900000
22
-0.044214
32
0.007161
13
0.900000
23
-0.044214
33
0.007161
62
0
0
3DFACE
8
GEM
10
0.891333
20
-0.132217
30
0.047028
11
0.900000
21
-0.044214
31
0.007161
12
0.900000
22
-0.044214
32
0.060375
13
0.900000
23
-0.044214
33
0.060375
62
0
0
3DFACE
8
GEM
10
0.900000
20
-0.044214
30
0.060375
11
0.900000
21
-0.044214
31
0.007161
12
0.900000
22
0.000000
32
-0.010524
13
0.900000
23
0.000000
33
-0.010524
62
0
0
3DFACE
8
GEM
10
0.900000
20
-0.044214
30
0.060375
11
0.900000
21
0.000000
31
-0.010524
12
0.900000
22
0.044214
32
0.007161
13
0.900000
23
0.044214
33
0.007161
62
0
0
3DFACE
8
GEM
10
0.900000
20
-0.044214
30
0.060375
11
0.900000
21
0.044214
31
0.007161
12
0.900000
22
0.044214
32
0.060375
13
0.900000
23
0.044214
33
0.060375
62
0
0
3DFACE
8
GEM
10
0.900000
20
-0.044214
30
0.060375
11
0.900000
21
0.044214
31
0.060375
12
0.900000
22
-0.000000
32
0.073658
13
0.900000
23
-0.000000
33
0.073658
62
0
0
3DFACE
8
GEM
10
0.900000
20
0.044214
30
0.060375
11
0.900000
21
0.044214
31
0.007161
12
0.891333
22
0.132217
32
0.024932
13
0.891333
23
0.132217
33
0.024932
62
0
0
3DFACE
8
GEM
10
0.900000
20
0.044214
30
0.060375
11
0.891333
21
0.132217
31
0.024932
12
0.891333
22
0.132217
32
0.047028
13
0.891333
23
0.132217
33
0.047028
62
0
0
3DFACE
8
GEM
10
0.891333
20
0.132217
30
0.047028
11
0.891333
21
0.132217
31
0.024932
12
0.874081
22
0.218946
32
0.024932
13
0.874081
23
0.218946
33
0.024932
62
0
0
3DFACE
8
GEM
10
0.891333
20
0.132217
30
0.047028
11
0.874081
21
0.218946
31
0.024932
12
0.874081
22
0.218946
32
0.047028
13
0.874081
23
0.218946
33
0.047028
62
0
0
3DFACE
8
GEM
10
0.874081
20
0.218946
30
0.047028
11
0.874081
21
0.218946
31
0.024932
12
0.848412
22
0.303567
32
0.007161
13
0.848412
23
0.303567
33
0.007161
62
0
0
3DFACE
8
GEM
10
0.874081
20
0.218946
30
0.047028
11
0.848412
21
0.303567
31
0.007161
12
0.848412
22
0.303567
32
0.060375
13
0.848412
23
0.303567
33
0.060375
62
0
0
3DFACE
8
GEM
10
0.848412
20
0.303567
30
0.060375
11
0.848412
21
0.303567
31
0.007161
12
0.831492
22
0.344415
32
-0.010524
13
0.831492
23
0.344415
33
-0.010524
62
0
0
3DFACE
8
GEM
10
0.848412
20
0.303567
30
0.060375
11
0.831492
21
0.344415
31
-0.010524
12
0.814572
22
0.385264
32
0.007161
13
0.814572
23
0.385264
33
0.007161
62
0
0
3DFACE
8
GEM
10
0.848412
20
0.303567
30
0.060375
11
0.814572
21
0.385264
31
0.007161
12
0.814572
22
0.385264
32
0.060375
13
0.814572
23
0.385264
33
0.060375
62
0
0
3DFACE
8
GEM
10
0.848412
20
0.303567
30
0.060375
11
0.814572
21
0.385264
31
0.060375
12
0.831492
22
0.344415
32
0.073658
13
0.831492
23
0.344415
33
0.073658
62
0
0
3DFACE
8
GEM
10
0.814572
20
0.385264
30
0.060375
11
0.814572
21
0.385264
31
0.007161
12
0.772887
22
0.463250
32
0.024932
13
0.772887
23
0.463250
33
0.024932
62
0
0
3DFACE
8
GEM
10
0.814572
20
0.385264
30
0.060375
11
0.772887
21
0.463250
31
0.024932
12
0.772887
22
0.463250
32
0.047028
13
0.772887
23
0.463250
33
0.047028
62
0
0
3DFACE
8
GEM
10
0.772887
20
0.463250
30
0.047028
11
0.772887
21
0.463250
31
0.024932
12
0.723759
22
0.536776
32
0.024932
13
0.723759
23
0.536776
33
0.024932
62
0
0
3DFACE
8
GEM
10
0.772887
20
0.463250
30
0.047028
11
0.723759
21
0.536776
31
0.024932
12
0.723759
22
0.536776
32
0.047028
13
0.723759
23
0.536776
33
0.047028
62
0
0
3DFACE
8
GEM
10
0.723759
20
0.536776
30
0.047028
11
0.723759
21
0.536776
31
0.024932
12
0.667660
22
0.605132
32
0.007161
13
0.667660
23
0.605132
33
0.007161
62
0
0
3DFACE
8
GEM
10
0.723759
20
0.536776
30
0.047028
11
0.667660
21
0.605132
31
0.007161
12
0.667660
22
0.605132
32
0.060375
13
0.667660
23
0.605132
33
0.060375
62
0
0
3DFACE
8
GEM
10
0.667660
20
0.605132
30
0.060375
11
0.667660
21
0.605132
31
0.007161
12
0.636396
22
0.636396
32
-0.010524
13
0.636396
23
0.636396
33
-0.010524
62
0
0
3DFACE
8
GEM
10
0.667660
20
0.605132
30
0.060375
11
0.636396
21
0.636396
31
-0.010524
12
0.605132
22
0.667660
32
0.007161
13
0.605132
23
0.667660
33
0.007161
62
0
0
3DFACE
8
GEM
10
0.667660
20
0.605132
30
0.060375
11
0.605132
21
0.667660
31
0.007161
12
0.605132
22
0.667660
32
0.060375
13
0.605132
23
0.667660
33
0.060375
62
0
0
3DFACE
8
GEM
10
0.667660
20
0.605132
30
0.060375
11
0.605132
21
0.667660
31
0.060375
12
0.636396
22
0.636396
32
0.073658
13
0.636396
23
0.636396
33
0.073658
62
0
0
3DFACE
8
GEM
10
0.605132
20
0.667660
30
0.060375
11
0.605132
21
0.667660
31
0.007161
12
0.536776
22
0.723759
32
0.024932
13
0.536776
23
0.723759
33
0.024932
62
0
0
3DFACE
8
GEM
10
0.605132
20
0.667660
30
0.060375
11
0.536776
21
0.723759
31
0.024932
12
0.536776
22
0.723759
32
0.047028
13
0.536776
23
0.723759
33
0.047028
62
0
0
3DFACE
8
GEM
10
0.536776
20
0.723759
30
0.047028
11
0.536776
21
0.723759
31
0.024932
12
0.463250
22
0.772887
32
0.024932
13
0.463250
23
0.772887
33
0.024932
62
0
0
3DFACE
8
GEM
10
0.536776
20
0.723759
30
0.047028
11
0.463250
21
0.772887
31
0.024932
12
0.463250
22
0.772887
32
0.047028
13
0.463250
23
0.772887
33
0.047028
62
0
0
3DFACE
8
GEM
10
0.463250
20
0.772887
30
0.047028
11
0.463250
21
0.772887
31
0.024932
12
0.385264
22
0.814572
32
0.007161
13
0.385264
23
0.814572
33
0.007161
62
0
0
3DFACE
8
GEM
10
0.463250
20
0.772887
30
0.047028
11
0.385264
21
0.814572
31
0.007161
12
0.385264
22
0.814572
32
0.060375
13
0.385264
23
0.814572
33
0.060375
62
0
0
3DFACE
8
GEM
10
0.385264
20
0.814572
30
0.060375
11
0.385264
21
0.814572
31
0.007161
12
0.344415
22
0.831492
32
-0.010524
13
0.344415
23
0.831492
33
-0.010524
62
0
0
3DFACE
8
GEM
10
0.385264
20
0.814572
30
0.060375
11
0.344415
21
0.831492
31
-0.010524
12
0.303567
22
0.848412
32
0.007161
13
0.303567
23
0.848412
33
0.007161
62
0
0
3DFACE
8
GEM
10
0.385264
20
0.814572
30
0.060375
11
0.303567
21
0.848412
31
0.007161
12
0.303567
22
0.848412
32
0.060375
13
0.303567
23
0.848412
33
0.060375
62
0
0
3DFACE
8
GEM
10
0.385264
20
0.814572
30
0.060375
11
0.303567
21
0.848412
31
0.060375
12
0.344415
22
0.831492
32
0.073658
13
0.344415
23
0.831492
33
0.073658
62
0
0
3DFACE
8
GEM
10
0.303567
20
0.848412
30
0.060375
11
0.303567
21
0.848412
31
0.007161
12
0.218946
22
0.874081
32
0.024932
13
0.218946
23
0.874081
33
0.024932
62
0
0
3DFACE
8
GEM
10
0.303567
20
0.848412
30
0.060375
11
0.218946
21
0.874081
31
0.024932
12
0.218946
22
0.874081
32
0.047028
13
0.218946
23
0.874081
33
0.047028
62
0
0
3DFACE
8
GEM
10
0.218946
20
0.874081
30
0.047028
11
0.218946
21
0.874081
31
0.024932
12
0.132217
22
0.891333
32
0.024932
13
0.132217
23
0.891333
33
0.024932
62
0
0
3DFACE
8
GEM
10
0.218946
20
0.874081
30
0.047028
11
0.132217
21
0.891333
31
0.024932
12
0.132217
22
0.891333
32
0.047028
13
0.132217
23
0.891333
33
0.047028
62
0
0
3DFACE
8
GEM
10
0.044214
20
0.900000
30
0.007161
11
0.044214
21
0.900000
31
0.060375
12
0.132217
22
0.891333
32
0.047028
13
0.132217
23
0.891333
33
0.047028
62
0
0
3DFACE
8
GEM
10
0.044214
20
0.900000
30
0.007161
11
0.132217
21
0.891333
31
0.047028
12
0.132217
22
0.891333
32
0.024932
13
0.132217
23
0.891333
33
0.024932
62
0
0
3DFACE
8
GEM
10
-0.044214
20
0.900000
30
0.007161
11
-0.000000
21
0.900000
31
-0.010524
12
-0.000000
22
0.789143
32
-0.233447
13
-0.000000
23
0.789143
33
-0.233447
62
0
0
3DFACE
8
GEM
10
-0.044214
20
0.900000
30
0.007161
11
-0.000000
21
0.789143
31
-0.233447
12
-0.301992
22
0.729073
32
-0.233447
13
-0.301992
23
0.729073
33
-0.233447
62
0
0
3DFACE
8
GEM
10
-0.044214
20
0.900000
30
0.007161
11
-0.301992
21
0.729073
31
-0.233447
12
-0.344415
22
0.831492
32
-0.010524
13
-0.344415
23
0.831492
33
-0.010524
62
0
0
3DFACE
8
GEM
10
-0.044214
20
0.900000
30
0.007161
11
-0.344415
21
0.831492
31
-0.010524
12
-0.303567
22
0.848412
32
0.007161
13
-0.303567
23
0.848412
33
0.007161
62
0
0
3DFACE
8
GEM
10
-0.044214
20
0.900000
30
0.007161
11
-0.303567
21
0.848412
31
0.007161
12
-0.218946
22
0.874081
32
0.024932
13
-0.218946
23
0.874081
33
0.024932
62
0
0
3DFACE
8
GEM
10
-0.044214
20
0.900000
30
0.007161
11
-0.218946
21
0.874081
31
0.024932
12
-0.132217
22
0.891333
32
0.024932
13
-0.132217
23
0.891333
33
0.024932
62
0
0
3DFACE
8
GEM
10
-0.385264
20
0.814572
30
0.007161
11
-0.344415
21
0.831492
31
-0.010524
12
-0.301992
22
0.729073
32
-0.233447
13
-0.301992
23
0.729073
33
-0.233447
62
0
0
3DFACE
8
GEM
10
-0.385264
20
0.814572
30
0.007161
11
-0.301992
21
0.729073
31
-0.233447
12
-0.558008
22
0.558008
32
-0.233447
13
-0.558008
23
0.558008
33
-0.233447
62
0
0
3DFACE
8
GEM
10
-0.385264
20
0.814572
30
0.007161
11
-0.558008
21
0.558008
31
-0.233447
12
-0.636396
22
0.636396
32
-0.010524
13
-0.636396
23
0.636396
33
-0.010524
62
0
0
3DFACE
8
GEM
10
-0.385264
20
0.814572
30
0.007161
11
-0.636396
21
0.636396
31
-0.010524
12
-0.605132
22
0.667660
32
0.007161
13
-0.605132
23
0.667660
33
0.007161
62
0
0
3DFACE
8
GEM
10
-0.385264
20
0.814572
30
0.007161
11
-0.605132
21
0.667660
31
0.007161
12
-0.536776
22
0.723759
32
0.024932
13
-0.536776
23
0.723759
33
0.024932
62
0
0
3DFACE
8
GEM
10
-0.385264
20
0.814572
30
0.007161
11
-0.536776
21
0.723759
31
0.024932
12
-0.463250
22
0.772887
32
0.024932
13
-0.463250
23
0.772887
33
0.024932
62
0
0
3DFACE
8
GEM
10
-0.667660
20
0.605132
30
0.007161
11
-0.636396
21
0.636396
31
-0.010524
12
-0.558008
22
0.558008
32
-0.233447
13
-0.558008
23
0.558008
33
-0.233447
62
0
0
3DFACE
8
GEM
10
-0.667660
20
0.605132
30
0.007161
11
-0.558008
21
0.558008
31
-0.233447
12
-0.729073
22
0.301992
32
-0.233447
13
-0.729073
23
0.301992
33
-0.233447
62
0
0
3DFACE
8
GEM
10
-0.667660
20
0.605132
30
0.007161
11
-0.729073
21
0.301992
31
-0.233447
12
-0.831492
22
0.344415
32
-0.010524
13
-0.831492
23
0.344415
33
-0.010524
62
0
0
3DFACE
8
GEM
10
-0.667660
20
0.605132
30
0.007161
11
-0.831492
21
0.344415
31
-0.010524
12
-0.814572
22
0.385264
32
0.007161
13
-0.814572
23
0.385264
33
0.007161
62
0
0
3DFACE
8
GEM
10
-0.667660
20
0.605132
30
0.007161
11
-0.814572
21
0.385264
31
0.007161
12
-0.772887
22
0.463250
32
0.024932
13
-0.772887
23
0.463250
33
0.024932
62
0
0
3DFACE
8
GEM
10
-0.667660
20
0.605132
30
0.007161
11
-0.772887
21
0.463250
31
0.024932
12
-0.723759
22
0.536776
32
0.024932
13
-0.723759
23
0.536776
33
0.024932
62
0
0
3DFACE
8
GEM
10
-0.848412
20
0.303567
30
0.007161
11
-0.831492
21
0.344415
31
-0.010524
12
-0.729073
22
0.301992
32
-0.233447
13
-0.729073
23
0.301992
33
-0.233447
62
0
0
3DFACE
8
GEM
10
-0.848412
20
0.303567
30
0.007161
11
-0.729073
21
0.301992
31
-0.233447
12
-0.789143
22
-0.000000
32
-0.233447
13
-0.789143
23
-0.000000
33
-0.233447
62
0
0
3DFACE
8
GEM
10
-0.848412
20
0.303567
30
0.007161
11
-0.789143
21
-0.000000
31
-0.233447
12
-0.900000
22
-0.000000
32
-0.010524
13
-0.900000
23
-0.000000
33
-0.010524
62
0
0
3DFACE
8
GEM
10
-0.848412
20
0.303567
30
0.007161
11
-0.900000
21
-0.000000
31
-0.010524
12
-0.900000
22
0.044214
32
0.007161
13
-0.900000
23
0.044214
33
0.007161
62
0
0
3DFACE
8
GEM
10
-0.848412
20
0.303567
30
0.007161
11
-0.900000
21
0.044214
31
0.007161
12
-0.891333
22
0.132217
32
0.024932
13
-0.891333
23
0.132217
33
0.024932
62
0
0
3DFACE
8
GEM
10
-0.848412
20
0.303567
30
0.007161
11
-0.891333
21
0.132217
31
0.024932
12
-0.874081
22
0.218946
32
0.024932
13
-0.874081
23
0.218946
33
0.024932
62
0
0
3DFACE
8
GEM
10
-0.900000
20
-0.044214
30
0.007161
11
-0.900000
21
-0.000000
31
-0.010524
12
-0.789143
22
-0.000000
32
-0.233447
13
-0.789143
23
-0.000000
33
-0.233447
62
0
0
3DFACE
8
GEM
10
-0.900000
20
-0.044214
30
0.007161
11
-0.789143
21
-0.000000
31
-0.233447
12
-0.729073
22
-0.301992
32
-0.233447
13
-0.729073
23
-0.301992
33
-0.233447
62
0
0
3DFACE
8
GEM
10
-0.900000
20
-0.044214
30
0.007161
11
-0.729073
21
-0.301992
31
-0.233447
12
-0.831492
22
-0.344415
32
-0.010524
13
-0.831492
23
-0.344415
33
-0.010524
62
0
0
3DFACE
8
GEM
10
-0.900000
20
-0.044214
30
0.007161
11
-0.831492
21
-0.344415
31
-0.010524
12
-0.848412
22
-0.303567
32
0.007161
13
-0.848412
23
-0.303567
33
0.007161
62
0
0
3DFACE
8
GEM
10
-0.900000
20
-0.044214
30
0.007161
11
-0.848412
21
-0.303567
31
0.007161
12
-0.874081
22
-0.218946
32
0.024932
13
-0.874081
23
-0.218946
33
0.024932
62
0
0
3DFACE
8
GEM
10
-0.900000
20
-0.044214
30
0.007161
11
-0.874081
21
-0.218946
31
0.024932
12
-0.891333
22
-0.132217
32
0.024932
13
-0.891333
23
-0.132217
33
0.024932
62
0
0
3DFACE
8
GEM
10
-0.814572
20
-0.385264
30
0.007161
11
-0.831492
21
-0.344415
31
-0.010524
12
-0.729073
22
-0.301992
32
-0.233447
13
-0.729073
23
-0.301992
33
-0.233447
62
0
0
3DFACE
8
GEM
10
-0.814572
20
-0.385264
30
0.007161
11
-0.729073
21
-0.301992
31
-0.233447
12
-0.558008
22
-0.558008
32
-0.233447
13
-0.558008
23
-0.558008
33
-0.233447
62
0
0
3DFACE
8
GEM
10
-0.814572
20
-0.385264
30
0.007161
11
-0.558008
21
-0.558008
31
-0.233447
12
-0.636396
22
-0.636396
32
-0.010524
13
-0.636396
23
-0.636396
33
-0.010524
62
0
0
3DFACE
8
GEM
10
-0.814572
20
-0.385264
30
0.007161
11
-0.636396
21
-0.636396
31
-0.010524
12
-0.667660
22
-0.605132
32
0.007161
13
-0.667660
23
-0.605132
33
0.007161
62
0
0
3DFACE
8
GEM
10
-0.814572
20
-0.385264
30
0.007161
11
-0.667660
21
-0.605132
31
0.007161
12
-0.723759
22
-0.536776
32
0.024932
13
-0.723759
23
-0.536776
33
0.024932
62
0
0
3DFACE
8
GEM
10
-0.814572
20
-0.385264
30
0.007161
11
-0.723759
21
-0.536776
31
0.024932
12
-0.772887
22
-0.463250
32
0.024932
13
-0.772887
23
-0.463250
33
0.024932
62
0
0
3DFACE
8
GEM
10
-0.605132
20
-0.667660
30
0.007161
11
-0.636396
21
-0.636396
31
-0.010524
12
-0.558008
22
-0.558008
32
-0.233447
13
-0.558008
23
-0.558008
33
-0.233447
62
0
0
3DFACE
8
GEM
10
-0.605132
20
-0.667660
30
0.007161
11
-0.558008
21
-0.558008
31
-0.233447
12
-0.301992
22
-0.729073
32
-0.233447
13
-0.301992
23
-0.729073
33
-0.233447
62
0
0
3DFACE
8
GEM
10
-0.605132
20
-0.667660
30
0.007161
11
-0.301992
21
-0.729073
31
-0.233447
12
-0.344415
22
-0.831492
32
-0.010524
13
-0.344415
23
-0.831492
33
-0.010524
62
0
0
3DFACE
8
GEM
10
-0.605132
20
-0.667660
30
0.007161
11
-0.344415
21
-0.831492
31
-0.010524
12
-0.385264
22
-0.814572
32
0.007161
13
-0.385264
23
-0.814572
33
0.007161
62
0
0
3DFACE
8
GEM
10
-0.605132
20
-0.667660
30
0.007161
11
-0.385264
21
-0.814572
31
0.007161
12
-0.463250
22
-0.772887
32
0.024932
13
-0.463250
23
-0.772887
33
0.024932
62
0
0
3DFACE
8
GEM
10
-0.605132
20
-0.667660
30
0.007161
11
-0.463250
21
-0.772887
31
0.024932
12
-0.536776
22
-0.723759
32
0.024932
13
-0.536776
23
-0.723759
33
0.024932
62
0
0
3DFACE
8
GEM
10
-0.303567
20
-0.848412
30
0.007161
11
-0.344415
21
-0.831492
31
-0.010524
12
-0.301992
22
-0.729073
32
-0.233447
13
-0.301992
23
-0.729073
33
-0.233447
62
0
0
3DFACE
8
GEM
10
-0.303567
20
-0.848412
30
0.007161
11
-0.301992
21
-0.729073
31
-0.233447
12
0.000000
22
-0.789143
32
-0.233447
13
0.000000
23
-0.789143
33
-0.233447
62
0
0
3DFACE
8
GEM
10
-0.303567
20
-0.848412
30
0.007161
11
0.000000
21
-0.789143
31
-0.233447
12
0.000000
22
-0.900000
32
-0.010524
13
0.000000
23
-0.900000
33
-0.010524
62
0
0
3DFACE
8
GEM
10
-0.303567
20
-0.848412
30
0.007161
11
0.000000
21
-0.900000
31
-0.010524
12
-0.044214
22
-0.900000
32
0.007161
13
-0.044214
23
-0.900000
33
0.007161
62
0
0
3DFACE
8
GEM
10
-0.303567
20
-0.848412
30
0.007161
11
-0.044214
21
-0.900000
31
0.007161
12
-0.132217
22
-0.891333
32
0.024932
13
-0.132217
23
-0.891333
33
0.024932
62
0
0
3DFACE
8
GEM
10
-0.303567
20
-0.848412
30
0.007161
11
-0.132217
21
-0.891333
31
0.024932
12
-0.218946
22
-0.874081
32
0.024932
13
-0.218946
23
-0.874081
33
0.024932
62
0
0
3DFACE
8
GEM
10
0.044214
20
-0.900000
30
0.007161
11
0.000000
21
-0.900000
31
-0.010524
12
0.000000
22
-0.789143
32
-0.233447
13
0.000000
23
-0.789143
33
-0.233447
62
0
0
3DFACE
8
GEM
10
0.044214
20
-0.900000
30
0.007161
11
0.000000
21
-0.789143
31
-0.233447
12
0.301992
22
-0.729073
32
-0.233447
13
0.301992
23
-0.729073
33
-0.233447
62
0
0
3DFACE
8
GEM
10
0.044214
20
-0.900000
30
0.007161
11
0.301992
21
-0.729073
31
-0.233447
12
0.344415
22
-0.831492
32
-0.010524
13
0.344415
23
-0.831492
33
-0.010524
62
0
0
3DFACE
8
GEM
10
0.044214
20
-0.900000
30
0.007161
11
0.344415
21
-0.831492
31
-0.010524
12
0.303567
22
-0.848412
32
0.007161
13
0.303567
23
-0.848412
33
0.007161
62
0
0
3DFACE
8
GEM
10
0.044214
20
-0.900000
30
0.007161
11
0.303567
21
-0.848412
31
0.007161
12
0.218946
22
-0.874081
32
0.024932
13
0.218946
23
-0.874081
33
0.024932
62
0
0
3DFACE
8
GEM
10
0.044214
20
-0.900000
30
0.007161
11
0.218946
21
-0.874081
31
0.024932
12
0.132217
22
-0.891333
32
0.024932
13
0.132217
23
-0.891333
33
0.024932
62
0
0
3DFACE
8
GEM
10
0.385264
20
-0.814572
30
0.007161
11
0.344415
21
-0.831492
31
-0.010524
12
0.301992
22
-0.729073
32
-0.233447
13
0.301992
23
-0.729073
33
-0.233447
62
0
0
3DFACE
8
GEM
10
0.385264
20
-0.814572
30
0.007161
11
0.301992
21
-0.729073
31
-0.233447
12
0.558008
22
-0.558008
32
-0.233447
13
0.558008
23
-0.558008
33
-0.233447
62
0
0
3DFACE
8
GEM
10
0.385264
20
-0.814572
30
0.007161
11
0.558008
21
-0.558008
31
-0.233447
12
0.636396
22
-0.636396
32
-0.010524
13
0.636396
23
-0.636396
33
-0.010524
62
0
0
3DFACE
8
GEM
10
0.385264
20
-0.814572
30
0.007161
11
0.636396
21
-0.636396
31
-0.010524
12
0.605132
22
-0.667660
32
0.007161
13
0.605132
23
-0.667660
33
0.007161
62
0
0
3DFACE
8
GEM
10
0.385264
20
-0.814572
30
0.007161
11
0.605132
21
-0.667660
31
0.007161
12
0.536776
22
-0.723759
32
0.024932
13
0.536776
23
-0.723759
33
0.024932
62
0
0
3DFACE
8
GEM
10
0.385264
20
-0.814572
30
0.007161
11
0.536776
21
-0.723759
31
0.024932
12
0.463250
22
-0.772887
32
0.024932
13
0.463250
23
-0.772887
33
0.024932
62
0
0
3DFACE
8
GEM
10
0.667660
20
-0.605132
30
0.007161
11
0.636396
21
-0.636396
31
-0.010524
12
0.558008
22
-0.558008
32
-0.233447
13
0.558008
23
-0.558008
33
-0.233447
62
0
0
3DFACE
8
GEM
10
0.667660
20
-0.605132
30
0.007161
11
0.558008
21
-0.558008
31
-0.233447
12
0.729073
22
-0.301992
32
-0.233447
13
0.729073
23
-0.301992
33
-0.233447
62
0
0
3DFACE
8
GEM
10
0.667660
20
-0.605132
30
0.007161
11
0.729073
21
-0.301992
31
-0.233447
12
0.831492
22
-0.344415
32
-0.010524
13
0.831492
23
-0.344415
33
-0.010524
62
0
0
3DFACE
8
GEM
10
0.667660
20
-0.605132
30
0.007161
11
0.831492
21
-0.344415
31
-0.010524
12
0.814572
22
-0.385264
32
0.007161
13
0.814572
23
-0.385264
33
0.007161
62
0
0
3DFACE
8
GEM
10
0.667660
20
-0.605132
30
0.007161
11
0.814572
21
-0.385264
31
0.007161
12
0.772887
22
-0.463250
32
0.024932
13
0.772887
23
-0.463250
33
0.024932
62
0
0
3DFACE
8
GEM
10
0.667660
20
-0.605132
30
0.007161
11
0.772887
21
-0.463250
31
0.024932
12
0.723759
22
-0.536776
32
0.024932
13
0.723759
23
-0.536776
33
0.024932
62
0
0
3DFACE
8
GEM
10
0.848412
20
-0.303567
30
0.007161
11
0.831492
21
-0.344415
31
-0.010524
12
0.729073
22
-0.301992
32
-0.233447
13
0.729073
23
-0.301992
33
-0.233447
62
0
0
3DFACE
8
GEM
10
0.848412
20
-0.303567
30
0.007161
11
0.729073
21
-0.301992
31
-0.233447
12
0.789143
22
0.000000
32
-0.233447
13
0.789143
23
0.000000
33
-0.233447
62
0
0
3DFACE
8
GEM
10
0.848412
20
-0.303567
30
0.007161
11
0.789143
21
0.000000
31
-0.233447
12
0.900000
22
0.000000
32
-0.010524
13
0.900000
23
0.000000
33
-0.010524
62
0
0
3DFACE
8
GEM
10
0.848412
20
-0.303567
30
0.007161
11
0.900000
21
0.000000
31
-0.010524
12
0.900000
22
-0.044214
32
0.007161
13
0.900000
23
-0.044214
33
0.007161
62
0
0
3DFACE
8
GEM
10
0.848412
20
-0.303567
30
0.007161
11
0.900000
21
-0.044214
31
0.007161
12
0.891333
22
-0.132217
32
0.024932
13
0.891333
23
-0.132217
33
0.024932
62
0
0
3DFACE
8
GEM
10
0.848412
20
-0.303567
30
0.007161
11
0.891333
21
-0.132217
31
0.024932
12
0.874081
22
-0.218946
32
0.024932
13
0.874081
23
-0.218946
33
0.024932
62
0
0
3DFACE
8
GEM
10
0.900000
20
0.044214
30
0.007161
11
0.900000
21
0.000000
31
-0.010524
12
0.789143
22
0.000000
32
-0.233447
13
0.789143
23
0.000000
33
-0.233447
62
0
0
3DFACE
8
GEM
10
0.900000
20
0.044214
30
0.007161
11
0.789143
21
0.000000
31
-0.233447
12
0.729073
22
0.301992
32
-0.233447
13
0.729073
23
0.301992
33
-0.233447
62
0
0
3DFACE
8
GEM
10
0.900000
20
0.044214
30
0.007161
11
0.729073
21
0.301992
31
-0.233447
12
0.831492
22
0.344415
32
-0.010524
13
0.831492
23
0.344415
33
-0.010524
62
0
0
3DFACE
8
GEM
10
0.900000
20
0.044214
30
0.007161
11
0.831492
21
0.344415
31
-0.010524
12
0.848412
22
0.303567
32
0.007161
13
0.848412
23
0.303567
33
0.007161
62
0
0
3DFACE
8
GEM
10
0.900000
20
0.044214
30
0.007161
11
0.848412
21
0.303567
31
0.007161
12
0.874081
22
0.218946
32
0.024932
13
0.874081
23
0.218946
33
0.024932
62
0
0
3DFACE
8
GEM
10
0.900000
20
0.044214
30
0.007161
11
0.874081
21
0.218946
31
0.024932
12
0.891333
22
0.132217
32
0.024932
13
0.891333
23
0.132217
33
0.024932
62
0
0
3DFACE
8
GEM
10
0.814572
20
0.385264
30
0.007161
11
0.831492
21
0.344415
31
-0.010524
12
0.729073
22
0.301992
32
-0.233447
13
0.729073
23
0.301992
33
-0.233447
62
0
0
3DFACE
8
GEM
10
0.814572
20
0.385264
30
0.007161
11
0.729073
21
0.301992
31
-0.233447
12
0.558008
22
0.558008
32
-0.233447
13
0.558008
23
0.558008
33
-0.233447
62
0
0
3DFACE
8
GEM
10
0.814572
20
0.385264
30
0.007161
11
0.558008
21
0.558008
31
-0.233447
12
0.636396
22
0.636396
32
-0.010524
13
0.636396
23
0.636396
33
-0.010524
62
0
0
3DFACE
8
GEM
10
0.814572
20
0.385264
30
0.007161
11
0.636396
21
0.636396
31
-0.010524
12
0.667660
22
0.605132
32
0.007161
13
0.667660
23
0.605132
33
0.007161
62
0
0
3DFACE
8
GEM
10
0.814572
20
0.385264
30
0.007161
11
0.667660
21
0.605132
31
0.007161
12
0.723759
22
0.536776
32
0.024932
13
0.723759
23
0.536776
33
0.024932
62
0
0
3DFACE
8
GEM
10
0.814572
20
0.385264
30
0.007161
11
0.723759
21
0.536776
31
0.024932
12
0.772887
22
0.463250
32
0.024932
13
0.772887
23
0.463250
33
0.024932
62
0
0
3DFACE
8
GEM
10
0.605132
20
0.667660
30
0.007161
11
0.636396
21
0.636396
31
-0.010524
12
0.558008
22
0.558008
32
-0.233447
13
0.558008
23
0.558008
33
-0.233447
62
0
0
3DFACE
8
GEM
10
0.605132
20
0.667660
30
0.007161
11
0.558008
21
0.558008
31
-0.233447
12
0.301992
22
0.729073
32
-0.233447
13
0.301992
23
0.729073
33
-0.233447
62
0
0
3DFACE
8
GEM
10
0.605132
20
0.667660
30
0.007161
11
0.301992
21
0.729073
31
-0.233447
12
0.344415
22
0.831492
32
-0.010524
13
0.344415
23
0.831492
33
-0.010524
62
0
0
3DFACE
8
GEM
10
0.605132
20
0.667660
30
0.007161
11
0.344415
21
0.831492
31
-0.010524
12
0.385264
22
0.814572
32
0.007161
13
0.385264
23
0.814572
33
0.007161
62
0
0
3DFACE
8
GEM
10
0.605132
20
0.667660
30
0.007161
11
0.385264
21
0.814572
31
0.007161
12
0.463250
22
0.772887
32
0.024932
13
0.463250
23
0.772887
33
0.024932
62
0
0
3DFACE
8
GEM
10
0.605132
20
0.667660
30
0.007161
11
0.463250
21
0.772887
31
0.024932
12
0.536776
22
0.723759
32
0.024932
13
0.536776
23
0.723759
33
0.024932
62
0
0
3DFACE
8
GEM
10
-0.000000
20
0.900000
30
-0.010524
11
0.044214
21
0.900000
31
0.007161
12
0.132217
22
0.891333
32
0.024932
13
0.132217
23
0.891333
33
0.024932
62
0
0
3DFACE
8
GEM
10
-0.000000
20
0.900000
30
-0.010524
11
0.132217
21
0.891333
31
0.024932
12
0.218946
22
0.874081
32
0.024932
13
0.218946
23
0.874081
33
0.024932
62
0
0
3DFACE
8
GEM
10
-0.000000
20
0.900000
30
-0.010524
11
0.218946
21
0.874081
31
0.024932
12
0.303567
22
0.848412
32
0.007161
13
0.303567
23
0.848412
33
0.007161
62
0
0
3DFACE
8
GEM
10
-0.000000
20
0.900000
30
-0.010524
11
0.303567
21
0.848412
31
0.007161
12
0.344415
22
0.831492
32
-0.010524
13
0.344415
23
0.831492
33
-0.010524
62
0
0
3DFACE
8
GEM
10
-0.000000
20
0.900000
30
-0.010524
11
0.344415
21
0.831492
31
-0.010524
12
0.301992
22
0.729073
32
-0.233447
13
0.301992
23
0.729073
33
-0.233447
62
0
0
3DFACE
8
GEM
10
-0.000000
20
0.900000
30
-0.010524
11
0.301992
21
0.729073
31
-0.233447
12
-0.000000
22
0.789143
32
-0.233447
13
-0.000000
23
0.789143
33
-0.233447
62
0
0
3DFACE
8
GEM
10
-0.301992
20
0.729073
30
-0.233447
11
-0.000000
21
0.789143
31
-0.233447
12
-0.000000
22
0.789125
32
-0.233472
13
-0.000000
23
0.789125
33
-0.233472
62
0
0
3DFACE
8
GEM
10
-0.301992
20
0.729073
30
-0.233447
11
-0.000000
21
0.789125
31
-0.233472
12
-0.210527
22
0.508408
32
-0.568017
13
-0.210527
23
0.508408
33
-0.568017
62
0
0
3DFACE
8
GEM
10
-0.301992
20
0.729073
30
-0.233447
11
-0.210527
21
0.508408
31
-0.568017
12
-0.210576
22
0.508375
32
-0.568051
13
-0.210576
23
0.508375
33
-0.568051
62
0
0
3DFACE
8
GEM
10
-0.558008
20
0.558008
30
-0.233447
11
-0.301992
21
0.729073
31
-0.233447
12
-0.210576
22
0.508375
32
-0.568051
13
-0.210576
23
0.508375
33
-0.568051
62
0
0
3DFACE
8
GEM
10
-0.558008
20
0.558008
30
-0.233447
11
-0.210576
21
0.508375
31
-0.568051
12
-0.210634
22
0.508364
32
-0.568017
13
-0.210634
23
0.508364
33
-0.568017
62
0
0
3DFACE
8
GEM
10
-0.558008
20
0.558008
30
-0.233447
11
-0.210634
21
0.508364
31
-0.568017
12
-0.557996
22
0.557996
32
-0.233472
13
-0.557996
23
0.557996
33
-0.233472
62
0
0
3DFACE
8
GEM
10
-0.729073
20
0.301992
30
-0.233447
11
-0.558008
21
0.558008
31
-0.233447
12
-0.557996
22
0.557996
32
-0.233472
13
-0.557996
23
0.557996
33
-0.233472
62
0
0
3DFACE
8
GEM
10
-0.729073
20
0.301992
30
-0.233447
11
-0.557996
21
0.557996
31
-0.233472
12
-0.508364
22
0.210634
32
-0.568017
13
-0.508364
23
0.210634
33
-0.568017
62
0
0
3DFACE
8
GEM
10
-0.729073
20
0.301992
30
-0.233447
11
-0.508364
21
0.210634
31
-0.568017
12
-0.508375
22
0.210576
32
-0.568051
13
-0.508375
23
0.210576
33
-0.568051
62
0
0
3DFACE
8
GEM
10
-0.789143
20
-0.000000
30
-0.233447
11
-0.729073
21
0.301992
31
-0.233447
12
-0.508375
22
0.210576
32
-0.568051
13
-0.508375
23
0.210576
33
-0.568051
62
0
0
3DFACE
8
GEM
10
-0.789143
20
-0.000000
30
-0.233447
11
-0.508375
21
0.210576
31
-0.568051
12
-0.508408
22
0.210527
32
-0.568017
13
-0.508408
23
0.210527
33
-0.568017
62
0
0
3DFACE
8
GEM
10
-0.789143
20
-0.000000
30
-0.233447
11
-0.508408
21
0.210527
31
-0.568017
12
-0.789125
22
-0.000000
32
-0.233472
13
-0.789125
23
-0.000000
33
-0.233472
62
0
0
3DFACE
8
GEM
10
-0.729073
20
-0.301992
30
-0.233447
11
-0.789143
21
-0.000000
31
-0.233447
12
-0.789125
22
-0.000000
32
-0.233472
13
-0.789125
23
-0.000000
33
-0.233472
62
0
0
3DFACE
8
GEM
10
-0.729073
20
-0.301992
30
-0.233447
11
-0.789125
21
-0.000000
31
-0.233472
12
-0.508408
22
-0.210527
32
-0.568017
13
-0.508408
23
-0.210527
33
-0.568017
62
0
0
3DFACE
8
GEM
10
-0.729073
20
-0.301992
30
-0.233447
11
-0.508408
21
-0.210527
31
-0.568017
12
-0.508375
22
-0.210576
32
-0.568051
13
-0.508375
23
-0.210576
33
-0.568051
62
0
0
3DFACE
8
GEM
10
-0.558008
20
-0.558008
30
-0.233447
11
-0.729073
21
-0.301992
31
-0.233447
12
-0.508375
22
-0.210576
32
-0.568051
13
-0.508375
23
-0.210576
33
-0.568051
62
0
0
3DFACE
8
GEM
10
-0.558008
20
-0.558008
30
-0.233447
11
-0.508375
21
-0.210576
31
-0.568051
12
-0.508364
22
-0.210634
32
-0.568017
13
-0.508364
23
-0.210634
33
-0.568017
62
0
0
3DFACE
8
GEM
10
-0.558008
20
-0.558008
30
-0.233447
11
-0.508364
21
-0.210634
31
-0.568017
12
-0.557996
22
-0.557996
32
-0.233472
13
-0.557996
23
-0.557996
33
-0.233472
62
0
0
3DFACE
8
GEM
10
-0.301992
20
-0.729073
30
-0.233447
11
-0.558008
21
-0.558008
31
-0.233447
12
-0.557996
22
-0.557996
32
-0.233472
13
-0.557996
23
-0.557996
33
-0.233472
62
0
0
3DFACE
8
GEM
10
-0.301992
20
-0.729073
30
-0.233447
11
-0.557996
21
-0.557996
31
-0.233472
12
-0.210634
22
-0.508364
32
-0.568017
13
-0.210634
23
-0.508364
33
-0.568017
62
0
0
3DFACE
8
GEM
10
-0.301992
20
-0.729073
30
-0.233447
11
-0.210634
21
-0.508364
31
-0.568017
12
-0.210576
22
-0.508375
32
-0.568051
13
-0.210576
23
-0.508375
33
-0.568051
62
0
0
3DFACE
8
GEM
10
0.000000
20
-0.789143
30
-0.233447
11
-0.301992
21
-0.729073
31
-0.233447
12
-0.210576
22
-0.508375
32
-0.568051
13
-0.210576
23
-0.508375
33
-0.568051
62
0
0
3DFACE
8
GEM
10
0.000000
20
-0.789143
30
-0.233447
11
-0.210576
21
-0.508375
31
-0.568051
12
-0.210527
22
-0.508408
32
-0.568017
13
-0.210527
23
-0.508408
33
-0.568017
62
0
0
3DFACE
8
GEM
10
0.000000
20
-0.789143
30
-0.233447
11
-0.210527
21
-0.508408
31
-0.568017
12
0.000000
22
-0.789125
32
-0.233472
13
0.000000
23
-0.789125
33
-0.233472
62
0
0
3DFACE
8
GEM
10
0.301992
20
-0.729073
30
-0.233447
11
0.000000
21
-0.789143
31
-0.233447
12
0.000000
22
-0.789125
32
-0.233472
13
0.000000
23
-0.789125
33
-0.233472
62
0
0
3DFACE
8
GEM
10
0.301992
20
-0.729073
30
-0.233447
11
0.000000
21
-0.789125
31
-0.233472
12
0.210527
22
-0.508408
32
-0.568017
13
0.210527
23
-0.508408
33
-0.568017
62
0
0
3DFACE
8
GEM
10
0.301992
20
-0.729073
30
-0.233447
11
0.210527
21
-0.508408
31
-0.568017
12
0.210576
22
-0.508375
32
-0.568051
13
0.210576
23
-0.508375
33
-0.568051
62
0
0
3DFACE
8
GEM
10
0.558008
20
-0.558008
30
-0.233447
11
0.301992
21
-0.729073
31
-0.233447
12
0.210576
22
-0.508375
32
-0.568051
13
0.210576
23
-0.508375
33
-0.568051
62
0
0
3DFACE
8
GEM
10
0.558008
20
-0.558008
30
-0.233447
11
0.210576
21
-0.508375
31
-0.568051
12
0.210634
22
-0.508364
32
-0.568017
13
0.210634
23
-0.508364
33
-0.568017
62
0
0
3DFACE
8
GEM
10
0.558008
20
-0.558008
30
-0.233447
11
0.210634
21
-0.508364
31
-0.568017
12
0.557996
22
-0.557996
32
-0.233472
13
0.557996
23
-0.557996
33
-0.233472
62
0
0
3DFACE
8
GEM
10
0.729073
20
-0.301992
30
-0.233447
11
0.558008
21
-0.558008
31
-0.233447
12
0.557996
22
-0.557996
32
-0.233472
13
0.557996
23
-0.557996
33
-0.233472
62
0
0
3DFACE
8
GEM
10
0.729073
20
-0.301992
30
-0.233447
11
0.557996
21
-0.557996
31
-0.233472
12
0.508364
22
-0.210634
32
-0.568017
13
0.508364
23
-0.210634
33
-0.568017
62
0
0
3DFACE
8
GEM
10
0.729073
20
-0.301992
30
-0.233447
11
0.508364
21
-0.210634
31
-0.568017
12
0.508375
22
-0.210576
32
-0.568051
13
0.508375
23
-0.210576
33
-0.568051
62
0
0
3DFACE
8
GEM
10
0.789143
20
0.000000
30
-0.233447
11
0.729073
21
-0.301992
31
-0.233447
12
0.508375
22
-0.210576
32
-0.568051
13
0.508375
23
-0.210576
33
-0.568051
62
0
0
3DFACE
8
GEM
10
0.789143
20
0.000000
30
-0.233447
11
0.508375
21
-0.210576
31
-0.568051
12
0.508408
22
-0.210527
32
-0.568017
13
0.508408
23
-0.210527
33
-0.568017
62
0
0
3DFACE
8
GEM
10
0.789143
20
0.000000
30
-0.233447
11
0.508408
21
-0.210527
31
-0.568017
12
0.789125
22
0.000000
32
-0.233472
13
0.789125
23
0.000000
33
-0.233472
62
0
0
3DFACE
8
GEM
10
0.729073
20
0.301992
30
-0.233447
11
0.789143
21
0.000000
31
-0.233447
12
0.789125
22
0.000000
32
-0.233472
13
0.789125
23
0.000000
33
-0.233472
62
0
0
3DFACE
8
GEM
10
0.729073
20
0.301992
30
-0.233447
11
0.789125
21
0.000000
31
-0.233472
12
0.508408
22
0.210527
32
-0.568017
13
0.508408
23
0.210527
33
-0.568017
62
0
0
3DFACE
8
GEM
10
0.729073
20
0.301992
30
-0.233447
11
0.508408
21
0.210527
31
-0.568017
12
0.508375
22
0.210576
32
-0.568051
13
0.508375
23
0.210576
33
-0.568051
62
0
0
3DFACE
8
GEM
10
0.558008
20
0.558008
30
-0.233447
11
0.729073
21
0.301992
31
-0.233447
12
0.508375
22
0.210576
32
-0.568051
13
0.508375
23
0.210576
33
-0.568051
62
0
0
3DFACE
8
GEM
10
0.558008
20
0.558008
30
-0.233447
11
0.508375
21
0.210576
31
-0.568051
12
0.508364
22
0.210634
32
-0.568017
13
0.508364
23
0.210634
33
-0.568017
62
0
0
3DFACE
8
GEM
10
0.558008
20
0.558008
30
-0.233447
11
0.508364
21
0.210634
31
-0.568017
12
0.557996
22
0.557996
32
-0.233472
13
0.557996
23
0.557996
33
-0.233472
62
0
0
3DFACE
8
GEM
10
0.301992
20
0.729073
30
-0.233447
11
0.558008
21
0.558008
31
-0.233447
12
0.557996
22
0.557996
32
-0.233472
13
0.557996
23
0.557996
33
-0.233472
62
0
0
3DFACE
8
GEM
10
0.301992
20
0.729073
30
-0.233447
11
0.557996
21
0.557996
31
-0.233472
12
0.210634
22
0.508364
32
-0.568017
13
0.210634
23
0.508364
33
-0.568017
62
0
0
3DFACE
8
GEM
10
0.301992
20
0.729073
30
-0.233447
11
0.210634
21
0.508364
31
-0.568017
12
0.210576
22
0.508375
32
-0.568051
13
0.210576
23
0.508375
33
-0.568051
62
0
0
3DFACE
8
GEM
10
-0.000000
20
0.789143
30
-0.233447
11
0.301992
21
0.729073
31
-0.233447
12
0.210576
22
0.508375
32
-0.568051
13
0.210576
23
0.508375
33
-0.568051
62
0
0
3DFACE
8
GEM
10
-0.000000
20
0.789143
30
-0.233447
11
0.210576
21
0.508375
31
-0.568051
12
0.210527
22
0.508408
32
-0.568017
13
0.210527
23
0.508408
33
-0.568017
62
0
0
3DFACE
8
GEM
10
-0.000000
20
0.789143
30
-0.233447
11
0.210527
21
0.508408
31
-0.568017
12
-0.000000
22
0.789125
32
-0.233472
13
-0.000000
23
0.789125
33
-0.233472
62
0
0
3DFACE
8
GEM
10
-0.210527
20
0.508408
30
-0.568017
11
-0.000000
21
0.789125
31
-0.233472
12
0.210527
22
0.508408
32
-0.568017
13
0.210527
23
0.508408
33
-0.568017
62
0
0
3DFACE
8
GEM
10
-0.557996
20
0.557996
30
-0.233472
11
-0.210634
21
0.508364
31
-0.568017
12
-0.508364
22
0.210634
32
-0.568017
13
-0.508364
23
0.210634
33
-0.568017
62
0
0
3DFACE
8
GEM
10
-0.789125
20
-0.000000
30
-0.233472
11
-0.508408
21
0.210527
31
-0.568017
12
-0.508408
22
-0.210527
32
-0.568017
13
-0.508408
23
-0.210527
33
-0.568017
62
0
0
3DFACE
8
GEM
10
-0.557996
20
-0.557996
30
-0.233472
11
-0.508364
21
-0.210634
31
-0.568017
12
-0.210634
22
-0.508364
32
-0.568017
13
-0.210634
23
-0.508364
33
-0.568017
62
0
0
3DFACE
8
GEM
10
0.000000
20
-0.789125
30
-0.233472
11
-0.210527
21
-0.508408
31
-0.568017
12
0.210527
22
-0.508408
32
-0.568017
13
0.210527
23
-0.508408
33
-0.568017
62
0
0
3DFACE
8
GEM
10
0.557996
20
-0.557996
30
-0.233472
11
0.210634
21
-0.508364
31
-0.568017
12
0.508364
22
-0.210634
32
-0.568017
13
0.508364
23
-0.210634
33
-0.568017
62
0
0
3DFACE
8
GEM
10
0.789125
20
0.000000
30
-0.233472
11
0.508408
21
-0.210527
31
-0.568017
12
0.508408
22
0.210527
32
-0.568017
13
0.508408
23
0.210527
33
-0.568017
62
0
0
3DFACE
8
GEM
10
0.557996
20
0.557996
30
-0.233472
11
0.508364
21
0.210634
31
-0.568017
12
0.210634
22
0.508364
32
-0.568017
13
0.210634
23
0.508364
33
-0.568017
62
0
0
3DFACE
8
GEM
10
-0.210576
20
0.508375
30
-0.568051
11
-0.210527
21
0.508408
31
-0.568017
12
0.210527
22
0.508408
32
-0.568017
13
0.210527
23
0.508408
33
-0.568017
62
0
0
3DFACE
8
GEM
10
-0.210576
20
0.508375
30
-0.568051
11
0.210527
21
0.508408
31
-0.568017
12
0.210576
22
0.508375
32
-0.568051
13
0.210576
23
0.508375
33
-0.568051
62
0
0
3DFACE
8
GEM
10
-0.210576
20
0.508375
30
-0.568051
11
0.210576
21
0.508375
31
-0.568051
12
0.148188
22
0.357757
32
-0.718669
13
0.148188
23
0.357757
33
-0.718669
62
0
0
3DFACE
8
GEM
10
-0.210576
20
0.508375
30
-0.568051
11
0.148188
21
0.357757
31
-0.718669
12
-0.148188
22
0.357757
32
-0.718669
13
-0.148188
23
0.357757
33
-0.718669
62
0
0
3DFACE
8
GEM
10
-0.210634
20
0.508364
30
-0.568017
11
-0.210576
21
0.508375
31
-0.568051
12
-0.148188
22
0.357757
32
-0.718669
13
-0.148188
23
0.357757
33
-0.718669
62
0
0
3DFACE
8
GEM
10
-0.210634
20
0.508364
30
-0.568017
11
-0.148188
21
0.357757
31
-0.718669
12
-0.357757
22
0.148188
32
-0.718669
13
-0.357757
23
0.148188
33
-0.718669
62
0
0
3DFACE
8
GEM
10
-0.210634
20
0.508364
30
-0.568017
11
-0.357757
21
0.148188
31
-0.718669
12
-0.508375
22
0.210576
32
-0.568051
13
-0.508375
23
0.210576
33
-0.568051
62
0
0
3DFACE
8
GEM
10
-0.210634
20
0.508364
30
-0.568017
11
-0.508375
21
0.210576
31
-0.568051
12
-0.508364
22
0.210634
32
-0.568017
13
-0.508364
23
0.210634
33
-0.568017
62
0
0
3DFACE
8
GEM
10
-0.508408
20
0.210527
30
-0.568017
11
-0.508375
21
0.210576
31
-0.568051
12
-0.357757
22
0.148188
32
-0.718669
13
-0.357757
23
0.148188
33
-0.718669
62
0
0
3DFACE
8
GEM
10
-0.508408
20
0.210527
30
-0.568017
11
-0.357757
21
0.148188
31
-0.718669
12
-0.357757
22
-0.148188
32
-0.718669
13
-0.357757
23
-0.148188
33
-0.718669
62
0
0
3DFACE
8
GEM
10
-0.508408
20
0.210527
30
-0.568017
11
-0.357757
21
-0.148188
31
-0.718669
12
-0.508375
22
-0.210576
32
-0.568051
13
-0.508375
23
-0.210576
33
-0.568051
62
0
0
3DFACE
8
GEM
10
-0.508408
20
0.210527
30
-0.568017
11
-0.508375
21
-0.210576
31
-0.568051
12
-0.508408
22
-0.210527
32
-0.568017
13
-0.508408
23
-0.210527
33
-0.568017
62
0
0
3DFACE
8
GEM
10
-0.508364
20
-0.210634
30
-0.568017
11
-0.508375
21
-0.210576
31
-0.568051
12
-0.357757
22
-0.148188
32
-0.718669
13
-0.357757
23
-0.148188
33
-0.718669
62
0
0
3DFACE
8
GEM
10
-0.508364
20
-0.210634
30
-0.568017
11
-0.357757
21
-0.148188
31
-0.718669
12
-0.148188
22
-0.357757
32
-0.718669
13
-0.148188
23
-0.357757
33
-0.718669
62
0
0
3DFACE
8
GEM
10
-0.508364
20
-0.210634
30
-0.568017
11
-0.148188
21
-0.357757
31
-0.718669
12
-0.210576
22
-0.508375
32
-0.568051
13
-0.210576
23
-0.508375
33
-0.568051
62
0
0
3DFACE
8
GEM
10
-0.508364
20
-0.210634
30
-0.568017
11
-0.210576
21
-0.508375
31
-0.568051
12
-0.210634
22
-0.508364
32
-0.568017
13
-0.210634
23
-0.508364
33
-0.568017
62
0
0
3DFACE
8
GEM
10
-0.210527
20
-0.508408
30
-0.568017
11
-0.210576
21
-0.508375
31
-0.568051
12
-0.148188
22
-0.357757
32
-0.718669
13
-0.148188
23
-0.357757
33
-0.718669
62
0
0
3DFACE
8
GEM
10
-0.210527
20
-0.508408
30
-0.568017
11
-0.148188
21
-0.357757
31
-0.718669
12
0.148188
22
-0.357757
32
-0.718669
13
0.148188
23
-0.357757
33
-0.718669
62
0
0
3DFACE
8
GEM
10
-0.210527
20
-0.508408
30
-0.568017
11
0.148188
21
-0.357757
31
-0.718669
12
0.210576
22
-0.508375
32
-0.568051
13
0.210576
23
-0.508375
33
-0.568051
62
0
0
3DFACE
8
GEM
10
-0.210527
20
-0.508408
30
-0.568017
11
0.210576
21
-0.508375
31
-0.568051
12
0.210527
22
-0.508408
32
-0.568017
13
0.210527
23
-0.508408
33
-0.568017
62
0
0
3DFACE
8
GEM
10
0.210634
20
-0.508364
30
-0.568017
11
0.210576
21
-0.508375
31
-0.568051
12
0.148188
22
-0.357757
32
-0.718669
13
0.148188
23
-0.357757
33
-0.718669
62
0
0
3DFACE
8
GEM
10
0.210634
20
-0.508364
30
-0.568017
11
0.148188
21
-0.357757
31
-0.718669
12
0.357757
22
-0.148188
32
-0.718669
13
0.357757
23
-0.148188
33
-0.718669
62
0
0
3DFACE
8
GEM
10
0.210634
20
-0.508364
30
-0.568017
11
0.357757
21
-0.148188
31
-0.718669
12
0.508375
22
-0.210576
32
-0.568051
13
0.508375
23
-0.210576
33
-0.568051
62
0
0
3DFACE
8
GEM
10
0.210634
20
-0.508364
30
-0.568017
11
0.508375
21
-0.210576
31
-0.568051
12
0.508364
22
-0.210634
32
-0.568017
13
0.508364
23
-0.210634
33
-0.568017
62
0
0
3DFACE
8
GEM
10
0.508408
20
-0.210527
30
-0.568017
11
0.508375
21
-0.210576
31
-0.568051
12
0.357757
22
-0.148188
32
-0.718669
13
0.357757
23
-0.148188
33
-0.718669
62
0
0
3DFACE
8
GEM
10
0.508408
20
-0.210527
30
-0.568017
11
0.357757
21
-0.148188
31
-0.718669
12
0.357757
22
0.148188
32
-0.718669
13
0.357757
23
0.148188
33
-0.718669
62
0
0
3DFACE
8
GEM
10
0.508408
20
-0.210527
30
-0.568017
11
0.357757
21
0.148188
31
-0.718669
12
0.508375
22
0.210576
32
-0.568051
13
0.508375
23
0.210576
33
-0.568051
62
0
0
3DFACE
8
GEM
10
0.508408
20
-0.210527
30
-0.568017
11
0.508375
21
0.210576
31
-0.568051
12
0.508408
22
0.210527
32
-0.568017
13
0.508408
23
0.210527
33
-0.568017
62
0
0
3DFACE
8
GEM
10
0.508364
20
0.210634
30
-0.568017
11
0.508375
21
0.210576
31
-0.568051
12
0.357757
22
0.148188
32
-0.718669
13
0.357757
23
0.148188
33
-0.718669
62
0
0
3DFACE
8
GEM
10
0.508364
20
0.210634
30
-0.568017
11
0.357757
21
0.148188
31
-0.718669
12
0.148188
22
0.357757
32
-0.718669
13
0.148188
23
0.357757
33
-0.718669
62
0
0
3DFACE
8
GEM
10
0.508364
20
0.210634
30
-0.568017
11
0.148188
21
0.357757
31
-0.718669
12
0.210576
22
0.508375
32
-0.568051
13
0.210576
23
0.508375
33
-0.568051
62
0
0
3DFACE
8
GEM
10
0.508364
20
0.210634
30
-0.568017
11
0.210576
21
0.508375
31
-0.568051
12
0.210634
22
0.508364
32
-0.568017
13
0.210634
23
0.508364
33
-0.568017
62
0
0
3DFACE
8
GEM
10
0.004604
20
0.011115
30
-1.020000
11
-0.004604
21
0.011115
31
-1.020000
12
-0.148188
22
0.357757
32
-0.718669
13
-0.148188
23
0.357757
33
-0.718669
62
0
0
3DFACE
8
GEM
10
0.004604
20
0.011115
30
-1.020000
11
-0.148188
21
0.357757
31
-0.718669
12
0.148188
22
0.357757
32
-0.718669
13
0.148188
23
0.357757
33
-0.718669
62
0
0
3DFACE
8
GEM
10
-0.004604
20
0.011115
30
-1.020000
11
-0.011115
21
0.004604
31
-1.020000
12
-0.357757
22
0.148188
32
-0.718669
13
-0.357757
23
0.148188
33
-0.718669
62
0
0
3DFACE
8
GEM
10
-0.004604
20
0.011115
30
-1.020000
11
-0.357757
21
0.148188
31
-0.718669
12
-0.148188
22
0.357757
32
-0.718669
13
-0.148188
23
0.357757
33
-0.718669
62
0
0
3DFACE
8
GEM
10
-0.011115
20
0.004604
30
-1.020000
11
-0.011115
21
-0.004604
31
-1.020000
12
-0.357757
22
-0.148188
32
-0.718669
13
-0.357757
23
-0.148188
33
-0.718669
62
0
0
3DFACE
8
GEM
10
-0.011115
20
0.004604
30
-1.020000
11
-0.357757
21
-0.148188
31
-0.718669
12
-0.357757
22
0.148188
32
-0.718669
13
-0.357757
23
0.148188
33
-0.718669
62
0
0
3DFACE
8
GEM
10
-0.011115
20
-0.004604
30
-1.020000
11
-0.004604
21
-0.011115
31
-1.020000
12
-0.148188
22
-0.357757
32
-0.718669
13
-0.148188
23
-0.357757
33
-0.718669
62
0
0
3DFACE
8
GEM
10
-0.011115
20
-0.004604
30
-1.020000
11
-0.148188
21
-0.357757
31
-0.718669
12
-0.357757
22
-0.148188
32
-0.718669
13
-0.357757
23
-0.148188
33
-0.718669
62
0
0
3DFACE
8
GEM
10
-0.004604
20
-0.011115
30
-1.020000
11
0.004604
21
-0.011115
31
-1.020000
12
0.148188
22
-0.357757
32
-0.718669
13
0.148188
23
-0.357757
33
-0.718669
62
0
0
3DFACE
8
GEM
10
-0.004604
20
-0.011115
30
-1.020000
11
0.148188
21
-0.357757
31
-0.718669
12
-0.148188
22
-0.357757
32
-0.718669
13
-0.148188
23
-0.357757
33
-0.718669
62
0
0
3DFACE
8
GEM
10
0.004604
20
-0.011115
30
-1.020000
11
0.011115
21
-0.004604
31
-1.020000
12
0.357757
22
-0.148188
32
-0.718669
13
0.357757
23
-0.148188
33
-0.718669
62
0
0
3DFACE
8
GEM
10
0.004604
20
-0.011115
30
-1.020000
11
0.357757
21
-0.148188
31
-0.718669
12
0.148188
22
-0.357757
32
-0.718669
13
0.148188
23
-0.357757
33
-0.718669
62
0
0
3DFACE
8
GEM
10
0.011115
20
-0.004604
30
-1.020000
11
0.011115
21
0.004604
31
-1.020000
12
0.357757
22
0.148188
32
-0.718669
13
0.357757
23
0.148188
33
-0.718669
62
0
0
3DFACE
8
GEM
10
0.011115
20
-0.004604
30
-1.020000
11
0.357757
21
0.148188
31
-0.718669
12
0.357757
22
-0.148188
32
-0.718669
13
0.357757
23
-0.148188
33
-0.718669
62
0
0
3DFACE
8
GEM
10
0.011115
20
0.004604
30
-1.020000
11
0.004604
21
0.011115
31
-1.020000
12
0.148188
22
0.357757
32
-0.718669
13
0.148188
23
0.357757
33
-0.718669
62
0
0
3DFACE
8
GEM
10
0.011115
20
0.004604
30
-1.020000
11
0.148188
21
0.357757
31
-0.718669
12
0.357757
22
0.148188
32
-0.718669
13
0.357757
23
0.148188
33
-0.718669
62
0
0
3DFACE
8
GEM
10
0.044214
20
0.900000
30
0.060375
11
-0.000000
21
0.900000
31
0.073658
12
-0.000000
22
0.768110
32
0.272847
13
-0.000000
23
0.768110
33
0.272847
62
0
0
3DFACE
8
GEM
10
0.044214
20
0.900000
30
0.060375
11
-0.000000
21
0.768110
31
0.272847
12
0.000005
22
0.768109
32
0.272849
13
0.000005
23
0.768109
33
0.272849
62
0
0
3DFACE
8
GEM
10
0.044214
20
0.900000
30
0.060375
11
0.000005
21
0.768109
31
0.272849
12
0.293943
22
0.709641
32
0.272849
13
0.293943
23
0.709641
33
0.272849
62
0
0
3DFACE
8
GEM
10
0.044214
20
0.900000
30
0.060375
11
0.293943
21
0.709641
31
0.272849
12
0.344415
22
0.831492
32
0.073658
13
0.344415
23
0.831492
33
0.073658
62
0
0
3DFACE
8
GEM
10
0.044214
20
0.900000
30
0.060375
11
0.344415
21
0.831492
31
0.073658
12
0.303567
22
0.848412
32
0.060375
13
0.303567
23
0.848412
33
0.060375
62
0
0
3DFACE
8
GEM
10
0.044214
20
0.900000
30
0.060375
11
0.303567
21
0.848412
31
0.060375
12
0.218946
22
0.874081
32
0.047028
13
0.218946
23
0.874081
33
0.047028
62
0
0
3DFACE
8
GEM
10
0.044214
20
0.900000
30
0.060375
11
0.218946
21
0.874081
31
0.047028
12
0.132217
22
0.891333
32
0.047028
13
0.132217
23
0.891333
33
0.047028
62
0
0
3DFACE
8
GEM
10
0.636396
20
0.636396
30
0.073658
11
0.605132
21
0.667660
31
0.060375
12
0.536776
22
0.723759
32
0.047028
13
0.536776
23
0.723759
33
0.047028
62
0
0
3DFACE
8
GEM
10
0.636396
20
0.636396
30
0.073658
11
0.536776
21
0.723759
31
0.047028
12
0.463250
22
0.772887
32
0.047028
13
0.463250
23
0.772887
33
0.047028
62
0
0
3DFACE
8
GEM
10
0.636396
20
0.636396
30
0.073658
11
0.463250
21
0.772887
31
0.047028
12
0.385264
22
0.814572
32
0.060375
13
0.385264
23
0.814572
33
0.060375
62
0
0
3DFACE
8
GEM
10
0.636396
20
0.636396
30
0.073658
11
0.385264
21
0.814572
31
0.060375
12
0.344415
22
0.831492
32
0.073658
13
0.344415
23
0.831492
33
0.073658
62
0
0
3DFACE
8
GEM
10
0.636396
20
0.636396
30
0.073658
11
0.344415
21
0.831492
31
0.073658
12
0.293943
22
0.709641
32
0.272849
13
0.293943
23
0.709641
33
0.272849
62
0
0
3DFACE
8
GEM
10
0.636396
20
0.636396
30
0.073658
11
0.293943
21
0.709641
31
0.272849
12
0.543131
22
0.543138
32
0.272849
13
0.543131
23
0.543138
33
0.272849
62
0
0
3DFACE
8
GEM
10
0.636396
20
0.636396
30
0.073658
11
0.543131
21
0.543138
31
0.272849
12
0.543136
22
0.543136
32
0.272847
13
0.543136
23
0.543136
33
0.272847
62
0
0
3DFACE
8
GEM
10
0.831492
20
0.344415
30
0.073658
11
0.814572
21
0.385264
31
0.060375
12
0.772887
22
0.463250
32
0.047028
13
0.772887
23
0.463250
33
0.047028
62
0
0
3DFACE
8
GEM
10
0.831492
20
0.344415
30
0.073658
11
0.772887
21
0.463250
31
0.047028
12
0.723759
22
0.536776
32
0.047028
13
0.723759
23
0.536776
33
0.047028
62
0
0
3DFACE
8
GEM
10
0.831492
20
0.344415
30
0.073658
11
0.723759
21
0.536776
31
0.047028
12
0.667660
22
0.605132
32
0.060375
13
0.667660
23
0.605132
33
0.060375
62
0
0
3DFACE
8
GEM
10
0.831492
20
0.344415
30
0.073658
11
0.667660
21
0.605132
31
0.060375
12
0.636396
22
0.636396
32
0.073658
13
0.636396
23
0.636396
33
0.073658
62
0
0
3DFACE
8
GEM
10
0.831492
20
0.344415
30
0.073658
11
0.636396
21
0.636396
31
0.073658
12
0.543136
22
0.543136
32
0.272847
13
0.543136
23
0.543136
33
0.272847
62
0
0
3DFACE
8
GEM
10
0.831492
20
0.344415
30
0.073658
11
0.543136
21
0.543136
31
0.272847
12
0.543138
22
0.543131
32
0.272849
13
0.543138
23
0.543131
33
0.272849
62
0
0
3DFACE
8
GEM
10
0.831492
20
0.344415
30
0.073658
11
0.543138
21
0.543131
31
0.272849
12
0.709641
22
0.293943
32
0.272849
13
0.709641
23
0.293943
33
0.272849
62
0
0
3DFACE
8
GEM
10
0.900000
20
-0.000000
30
0.073658
11
0.900000
21
0.044214
31
0.060375
12
0.891333
22
0.132217
32
0.047028
13
0.891333
23
0.132217
33
0.047028
62
0
0
3DFACE
8
GEM
10
0.900000
20
-0.000000
30
0.073658
11
0.891333
21
0.132217
31
0.047028
12
0.874081
22
0.218946
32
0.047028
13
0.874081
23
0.218946
33
0.047028
62
0
0
3DFACE
8
GEM
10
0.900000
20
-0.000000
30
0.073658
11
0.874081
21
0.218946
31
0.047028
12
0.848412
22
0.303567
32
0.060375
13
0.848412
23
0.303567
33
0.060375
62
0
0
3DFACE
8
GEM
10
0.900000
20
-0.000000
30
0.073658
11
0.848412
21
0.303567
31
0.060375
12
0.831492
22
0.344415
32
0.073658
13
0.831492
23
0.344415
33
0.073658
62
0
0
3DFACE
8
GEM
10
0.900000
20
-0.000000
30
0.073658
11
0.831492
21
0.344415
31
0.073658
12
0.709641
22
0.293943
32
0.272849
13
0.709641
23
0.293943
33
0.272849
62
0
0
3DFACE
8
GEM
10
0.900000
20
-0.000000
30
0.073658
11
0.709641
21
0.293943
31
0.272849
12
0.768109
22
0.000005
32
0.272849
13
0.768109
23
0.000005
33
0.272849
62
0
0
3DFACE
8
GEM
10
0.900000
20
-0.000000
30
0.073658
11
0.768109
21
0.000005
31
0.272849
12
0.768110
22
-0.000000
32
0.272847
13
0.768110
23
-0.000000
33
0.272847
62
0
0
3DFACE
8
GEM
10
0.831492
20
-0.344415
30
0.073658
11
0.848412
21
-0.303567
31
0.060375
12
0.874081
22
-0.218946
32
0.047028
13
0.874081
23
-0.218946
33
0.047028
62
0
0
3DFACE
8
GEM
10
0.831492
20
-0.344415
30
0.073658
11
0.874081
21
-0.218946
31
0.047028
12
0.891333
22
-0.132217
32
0.047028
13
0.891333
23
-0.132217
33
0.047028
62
0
0
3DFACE
8
GEM
10
0.831492
20
-0.344415
30
0.073658
11
0.891333
21
-0.132217
31
0.047028
12
0.900000
22
-0.044214
32
0.060375
13
0.900000
23
-0.044214
33
0.060375
62
0
0
3DFACE
8
GEM
10
0.831492
20
-0.344415
30
0.073658
11
0.900000
21
-0.044214
31
0.060375
12
0.900000
22
-0.000000
32
0.073658
13
0.900000
23
-0.000000
33
0.073658
62
0
0
3DFACE
8
GEM
10
0.831492
20
-0.344415
30
0.073658
11
0.900000
21
-0.000000
31
0.073658
12
0.768110
22
-0.000000
32
0.272847
13
0.768110
23
-0.000000
33
0.272847
62
0
0
3DFACE
8
GEM
10
0.831492
20
-0.344415
30
0.073658
11
0.768110
21
-0.000000
31
0.272847
12
0.768109
22
-0.000005
32
0.272849
13
0.768109
23
-0.000005
33
0.272849
62
0
0
3DFACE
8
GEM
10
0.831492
20
-0.344415
30
0.073658
11
0.768109
21
-0.000005
31
0.272849
12
0.709641
22
-0.293943
32
0.272849
13
0.709641
23
-0.293943
33
0.272849
62
0
0
3DFACE
8
GEM
10
0.636396
20
-0.636396
30
0.073658
11
0.667660
21
-0.605132
31
0.060375
12
0.723759
22
-0.536776
32
0.047028
13
0.723759
23
-0.536776
33
0.047028
62
0
0
3DFACE
8
GEM
10
0.636396
20
-0.636396
30
0.073658
11
0.723759
21
-0.536776
31
0.047028
12
0.772887
22
-0.463250
32
0.047028
13
0.772887
23
-0.463250
33
0.047028
62
0
0
3DFACE
8
GEM
10
0.636396
20
-0.636396
30
0.073658
11
0.772887
21
-0.463250
31
0.047028
12
0.814572
22
-0.385264
32
0.060375
13
0.814572
23
-0.385264
33
0.060375
62
0
0
3DFACE
8
GEM
10
0.636396
20
-0.636396
30
0.073658
11
0.814572
21
-0.385264
31
0.060375
12
0.831492
22
-0.344415
32
0.073658
13
0.831492
23
-0.344415
33
0.073658
62
0
0
3DFACE
8
GEM
10
0.636396
20
-0.636396
30
0.073658
11
0.831492
21
-0.344415
31
0.073658
12
0.709641
22
-0.293943
32
0.272849
13
0.709641
23
-0.293943
33
0.272849
62
0
0
3DFACE
8
GEM
10
0.636396
20
-0.636396
30
0.073658
11
0.709641
21
-0.293943
31
0.272849
12
0.543138
22
-0.543131
32
0.272849
13
0.543138
23
-0.543131
33
0.272849
62
0
0
3DFACE
8
GEM
10
0.636396
20
-0.636396
30
0.073658
11
0.543138
21
-0.543131
31
0.272849
12
0.543136
22
-0.543136
32
0.272847
13
0.543136
23
-0.543136
33
0.272847
62
0
0
3DFACE
8
GEM
10
0.344415
20
-0.831492
30
0.073658
11
0.385264
21
-0.814572
31
0.060375
12
0.463250
22
-0.772887
32
0.047028
13
0.463250
23
-0.772887
33
0.047028
62
0
0
3DFACE
8
GEM
10
0.344415
20
-0.831492
30
0.073658
11
0.463250
21
-0.772887
31
0.047028
12
0.536776
22
-0.723759
32
0.047028
13
0.536776
23
-0.723759
33
0.047028
62
0
0
3DFACE
8
GEM
10
0.344415
20
-0.831492
30
0.073658
11
0.536776
21
-0.723759
31
0.047028
12
0.605132
22
-0.667660
32
0.060375
13
0.605132
23
-0.667660
33
0.060375
62
0
0
3DFACE
8
GEM
10
0.344415
20
-0.831492
30
0.073658
11
0.605132
21
-0.667660
31
0.060375
12
0.636396
22
-0.636396
32
0.073658
13
0.636396
23
-0.636396
33
0.073658
62
0
0
3DFACE
8
GEM
10
0.344415
20
-0.831492
30
0.073658
11
0.636396
21
-0.636396
31
0.073658
12
0.543136
22
-0.543136
32
0.272847
13
0.543136
23
-0.543136
33
0.272847
62
0
0
3DFACE
8
GEM
10
0.344415
20
-0.831492
30
0.073658
11
0.543136
21
-0.543136
31
0.272847
12
0.543131
22
-0.543138
32
0.272849
13
0.543131
23
-0.543138
33
0.272849
62
0
0
3DFACE
8
GEM
10
0.344415
20
-0.831492
30
0.073658
11
0.543131
21
-0.543138
31
0.272849
12
0.293943
22
-0.709641
32
0.272849
13
0.293943
23
-0.709641
33
0.272849
62
0
0
3DFACE
8
GEM
10
-0.000000
20
-0.900000
30
0.073658
11
0.044214
21
-0.900000
31
0.060375
12
0.132217
22
-0.891333
32
0.047028
13
0.132217
23
-0.891333
33
0.047028
62
0
0
3DFACE
8
GEM
10
-0.000000
20
-0.900000
30
0.073658
11
0.132217
21
-0.891333
31
0.047028
12
0.218946
22
-0.874081
32
0.047028
13
0.218946
23
-0.874081
33
0.047028
62
0
0
3DFACE
8
GEM
10
-0.000000
20
-0.900000
30
0.073658
11
0.218946
21
-0.874081
31
0.047028
12
0.303567
22
-0.848412
32
0.060375
13
0.303567
23
-0.848412
33
0.060375
62
0
0
3DFACE
8
GEM
10
-0.000000
20
-0.900000
30
0.073658
11
0.303567
21
-0.848412
31
0.060375
12
0.344415
22
-0.831492
32
0.073658
13
0.344415
23
-0.831492
33
0.073658
62
0
0
3DFACE
8
GEM
10
-0.000000
20
-0.900000
30
0.073658
11
0.344415
21
-0.831492
31
0.073658
12
0.293943
22
-0.709641
32
0.272849
13
0.293943
23
-0.709641
33
0.272849
62
0
0
3DFACE
8
GEM
10
-0.000000
20
-0.900000
30
0.073658
11
0.293943
21
-0.709641
31
0.272849
12
0.000005
22
-0.768109
32
0.272849
13
0.000005
23
-0.768109
33
0.272849
62
0
0
3DFACE
8
GEM
10
-0.000000
20
-0.900000
30
0.073658
11
0.000005
21
-0.768109
31
0.272849
12
-0.000000
22
-0.768110
32
0.272847
13
-0.000000
23
-0.768110
33
0.272847
62
0
0
3DFACE
8
GEM
10
-0.344415
20
-0.831492
30
0.073658
11
-0.303567
21
-0.848412
31
0.060375
12
-0.218946
22
-0.874081
32
0.047028
13
-0.218946
23
-0.874081
33
0.047028
62
0
0
3DFACE
8
GEM
10
-0.344415
20
-0.831492
30
0.073658
11
-0.218946
21
-0.874081
31
0.047028
12
-0.132217
22
-0.891333
32
0.047028
13
-0.132217
23
-0.891333
33
0.047028
62
0
0
3DFACE
8
GEM
10
-0.344415
20
-0.831492
30
0.073658
11
-0.132217
21
-0.891333
31
0.047028
12
-0.044214
22
-0.900000
32
0.060375
13
-0.044214
23
-0.900000
33
0.060375
62
0
0
3DFACE
8
GEM
10
-0.344415
20
-0.831492
30
0.073658
11
-0.044214
21
-0.900000
31
0.060375
12
-0.000000
22
-0.900000
32
0.073658
13
-0.000000
23
-0.900000
33
0.073658
62
0
0
3DFACE
8
GEM
10
-0.344415
20
-0.831492
30
0.073658
11
-0.000000
21
-0.900000
31
0.073658
12
-0.000000
22
-0.768110
32
0.272847
13
-0.000000
23
-0.768110
33
0.272847
62
0
0
3DFACE
8
GEM
10
-0.344415
20
-0.831492
30
0.073658
11
-0.000000
21
-0.768110
31
0.272847
12
-0.000005
22
-0.768109
32
0.272849
13
-0.000005
23
-0.768109
33
0.272849
62
0
0
3DFACE
8
GEM
10
-0.344415
20
-0.831492
30
0.073658
11
-0.000005
21
-0.768109
31
0.272849
12
-0.293943
22
-0.709641
32
0.272849
13
-0.293943
23
-0.709641
33
0.272849
62
0
0
3DFACE
8
GEM
10
-0.636396
20
-0.636396
30
0.073658
11
-0.605132
21
-0.667660
31
0.060375
12
-0.536776
22
-0.723759
32
0.047028
13
-0.536776
23
-0.723759
33
0.047028
62
0
0
3DFACE
8
GEM
10
-0.636396
20
-0.636396
30
0.073658
11
-0.536776
21
-0.723759
31
0.047028
12
-0.463250
22
-0.772887
32
0.047028
13
-0.463250
23
-0.772887
33
0.047028
62
0
0
3DFACE
8
GEM
10
-0.636396
20
-0.636396
30
0.073658
11
-0.463250
21
-0.772887
31
0.047028
12
-0.385264
22
-0.814572
32
0.060375
13
-0.385264
23
-0.814572
33
0.060375
62
0
0
3DFACE
8
GEM
10
-0.636396
20
-0.636396
30
0.073658
11
-0.385264
21
-0.814572
31
0.060375
12
-0.344415
22
-0.831492
32
0.073658
13
-0.344415
23
-0.831492
33
0.073658
62
0
0
3DFACE
8
GEM
10
-0.636396
20
-0.636396
30
0.073658
11
-0.344415
21
-0.831492
31
0.073658
12
-0.293943
22
-0.709641
32
0.272849
13
-0.293943
23
-0.709641
33
0.272849
62
0
0
3DFACE
8
GEM
10
-0.636396
20
-0.636396
30
0.073658
11
-0.293943
21
-0.709641
31
0.272849
12
-0.543131
22
-0.543138
32
0.272849
13
-0.543131
23
-0.543138
33
0.272849
62
0
0
3DFACE
8
GEM
10
-0.636396
20
-0.636396
30
0.073658
11
-0.543131
21
-0.543138
31
0.272849
12
-0.543136
22
-0.543136
32
0.272847
13
-0.543136
23
-0.543136
33
0.272847
62
0
0
3DFACE
8
GEM
10
-0.831492
20
-0.344415
30
0.073658
11
-0.814572
21
-0.385264
31
0.060375
12
-0.772887
22
-0.463250
32
0.047028
13
-0.772887
23
-0.463250
33
0.047028
62
0
0
3DFACE
8
GEM
10
-0.831492
20
-0.344415
30
0.073658
11
-0.772887
21
-0.463250
31
0.047028
12
-0.723759
22
-0.536776
32
0.047028
13
-0.723759
23
-0.536776
33
0.047028
62
0
0
3DFACE
8
GEM
10
-0.831492
20
-0.344415
30
0.073658
11
-0.723759
21
-0.536776
31
0.047028
12
-0.667660
22
-0.605132
32
0.060375
13
-0.667660
23
-0.605132
33
0.060375
62
0
0
3DFACE
8
GEM
10
-0.831492
20
-0.344415
30
0.073658
11
-0.667660
21
-0.605132
31
0.060375
12
-0.636396
22
-0.636396
32
0.073658
13
-0.636396
23
-0.636396
33
0.073658
62
0
0
3DFACE
8
GEM
10
-0.831492
20
-0.344415
30
0.073658
11
-0.636396
21
-0.636396
31
0.073658
12
-0.543136
22
-0.543136
32
0.272847
13
-0.543136
23
-0.543136
33
0.272847
62
0
0
3DFACE
8
GEM
10
-0.831492
20
-0.344415
30
0.073658
11
-0.543136
21
-0.543136
31
0.272847
12
-0.543138
22
-0.543131
32
0.272849
13
-0.543138
23
-0.543131
33
0.272849
62
0
0
3DFACE
8
GEM
10
-0.831492
20
-0.344415
30
0.073658
11
-0.543138
21
-0.543131
31
0.272849
12
-0.709641
22
-0.293943
32
0.272849
13
-0.709641
23
-0.293943
33
0.272849
62
0
0
3DFACE
8
GEM
10
-0.900000
20
-0.000000
30
0.073658
11
-0.900000
21
-0.044214
31
0.060375
12
-0.891333
22
-0.132217
32
0.047028
13
-0.891333
23
-0.132217
33
0.047028
62
0
0
3DFACE
8
GEM
10
-0.900000
20
-0.000000
30
0.073658
11
-0.891333
21
-0.132217
31
0.047028
12
-0.874081
22
-0.218946
32
0.047028
13
-0.874081
23
-0.218946
33
0.047028
62
0
0
3DFACE
8
GEM
10
-0.900000
20
-0.000000
30
0.073658
11
-0.874081
21
-0.218946
31
0.047028
12
-0.848412
22
-0.303567
32
0.060375
13
-0.848412
23
-0.303567
33
0.060375
62
0
0
3DFACE
8
GEM
10
-0.900000
20
-0.000000
30
0.073658
11
-0.848412
21
-0.303567
31
0.060375
12
-0.831492
22
-0.344415
32
0.073658
13
-0.831492
23
-0.344415
33
0.073658
62
0
0
3DFACE
8
GEM
10
-0.900000
20
-0.000000
30
0.073658
11
-0.831492
21
-0.344415
31
0.073658
12
-0.709641
22
-0.293943
32
0.272849
13
-0.709641
23
-0.293943
33
0.272849
62
0
0
3DFACE
8
GEM
10
-0.900000
20
-0.000000
30
0.073658
11
-0.709641
21
-0.293943
31
0.272849
12
-0.768109
22
-0.000005
32
0.272849
13
-0.768109
23
-0.000005
33
0.272849
62
0
0
3DFACE
8
GEM
10
-0.900000
20
-0.000000
30
0.073658
11
-0.768109
21
-0.000005
31
0.272849
12
-0.768110
22
-0.000000
32
0.272847
13
-0.768110
23
-0.000000
33
0.272847
62
0
0
3DFACE
8
GEM
10
-0.831492
20
0.344415
30
0.073658
11
-0.848412
21
0.303567
31
0.060375
12
-0.874081
22
0.218946
32
0.047028
13
-0.874081
23
0.218946
33
0.047028
62
0
0
3DFACE
8
GEM
10
-0.831492
20
0.344415
30
0.073658
11
-0.874081
21
0.218946
31
0.047028
12
-0.891333
22
0.132217
32
0.047028
13
-0.891333
23
0.132217
33
0.047028
62
0
0
3DFACE
8
GEM
10
-0.831492
20
0.344415
30
0.073658
11
-0.891333
21
0.132217
31
0.047028
12
-0.900000
22
0.044214
32
0.060375
13
-0.900000
23
0.044214
33
0.060375
62
0
0
3DFACE
8
GEM
10
-0.831492
20
0.344415
30
0.073658
11
-0.900000
21
0.044214
31
0.060375
12
-0.900000
22
-0.000000
32
0.073658
13
-0.900000
23
-0.000000
33
0.073658
62
0
0
3DFACE
8
GEM
10
-0.831492
20
0.344415
30
0.073658
11
-0.900000
21
-0.000000
31
0.073658
12
-0.768110
22
-0.000000
32
0.272847
13
-0.768110
23
-0.000000
33
0.272847
62
0
0
3DFACE
8
GEM
10
-0.831492
20
0.344415
30
0.073658
11
-0.768110
21
-0.000000
31
0.272847
12
-0.768109
22
0.000005
32
0.272849
13
-0.768109
23
0.000005
33
0.272849
62
0
0
3DFACE
8
GEM
10
-0.831492
20
0.344415
30
0.073658
11
-0.768109
21
0.000005
31
0.272849
12
-0.709641
22
0.293943
32
0.272849
13
-0.709641
23
0.293943
33
0.272849
62
0
0
3DFACE
8
GEM
10
-0.636396
20
0.636396
30
0.073658
11
-0.667660
21
0.605132
31
0.060375
12
-0.723759
22
0.536776
32
0.047028
13
-0.723759
23
0.536776
33
0.047028
62
0
0
3DFACE
8
GEM
10
-0.636396
20
0.636396
30
0.073658
11
-0.723759
21
0.536776
31
0.047028
12
-0.772887
22
0.463250
32
0.047028
13
-0.772887
23
0.463250
33
0.047028
62
0
0
3DFACE
8
GEM
10
-0.636396
20
0.636396
30
0.073658
11
-0.772887
21
0.463250
31
0.047028
12
-0.814572
22
0.385264
32
0.060375
13
-0.814572
23
0.385264
33
0.060375
62
0
0
3DFACE
8
GEM
10
-0.636396
20
0.636396
30
0.073658
11
-0.814572
21
0.385264
31
0.060375
12
-0.831492
22
0.344415
32
0.073658
13
-0.831492
23
0.344415
33
0.073658
62
0
0
3DFACE
8
GEM
10
-0.636396
20
0.636396
30
0.073658
11
-0.831492
21
0.344415
31
0.073658
12
-0.709641
22
0.293943
32
0.272849
13
-0.709641
23
0.293943
33
0.272849
62
0
0
3DFACE
8
GEM
10
-0.636396
20
0.636396
30
0.073658
11
-0.709641
21
0.293943
31
0.272849
12
-0.543138
22
0.543131
32
0.272849
13
-0.543138
23
0.543131
33
0.272849
62
0
0
3DFACE
8
GEM
10
-0.636396
20
0.636396
30
0.073658
11
-0.543138
21
0.543131
31
0.272849
12
-0.543136
22
0.543136
32
0.272847
13
-0.543136
23
0.543136
33
0.272847
62
0
0
3DFACE
8
GEM
10
-0.344415
20
0.831492
30
0.073658
11
-0.385264
21
0.814572
31
0.060375
12
-0.463250
22
0.772887
32
0.047028
13
-0.463250
23
0.772887
33
0.047028
62
0
0
3DFACE
8
GEM
10
-0.344415
20
0.831492
30
0.073658
11
-0.463250
21
0.772887
31
0.047028
12
-0.536776
22
0.723759
32
0.047028
13
-0.536776
23
0.723759
33
0.047028
62
0
0
3DFACE
8
GEM
10
-0.344415
20
0.831492
30
0.073658
11
-0.536776
21
0.723759
31
0.047028
12
-0.605132
22
0.667660
32
0.060375
13
-0.605132
23
0.667660
33
0.060375
62
0
0
3DFACE
8
GEM
10
-0.344415
20
0.831492
30
0.073658
11
-0.605132
21
0.667660
31
0.060375
12
-0.636396
22
0.636396
32
0.073658
13
-0.636396
23
0.636396
33
0.073658
62
0
0
3DFACE
8
GEM
10
-0.344415
20
0.831492
30
0.073658
11
-0.636396
21
0.636396
31
0.073658
12
-0.543136
22
0.543136
32
0.272847
13
-0.543136
23
0.543136
33
0.272847
62
0
0
3DFACE
8
GEM
10
-0.344415
20
0.831492
30
0.073658
11
-0.543136
21
0.543136
31
0.272847
12
-0.543131
22
0.543138
32
0.272849
13
-0.543131
23
0.543138
33
0.272849
62
0
0
3DFACE
8
GEM
10
-0.344415
20
0.831492
30
0.073658
11
-0.543131
21
0.543138
31
0.272849
12
-0.293943
22
0.709641
32
0.272849
13
-0.293943
23
0.709641
33
0.272849
62
0
0
3DFACE
8
GEM
10
-0.000000
20
0.900000
30
0.073658
11
-0.044214
21
0.900000
31
0.060375
12
-0.132217
22
0.891333
32
0.047028
13
-0.132217
23
0.891333
33
0.047028
62
0
0
3DFACE
8
GEM
10
-0.000000
20
0.900000
30
0.073658
11
-0.132217
21
0.891333
31
0.047028
12
-0.218946
22
0.874081
32
0.047028
13
-0.218946
23
0.874081
33
0.047028
62
0
0
3DFACE
8
GEM
10
-0.000000
20
0.900000
30
0.073658
11
-0.218946
21
0.874081
31
0.047028
12
-0.303567
22
0.848412
32
0.060375
13
-0.303567
23
0.848412
33
0.060375
62
0
0
3DFACE
8
GEM
10
-0.000000
20
0.900000
30
0.073658
11
-0.303567
21
0.848412
31
0.060375
12
-0.344415
22
0.831492
32
0.073658
13
-0.344415
23
0.831492
33
0.073658
62
0
0
3DFACE
8
GEM
10
-0.000000
20
0.900000
30
0.073658
11
-0.344415
21
0.831492
31
0.073658
12
-0.293943
22
0.709641
32
0.272849
13
-0.293943
23
0.709641
33
0.272849
62
0
0
3DFACE
8
GEM
10
-0.000000
20
0.900000
30
0.073658
11
-0.293943
21
0.709641
31
0.272849
12
-0.000005
22
0.768109
32
0.272849
13
-0.000005
23
0.768109
33
0.272849
62
0
0
3DFACE
8
GEM
10
-0.000000
20
0.900000
30
0.073658
11
-0.000005
21
0.768109
31
0.272849
12
-0.000000
22
0.768110
32
0.272847
13
-0.000000
23
0.768110
33
0.272847
62
0
0
3DFACE
8
GEM
10
0.293943
20
0.709641
30
0.272849
11
0.000005
21
0.768109
31
0.272849
12
0.186132
22
0.449363
32
0.513041
13
0.186132
23
0.449363
33
0.513041
62
0
0
3DFACE
8
GEM
10
0.543131
20
0.543138
30
0.272849
11
0.293943
21
0.709641
31
0.272849
12
0.186132
22
0.449363
32
0.513041
13
0.186132
23
0.449363
33
0.513041
62
0
0
3DFACE
8
GEM
10
0.709641
20
0.293943
30
0.272849
11
0.543138
21
0.543131
31
0.272849
12
0.449363
22
0.186132
32
0.513041
13
0.449363
23
0.186132
33
0.513041
62
0
0
3DFACE
8
GEM
10
0.768109
20
0.000005
30
0.272849
11
0.709641
21
0.293943
31
0.272849
12
0.449363
22
0.186132
32
0.513041
13
0.449363
23
0.186132
33
0.513041
62
0
0
3DFACE
8
GEM
10
0.709641
20
-0.293943
30
0.272849
11
0.768109
21
-0.000005
31
0.272849
12
0.449363
22
-0.186132
32
0.513041
13
0.449363
23
-0.186132
33
0.513041
62
0
0
3DFACE
8
GEM
10
0.543138
20
-0.543131
30
0.272849
11
0.709641
21
-0.293943
31
0.272849
12
0.449363
22
-0.186132
32
0.513041
13
0.449363
23
-0.186132
33
0.513041
62
0
0
3DFACE
8
GEM
10
0.293943
20
-0.709641
30
0.272849
11
0.543131
21
-0.543138
31
0.272849
12
0.186132
22
-0.449363
32
0.513041
13
0.186132
23
-0.449363
33
0.513041
62
0
0
3DFACE
8
GEM
10
0.000005
20
-0.768109
30
0.272849
11
0.293943
21
-0.709641
31
0.272849
12
0.186132
22
-0.449363
32
0.513041
13
0.186132
23
-0.449363
33
0.513041
62
0
0
3DFACE
8
GEM
10
-0.293943
20
-0.709641
30
0.272849
11
-0.000005
21
-0.768109
31
0.272849
12
-0.186132
22
-0.449363
32
0.513041
13
-0.186132
23
-0.449363
33
0.513041
62
0
0
3DFACE
8
GEM
10
-0.543131
20
-0.543138
30
0.272849
11
-0.293943
21
-0.709641
31
0.272849
12
-0.186132
22
-0.449363
32
0.513041
13
-0.186132
23
-0.449363
33
0.513041
62
0
0
3DFACE
8
GEM
10
-0.709641
20
-0.293943
30
0.272849
11
-0.543138
21
-0.543131
31
0.272849
12
-0.449363
22
-0.186132
32
0.513041
13
-0.449363
23
-0.186132
33
0.513041
62
0
0
3DFACE
8
GEM
10
-0.768109
20
-0.000005
30
0.272849
11
-0.709641
21
-0.293943
31
0.272849
12
-0.449363
22
-0.186132
32
0.513041
13
-0.449363
23
-0.186132
33
0.513041
62
0
0
3DFACE
8
GEM
10
-0.709641
20
0.293943
30
0.272849
11
-0.768109
21
0.000005
31
0.272849
12
-0.449363
22
0.186132
32
0.513041
13
-0.449363
23
0.186132
33
0.513041
62
0
0
3DFACE
8
GEM
10
-0.543138
20
0.543131
30
0.272849
11
-0.709641
21
0.293943
31
0.272849
12
-0.449363
22
0.186132
32
0.513041
13
-0.449363
23
0.186132
33
0.513041
62
0
0
3DFACE
8
GEM
10
-0.293943
20
0.709641
30
0.272849
11
-0.543131
21
0.543138
31
0.272849
12
-0.186132
22
0.449363
32
0.513041
13
-0.186132
23
0.449363
33
0.513041
62
0
0
3DFACE
8
GEM
10
-0.000005
20
0.768109
30
0.272849
11
-0.293943
21
0.709641
31
0.272849
12
-0.186132
22
0.449363
32
0.513041
13
-0.186132
23
0.449363
33
0.513041
62
0
0
3DFACE
8
GEM
10
0.000005
20
0.768109
30
0.272849
11
-0.000000
21
0.768110
31
0.272847
12
-0.000005
22
0.768109
32
0.272849
13
-0.000005
23
0.768109
33
0.272849
62
0
0
3DFACE
8
GEM
10
0.000005
20
0.768109
30
0.272849
11
-0.000005
21
0.768109
31
0.272849
12
-0.186132
22
0.449363
32
0.513041
13
-0.186132
23
0.449363
33
0.513041
62
0
0
3DFACE
8
GEM
10
0.000005
20
0.768109
30
0.272849
11
-0.186132
21
0.449363
31
0.513041
12
-0.186126
22
0.449349
32
0.513051
13
-0.186126
23
0.449349
33
0.513051
62
0
0
3DFACE
8
GEM
10
0.000005
20
0.768109
30
0.272849
11
-0.186126
21
0.449349
31
0.513051
12
0.186126
22
0.449349
32
0.513051
13
0.186126
23
0.449349
33
0.513051
62
0
0
3DFACE
8
GEM
10
0.000005
20
0.768109
30
0.272849
11
0.186126
21
0.449349
31
0.513051
12
0.186132
22
0.449363
32
0.513041
13
0.186132
23
0.449363
33
0.513041
62
0
0
3DFACE
8
GEM
10
0.543136
20
0.543136
30
0.272847
11
0.543131
21
0.543138
31
0.272849
12
0.186132
22
0.449363
32
0.513041
13
0.186132
23
0.449363
33
0.513041
62
0
0
3DFACE
8
GEM
10
0.543136
20
0.543136
30
0.272847
11
0.186132
21
0.449363
31
0.513041
12
0.186126
22
0.449349
32
0.513051
13
0.186126
23
0.449349
33
0.513051
62
0
0
3DFACE
8
GEM
10
0.543136
20
0.543136
30
0.272847
11
0.186126
21
0.449349
31
0.513051
12
0.449349
22
0.186126
32
0.513051
13
0.449349
23
0.186126
33
0.513051
62
0
0
3DFACE
8
GEM
10
0.543136
20
0.543136
30
0.272847
11
0.449349
21
0.186126
31
0.513051
12
0.449363
22
0.186132
32
0.513041
13
0.449363
23
0.186132
33
0.513041
62
0
0
3DFACE
8
GEM
10
0.543136
20
0.543136
30
0.272847
11
0.449363
21
0.186132
31
0.513041
12
0.543138
22
0.543131
32
0.272849
13
0.543138
23
0.543131
33
0.272849
62
0
0
3DFACE
8
GEM
10
0.768110
20
-0.000000
30
0.272847
11
0.768109
21
0.000005
31
0.272849
12
0.449363
22
0.186132
32
0.513041
13
0.449363
23
0.186132
33
0.513041
62
0
0
3DFACE
8
GEM
10
0.768110
20
-0.000000
30
0.272847
11
0.449363
21
0.186132
31
0.513041
12
0.449349
22
0.186126
32
0.513051
13
0.449349
23
0.186126
33
0.513051
62
0
0
3DFACE
8
GEM
10
0.768110
20
-0.000000
30
0.272847
11
0.449349
21
0.186126
31
0.513051
12
0.449349
22
-0.186126
32
0.513051
13
0.449349
23
-0.186126
33
0.513051
62
0
0
3DFACE
8
GEM
10
0.768110
20
-0.000000
30
0.272847
11
0.449349
21
-0.186126
31
0.513051
12
0.449363
22
-0.186132
32
0.513041
13
0.449363
23
-0.186132
33
0.513041
62
0
0
3DFACE
8
GEM
10
0.768110
20
-0.000000
30
0.272847
11
0.449363
21
-0.186132
31
0.513041
12
0.768109
22
-0.000005
32
0.272849
13
0.768109
23
-0.000005
33
0.272849
62
0
0
3DFACE
8
GEM
10
0.543136
20
-0.543136
30
0.272847
11
0.543138
21
-0.543131
31
0.272849
12
0.449363
22
-0.186132
32
0.513041
13
0.449363
23
-0.186132
33
0.513041
62
0
0
3DFACE
8
GEM
10
0.543136
20
-0.543136
30
0.272847
11
0.449363
21
-0.186132
31
0.513041
12
0.449349
22
-0.186126
32
0.513051
13
0.449349
23
-0.186126
33
0.513051
62
0
0
3DFACE
8
GEM
10
0.543136
20
-0.543136
30
0.272847
11
0.449349
21
-0.186126
31
0.513051
12
0.186126
22
-0.449349
32
0.513051
13
0.186126
23
-0.449349
33
0.513051
62
0
0
3DFACE
8
GEM
10
0.543136
20
-0.543136
30
0.272847
11
0.186126
21
-0.449349
31
0.513051
12
0.186132
22
-0.449363
32
0.513041
13
0.186132
23
-0.449363
33
0.513041
62
0
0
3DFACE
8
GEM
10
0.543136
20
-0.543136
30
0.272847
11
0.186132
21
-0.449363
31
0.513041
12
0.543131
22
-0.543138
32
0.272849
13
0.543131
23
-0.543138
33
0.272849
62
0
0
3DFACE
8
GEM
10
-0.000000
20
-0.768110
30
0.272847
11
0.000005
21
-0.768109
31
0.272849
12
0.186132
22
-0.449363
32
0.513041
13
0.186132
23
-0.449363
33
0.513041
62
0
0
3DFACE
8
GEM
10
-0.000000
20
-0.768110
30
0.272847
11
0.186132
21
-0.449363
31
0.513041
12
0.186126
22
-0.449349
32
0.513051
13
0.186126
23
-0.449349
33
0.513051
62
0
0
3DFACE
8
GEM
10
-0.000000
20
-0.768110
30
0.272847
11
0.186126
21
-0.449349
31
0.513051
12
-0.186126
22
-0.449349
32
0.513051
13
-0.186126
23
-0.449349
33
0.513051
62
0
0
3DFACE
8
GEM
10
-0.000000
20
-0.768110
30
0.272847
11
-0.186126
21
-0.449349
31
0.513051
12
-0.186132
22
-0.449363
32
0.513041
13
-0.186132
23
-0.449363
33
0.513041
62
0
0
3DFACE
8
GEM
10
-0.000000
20
-0.768110
30
0.272847
11
-0.186132
21
-0.449363
31
0.513041
12
-0.000005
22
-0.768109
32
0.272849
13
-0.000005
23
-0.768109
33
0.272849
62
0
0
3DFACE
8
GEM
10
-0.543136
20
-0.543136
30
0.272847
11
-0.543131
21
-0.543138
31
0.272849
12
-0.186132
22
-0.449363
32
0.513041
13
-0.186132
23
-0.449363
33
0.513041
62
0
0
3DFACE
8
GEM
10
-0.543136
20
-0.543136
30
0.272847
11
-0.186132
21
-0.449363
31
0.513041
12
-0.186126
22
-0.449349
32
0.513051
13
-0.186126
23
-0.449349
33
0.513051
62
0
0
3DFACE
8
GEM
10
-0.543136
20
-0.543136
30
0.272847
11
-0.186126
21
-0.449349
31
0.513051
12
-0.449349
22
-0.186126
32
0.513051
13
-0.449349
23
-0.186126
33
0.513051
62
0
0
3DFACE
8
GEM
10
-0.543136
20
-0.543136
30
0.272847
11
-0.449349
21
-0.186126
31
0.513051
12
-0.449363
22
-0.186132
32
0.513041
13
-0.449363
23
-0.186132
33
0.513041
62
0
0
3DFACE
8
GEM
10
-0.543136
20
-0.543136
30
0.272847
11
-0.449363
21
-0.186132
31
0.513041
12
-0.543138
22
-0.543131
32
0.272849
13
-0.543138
23
-0.543131
33
0.272849
62
0
0
3DFACE
8
GEM
10
-0.768110
20
-0.000000
30
0.272847
11
-0.768109
21
-0.000005
31
0.272849
12
-0.449363
22
-0.186132
32
0.513041
13
-0.449363
23
-0.186132
33
0.513041
62
0
0
3DFACE
8
GEM
10
-0.768110
20
-0.000000
30
0.272847
11
-0.449363
21
-0.186132
31
0.513041
12
-0.449349
22
-0.186126
32
0.513051
13
-0.449349
23
-0.186126
33
0.513051
62
0
0
3DFACE
8
GEM
10
-0.768110
20
-0.000000
30
0.272847
11
-0.449349
21
-0.186126
31
0.513051
12
-0.449349
22
0.186126
32
0.513051
13
-0.449349
23
0.186126
33
0.513051
62
0
0
3DFACE
8
GEM
10
-0.768110
20
-0.000000
30
0.272847
11
-0.449349
21
0.186126
31
0.513051
12
-0.449363
22
0.186132
32
0.513041
13
-0.449363
23
0.186132
33
0.513041
62
0
0
3DFACE
8
GEM
10
-0.768110
20
-0.000000
30
0.272847
11
-0.449363
21
0.186132
31
0.513041
12
-0.768109
22
0.000005
32
0.272849
13
-0.768109
23
0.000005
33
0.272849
62
0
0
3DFACE
8
GEM
10
-0.543136
20
0.543136
30
0.272847
11
-0.543138
21
0.543131
31
0.272849
12
-0.449363
22
0.186132
32
0.513041
13
-0.449363
23
0.186132
33
0.513041
62
0
0
3DFACE
8
GEM
10
-0.543136
20
0.543136
30
0.272847
11
-0.449363
21
0.186132
31
0.513041
12
-0.449349
22
0.186126
32
0.513051
13
-0.449349
23
0.186126
33
0.513051
62
0
0
3DFACE
8
GEM
10
-0.543136
20
0.543136
30
0.272847
11
-0.449349
21
0.186126
31
0.513051
12
-0.186126
22
0.449349
32
0.513051
13
-0.186126
23
0.449349
33
0.513051
62
0
0
3DFACE
8
GEM
10
-0.543136
20
0.543136
30
0.272847
11
-0.186126
21
0.449349
31
0.513051
12
-0.186132
22
0.449363
32
0.513041
13
-0.186132
23
0.449363
33
0.513041
62
0
0
3DFACE
8
GEM
10
-0.543136
20
0.543136
30
0.272847
11
-0.186132
21
0.449363
31
0.513041
12
-0.543131
22
0.543138
32
0.272849
13
-0.543131
23
0.543138
33
0.272849
62
0
0
3DFACE
8
GEM
10
0.186126
20
0.449349
30
0.513051
11
-0.186126
21
0.449349
31
0.513051
12
-0.161257
22
0.389309
32
0.537309
13
-0.161257
23
0.389309
33
0.537309
62
0
0
3DFACE
8
GEM
10
0.186126
20
0.449349
30
0.513051
11
-0.161257
21
0.389309
31
0.537309
12
0.161257
22
0.389309
32
0.537309
13
0.161257
23
0.389309
33
0.537309
62
0
0
3DFACE
8
GEM
10
0.449349
20
0.186126
30
0.513051
11
0.186126
21
0.449349
31
0.513051
12
0.161257
22
0.389309
32
0.537309
13
0.161257
23
0.389309
33
0.537309
62
0
0
3DFACE
8
GEM
10
0.449349
20
0.186126
30
0.513051
11
0.161257
21
0.389309
31
0.537309
12
0.389309
22
0.161257
32
0.537309
13
0.389309
23
0.161257
33
0.537309
62
0
0
3DFACE
8
GEM
10
0.449349
20
-0.186126
30
0.513051
11
0.449349
21
0.186126
31
0.513051
12
0.389309
22
0.161257
32
0.537309
13
0.389309
23
0.161257
33
0.537309
62
0
0
3DFACE
8
GEM
10
0.449349
20
-0.186126
30
0.513051
11
0.389309
21
0.161257
31
0.537309
12
0.389309
22
-0.161257
32
0.537309
13
0.389309
23
-0.161257
33
0.537309
62
0
0
3DFACE
8
GEM
10
0.186126
20
-0.449349
30
0.513051
11
0.449349
21
-0.186126
31
0.513051
12
0.389309
22
-0.161257
32
0.537309
13
0.389309
23
-0.161257
33
0.537309
62
0
0
3DFACE
8
GEM
10
0.186126
20
-0.449349
30
0.513051
11
0.389309
21
-0.161257
31
0.537309
12
0.161257
22
-0.389309
32
0.537309
13
0.161257
23
-0.389309
33
0.537309
62
0
0
3DFACE
8
GEM
10
-0.186126
20
-0.449349
30
0.513051
11
0.186126
21
-0.449349
31
0.513051
12
0.161257
22
-0.389309
32
0.537309
13
0.161257
23
-0.389309
33
0.537309
62
0
0
3DFACE
8
GEM
10
-0.186126
20
-0.449349
30
0.513051
11
0.161257
21
-0.389309
31
0.537309
12
-0.161257
22
-0.389309
32
0.537309
13
-0.161257
23
-0.389309
33
0.537309
62
0
0
3DFACE
8
GEM
10
-0.449349
20
-0.186126
30
0.513051
11
-0.186126
21
-0.449349
31
0.513051
12
-0.161257
22
-0.389309
32
0.537309
13
-0.161257
23
-0.389309
33
0.537309
62
0
0
3DFACE
8
GEM
10
-0.449349
20
-0.186126
30
0.513051
11
-0.161257
21
-0.389309
31
0.537309
12
-0.389309
22
-0.161257
32
0.537309
13
-0.389309
23
-0.161257
33
0.537309
62
0
0
3DFACE
8
GEM
10
-0.449349
20
0.186126
30
0.513051
11
-0.449349
21
-0.186126
31
0.513051
12
-0.389309
22
-0.161257
32
0.537309
13
-0.389309
23
-0.161257
33
0.537309
62
0
0
3DFACE
8
GEM
10
-0.449349
20
0.186126
30
0.513051
11
-0.389309
21
-0.161257
31
0.537309
12
-0.389309
22
0.161257
32
0.537309
13
-0.389309
23
0.161257
33
0.537309
62
0
0
3DFACE
8
GEM
10
-0.186126
20
0.449349
30
0.513051
11
-0.449349
21
0.186126
31
0.513051
12
-0.389309
22
0.161257
32
0.537309
13
-0.389309
23
0.161257
33
0.537309
62
0
0
3DFACE
8
GEM
10
-0.186126
20
0.449349
30
0.513051
11
-0.389309
21
0.161257
31
0.537309
12
-0.161257
22
0.389309
32
0.537309
13
-0.161257
23
0.389309
33
0.537309
62
0
0
3DFACE
8
GEM
10
0.161257
20
0.389309
30
0.537309
11
-0.161257
21
0.389309
31
0.537309
12
-0.389309
22
0.161257
32
0.537309
13
-0.389309
23
0.161257
33
0.537309
62
0
0
3DFACE
8
GEM
10
0.161257
20
0.389309
30
0.537309
11
-0.389309
21
0.161257
31
0.537309
12
-0.389309
22
-0.161257
32
0.537309
13
-0.389309
23
-0.161257
33
0.537309
62
0
0
3DFACE
8
GEM
10
0.161257
20
0.389309
30
0.537309
11
-0.389309
21
-0.161257
31
0.537309
12
-0.161257
22
-0.389309
32
0.537309
13
-0.161257
23
-0.389309
33
0.537309
62
0
0
3DFACE
8
GEM
10
0.161257
20
0.389309
30
0.537309
11
-0.161257
21
-0.389309
31
0.537309
12
0.161257
22
-0.389309
32
0.537309
13
0.161257
23
-0.389309
33
0.537309
62
0
0
3DFACE
8
GEM
10
0.161257
20
0.389309
30
0.537309
11
0.161257
21
-0.389309
31
0.537309
12
0.389309
22
-0.161257
32
0.537309
13
0.389309
23
-0.161257
33
0.537309
62
0
0
3DFACE
8
GEM
10
0.161257
20
0.389309
30
0.537309
11
0.389309
21
-0.161257
31
0.537309
12
0.389309
22
0.161257
32
0.537309
13
0.389309
23
0.161257
33
0.537309
62
0
0
ENDSEC
0
EOF
