999
DXF gemstone file C:\Projects\pov_spectral\gems\pc01024.dxf created by GemCad for Windows
0
SECTION
2
HEADER
0
ENDSEC
0
SECTION
2
TABLES
0
TABLE
2
LAYER
70
153
0
LAYER
2
GEM
70
0
62
15
6
CONTINUOUS
0
ENDTAB
0
ENDSEC
0
SECTION
2
ENTITIES
0
3DFACE
8
GEM
10
-0.234947
20
0.876835
30
0.000076
11
-0.234947
21
0.876835
31
0.052608
12
-0.234675
22
0.876870
32
0.052671
13
-0.234675
23
0.876870
33
0.052671
62
0
0
3DFACE
8
GEM
10
-0.234947
20
0.876835
30
0.000076
11
-0.234675
21
0.876870
31
0.052671
12
-0.000790
22
0.907662
32
0.052671
13
-0.000790
23
0.907662
33
0.052671
62
0
0
3DFACE
8
GEM
10
-0.234947
20
0.876835
30
0.000076
11
-0.000790
21
0.907662
31
0.052671
12
0.000000
22
0.907766
32
0.052595
13
0.000000
23
0.907766
33
0.052595
62
0
0
3DFACE
8
GEM
10
-0.234947
20
0.876835
30
0.000076
11
0.000000
21
0.907766
31
0.052595
12
0.000000
22
0.907766
32
0.000005
13
0.000000
23
0.907766
33
0.000005
62
0
0
3DFACE
8
GEM
10
-0.234947
20
0.876835
30
0.000076
11
0.000000
21
0.907766
31
0.000005
12
-0.000044
22
0.907760
32
0.000000
13
-0.000044
23
0.907760
33
0.000000
62
0
0
3DFACE
8
GEM
10
-0.234947
20
0.876835
30
0.000076
11
-0.000044
21
0.907760
31
0.000000
12
-0.234628
22
0.876877
32
0.000000
13
-0.234628
23
0.876877
33
0.000000
62
0
0
3DFACE
8
GEM
10
-0.234947
20
0.876835
30
0.052608
11
-0.234947
21
0.876835
31
0.000076
12
-0.453883
22
0.786148
32
0.000076
13
-0.453883
23
0.786148
33
0.000076
62
0
0
3DFACE
8
GEM
10
-0.234947
20
0.876835
30
0.052608
11
-0.453883
21
0.786148
31
0.000076
12
-0.453883
22
0.786148
32
0.052608
13
-0.453883
23
0.786148
33
0.052608
62
0
0
3DFACE
8
GEM
10
-0.453883
20
0.786148
30
0.052608
11
-0.453883
21
0.786148
31
0.000076
12
-0.454138
22
0.785953
32
0.000000
13
-0.454138
23
0.785953
33
0.000000
62
0
0
3DFACE
8
GEM
10
-0.453883
20
0.786148
30
0.052608
11
-0.454138
21
0.785953
31
0.000000
12
-0.641852
22
0.641915
32
0.000000
13
-0.641852
23
0.641915
33
0.000000
62
0
0
3DFACE
8
GEM
10
-0.453883
20
0.786148
30
0.052608
11
-0.641852
21
0.641915
31
0.000000
12
-0.641888
22
0.641888
32
0.000005
13
-0.641888
23
0.641888
33
0.000005
62
0
0
3DFACE
8
GEM
10
-0.453883
20
0.786148
30
0.052608
11
-0.641888
21
0.641888
31
0.000005
12
-0.641888
22
0.641888
32
0.052595
13
-0.641888
23
0.641888
33
0.052595
62
0
0
3DFACE
8
GEM
10
-0.453883
20
0.786148
30
0.052608
11
-0.641888
21
0.641888
31
0.052595
12
-0.641255
22
0.642373
32
0.052671
13
-0.641255
23
0.642373
33
0.052671
62
0
0
3DFACE
8
GEM
10
-0.453883
20
0.786148
30
0.052608
11
-0.641255
21
0.642373
31
0.052671
12
-0.454101
22
0.785981
32
0.052671
13
-0.454101
23
0.785981
33
0.052671
62
0
0
3DFACE
8
GEM
10
-0.641888
20
0.641888
30
0.052595
11
-0.641888
21
0.641888
31
0.000005
12
-0.641915
22
0.641852
32
0.000000
13
-0.641915
23
0.641852
33
0.000000
62
0
0
3DFACE
8
GEM
10
-0.641888
20
0.641888
30
0.052595
11
-0.641915
21
0.641852
31
0.000000
12
-0.785953
22
0.454138
32
0.000000
13
-0.785953
23
0.454138
33
0.000000
62
0
0
3DFACE
8
GEM
10
-0.641888
20
0.641888
30
0.052595
11
-0.785953
21
0.454138
31
0.000000
12
-0.786148
22
0.453883
32
0.000076
13
-0.786148
23
0.453883
33
0.000076
62
0
0
3DFACE
8
GEM
10
-0.641888
20
0.641888
30
0.052595
11
-0.786148
21
0.453883
31
0.000076
12
-0.786148
22
0.453883
32
0.052608
13
-0.786148
23
0.453883
33
0.052608
62
0
0
3DFACE
8
GEM
10
-0.641888
20
0.641888
30
0.052595
11
-0.786148
21
0.453883
31
0.052608
12
-0.785981
22
0.454101
32
0.052671
13
-0.785981
23
0.454101
33
0.052671
62
0
0
3DFACE
8
GEM
10
-0.641888
20
0.641888
30
0.052595
11
-0.785981
21
0.454101
31
0.052671
12
-0.642373
22
0.641255
32
0.052671
13
-0.642373
23
0.641255
33
0.052671
62
0
0
3DFACE
8
GEM
10
-0.786148
20
0.453883
30
0.052608
11
-0.786148
21
0.453883
31
0.000076
12
-0.876835
22
0.234947
32
0.000076
13
-0.876835
23
0.234947
33
0.000076
62
0
0
3DFACE
8
GEM
10
-0.786148
20
0.453883
30
0.052608
11
-0.876835
21
0.234947
31
0.000076
12
-0.876835
22
0.234947
32
0.052608
13
-0.876835
23
0.234947
33
0.052608
62
0
0
3DFACE
8
GEM
10
-0.876835
20
0.234947
30
0.052608
11
-0.876835
21
0.234947
31
0.000076
12
-0.876877
22
0.234628
32
0.000000
13
-0.876877
23
0.234628
33
0.000000
62
0
0
3DFACE
8
GEM
10
-0.876835
20
0.234947
30
0.052608
11
-0.876877
21
0.234628
31
0.000000
12
-0.907760
22
0.000044
32
0.000000
13
-0.907760
23
0.000044
33
0.000000
62
0
0
3DFACE
8
GEM
10
-0.876835
20
0.234947
30
0.052608
11
-0.907760
21
0.000044
31
0.000000
12
-0.907766
22
-0.000000
32
0.000005
13
-0.907766
23
-0.000000
33
0.000005
62
0
0
3DFACE
8
GEM
10
-0.876835
20
0.234947
30
0.052608
11
-0.907766
21
-0.000000
31
0.000005
12
-0.907766
22
-0.000000
32
0.052595
13
-0.907766
23
-0.000000
33
0.052595
62
0
0
3DFACE
8
GEM
10
-0.876835
20
0.234947
30
0.052608
11
-0.907766
21
-0.000000
31
0.052595
12
-0.907662
22
0.000790
32
0.052671
13
-0.907662
23
0.000790
33
0.052671
62
0
0
3DFACE
8
GEM
10
-0.876835
20
0.234947
30
0.052608
11
-0.907662
21
0.000790
31
0.052671
12
-0.876870
22
0.234675
32
0.052671
13
-0.876870
23
0.234675
33
0.052671
62
0
0
3DFACE
8
GEM
10
-0.907766
20
-0.000000
30
0.052595
11
-0.907766
21
-0.000000
31
0.000005
12
-0.907760
22
-0.000044
32
0.000000
13
-0.907760
23
-0.000044
33
0.000000
62
0
0
3DFACE
8
GEM
10
-0.907766
20
-0.000000
30
0.052595
11
-0.907760
21
-0.000044
31
0.000000
12
-0.876877
22
-0.234628
32
0.000000
13
-0.876877
23
-0.234628
33
0.000000
62
0
0
3DFACE
8
GEM
10
-0.907766
20
-0.000000
30
0.052595
11
-0.876877
21
-0.234628
31
0.000000
12
-0.876835
22
-0.234947
32
0.000076
13
-0.876835
23
-0.234947
33
0.000076
62
0
0
3DFACE
8
GEM
10
-0.907766
20
-0.000000
30
0.052595
11
-0.876835
21
-0.234947
31
0.000076
12
-0.876835
22
-0.234947
32
0.052608
13
-0.876835
23
-0.234947
33
0.052608
62
0
0
3DFACE
8
GEM
10
-0.907766
20
-0.000000
30
0.052595
11
-0.876835
21
-0.234947
31
0.052608
12
-0.876870
22
-0.234675
32
0.052671
13
-0.876870
23
-0.234675
33
0.052671
62
0
0
3DFACE
8
GEM
10
-0.907766
20
-0.000000
30
0.052595
11
-0.876870
21
-0.234675
31
0.052671
12
-0.907662
22
-0.000790
32
0.052671
13
-0.907662
23
-0.000790
33
0.052671
62
0
0
3DFACE
8
GEM
10
-0.876835
20
-0.234947
30
0.052608
11
-0.876835
21
-0.234947
31
0.000076
12
-0.786148
22
-0.453883
32
0.000076
13
-0.786148
23
-0.453883
33
0.000076
62
0
0
3DFACE
8
GEM
10
-0.876835
20
-0.234947
30
0.052608
11
-0.786148
21
-0.453883
31
0.000076
12
-0.786148
22
-0.453883
32
0.052608
13
-0.786148
23
-0.453883
33
0.052608
62
0
0
3DFACE
8
GEM
10
-0.786148
20
-0.453883
30
0.052608
11
-0.786148
21
-0.453883
31
0.000076
12
-0.785953
22
-0.454138
32
0.000000
13
-0.785953
23
-0.454138
33
0.000000
62
0
0
3DFACE
8
GEM
10
-0.786148
20
-0.453883
30
0.052608
11
-0.785953
21
-0.454138
31
0.000000
12
-0.641915
22
-0.641852
32
0.000000
13
-0.641915
23
-0.641852
33
0.000000
62
0
0
3DFACE
8
GEM
10
-0.786148
20
-0.453883
30
0.052608
11
-0.641915
21
-0.641852
31
0.000000
12
-0.641888
22
-0.641888
32
0.000005
13
-0.641888
23
-0.641888
33
0.000005
62
0
0
3DFACE
8
GEM
10
-0.786148
20
-0.453883
30
0.052608
11
-0.641888
21
-0.641888
31
0.000005
12
-0.641888
22
-0.641888
32
0.052595
13
-0.641888
23
-0.641888
33
0.052595
62
0
0
3DFACE
8
GEM
10
-0.786148
20
-0.453883
30
0.052608
11
-0.641888
21
-0.641888
31
0.052595
12
-0.642373
22
-0.641255
32
0.052671
13
-0.642373
23
-0.641255
33
0.052671
62
0
0
3DFACE
8
GEM
10
-0.786148
20
-0.453883
30
0.052608
11
-0.642373
21
-0.641255
31
0.052671
12
-0.785981
22
-0.454101
32
0.052671
13
-0.785981
23
-0.454101
33
0.052671
62
0
0
3DFACE
8
GEM
10
-0.641888
20
-0.641888
30
0.052595
11
-0.641888
21
-0.641888
31
0.000005
12
-0.641852
22
-0.641915
32
0.000000
13
-0.641852
23
-0.641915
33
0.000000
62
0
0
3DFACE
8
GEM
10
-0.641888
20
-0.641888
30
0.052595
11
-0.641852
21
-0.641915
31
0.000000
12
-0.454138
22
-0.785953
32
0.000000
13
-0.454138
23
-0.785953
33
0.000000
62
0
0
3DFACE
8
GEM
10
-0.641888
20
-0.641888
30
0.052595
11
-0.454138
21
-0.785953
31
0.000000
12
-0.453883
22
-0.786148
32
0.000076
13
-0.453883
23
-0.786148
33
0.000076
62
0
0
3DFACE
8
GEM
10
-0.641888
20
-0.641888
30
0.052595
11
-0.453883
21
-0.786148
31
0.000076
12
-0.453883
22
-0.786148
32
0.052608
13
-0.453883
23
-0.786148
33
0.052608
62
0
0
3DFACE
8
GEM
10
-0.641888
20
-0.641888
30
0.052595
11
-0.453883
21
-0.786148
31
0.052608
12
-0.454101
22
-0.785981
32
0.052671
13
-0.454101
23
-0.785981
33
0.052671
62
0
0
3DFACE
8
GEM
10
-0.641888
20
-0.641888
30
0.052595
11
-0.454101
21
-0.785981
31
0.052671
12
-0.641255
22
-0.642373
32
0.052671
13
-0.641255
23
-0.642373
33
0.052671
62
0
0
3DFACE
8
GEM
10
-0.453883
20
-0.786148
30
0.052608
11
-0.453883
21
-0.786148
31
0.000076
12
-0.234947
22
-0.876835
32
0.000076
13
-0.234947
23
-0.876835
33
0.000076
62
0
0
3DFACE
8
GEM
10
-0.453883
20
-0.786148
30
0.052608
11
-0.234947
21
-0.876835
31
0.000076
12
-0.234947
22
-0.876835
32
0.052608
13
-0.234947
23
-0.876835
33
0.052608
62
0
0
3DFACE
8
GEM
10
-0.234947
20
-0.876835
30
0.052608
11
-0.234947
21
-0.876835
31
0.000076
12
-0.234628
22
-0.876877
32
0.000000
13
-0.234628
23
-0.876877
33
0.000000
62
0
0
3DFACE
8
GEM
10
-0.234947
20
-0.876835
30
0.052608
11
-0.234628
21
-0.876877
31
0.000000
12
-0.000044
22
-0.907760
32
0.000000
13
-0.000044
23
-0.907760
33
0.000000
62
0
0
3DFACE
8
GEM
10
-0.234947
20
-0.876835
30
0.052608
11
-0.000044
21
-0.907760
31
0.000000
12
-0.000000
22
-0.907766
32
0.000005
13
-0.000000
23
-0.907766
33
0.000005
62
0
0
3DFACE
8
GEM
10
-0.234947
20
-0.876835
30
0.052608
11
-0.000000
21
-0.907766
31
0.000005
12
-0.000000
22
-0.907766
32
0.052595
13
-0.000000
23
-0.907766
33
0.052595
62
0
0
3DFACE
8
GEM
10
-0.234947
20
-0.876835
30
0.052608
11
-0.000000
21
-0.907766
31
0.052595
12
-0.000790
22
-0.907662
32
0.052671
13
-0.000790
23
-0.907662
33
0.052671
62
0
0
3DFACE
8
GEM
10
-0.234947
20
-0.876835
30
0.052608
11
-0.000790
21
-0.907662
31
0.052671
12
-0.234675
22
-0.876870
32
0.052671
13
-0.234675
23
-0.876870
33
0.052671
62
0
0
3DFACE
8
GEM
10
-0.000000
20
-0.907766
30
0.052595
11
-0.000000
21
-0.907766
31
0.000005
12
0.000044
22
-0.907760
32
0.000000
13
0.000044
23
-0.907760
33
0.000000
62
0
0
3DFACE
8
GEM
10
-0.000000
20
-0.907766
30
0.052595
11
0.000044
21
-0.907760
31
0.000000
12
0.234628
22
-0.876877
32
0.000000
13
0.234628
23
-0.876877
33
0.000000
62
0
0
3DFACE
8
GEM
10
-0.000000
20
-0.907766
30
0.052595
11
0.234628
21
-0.876877
31
0.000000
12
0.234947
22
-0.876835
32
0.000076
13
0.234947
23
-0.876835
33
0.000076
62
0
0
3DFACE
8
GEM
10
-0.000000
20
-0.907766
30
0.052595
11
0.234947
21
-0.876835
31
0.000076
12
0.234947
22
-0.876835
32
0.052608
13
0.234947
23
-0.876835
33
0.052608
62
0
0
3DFACE
8
GEM
10
-0.000000
20
-0.907766
30
0.052595
11
0.234947
21
-0.876835
31
0.052608
12
0.234675
22
-0.876870
32
0.052671
13
0.234675
23
-0.876870
33
0.052671
62
0
0
3DFACE
8
GEM
10
-0.000000
20
-0.907766
30
0.052595
11
0.234675
21
-0.876870
31
0.052671
12
0.000790
22
-0.907662
32
0.052671
13
0.000790
23
-0.907662
33
0.052671
62
0
0
3DFACE
8
GEM
10
0.234947
20
-0.876835
30
0.052608
11
0.234947
21
-0.876835
31
0.000076
12
0.453883
22
-0.786148
32
0.000076
13
0.453883
23
-0.786148
33
0.000076
62
0
0
3DFACE
8
GEM
10
0.234947
20
-0.876835
30
0.052608
11
0.453883
21
-0.786148
31
0.000076
12
0.453883
22
-0.786148
32
0.052608
13
0.453883
23
-0.786148
33
0.052608
62
0
0
3DFACE
8
GEM
10
0.453883
20
-0.786148
30
0.052608
11
0.453883
21
-0.786148
31
0.000076
12
0.454138
22
-0.785953
32
0.000000
13
0.454138
23
-0.785953
33
0.000000
62
0
0
3DFACE
8
GEM
10
0.453883
20
-0.786148
30
0.052608
11
0.454138
21
-0.785953
31
0.000000
12
0.641852
22
-0.641915
32
0.000000
13
0.641852
23
-0.641915
33
0.000000
62
0
0
3DFACE
8
GEM
10
0.453883
20
-0.786148
30
0.052608
11
0.641852
21
-0.641915
31
0.000000
12
0.641888
22
-0.641888
32
0.000005
13
0.641888
23
-0.641888
33
0.000005
62
0
0
3DFACE
8
GEM
10
0.453883
20
-0.786148
30
0.052608
11
0.641888
21
-0.641888
31
0.000005
12
0.641888
22
-0.641888
32
0.052595
13
0.641888
23
-0.641888
33
0.052595
62
0
0
3DFACE
8
GEM
10
0.453883
20
-0.786148
30
0.052608
11
0.641888
21
-0.641888
31
0.052595
12
0.641255
22
-0.642373
32
0.052671
13
0.641255
23
-0.642373
33
0.052671
62
0
0
3DFACE
8
GEM
10
0.453883
20
-0.786148
30
0.052608
11
0.641255
21
-0.642373
31
0.052671
12
0.454101
22
-0.785981
32
0.052671
13
0.454101
23
-0.785981
33
0.052671
62
0
0
3DFACE
8
GEM
10
0.641888
20
-0.641888
30
0.052595
11
0.641888
21
-0.641888
31
0.000005
12
0.641915
22
-0.641852
32
0.000000
13
0.641915
23
-0.641852
33
0.000000
62
0
0
3DFACE
8
GEM
10
0.641888
20
-0.641888
30
0.052595
11
0.641915
21
-0.641852
31
0.000000
12
0.785953
22
-0.454138
32
0.000000
13
0.785953
23
-0.454138
33
0.000000
62
0
0
3DFACE
8
GEM
10
0.641888
20
-0.641888
30
0.052595
11
0.785953
21
-0.454138
31
0.000000
12
0.786148
22
-0.453883
32
0.000076
13
0.786148
23
-0.453883
33
0.000076
62
0
0
3DFACE
8
GEM
10
0.641888
20
-0.641888
30
0.052595
11
0.786148
21
-0.453883
31
0.000076
12
0.786148
22
-0.453883
32
0.052608
13
0.786148
23
-0.453883
33
0.052608
62
0
0
3DFACE
8
GEM
10
0.641888
20
-0.641888
30
0.052595
11
0.786148
21
-0.453883
31
0.052608
12
0.785981
22
-0.454101
32
0.052671
13
0.785981
23
-0.454101
33
0.052671
62
0
0
3DFACE
8
GEM
10
0.641888
20
-0.641888
30
0.052595
11
0.785981
21
-0.454101
31
0.052671
12
0.642373
22
-0.641255
32
0.052671
13
0.642373
23
-0.641255
33
0.052671
62
0
0
3DFACE
8
GEM
10
0.786148
20
-0.453883
30
0.052608
11
0.786148
21
-0.453883
31
0.000076
12
0.876835
22
-0.234947
32
0.000076
13
0.876835
23
-0.234947
33
0.000076
62
0
0
3DFACE
8
GEM
10
0.786148
20
-0.453883
30
0.052608
11
0.876835
21
-0.234947
31
0.000076
12
0.876835
22
-0.234947
32
0.052608
13
0.876835
23
-0.234947
33
0.052608
62
0
0
3DFACE
8
GEM
10
0.876835
20
-0.234947
30
0.052608
11
0.876835
21
-0.234947
31
0.000076
12
0.876877
22
-0.234628
32
0.000000
13
0.876877
23
-0.234628
33
0.000000
62
0
0
3DFACE
8
GEM
10
0.876835
20
-0.234947
30
0.052608
11
0.876877
21
-0.234628
31
0.000000
12
0.907760
22
-0.000044
32
0.000000
13
0.907760
23
-0.000044
33
0.000000
62
0
0
3DFACE
8
GEM
10
0.876835
20
-0.234947
30
0.052608
11
0.907760
21
-0.000044
31
0.000000
12
0.907766
22
-0.000000
32
0.000005
13
0.907766
23
-0.000000
33
0.000005
62
0
0
3DFACE
8
GEM
10
0.876835
20
-0.234947
30
0.052608
11
0.907766
21
-0.000000
31
0.000005
12
0.907766
22
-0.000000
32
0.052595
13
0.907766
23
-0.000000
33
0.052595
62
0
0
3DFACE
8
GEM
10
0.876835
20
-0.234947
30
0.052608
11
0.907766
21
-0.000000
31
0.052595
12
0.907662
22
-0.000790
32
0.052671
13
0.907662
23
-0.000790
33
0.052671
62
0
0
3DFACE
8
GEM
10
0.876835
20
-0.234947
30
0.052608
11
0.907662
21
-0.000790
31
0.052671
12
0.876870
22
-0.234675
32
0.052671
13
0.876870
23
-0.234675
33
0.052671
62
0
0
3DFACE
8
GEM
10
0.907766
20
-0.000000
30
0.052595
11
0.907766
21
-0.000000
31
0.000005
12
0.907760
22
0.000044
32
0.000000
13
0.907760
23
0.000044
33
0.000000
62
0
0
3DFACE
8
GEM
10
0.907766
20
-0.000000
30
0.052595
11
0.907760
21
0.000044
31
0.000000
12
0.876877
22
0.234628
32
0.000000
13
0.876877
23
0.234628
33
0.000000
62
0
0
3DFACE
8
GEM
10
0.907766
20
-0.000000
30
0.052595
11
0.876877
21
0.234628
31
0.000000
12
0.876835
22
0.234947
32
0.000076
13
0.876835
23
0.234947
33
0.000076
62
0
0
3DFACE
8
GEM
10
0.907766
20
-0.000000
30
0.052595
11
0.876835
21
0.234947
31
0.000076
12
0.876835
22
0.234947
32
0.052608
13
0.876835
23
0.234947
33
0.052608
62
0
0
3DFACE
8
GEM
10
0.907766
20
-0.000000
30
0.052595
11
0.876835
21
0.234947
31
0.052608
12
0.876870
22
0.234675
32
0.052671
13
0.876870
23
0.234675
33
0.052671
62
0
0
3DFACE
8
GEM
10
0.907766
20
-0.000000
30
0.052595
11
0.876870
21
0.234675
31
0.052671
12
0.907662
22
0.000790
32
0.052671
13
0.907662
23
0.000790
33
0.052671
62
0
0
3DFACE
8
GEM
10
0.876835
20
0.234947
30
0.052608
11
0.876835
21
0.234947
31
0.000076
12
0.786148
22
0.453883
32
0.000076
13
0.786148
23
0.453883
33
0.000076
62
0
0
3DFACE
8
GEM
10
0.876835
20
0.234947
30
0.052608
11
0.786148
21
0.453883
31
0.000076
12
0.786148
22
0.453883
32
0.052608
13
0.786148
23
0.453883
33
0.052608
62
0
0
3DFACE
8
GEM
10
0.786148
20
0.453883
30
0.052608
11
0.786148
21
0.453883
31
0.000076
12
0.785953
22
0.454138
32
0.000000
13
0.785953
23
0.454138
33
0.000000
62
0
0
3DFACE
8
GEM
10
0.786148
20
0.453883
30
0.052608
11
0.785953
21
0.454138
31
0.000000
12
0.641915
22
0.641852
32
0.000000
13
0.641915
23
0.641852
33
0.000000
62
0
0
3DFACE
8
GEM
10
0.786148
20
0.453883
30
0.052608
11
0.641915
21
0.641852
31
0.000000
12
0.641888
22
0.641888
32
0.000005
13
0.641888
23
0.641888
33
0.000005
62
0
0
3DFACE
8
GEM
10
0.786148
20
0.453883
30
0.052608
11
0.641888
21
0.641888
31
0.000005
12
0.641888
22
0.641888
32
0.052595
13
0.641888
23
0.641888
33
0.052595
62
0
0
3DFACE
8
GEM
10
0.786148
20
0.453883
30
0.052608
11
0.641888
21
0.641888
31
0.052595
12
0.642373
22
0.641255
32
0.052671
13
0.642373
23
0.641255
33
0.052671
62
0
0
3DFACE
8
GEM
10
0.786148
20
0.453883
30
0.052608
11
0.642373
21
0.641255
31
0.052671
12
0.785981
22
0.454101
32
0.052671
13
0.785981
23
0.454101
33
0.052671
62
0
0
3DFACE
8
GEM
10
0.641888
20
0.641888
30
0.052595
11
0.641888
21
0.641888
31
0.000005
12
0.641852
22
0.641915
32
0.000000
13
0.641852
23
0.641915
33
0.000000
62
0
0
3DFACE
8
GEM
10
0.641888
20
0.641888
30
0.052595
11
0.641852
21
0.641915
31
0.000000
12
0.454138
22
0.785953
32
0.000000
13
0.454138
23
0.785953
33
0.000000
62
0
0
3DFACE
8
GEM
10
0.641888
20
0.641888
30
0.052595
11
0.454138
21
0.785953
31
0.000000
12
0.453883
22
0.786148
32
0.000076
13
0.453883
23
0.786148
33
0.000076
62
0
0
3DFACE
8
GEM
10
0.641888
20
0.641888
30
0.052595
11
0.453883
21
0.786148
31
0.000076
12
0.453883
22
0.786148
32
0.052608
13
0.453883
23
0.786148
33
0.052608
62
0
0
3DFACE
8
GEM
10
0.641888
20
0.641888
30
0.052595
11
0.453883
21
0.786148
31
0.052608
12
0.454101
22
0.785981
32
0.052671
13
0.454101
23
0.785981
33
0.052671
62
0
0
3DFACE
8
GEM
10
0.641888
20
0.641888
30
0.052595
11
0.454101
21
0.785981
31
0.052671
12
0.641255
22
0.642373
32
0.052671
13
0.641255
23
0.642373
33
0.052671
62
0
0
3DFACE
8
GEM
10
0.453883
20
0.786148
30
0.052608
11
0.453883
21
0.786148
31
0.000076
12
0.234947
22
0.876835
32
0.000076
13
0.234947
23
0.876835
33
0.000076
62
0
0
3DFACE
8
GEM
10
0.453883
20
0.786148
30
0.052608
11
0.234947
21
0.876835
31
0.000076
12
0.234947
22
0.876835
32
0.052608
13
0.234947
23
0.876835
33
0.052608
62
0
0
3DFACE
8
GEM
10
0.000000
20
0.907766
30
0.000005
11
0.000000
21
0.907766
31
0.052595
12
0.000790
22
0.907662
32
0.052671
13
0.000790
23
0.907662
33
0.052671
62
0
0
3DFACE
8
GEM
10
0.000000
20
0.907766
30
0.000005
11
0.000790
21
0.907662
31
0.052671
12
0.234675
22
0.876870
32
0.052671
13
0.234675
23
0.876870
33
0.052671
62
0
0
3DFACE
8
GEM
10
0.000000
20
0.907766
30
0.000005
11
0.234675
21
0.876870
31
0.052671
12
0.234947
22
0.876835
32
0.052608
13
0.234947
23
0.876835
33
0.052608
62
0
0
3DFACE
8
GEM
10
0.000000
20
0.907766
30
0.000005
11
0.234947
21
0.876835
31
0.052608
12
0.234947
22
0.876835
32
0.000076
13
0.234947
23
0.876835
33
0.000076
62
0
0
3DFACE
8
GEM
10
0.000000
20
0.907766
30
0.000005
11
0.234947
21
0.876835
31
0.000076
12
0.234628
22
0.876877
32
0.000000
13
0.234628
23
0.876877
33
0.000000
62
0
0
3DFACE
8
GEM
10
0.000000
20
0.907766
30
0.000005
11
0.234628
21
0.876877
31
0.000000
12
0.000044
22
0.907760
32
0.000000
13
0.000044
23
0.907760
33
0.000000
62
0
0
3DFACE
8
GEM
10
-0.000044
20
0.907760
30
0.000000
11
0.000000
21
0.907766
31
0.000005
12
0.000044
22
0.907760
32
0.000000
13
0.000044
23
0.907760
33
0.000000
62
0
0
3DFACE
8
GEM
10
-0.000044
20
0.907760
30
0.000000
11
0.000044
21
0.907760
31
0.000000
12
0.166604
22
0.402349
32
-0.424091
13
0.166604
23
0.402349
33
-0.424091
62
0
0
3DFACE
8
GEM
10
-0.000044
20
0.907760
30
0.000000
11
0.166604
21
0.402349
31
-0.424091
12
0.166606
22
0.402221
32
-0.424197
13
0.166606
23
0.402221
33
-0.424197
62
0
0
3DFACE
8
GEM
10
-0.000044
20
0.907760
30
0.000000
11
0.166606
21
0.402221
31
-0.424197
12
0.000000
22
-0.000000
32
-0.761701
13
0.000000
23
-0.000000
33
-0.761701
62
0
0
3DFACE
8
GEM
10
-0.000044
20
0.907760
30
0.000000
11
0.000000
21
-0.000000
31
-0.761701
12
-0.166606
22
0.402221
32
-0.424197
13
-0.166606
23
0.402221
33
-0.424197
62
0
0
3DFACE
8
GEM
10
-0.000044
20
0.907760
30
0.000000
11
-0.166606
21
0.402221
31
-0.424197
12
-0.166604
22
0.402349
32
-0.424091
13
-0.166604
23
0.402349
33
-0.424091
62
0
0
3DFACE
8
GEM
10
-0.641888
20
0.641888
30
0.000005
11
-0.641852
21
0.641915
31
0.000000
12
-0.166697
22
0.402310
32
-0.424091
13
-0.166697
23
0.402310
33
-0.424091
62
0
0
3DFACE
8
GEM
10
-0.641888
20
0.641888
30
0.000005
11
-0.166697
21
0.402310
31
-0.424091
12
-0.166606
22
0.402221
32
-0.424197
13
-0.166606
23
0.402221
33
-0.424197
62
0
0
3DFACE
8
GEM
10
-0.641888
20
0.641888
30
0.000005
11
-0.166606
21
0.402221
31
-0.424197
12
0.000000
22
-0.000000
32
-0.761701
13
0.000000
23
-0.000000
33
-0.761701
62
0
0
3DFACE
8
GEM
10
-0.641888
20
0.641888
30
0.000005
11
0.000000
21
-0.000000
31
-0.761701
12
-0.402221
22
0.166606
32
-0.424197
13
-0.402221
23
0.166606
33
-0.424197
62
0
0
3DFACE
8
GEM
10
-0.641888
20
0.641888
30
0.000005
11
-0.402221
21
0.166606
31
-0.424197
12
-0.402310
22
0.166697
32
-0.424091
13
-0.402310
23
0.166697
33
-0.424091
62
0
0
3DFACE
8
GEM
10
-0.641888
20
0.641888
30
0.000005
11
-0.402310
21
0.166697
31
-0.424091
12
-0.641915
22
0.641852
32
0.000000
13
-0.641915
23
0.641852
33
0.000000
62
0
0
3DFACE
8
GEM
10
-0.907766
20
-0.000000
30
0.000005
11
-0.907760
21
0.000044
31
0.000000
12
-0.402349
22
0.166604
32
-0.424091
13
-0.402349
23
0.166604
33
-0.424091
62
0
0
3DFACE
8
GEM
10
-0.907766
20
-0.000000
30
0.000005
11
-0.402349
21
0.166604
31
-0.424091
12
-0.402221
22
0.166606
32
-0.424197
13
-0.402221
23
0.166606
33
-0.424197
62
0
0
3DFACE
8
GEM
10
-0.907766
20
-0.000000
30
0.000005
11
-0.402221
21
0.166606
31
-0.424197
12
0.000000
22
-0.000000
32
-0.761701
13
0.000000
23
-0.000000
33
-0.761701
62
0
0
3DFACE
8
GEM
10
-0.907766
20
-0.000000
30
0.000005
11
0.000000
21
-0.000000
31
-0.761701
12
-0.402221
22
-0.166606
32
-0.424197
13
-0.402221
23
-0.166606
33
-0.424197
62
0
0
3DFACE
8
GEM
10
-0.907766
20
-0.000000
30
0.000005
11
-0.402221
21
-0.166606
31
-0.424197
12
-0.402349
22
-0.166604
32
-0.424091
13
-0.402349
23
-0.166604
33
-0.424091
62
0
0
3DFACE
8
GEM
10
-0.907766
20
-0.000000
30
0.000005
11
-0.402349
21
-0.166604
31
-0.424091
12
-0.907760
22
-0.000044
32
0.000000
13
-0.907760
23
-0.000044
33
0.000000
62
0
0
3DFACE
8
GEM
10
-0.641888
20
-0.641888
30
0.000005
11
-0.641915
21
-0.641852
31
0.000000
12
-0.402310
22
-0.166697
32
-0.424091
13
-0.402310
23
-0.166697
33
-0.424091
62
0
0
3DFACE
8
GEM
10
-0.641888
20
-0.641888
30
0.000005
11
-0.402310
21
-0.166697
31
-0.424091
12
-0.402221
22
-0.166606
32
-0.424197
13
-0.402221
23
-0.166606
33
-0.424197
62
0
0
3DFACE
8
GEM
10
-0.641888
20
-0.641888
30
0.000005
11
-0.402221
21
-0.166606
31
-0.424197
12
0.000000
22
-0.000000
32
-0.761701
13
0.000000
23
-0.000000
33
-0.761701
62
0
0
3DFACE
8
GEM
10
-0.641888
20
-0.641888
30
0.000005
11
0.000000
21
-0.000000
31
-0.761701
12
-0.166606
22
-0.402221
32
-0.424197
13
-0.166606
23
-0.402221
33
-0.424197
62
0
0
3DFACE
8
GEM
10
-0.641888
20
-0.641888
30
0.000005
11
-0.166606
21
-0.402221
31
-0.424197
12
-0.166697
22
-0.402310
32
-0.424091
13
-0.166697
23
-0.402310
33
-0.424091
62
0
0
3DFACE
8
GEM
10
-0.641888
20
-0.641888
30
0.000005
11
-0.166697
21
-0.402310
31
-0.424091
12
-0.641852
22
-0.641915
32
0.000000
13
-0.641852
23
-0.641915
33
0.000000
62
0
0
3DFACE
8
GEM
10
-0.000000
20
-0.907766
30
0.000005
11
-0.000044
21
-0.907760
31
0.000000
12
-0.166604
22
-0.402349
32
-0.424091
13
-0.166604
23
-0.402349
33
-0.424091
62
0
0
3DFACE
8
GEM
10
-0.000000
20
-0.907766
30
0.000005
11
-0.166604
21
-0.402349
31
-0.424091
12
-0.166606
22
-0.402221
32
-0.424197
13
-0.166606
23
-0.402221
33
-0.424197
62
0
0
3DFACE
8
GEM
10
-0.000000
20
-0.907766
30
0.000005
11
-0.166606
21
-0.402221
31
-0.424197
12
0.000000
22
-0.000000
32
-0.761701
13
0.000000
23
-0.000000
33
-0.761701
62
0
0
3DFACE
8
GEM
10
-0.000000
20
-0.907766
30
0.000005
11
0.000000
21
-0.000000
31
-0.761701
12
0.166606
22
-0.402221
32
-0.424197
13
0.166606
23
-0.402221
33
-0.424197
62
0
0
3DFACE
8
GEM
10
-0.000000
20
-0.907766
30
0.000005
11
0.166606
21
-0.402221
31
-0.424197
12
0.166604
22
-0.402349
32
-0.424091
13
0.166604
23
-0.402349
33
-0.424091
62
0
0
3DFACE
8
GEM
10
-0.000000
20
-0.907766
30
0.000005
11
0.166604
21
-0.402349
31
-0.424091
12
0.000044
22
-0.907760
32
0.000000
13
0.000044
23
-0.907760
33
0.000000
62
0
0
3DFACE
8
GEM
10
0.641888
20
-0.641888
30
0.000005
11
0.641852
21
-0.641915
31
0.000000
12
0.166697
22
-0.402310
32
-0.424091
13
0.166697
23
-0.402310
33
-0.424091
62
0
0
3DFACE
8
GEM
10
0.641888
20
-0.641888
30
0.000005
11
0.166697
21
-0.402310
31
-0.424091
12
0.166606
22
-0.402221
32
-0.424197
13
0.166606
23
-0.402221
33
-0.424197
62
0
0
3DFACE
8
GEM
10
0.641888
20
-0.641888
30
0.000005
11
0.166606
21
-0.402221
31
-0.424197
12
0.000000
22
-0.000000
32
-0.761701
13
0.000000
23
-0.000000
33
-0.761701
62
0
0
3DFACE
8
GEM
10
0.641888
20
-0.641888
30
0.000005
11
0.000000
21
-0.000000
31
-0.761701
12
0.402221
22
-0.166606
32
-0.424197
13
0.402221
23
-0.166606
33
-0.424197
62
0
0
3DFACE
8
GEM
10
0.641888
20
-0.641888
30
0.000005
11
0.402221
21
-0.166606
31
-0.424197
12
0.402310
22
-0.166697
32
-0.424091
13
0.402310
23
-0.166697
33
-0.424091
62
0
0
3DFACE
8
GEM
10
0.641888
20
-0.641888
30
0.000005
11
0.402310
21
-0.166697
31
-0.424091
12
0.641915
22
-0.641852
32
0.000000
13
0.641915
23
-0.641852
33
0.000000
62
0
0
3DFACE
8
GEM
10
0.907766
20
-0.000000
30
0.000005
11
0.907760
21
-0.000044
31
0.000000
12
0.402349
22
-0.166604
32
-0.424091
13
0.402349
23
-0.166604
33
-0.424091
62
0
0
3DFACE
8
GEM
10
0.907766
20
-0.000000
30
0.000005
11
0.402349
21
-0.166604
31
-0.424091
12
0.402221
22
-0.166606
32
-0.424197
13
0.402221
23
-0.166606
33
-0.424197
62
0
0
3DFACE
8
GEM
10
0.907766
20
-0.000000
30
0.000005
11
0.402221
21
-0.166606
31
-0.424197
12
0.000000
22
-0.000000
32
-0.761701
13
0.000000
23
-0.000000
33
-0.761701
62
0
0
3DFACE
8
GEM
10
0.907766
20
-0.000000
30
0.000005
11
0.000000
21
-0.000000
31
-0.761701
12
0.402221
22
0.166606
32
-0.424197
13
0.402221
23
0.166606
33
-0.424197
62
0
0
3DFACE
8
GEM
10
0.907766
20
-0.000000
30
0.000005
11
0.402221
21
0.166606
31
-0.424197
12
0.402349
22
0.166604
32
-0.424091
13
0.402349
23
0.166604
33
-0.424091
62
0
0
3DFACE
8
GEM
10
0.907766
20
-0.000000
30
0.000005
11
0.402349
21
0.166604
31
-0.424091
12
0.907760
22
0.000044
32
0.000000
13
0.907760
23
0.000044
33
0.000000
62
0
0
3DFACE
8
GEM
10
0.641888
20
0.641888
30
0.000005
11
0.641915
21
0.641852
31
0.000000
12
0.402310
22
0.166697
32
-0.424091
13
0.402310
23
0.166697
33
-0.424091
62
0
0
3DFACE
8
GEM
10
0.641888
20
0.641888
30
0.000005
11
0.402310
21
0.166697
31
-0.424091
12
0.402221
22
0.166606
32
-0.424197
13
0.402221
23
0.166606
33
-0.424197
62
0
0
3DFACE
8
GEM
10
0.641888
20
0.641888
30
0.000005
11
0.402221
21
0.166606
31
-0.424197
12
0.000000
22
-0.000000
32
-0.761701
13
0.000000
23
-0.000000
33
-0.761701
62
0
0
3DFACE
8
GEM
10
0.641888
20
0.641888
30
0.000005
11
0.000000
21
-0.000000
31
-0.761701
12
0.166606
22
0.402221
32
-0.424197
13
0.166606
23
0.402221
33
-0.424197
62
0
0
3DFACE
8
GEM
10
0.641888
20
0.641888
30
0.000005
11
0.166606
21
0.402221
31
-0.424197
12
0.166697
22
0.402310
32
-0.424091
13
0.166697
23
0.402310
33
-0.424091
62
0
0
3DFACE
8
GEM
10
0.641888
20
0.641888
30
0.000005
11
0.166697
21
0.402310
31
-0.424091
12
0.641852
22
0.641915
32
0.000000
13
0.641852
23
0.641915
33
0.000000
62
0
0
3DFACE
8
GEM
10
-0.234628
20
0.876877
30
0.000000
11
-0.000044
21
0.907760
31
0.000000
12
-0.166604
22
0.402349
32
-0.424091
13
-0.166604
23
0.402349
33
-0.424091
62
0
0
3DFACE
8
GEM
10
-0.641852
20
0.641915
30
0.000000
11
-0.454138
21
0.785953
31
0.000000
12
-0.166697
22
0.402310
32
-0.424091
13
-0.166697
23
0.402310
33
-0.424091
62
0
0
3DFACE
8
GEM
10
-0.785953
20
0.454138
30
0.000000
11
-0.641915
21
0.641852
31
0.000000
12
-0.402310
22
0.166697
32
-0.424091
13
-0.402310
23
0.166697
33
-0.424091
62
0
0
3DFACE
8
GEM
10
-0.907760
20
0.000044
30
0.000000
11
-0.876877
21
0.234628
31
0.000000
12
-0.402349
22
0.166604
32
-0.424091
13
-0.402349
23
0.166604
33
-0.424091
62
0
0
3DFACE
8
GEM
10
-0.876877
20
-0.234628
30
0.000000
11
-0.907760
21
-0.000044
31
0.000000
12
-0.402349
22
-0.166604
32
-0.424091
13
-0.402349
23
-0.166604
33
-0.424091
62
0
0
3DFACE
8
GEM
10
-0.641915
20
-0.641852
30
0.000000
11
-0.785953
21
-0.454138
31
0.000000
12
-0.402310
22
-0.166697
32
-0.424091
13
-0.402310
23
-0.166697
33
-0.424091
62
0
0
3DFACE
8
GEM
10
-0.454138
20
-0.785953
30
0.000000
11
-0.641852
21
-0.641915
31
0.000000
12
-0.166697
22
-0.402310
32
-0.424091
13
-0.166697
23
-0.402310
33
-0.424091
62
0
0
3DFACE
8
GEM
10
-0.000044
20
-0.907760
30
0.000000
11
-0.234628
21
-0.876877
31
0.000000
12
-0.166604
22
-0.402349
32
-0.424091
13
-0.166604
23
-0.402349
33
-0.424091
62
0
0
3DFACE
8
GEM
10
0.234628
20
-0.876877
30
0.000000
11
0.000044
21
-0.907760
31
0.000000
12
0.166604
22
-0.402349
32
-0.424091
13
0.166604
23
-0.402349
33
-0.424091
62
0
0
3DFACE
8
GEM
10
0.641852
20
-0.641915
30
0.000000
11
0.454138
21
-0.785953
31
0.000000
12
0.166697
22
-0.402310
32
-0.424091
13
0.166697
23
-0.402310
33
-0.424091
62
0
0
3DFACE
8
GEM
10
0.785953
20
-0.454138
30
0.000000
11
0.641915
21
-0.641852
31
0.000000
12
0.402310
22
-0.166697
32
-0.424091
13
0.402310
23
-0.166697
33
-0.424091
62
0
0
3DFACE
8
GEM
10
0.907760
20
-0.000044
30
0.000000
11
0.876877
21
-0.234628
31
0.000000
12
0.402349
22
-0.166604
32
-0.424091
13
0.402349
23
-0.166604
33
-0.424091
62
0
0
3DFACE
8
GEM
10
0.876877
20
0.234628
30
0.000000
11
0.907760
21
0.000044
31
0.000000
12
0.402349
22
0.166604
32
-0.424091
13
0.402349
23
0.166604
33
-0.424091
62
0
0
3DFACE
8
GEM
10
0.641915
20
0.641852
30
0.000000
11
0.785953
21
0.454138
31
0.000000
12
0.402310
22
0.166697
32
-0.424091
13
0.402310
23
0.166697
33
-0.424091
62
0
0
3DFACE
8
GEM
10
0.454138
20
0.785953
30
0.000000
11
0.641852
21
0.641915
31
0.000000
12
0.166697
22
0.402310
32
-0.424091
13
0.166697
23
0.402310
33
-0.424091
62
0
0
3DFACE
8
GEM
10
0.000044
20
0.907760
30
0.000000
11
0.234628
21
0.876877
31
0.000000
12
0.166604
22
0.402349
32
-0.424091
13
0.166604
23
0.402349
33
-0.424091
62
0
0
3DFACE
8
GEM
10
-0.234947
20
0.876835
30
0.000076
11
-0.234628
21
0.876877
31
0.000000
12
-0.166604
22
0.402349
32
-0.424091
13
-0.166604
23
0.402349
33
-0.424091
62
0
0
3DFACE
8
GEM
10
-0.234947
20
0.876835
30
0.000076
11
-0.166604
21
0.402349
31
-0.424091
12
-0.166606
22
0.402221
32
-0.424197
13
-0.166606
23
0.402221
33
-0.424197
62
0
0
3DFACE
8
GEM
10
-0.234947
20
0.876835
30
0.000076
11
-0.166606
21
0.402221
31
-0.424197
12
-0.166697
22
0.402310
32
-0.424091
13
-0.166697
23
0.402310
33
-0.424091
62
0
0
3DFACE
8
GEM
10
-0.234947
20
0.876835
30
0.000076
11
-0.166697
21
0.402310
31
-0.424091
12
-0.454138
22
0.785953
32
0.000000
13
-0.454138
23
0.785953
33
0.000000
62
0
0
3DFACE
8
GEM
10
-0.234947
20
0.876835
30
0.000076
11
-0.454138
21
0.785953
31
0.000000
12
-0.453883
22
0.786148
32
0.000076
13
-0.453883
23
0.786148
33
0.000076
62
0
0
3DFACE
8
GEM
10
-0.786148
20
0.453883
30
0.000076
11
-0.785953
21
0.454138
31
0.000000
12
-0.402310
22
0.166697
32
-0.424091
13
-0.402310
23
0.166697
33
-0.424091
62
0
0
3DFACE
8
GEM
10
-0.786148
20
0.453883
30
0.000076
11
-0.402310
21
0.166697
31
-0.424091
12
-0.402221
22
0.166606
32
-0.424197
13
-0.402221
23
0.166606
33
-0.424197
62
0
0
3DFACE
8
GEM
10
-0.786148
20
0.453883
30
0.000076
11
-0.402221
21
0.166606
31
-0.424197
12
-0.402349
22
0.166604
32
-0.424091
13
-0.402349
23
0.166604
33
-0.424091
62
0
0
3DFACE
8
GEM
10
-0.786148
20
0.453883
30
0.000076
11
-0.402349
21
0.166604
31
-0.424091
12
-0.876877
22
0.234628
32
0.000000
13
-0.876877
23
0.234628
33
0.000000
62
0
0
3DFACE
8
GEM
10
-0.786148
20
0.453883
30
0.000076
11
-0.876877
21
0.234628
31
0.000000
12
-0.876835
22
0.234947
32
0.000076
13
-0.876835
23
0.234947
33
0.000076
62
0
0
3DFACE
8
GEM
10
-0.876835
20
-0.234947
30
0.000076
11
-0.876877
21
-0.234628
31
0.000000
12
-0.402349
22
-0.166604
32
-0.424091
13
-0.402349
23
-0.166604
33
-0.424091
62
0
0
3DFACE
8
GEM
10
-0.876835
20
-0.234947
30
0.000076
11
-0.402349
21
-0.166604
31
-0.424091
12
-0.402221
22
-0.166606
32
-0.424197
13
-0.402221
23
-0.166606
33
-0.424197
62
0
0
3DFACE
8
GEM
10
-0.876835
20
-0.234947
30
0.000076
11
-0.402221
21
-0.166606
31
-0.424197
12
-0.402310
22
-0.166697
32
-0.424091
13
-0.402310
23
-0.166697
33
-0.424091
62
0
0
3DFACE
8
GEM
10
-0.876835
20
-0.234947
30
0.000076
11
-0.402310
21
-0.166697
31
-0.424091
12
-0.785953
22
-0.454138
32
0.000000
13
-0.785953
23
-0.454138
33
0.000000
62
0
0
3DFACE
8
GEM
10
-0.876835
20
-0.234947
30
0.000076
11
-0.785953
21
-0.454138
31
0.000000
12
-0.786148
22
-0.453883
32
0.000076
13
-0.786148
23
-0.453883
33
0.000076
62
0
0
3DFACE
8
GEM
10
-0.453883
20
-0.786148
30
0.000076
11
-0.454138
21
-0.785953
31
0.000000
12
-0.166697
22
-0.402310
32
-0.424091
13
-0.166697
23
-0.402310
33
-0.424091
62
0
0
3DFACE
8
GEM
10
-0.453883
20
-0.786148
30
0.000076
11
-0.166697
21
-0.402310
31
-0.424091
12
-0.166606
22
-0.402221
32
-0.424197
13
-0.166606
23
-0.402221
33
-0.424197
62
0
0
3DFACE
8
GEM
10
-0.453883
20
-0.786148
30
0.000076
11
-0.166606
21
-0.402221
31
-0.424197
12
-0.166604
22
-0.402349
32
-0.424091
13
-0.166604
23
-0.402349
33
-0.424091
62
0
0
3DFACE
8
GEM
10
-0.453883
20
-0.786148
30
0.000076
11
-0.166604
21
-0.402349
31
-0.424091
12
-0.234628
22
-0.876877
32
0.000000
13
-0.234628
23
-0.876877
33
0.000000
62
0
0
3DFACE
8
GEM
10
-0.453883
20
-0.786148
30
0.000076
11
-0.234628
21
-0.876877
31
0.000000
12
-0.234947
22
-0.876835
32
0.000076
13
-0.234947
23
-0.876835
33
0.000076
62
0
0
3DFACE
8
GEM
10
0.234947
20
-0.876835
30
0.000076
11
0.234628
21
-0.876877
31
0.000000
12
0.166604
22
-0.402349
32
-0.424091
13
0.166604
23
-0.402349
33
-0.424091
62
0
0
3DFACE
8
GEM
10
0.234947
20
-0.876835
30
0.000076
11
0.166604
21
-0.402349
31
-0.424091
12
0.166606
22
-0.402221
32
-0.424197
13
0.166606
23
-0.402221
33
-0.424197
62
0
0
3DFACE
8
GEM
10
0.234947
20
-0.876835
30
0.000076
11
0.166606
21
-0.402221
31
-0.424197
12
0.166697
22
-0.402310
32
-0.424091
13
0.166697
23
-0.402310
33
-0.424091
62
0
0
3DFACE
8
GEM
10
0.234947
20
-0.876835
30
0.000076
11
0.166697
21
-0.402310
31
-0.424091
12
0.454138
22
-0.785953
32
0.000000
13
0.454138
23
-0.785953
33
0.000000
62
0
0
3DFACE
8
GEM
10
0.234947
20
-0.876835
30
0.000076
11
0.454138
21
-0.785953
31
0.000000
12
0.453883
22
-0.786148
32
0.000076
13
0.453883
23
-0.786148
33
0.000076
62
0
0
3DFACE
8
GEM
10
0.786148
20
-0.453883
30
0.000076
11
0.785953
21
-0.454138
31
0.000000
12
0.402310
22
-0.166697
32
-0.424091
13
0.402310
23
-0.166697
33
-0.424091
62
0
0
3DFACE
8
GEM
10
0.786148
20
-0.453883
30
0.000076
11
0.402310
21
-0.166697
31
-0.424091
12
0.402221
22
-0.166606
32
-0.424197
13
0.402221
23
-0.166606
33
-0.424197
62
0
0
3DFACE
8
GEM
10
0.786148
20
-0.453883
30
0.000076
11
0.402221
21
-0.166606
31
-0.424197
12
0.402349
22
-0.166604
32
-0.424091
13
0.402349
23
-0.166604
33
-0.424091
62
0
0
3DFACE
8
GEM
10
0.786148
20
-0.453883
30
0.000076
11
0.402349
21
-0.166604
31
-0.424091
12
0.876877
22
-0.234628
32
0.000000
13
0.876877
23
-0.234628
33
0.000000
62
0
0
3DFACE
8
GEM
10
0.786148
20
-0.453883
30
0.000076
11
0.876877
21
-0.234628
31
0.000000
12
0.876835
22
-0.234947
32
0.000076
13
0.876835
23
-0.234947
33
0.000076
62
0
0
3DFACE
8
GEM
10
0.876835
20
0.234947
30
0.000076
11
0.876877
21
0.234628
31
0.000000
12
0.402349
22
0.166604
32
-0.424091
13
0.402349
23
0.166604
33
-0.424091
62
0
0
3DFACE
8
GEM
10
0.876835
20
0.234947
30
0.000076
11
0.402349
21
0.166604
31
-0.424091
12
0.402221
22
0.166606
32
-0.424197
13
0.402221
23
0.166606
33
-0.424197
62
0
0
3DFACE
8
GEM
10
0.876835
20
0.234947
30
0.000076
11
0.402221
21
0.166606
31
-0.424197
12
0.402310
22
0.166697
32
-0.424091
13
0.402310
23
0.166697
33
-0.424091
62
0
0
3DFACE
8
GEM
10
0.876835
20
0.234947
30
0.000076
11
0.402310
21
0.166697
31
-0.424091
12
0.785953
22
0.454138
32
0.000000
13
0.785953
23
0.454138
33
0.000000
62
0
0
3DFACE
8
GEM
10
0.876835
20
0.234947
30
0.000076
11
0.785953
21
0.454138
31
0.000000
12
0.786148
22
0.453883
32
0.000076
13
0.786148
23
0.453883
33
0.000076
62
0
0
3DFACE
8
GEM
10
0.453883
20
0.786148
30
0.000076
11
0.454138
21
0.785953
31
0.000000
12
0.166697
22
0.402310
32
-0.424091
13
0.166697
23
0.402310
33
-0.424091
62
0
0
3DFACE
8
GEM
10
0.453883
20
0.786148
30
0.000076
11
0.166697
21
0.402310
31
-0.424091
12
0.166606
22
0.402221
32
-0.424197
13
0.166606
23
0.402221
33
-0.424197
62
0
0
3DFACE
8
GEM
10
0.453883
20
0.786148
30
0.000076
11
0.166606
21
0.402221
31
-0.424197
12
0.166604
22
0.402349
32
-0.424091
13
0.166604
23
0.402349
33
-0.424091
62
0
0
3DFACE
8
GEM
10
0.453883
20
0.786148
30
0.000076
11
0.166604
21
0.402349
31
-0.424091
12
0.234628
22
0.876877
32
0.000000
13
0.234628
23
0.876877
33
0.000000
62
0
0
3DFACE
8
GEM
10
0.453883
20
0.786148
30
0.000076
11
0.234628
21
0.876877
31
0.000000
12
0.234947
22
0.876835
32
0.000076
13
0.234947
23
0.876835
33
0.000076
62
0
0
3DFACE
8
GEM
10
0.234675
20
0.876870
30
0.052671
11
0.000790
21
0.907662
31
0.052671
12
0.245037
22
0.592585
32
0.282176
13
0.245037
23
0.592585
33
0.282176
62
0
0
3DFACE
8
GEM
10
0.641255
20
0.642373
30
0.052671
11
0.454101
21
0.785981
31
0.052671
12
0.245754
22
0.592289
32
0.282176
13
0.245754
23
0.592289
33
0.282176
62
0
0
3DFACE
8
GEM
10
0.785981
20
0.454101
30
0.052671
11
0.642373
21
0.641255
31
0.052671
12
0.592289
22
0.245754
32
0.282176
13
0.592289
23
0.245754
33
0.282176
62
0
0
3DFACE
8
GEM
10
0.907662
20
0.000790
30
0.052671
11
0.876870
21
0.234675
31
0.052671
12
0.592585
22
0.245037
32
0.282176
13
0.592585
23
0.245037
33
0.282176
62
0
0
3DFACE
8
GEM
10
0.876870
20
-0.234675
30
0.052671
11
0.907662
21
-0.000790
31
0.052671
12
0.592585
22
-0.245037
32
0.282176
13
0.592585
23
-0.245037
33
0.282176
62
0
0
3DFACE
8
GEM
10
0.642373
20
-0.641255
30
0.052671
11
0.785981
21
-0.454101
31
0.052671
12
0.592289
22
-0.245754
32
0.282176
13
0.592289
23
-0.245754
33
0.282176
62
0
0
3DFACE
8
GEM
10
0.454101
20
-0.785981
30
0.052671
11
0.641255
21
-0.642373
31
0.052671
12
0.245754
22
-0.592289
32
0.282176
13
0.245754
23
-0.592289
33
0.282176
62
0
0
3DFACE
8
GEM
10
0.000790
20
-0.907662
30
0.052671
11
0.234675
21
-0.876870
31
0.052671
12
0.245037
22
-0.592585
32
0.282176
13
0.245037
23
-0.592585
33
0.282176
62
0
0
3DFACE
8
GEM
10
-0.234675
20
-0.876870
30
0.052671
11
-0.000790
21
-0.907662
31
0.052671
12
-0.245037
22
-0.592585
32
0.282176
13
-0.245037
23
-0.592585
33
0.282176
62
0
0
3DFACE
8
GEM
10
-0.641255
20
-0.642373
30
0.052671
11
-0.454101
21
-0.785981
31
0.052671
12
-0.245754
22
-0.592289
32
0.282176
13
-0.245754
23
-0.592289
33
0.282176
62
0
0
3DFACE
8
GEM
10
-0.785981
20
-0.454101
30
0.052671
11
-0.642373
21
-0.641255
31
0.052671
12
-0.592289
22
-0.245754
32
0.282176
13
-0.592289
23
-0.245754
33
0.282176
62
0
0
3DFACE
8
GEM
10
-0.907662
20
-0.000790
30
0.052671
11
-0.876870
21
-0.234675
31
0.052671
12
-0.592585
22
-0.245037
32
0.282176
13
-0.592585
23
-0.245037
33
0.282176
62
0
0
3DFACE
8
GEM
10
-0.876870
20
0.234675
30
0.052671
11
-0.907662
21
0.000790
31
0.052671
12
-0.592585
22
0.245037
32
0.282176
13
-0.592585
23
0.245037
33
0.282176
62
0
0
3DFACE
8
GEM
10
-0.642373
20
0.641255
30
0.052671
11
-0.785981
21
0.454101
31
0.052671
12
-0.592289
22
0.245754
32
0.282176
13
-0.592289
23
0.245754
33
0.282176
62
0
0
3DFACE
8
GEM
10
-0.454101
20
0.785981
30
0.052671
11
-0.641255
21
0.642373
31
0.052671
12
-0.245754
22
0.592289
32
0.282176
13
-0.245754
23
0.592289
33
0.282176
62
0
0
3DFACE
8
GEM
10
-0.000790
20
0.907662
30
0.052671
11
-0.234675
21
0.876870
31
0.052671
12
-0.245037
22
0.592585
32
0.282176
13
-0.245037
23
0.592585
33
0.282176
62
0
0
3DFACE
8
GEM
10
0.454101
20
0.785981
30
0.052671
11
0.453883
21
0.786148
31
0.052608
12
0.234947
22
0.876835
32
0.052608
13
0.234947
23
0.876835
33
0.052608
62
0
0
3DFACE
8
GEM
10
0.454101
20
0.785981
30
0.052671
11
0.234947
21
0.876835
31
0.052608
12
0.234675
22
0.876870
32
0.052671
13
0.234675
23
0.876870
33
0.052671
62
0
0
3DFACE
8
GEM
10
0.454101
20
0.785981
30
0.052671
11
0.234675
21
0.876870
31
0.052671
12
0.245037
22
0.592585
32
0.282176
13
0.245037
23
0.592585
33
0.282176
62
0
0
3DFACE
8
GEM
10
0.454101
20
0.785981
30
0.052671
11
0.245037
21
0.592585
31
0.282176
12
0.245202
22
0.591971
32
0.282624
13
0.245202
23
0.591971
33
0.282624
62
0
0
3DFACE
8
GEM
10
0.454101
20
0.785981
30
0.052671
11
0.245202
21
0.591971
31
0.282624
12
0.245754
22
0.592289
32
0.282176
13
0.245754
23
0.592289
33
0.282176
62
0
0
3DFACE
8
GEM
10
0.876870
20
0.234675
30
0.052671
11
0.876835
21
0.234947
31
0.052608
12
0.786148
22
0.453883
32
0.052608
13
0.786148
23
0.453883
33
0.052608
62
0
0
3DFACE
8
GEM
10
0.876870
20
0.234675
30
0.052671
11
0.786148
21
0.453883
31
0.052608
12
0.785981
22
0.454101
32
0.052671
13
0.785981
23
0.454101
33
0.052671
62
0
0
3DFACE
8
GEM
10
0.876870
20
0.234675
30
0.052671
11
0.785981
21
0.454101
31
0.052671
12
0.592289
22
0.245754
32
0.282176
13
0.592289
23
0.245754
33
0.282176
62
0
0
3DFACE
8
GEM
10
0.876870
20
0.234675
30
0.052671
11
0.592289
21
0.245754
31
0.282176
12
0.591971
22
0.245202
32
0.282624
13
0.591971
23
0.245202
33
0.282624
62
0
0
3DFACE
8
GEM
10
0.876870
20
0.234675
30
0.052671
11
0.591971
21
0.245202
31
0.282624
12
0.592585
22
0.245037
32
0.282176
13
0.592585
23
0.245037
33
0.282176
62
0
0
3DFACE
8
GEM
10
0.785981
20
-0.454101
30
0.052671
11
0.786148
21
-0.453883
31
0.052608
12
0.876835
22
-0.234947
32
0.052608
13
0.876835
23
-0.234947
33
0.052608
62
0
0
3DFACE
8
GEM
10
0.785981
20
-0.454101
30
0.052671
11
0.876835
21
-0.234947
31
0.052608
12
0.876870
22
-0.234675
32
0.052671
13
0.876870
23
-0.234675
33
0.052671
62
0
0
3DFACE
8
GEM
10
0.785981
20
-0.454101
30
0.052671
11
0.876870
21
-0.234675
31
0.052671
12
0.592585
22
-0.245037
32
0.282176
13
0.592585
23
-0.245037
33
0.282176
62
0
0
3DFACE
8
GEM
10
0.785981
20
-0.454101
30
0.052671
11
0.592585
21
-0.245037
31
0.282176
12
0.591971
22
-0.245202
32
0.282624
13
0.591971
23
-0.245202
33
0.282624
62
0
0
3DFACE
8
GEM
10
0.785981
20
-0.454101
30
0.052671
11
0.591971
21
-0.245202
31
0.282624
12
0.592289
22
-0.245754
32
0.282176
13
0.592289
23
-0.245754
33
0.282176
62
0
0
3DFACE
8
GEM
10
0.234675
20
-0.876870
30
0.052671
11
0.234947
21
-0.876835
31
0.052608
12
0.453883
22
-0.786148
32
0.052608
13
0.453883
23
-0.786148
33
0.052608
62
0
0
3DFACE
8
GEM
10
0.234675
20
-0.876870
30
0.052671
11
0.453883
21
-0.786148
31
0.052608
12
0.454101
22
-0.785981
32
0.052671
13
0.454101
23
-0.785981
33
0.052671
62
0
0
3DFACE
8
GEM
10
0.234675
20
-0.876870
30
0.052671
11
0.454101
21
-0.785981
31
0.052671
12
0.245754
22
-0.592289
32
0.282176
13
0.245754
23
-0.592289
33
0.282176
62
0
0
3DFACE
8
GEM
10
0.234675
20
-0.876870
30
0.052671
11
0.245754
21
-0.592289
31
0.282176
12
0.245202
22
-0.591971
32
0.282624
13
0.245202
23
-0.591971
33
0.282624
62
0
0
3DFACE
8
GEM
10
0.234675
20
-0.876870
30
0.052671
11
0.245202
21
-0.591971
31
0.282624
12
0.245037
22
-0.592585
32
0.282176
13
0.245037
23
-0.592585
33
0.282176
62
0
0
3DFACE
8
GEM
10
-0.454101
20
-0.785981
30
0.052671
11
-0.453883
21
-0.786148
31
0.052608
12
-0.234947
22
-0.876835
32
0.052608
13
-0.234947
23
-0.876835
33
0.052608
62
0
0
3DFACE
8
GEM
10
-0.454101
20
-0.785981
30
0.052671
11
-0.234947
21
-0.876835
31
0.052608
12
-0.234675
22
-0.876870
32
0.052671
13
-0.234675
23
-0.876870
33
0.052671
62
0
0
3DFACE
8
GEM
10
-0.454101
20
-0.785981
30
0.052671
11
-0.234675
21
-0.876870
31
0.052671
12
-0.245037
22
-0.592585
32
0.282176
13
-0.245037
23
-0.592585
33
0.282176
62
0
0
3DFACE
8
GEM
10
-0.454101
20
-0.785981
30
0.052671
11
-0.245037
21
-0.592585
31
0.282176
12
-0.245202
22
-0.591971
32
0.282624
13
-0.245202
23
-0.591971
33
0.282624
62
0
0
3DFACE
8
GEM
10
-0.454101
20
-0.785981
30
0.052671
11
-0.245202
21
-0.591971
31
0.282624
12
-0.245754
22
-0.592289
32
0.282176
13
-0.245754
23
-0.592289
33
0.282176
62
0
0
3DFACE
8
GEM
10
-0.876870
20
-0.234675
30
0.052671
11
-0.876835
21
-0.234947
31
0.052608
12
-0.786148
22
-0.453883
32
0.052608
13
-0.786148
23
-0.453883
33
0.052608
62
0
0
3DFACE
8
GEM
10
-0.876870
20
-0.234675
30
0.052671
11
-0.786148
21
-0.453883
31
0.052608
12
-0.785981
22
-0.454101
32
0.052671
13
-0.785981
23
-0.454101
33
0.052671
62
0
0
3DFACE
8
GEM
10
-0.876870
20
-0.234675
30
0.052671
11
-0.785981
21
-0.454101
31
0.052671
12
-0.592289
22
-0.245754
32
0.282176
13
-0.592289
23
-0.245754
33
0.282176
62
0
0
3DFACE
8
GEM
10
-0.876870
20
-0.234675
30
0.052671
11
-0.592289
21
-0.245754
31
0.282176
12
-0.591971
22
-0.245202
32
0.282624
13
-0.591971
23
-0.245202
33
0.282624
62
0
0
3DFACE
8
GEM
10
-0.876870
20
-0.234675
30
0.052671
11
-0.591971
21
-0.245202
31
0.282624
12
-0.592585
22
-0.245037
32
0.282176
13
-0.592585
23
-0.245037
33
0.282176
62
0
0
3DFACE
8
GEM
10
-0.785981
20
0.454101
30
0.052671
11
-0.786148
21
0.453883
31
0.052608
12
-0.876835
22
0.234947
32
0.052608
13
-0.876835
23
0.234947
33
0.052608
62
0
0
3DFACE
8
GEM
10
-0.785981
20
0.454101
30
0.052671
11
-0.876835
21
0.234947
31
0.052608
12
-0.876870
22
0.234675
32
0.052671
13
-0.876870
23
0.234675
33
0.052671
62
0
0
3DFACE
8
GEM
10
-0.785981
20
0.454101
30
0.052671
11
-0.876870
21
0.234675
31
0.052671
12
-0.592585
22
0.245037
32
0.282176
13
-0.592585
23
0.245037
33
0.282176
62
0
0
3DFACE
8
GEM
10
-0.785981
20
0.454101
30
0.052671
11
-0.592585
21
0.245037
31
0.282176
12
-0.591971
22
0.245202
32
0.282624
13
-0.591971
23
0.245202
33
0.282624
62
0
0
3DFACE
8
GEM
10
-0.785981
20
0.454101
30
0.052671
11
-0.591971
21
0.245202
31
0.282624
12
-0.592289
22
0.245754
32
0.282176
13
-0.592289
23
0.245754
33
0.282176
62
0
0
3DFACE
8
GEM
10
-0.234675
20
0.876870
30
0.052671
11
-0.234947
21
0.876835
31
0.052608
12
-0.453883
22
0.786148
32
0.052608
13
-0.453883
23
0.786148
33
0.052608
62
0
0
3DFACE
8
GEM
10
-0.234675
20
0.876870
30
0.052671
11
-0.453883
21
0.786148
31
0.052608
12
-0.454101
22
0.785981
32
0.052671
13
-0.454101
23
0.785981
33
0.052671
62
0
0
3DFACE
8
GEM
10
-0.234675
20
0.876870
30
0.052671
11
-0.454101
21
0.785981
31
0.052671
12
-0.245754
22
0.592289
32
0.282176
13
-0.245754
23
0.592289
33
0.282176
62
0
0
3DFACE
8
GEM
10
-0.234675
20
0.876870
30
0.052671
11
-0.245754
21
0.592289
31
0.282176
12
-0.245202
22
0.591971
32
0.282624
13
-0.245202
23
0.591971
33
0.282624
62
0
0
3DFACE
8
GEM
10
-0.234675
20
0.876870
30
0.052671
11
-0.245202
21
0.591971
31
0.282624
12
-0.245037
22
0.592585
32
0.282176
13
-0.245037
23
0.592585
33
0.282176
62
0
0
3DFACE
8
GEM
10
0.000000
20
0.907766
30
0.052595
11
-0.000790
21
0.907662
31
0.052671
12
-0.245037
22
0.592585
32
0.282176
13
-0.245037
23
0.592585
33
0.282176
62
0
0
3DFACE
8
GEM
10
0.000000
20
0.907766
30
0.052595
11
-0.245037
21
0.592585
31
0.282176
12
-0.245202
22
0.591971
32
0.282624
13
-0.245202
23
0.591971
33
0.282624
62
0
0
3DFACE
8
GEM
10
0.000000
20
0.907766
30
0.052595
11
-0.245202
21
0.591971
31
0.282624
12
-0.245184
22
0.591928
32
0.282655
13
-0.245184
23
0.591928
33
0.282655
62
0
0
3DFACE
8
GEM
10
0.000000
20
0.907766
30
0.052595
11
-0.245184
21
0.591928
31
0.282655
12
-0.000043
22
0.539653
32
0.320733
13
-0.000043
23
0.539653
33
0.320733
62
0
0
3DFACE
8
GEM
10
0.000000
20
0.907766
30
0.052595
11
-0.000043
21
0.539653
31
0.320733
12
0.000043
22
0.539653
32
0.320733
13
0.000043
23
0.539653
33
0.320733
62
0
0
3DFACE
8
GEM
10
0.000000
20
0.907766
30
0.052595
11
0.000043
21
0.539653
31
0.320733
12
0.245184
22
0.591928
32
0.282655
13
0.245184
23
0.591928
33
0.282655
62
0
0
3DFACE
8
GEM
10
0.000000
20
0.907766
30
0.052595
11
0.245184
21
0.591928
31
0.282655
12
0.245202
22
0.591971
32
0.282624
13
0.245202
23
0.591971
33
0.282624
62
0
0
3DFACE
8
GEM
10
0.000000
20
0.907766
30
0.052595
11
0.245202
21
0.591971
31
0.282624
12
0.245037
22
0.592585
32
0.282176
13
0.245037
23
0.592585
33
0.282176
62
0
0
3DFACE
8
GEM
10
0.000000
20
0.907766
30
0.052595
11
0.245037
21
0.592585
31
0.282176
12
0.000790
22
0.907662
32
0.052671
13
0.000790
23
0.907662
33
0.052671
62
0
0
3DFACE
8
GEM
10
0.642373
20
0.641255
30
0.052671
11
0.641888
21
0.641888
31
0.052595
12
0.641255
22
0.642373
32
0.052671
13
0.641255
23
0.642373
33
0.052671
62
0
0
3DFACE
8
GEM
10
0.642373
20
0.641255
30
0.052671
11
0.641255
21
0.642373
31
0.052671
12
0.245754
22
0.592289
32
0.282176
13
0.245754
23
0.592289
33
0.282176
62
0
0
3DFACE
8
GEM
10
0.642373
20
0.641255
30
0.052671
11
0.245754
21
0.592289
31
0.282176
12
0.245202
22
0.591971
32
0.282624
13
0.245202
23
0.591971
33
0.282624
62
0
0
3DFACE
8
GEM
10
0.642373
20
0.641255
30
0.052671
11
0.245202
21
0.591971
31
0.282624
12
0.245184
22
0.591928
32
0.282655
13
0.245184
23
0.591928
33
0.282655
62
0
0
3DFACE
8
GEM
10
0.642373
20
0.641255
30
0.052671
11
0.245184
21
0.591928
31
0.282655
12
0.381562
22
0.381622
32
0.320733
13
0.381562
23
0.381622
33
0.320733
62
0
0
3DFACE
8
GEM
10
0.642373
20
0.641255
30
0.052671
11
0.381562
21
0.381622
31
0.320733
12
0.381622
22
0.381562
32
0.320733
13
0.381622
23
0.381562
33
0.320733
62
0
0
3DFACE
8
GEM
10
0.642373
20
0.641255
30
0.052671
11
0.381622
21
0.381562
31
0.320733
12
0.591928
22
0.245184
32
0.282655
13
0.591928
23
0.245184
33
0.282655
62
0
0
3DFACE
8
GEM
10
0.642373
20
0.641255
30
0.052671
11
0.591928
21
0.245184
31
0.282655
12
0.591971
22
0.245202
32
0.282624
13
0.591971
23
0.245202
33
0.282624
62
0
0
3DFACE
8
GEM
10
0.642373
20
0.641255
30
0.052671
11
0.591971
21
0.245202
31
0.282624
12
0.592289
22
0.245754
32
0.282176
13
0.592289
23
0.245754
33
0.282176
62
0
0
3DFACE
8
GEM
10
0.907662
20
-0.000790
30
0.052671
11
0.907766
21
-0.000000
31
0.052595
12
0.907662
22
0.000790
32
0.052671
13
0.907662
23
0.000790
33
0.052671
62
0
0
3DFACE
8
GEM
10
0.907662
20
-0.000790
30
0.052671
11
0.907662
21
0.000790
31
0.052671
12
0.592585
22
0.245037
32
0.282176
13
0.592585
23
0.245037
33
0.282176
62
0
0
3DFACE
8
GEM
10
0.907662
20
-0.000790
30
0.052671
11
0.592585
21
0.245037
31
0.282176
12
0.591971
22
0.245202
32
0.282624
13
0.591971
23
0.245202
33
0.282624
62
0
0
3DFACE
8
GEM
10
0.907662
20
-0.000790
30
0.052671
11
0.591971
21
0.245202
31
0.282624
12
0.591928
22
0.245184
32
0.282655
13
0.591928
23
0.245184
33
0.282655
62
0
0
3DFACE
8
GEM
10
0.907662
20
-0.000790
30
0.052671
11
0.591928
21
0.245184
31
0.282655
12
0.539653
22
0.000043
32
0.320733
13
0.539653
23
0.000043
33
0.320733
62
0
0
3DFACE
8
GEM
10
0.907662
20
-0.000790
30
0.052671
11
0.539653
21
0.000043
31
0.320733
12
0.539653
22
-0.000043
32
0.320733
13
0.539653
23
-0.000043
33
0.320733
62
0
0
3DFACE
8
GEM
10
0.907662
20
-0.000790
30
0.052671
11
0.539653
21
-0.000043
31
0.320733
12
0.591928
22
-0.245184
32
0.282655
13
0.591928
23
-0.245184
33
0.282655
62
0
0
3DFACE
8
GEM
10
0.907662
20
-0.000790
30
0.052671
11
0.591928
21
-0.245184
31
0.282655
12
0.591971
22
-0.245202
32
0.282624
13
0.591971
23
-0.245202
33
0.282624
62
0
0
3DFACE
8
GEM
10
0.907662
20
-0.000790
30
0.052671
11
0.591971
21
-0.245202
31
0.282624
12
0.592585
22
-0.245037
32
0.282176
13
0.592585
23
-0.245037
33
0.282176
62
0
0
3DFACE
8
GEM
10
0.641255
20
-0.642373
30
0.052671
11
0.641888
21
-0.641888
31
0.052595
12
0.642373
22
-0.641255
32
0.052671
13
0.642373
23
-0.641255
33
0.052671
62
0
0
3DFACE
8
GEM
10
0.641255
20
-0.642373
30
0.052671
11
0.642373
21
-0.641255
31
0.052671
12
0.592289
22
-0.245754
32
0.282176
13
0.592289
23
-0.245754
33
0.282176
62
0
0
3DFACE
8
GEM
10
0.641255
20
-0.642373
30
0.052671
11
0.592289
21
-0.245754
31
0.282176
12
0.591971
22
-0.245202
32
0.282624
13
0.591971
23
-0.245202
33
0.282624
62
0
0
3DFACE
8
GEM
10
0.641255
20
-0.642373
30
0.052671
11
0.591971
21
-0.245202
31
0.282624
12
0.591928
22
-0.245184
32
0.282655
13
0.591928
23
-0.245184
33
0.282655
62
0
0
3DFACE
8
GEM
10
0.641255
20
-0.642373
30
0.052671
11
0.591928
21
-0.245184
31
0.282655
12
0.381622
22
-0.381562
32
0.320733
13
0.381622
23
-0.381562
33
0.320733
62
0
0
3DFACE
8
GEM
10
0.641255
20
-0.642373
30
0.052671
11
0.381622
21
-0.381562
31
0.320733
12
0.381562
22
-0.381622
32
0.320733
13
0.381562
23
-0.381622
33
0.320733
62
0
0
3DFACE
8
GEM
10
0.641255
20
-0.642373
30
0.052671
11
0.381562
21
-0.381622
31
0.320733
12
0.245184
22
-0.591928
32
0.282655
13
0.245184
23
-0.591928
33
0.282655
62
0
0
3DFACE
8
GEM
10
0.641255
20
-0.642373
30
0.052671
11
0.245184
21
-0.591928
31
0.282655
12
0.245202
22
-0.591971
32
0.282624
13
0.245202
23
-0.591971
33
0.282624
62
0
0
3DFACE
8
GEM
10
0.641255
20
-0.642373
30
0.052671
11
0.245202
21
-0.591971
31
0.282624
12
0.245754
22
-0.592289
32
0.282176
13
0.245754
23
-0.592289
33
0.282176
62
0
0
3DFACE
8
GEM
10
-0.000790
20
-0.907662
30
0.052671
11
-0.000000
21
-0.907766
31
0.052595
12
0.000790
22
-0.907662
32
0.052671
13
0.000790
23
-0.907662
33
0.052671
62
0
0
3DFACE
8
GEM
10
-0.000790
20
-0.907662
30
0.052671
11
0.000790
21
-0.907662
31
0.052671
12
0.245037
22
-0.592585
32
0.282176
13
0.245037
23
-0.592585
33
0.282176
62
0
0
3DFACE
8
GEM
10
-0.000790
20
-0.907662
30
0.052671
11
0.245037
21
-0.592585
31
0.282176
12
0.245202
22
-0.591971
32
0.282624
13
0.245202
23
-0.591971
33
0.282624
62
0
0
3DFACE
8
GEM
10
-0.000790
20
-0.907662
30
0.052671
11
0.245202
21
-0.591971
31
0.282624
12
0.245184
22
-0.591928
32
0.282655
13
0.245184
23
-0.591928
33
0.282655
62
0
0
3DFACE
8
GEM
10
-0.000790
20
-0.907662
30
0.052671
11
0.245184
21
-0.591928
31
0.282655
12
0.000043
22
-0.539653
32
0.320733
13
0.000043
23
-0.539653
33
0.320733
62
0
0
3DFACE
8
GEM
10
-0.000790
20
-0.907662
30
0.052671
11
0.000043
21
-0.539653
31
0.320733
12
-0.000043
22
-0.539653
32
0.320733
13
-0.000043
23
-0.539653
33
0.320733
62
0
0
3DFACE
8
GEM
10
-0.000790
20
-0.907662
30
0.052671
11
-0.000043
21
-0.539653
31
0.320733
12
-0.245184
22
-0.591928
32
0.282655
13
-0.245184
23
-0.591928
33
0.282655
62
0
0
3DFACE
8
GEM
10
-0.000790
20
-0.907662
30
0.052671
11
-0.245184
21
-0.591928
31
0.282655
12
-0.245202
22
-0.591971
32
0.282624
13
-0.245202
23
-0.591971
33
0.282624
62
0
0
3DFACE
8
GEM
10
-0.000790
20
-0.907662
30
0.052671
11
-0.245202
21
-0.591971
31
0.282624
12
-0.245037
22
-0.592585
32
0.282176
13
-0.245037
23
-0.592585
33
0.282176
62
0
0
3DFACE
8
GEM
10
-0.642373
20
-0.641255
30
0.052671
11
-0.641888
21
-0.641888
31
0.052595
12
-0.641255
22
-0.642373
32
0.052671
13
-0.641255
23
-0.642373
33
0.052671
62
0
0
3DFACE
8
GEM
10
-0.642373
20
-0.641255
30
0.052671
11
-0.641255
21
-0.642373
31
0.052671
12
-0.245754
22
-0.592289
32
0.282176
13
-0.245754
23
-0.592289
33
0.282176
62
0
0
3DFACE
8
GEM
10
-0.642373
20
-0.641255
30
0.052671
11
-0.245754
21
-0.592289
31
0.282176
12
-0.245202
22
-0.591971
32
0.282624
13
-0.245202
23
-0.591971
33
0.282624
62
0
0
3DFACE
8
GEM
10
-0.642373
20
-0.641255
30
0.052671
11
-0.245202
21
-0.591971
31
0.282624
12
-0.245184
22
-0.591928
32
0.282655
13
-0.245184
23
-0.591928
33
0.282655
62
0
0
3DFACE
8
GEM
10
-0.642373
20
-0.641255
30
0.052671
11
-0.245184
21
-0.591928
31
0.282655
12
-0.381562
22
-0.381622
32
0.320733
13
-0.381562
23
-0.381622
33
0.320733
62
0
0
3DFACE
8
GEM
10
-0.642373
20
-0.641255
30
0.052671
11
-0.381562
21
-0.381622
31
0.320733
12
-0.381622
22
-0.381562
32
0.320733
13
-0.381622
23
-0.381562
33
0.320733
62
0
0
3DFACE
8
GEM
10
-0.642373
20
-0.641255
30
0.052671
11
-0.381622
21
-0.381562
31
0.320733
12
-0.591928
22
-0.245184
32
0.282655
13
-0.591928
23
-0.245184
33
0.282655
62
0
0
3DFACE
8
GEM
10
-0.642373
20
-0.641255
30
0.052671
11
-0.591928
21
-0.245184
31
0.282655
12
-0.591971
22
-0.245202
32
0.282624
13
-0.591971
23
-0.245202
33
0.282624
62
0
0
3DFACE
8
GEM
10
-0.642373
20
-0.641255
30
0.052671
11
-0.591971
21
-0.245202
31
0.282624
12
-0.592289
22
-0.245754
32
0.282176
13
-0.592289
23
-0.245754
33
0.282176
62
0
0
3DFACE
8
GEM
10
-0.907662
20
0.000790
30
0.052671
11
-0.907766
21
-0.000000
31
0.052595
12
-0.907662
22
-0.000790
32
0.052671
13
-0.907662
23
-0.000790
33
0.052671
62
0
0
3DFACE
8
GEM
10
-0.907662
20
0.000790
30
0.052671
11
-0.907662
21
-0.000790
31
0.052671
12
-0.592585
22
-0.245037
32
0.282176
13
-0.592585
23
-0.245037
33
0.282176
62
0
0
3DFACE
8
GEM
10
-0.907662
20
0.000790
30
0.052671
11
-0.592585
21
-0.245037
31
0.282176
12
-0.591971
22
-0.245202
32
0.282624
13
-0.591971
23
-0.245202
33
0.282624
62
0
0
3DFACE
8
GEM
10
-0.907662
20
0.000790
30
0.052671
11
-0.591971
21
-0.245202
31
0.282624
12
-0.591928
22
-0.245184
32
0.282655
13
-0.591928
23
-0.245184
33
0.282655
62
0
0
3DFACE
8
GEM
10
-0.907662
20
0.000790
30
0.052671
11
-0.591928
21
-0.245184
31
0.282655
12
-0.539653
22
-0.000043
32
0.320733
13
-0.539653
23
-0.000043
33
0.320733
62
0
0
3DFACE
8
GEM
10
-0.907662
20
0.000790
30
0.052671
11
-0.539653
21
-0.000043
31
0.320733
12
-0.539653
22
0.000043
32
0.320733
13
-0.539653
23
0.000043
33
0.320733
62
0
0
3DFACE
8
GEM
10
-0.907662
20
0.000790
30
0.052671
11
-0.539653
21
0.000043
31
0.320733
12
-0.591928
22
0.245184
32
0.282655
13
-0.591928
23
0.245184
33
0.282655
62
0
0
3DFACE
8
GEM
10
-0.907662
20
0.000790
30
0.052671
11
-0.591928
21
0.245184
31
0.282655
12
-0.591971
22
0.245202
32
0.282624
13
-0.591971
23
0.245202
33
0.282624
62
0
0
3DFACE
8
GEM
10
-0.907662
20
0.000790
30
0.052671
11
-0.591971
21
0.245202
31
0.282624
12
-0.592585
22
0.245037
32
0.282176
13
-0.592585
23
0.245037
33
0.282176
62
0
0
3DFACE
8
GEM
10
-0.641255
20
0.642373
30
0.052671
11
-0.641888
21
0.641888
31
0.052595
12
-0.642373
22
0.641255
32
0.052671
13
-0.642373
23
0.641255
33
0.052671
62
0
0
3DFACE
8
GEM
10
-0.641255
20
0.642373
30
0.052671
11
-0.642373
21
0.641255
31
0.052671
12
-0.592289
22
0.245754
32
0.282176
13
-0.592289
23
0.245754
33
0.282176
62
0
0
3DFACE
8
GEM
10
-0.641255
20
0.642373
30
0.052671
11
-0.592289
21
0.245754
31
0.282176
12
-0.591971
22
0.245202
32
0.282624
13
-0.591971
23
0.245202
33
0.282624
62
0
0
3DFACE
8
GEM
10
-0.641255
20
0.642373
30
0.052671
11
-0.591971
21
0.245202
31
0.282624
12
-0.591928
22
0.245184
32
0.282655
13
-0.591928
23
0.245184
33
0.282655
62
0
0
3DFACE
8
GEM
10
-0.641255
20
0.642373
30
0.052671
11
-0.591928
21
0.245184
31
0.282655
12
-0.381622
22
0.381562
32
0.320733
13
-0.381622
23
0.381562
33
0.320733
62
0
0
3DFACE
8
GEM
10
-0.641255
20
0.642373
30
0.052671
11
-0.381622
21
0.381562
31
0.320733
12
-0.381562
22
0.381622
32
0.320733
13
-0.381562
23
0.381622
33
0.320733
62
0
0
3DFACE
8
GEM
10
-0.641255
20
0.642373
30
0.052671
11
-0.381562
21
0.381622
31
0.320733
12
-0.245184
22
0.591928
32
0.282655
13
-0.245184
23
0.591928
33
0.282655
62
0
0
3DFACE
8
GEM
10
-0.641255
20
0.642373
30
0.052671
11
-0.245184
21
0.591928
31
0.282655
12
-0.245202
22
0.591971
32
0.282624
13
-0.245202
23
0.591971
33
0.282624
62
0
0
3DFACE
8
GEM
10
-0.641255
20
0.642373
30
0.052671
11
-0.245202
21
0.591971
31
0.282624
12
-0.245754
22
0.592289
32
0.282176
13
-0.245754
23
0.592289
33
0.282176
62
0
0
3DFACE
8
GEM
10
0.245184
20
0.591928
30
0.282655
11
0.000043
21
0.539653
31
0.320733
12
0.381562
22
0.381622
32
0.320733
13
0.381562
23
0.381622
33
0.320733
62
0
0
3DFACE
8
GEM
10
0.591928
20
0.245184
30
0.282655
11
0.381622
21
0.381562
31
0.320733
12
0.539653
22
0.000043
32
0.320733
13
0.539653
23
0.000043
33
0.320733
62
0
0
3DFACE
8
GEM
10
0.591928
20
-0.245184
30
0.282655
11
0.539653
21
-0.000043
31
0.320733
12
0.381622
22
-0.381562
32
0.320733
13
0.381622
23
-0.381562
33
0.320733
62
0
0
3DFACE
8
GEM
10
0.245184
20
-0.591928
30
0.282655
11
0.381562
21
-0.381622
31
0.320733
12
0.000043
22
-0.539653
32
0.320733
13
0.000043
23
-0.539653
33
0.320733
62
0
0
3DFACE
8
GEM
10
-0.245184
20
-0.591928
30
0.282655
11
-0.000043
21
-0.539653
31
0.320733
12
-0.381562
22
-0.381622
32
0.320733
13
-0.381562
23
-0.381622
33
0.320733
62
0
0
3DFACE
8
GEM
10
-0.591928
20
-0.245184
30
0.282655
11
-0.381622
21
-0.381562
31
0.320733
12
-0.539653
22
-0.000043
32
0.320733
13
-0.539653
23
-0.000043
33
0.320733
62
0
0
3DFACE
8
GEM
10
-0.591928
20
0.245184
30
0.282655
11
-0.539653
21
0.000043
31
0.320733
12
-0.381622
22
0.381562
32
0.320733
13
-0.381622
23
0.381562
33
0.320733
62
0
0
3DFACE
8
GEM
10
-0.000043
20
0.539653
30
0.320733
11
-0.245184
21
0.591928
31
0.282655
12
-0.381562
22
0.381622
32
0.320733
13
-0.381562
23
0.381622
33
0.320733
62
0
0
3DFACE
8
GEM
10
0.000043
20
0.539653
30
0.320733
11
-0.000043
21
0.539653
31
0.320733
12
-0.381562
22
0.381622
32
0.320733
13
-0.381562
23
0.381622
33
0.320733
62
0
0
3DFACE
8
GEM
10
0.000043
20
0.539653
30
0.320733
11
-0.381562
21
0.381622
31
0.320733
12
-0.381622
22
0.381562
32
0.320733
13
-0.381622
23
0.381562
33
0.320733
62
0
0
3DFACE
8
GEM
10
0.000043
20
0.539653
30
0.320733
11
-0.381622
21
0.381562
31
0.320733
12
-0.539653
22
0.000043
32
0.320733
13
-0.539653
23
0.000043
33
0.320733
62
0
0
3DFACE
8
GEM
10
0.000043
20
0.539653
30
0.320733
11
-0.539653
21
0.000043
31
0.320733
12
-0.539653
22
-0.000043
32
0.320733
13
-0.539653
23
-0.000043
33
0.320733
62
0
0
3DFACE
8
GEM
10
0.000043
20
0.539653
30
0.320733
11
-0.539653
21
-0.000043
31
0.320733
12
-0.381622
22
-0.381562
32
0.320733
13
-0.381622
23
-0.381562
33
0.320733
62
0
0
3DFACE
8
GEM
10
0.000043
20
0.539653
30
0.320733
11
-0.381622
21
-0.381562
31
0.320733
12
-0.381562
22
-0.381622
32
0.320733
13
-0.381562
23
-0.381622
33
0.320733
62
0
0
3DFACE
8
GEM
10
0.000043
20
0.539653
30
0.320733
11
-0.381562
21
-0.381622
31
0.320733
12
-0.000043
22
-0.539653
32
0.320733
13
-0.000043
23
-0.539653
33
0.320733
62
0
0
3DFACE
8
GEM
10
0.000043
20
0.539653
30
0.320733
11
-0.000043
21
-0.539653
31
0.320733
12
0.000043
22
-0.539653
32
0.320733
13
0.000043
23
-0.539653
33
0.320733
62
0
0
3DFACE
8
GEM
10
0.000043
20
0.539653
30
0.320733
11
0.000043
21
-0.539653
31
0.320733
12
0.381562
22
-0.381622
32
0.320733
13
0.381562
23
-0.381622
33
0.320733
62
0
0
3DFACE
8
GEM
10
0.000043
20
0.539653
30
0.320733
11
0.381562
21
-0.381622
31
0.320733
12
0.381622
22
-0.381562
32
0.320733
13
0.381622
23
-0.381562
33
0.320733
62
0
0
3DFACE
8
GEM
10
0.000043
20
0.539653
30
0.320733
11
0.381622
21
-0.381562
31
0.320733
12
0.539653
22
-0.000043
32
0.320733
13
0.539653
23
-0.000043
33
0.320733
62
0
0
3DFACE
8
GEM
10
0.000043
20
0.539653
30
0.320733
11
0.539653
21
-0.000043
31
0.320733
12
0.539653
22
0.000043
32
0.320733
13
0.539653
23
0.000043
33
0.320733
62
0
0
3DFACE
8
GEM
10
0.000043
20
0.539653
30
0.320733
11
0.539653
21
0.000043
31
0.320733
12
0.381622
22
0.381562
32
0.320733
13
0.381622
23
0.381562
33
0.320733
62
0
0
3DFACE
8
GEM
10
0.000043
20
0.539653
30
0.320733
11
0.381622
21
0.381562
31
0.320733
12
0.381562
22
0.381622
32
0.320733
13
0.381562
23
0.381622
33
0.320733
62
0
0
ENDSEC
0
EOF
