999
DXF gemstone file C:\temp\_gems\pc03068a.dxf created by GemCad for Windows
0
SECTION
2
HEADER
0
ENDSEC
0
SECTION
2
TABLES
0
TABLE
2
LAYER
70
153
0
LAYER
2
GEM
70
0
62
15
6
CONTINUOUS
0
ENDTAB
0
ENDSEC
0
SECTION
2
ENTITIES
0
3DFACE
8
GEM
10
0.325446
20
0.674526
30
0.085220
11
0.325446
21
0.674526
31
0.057135
12
0.325095
22
0.674526
32
0.057111
13
0.325095
23
0.674526
33
0.057111
62
0
0
3DFACE
8
GEM
10
0.325446
20
0.674526
30
0.085220
11
0.325095
21
0.674526
31
0.057111
12
-0.325095
22
0.674526
32
0.057111
13
-0.325095
23
0.674526
33
0.057111
62
0
0
3DFACE
8
GEM
10
0.325446
20
0.674526
30
0.085220
11
-0.325095
21
0.674526
31
0.057111
12
-0.325446
22
0.674526
32
0.057135
13
-0.325446
23
0.674526
33
0.057135
62
0
0
3DFACE
8
GEM
10
0.325446
20
0.674526
30
0.085220
11
-0.325446
21
0.674526
31
0.057135
12
-0.325446
22
0.674526
32
0.085220
13
-0.325446
23
0.674526
33
0.085220
62
0
0
3DFACE
8
GEM
10
0.325446
20
0.674526
30
0.085220
11
-0.325446
21
0.674526
31
0.085220
12
-0.325415
22
0.674526
32
0.085232
13
-0.325415
23
0.674526
33
0.085232
62
0
0
3DFACE
8
GEM
10
0.325446
20
0.674526
30
0.085220
11
-0.325415
21
0.674526
31
0.085232
12
0.325415
22
0.674526
32
0.085232
13
0.325415
23
0.674526
33
0.085232
62
0
0
3DFACE
8
GEM
10
0.325446
20
-0.674526
30
0.057135
11
0.325446
21
-0.674526
31
0.085220
12
0.325415
22
-0.674526
32
0.085232
13
0.325415
23
-0.674526
33
0.085232
62
0
0
3DFACE
8
GEM
10
0.325446
20
-0.674526
30
0.057135
11
0.325415
21
-0.674526
31
0.085232
12
-0.325415
22
-0.674526
32
0.085232
13
-0.325415
23
-0.674526
33
0.085232
62
0
0
3DFACE
8
GEM
10
0.325446
20
-0.674526
30
0.057135
11
-0.325415
21
-0.674526
31
0.085232
12
-0.325446
22
-0.674526
32
0.085220
13
-0.325446
23
-0.674526
33
0.085220
62
0
0
3DFACE
8
GEM
10
0.325446
20
-0.674526
30
0.057135
11
-0.325446
21
-0.674526
31
0.085220
12
-0.325446
22
-0.674526
32
0.057135
13
-0.325446
23
-0.674526
33
0.057135
62
0
0
3DFACE
8
GEM
10
0.325446
20
-0.674526
30
0.057135
11
-0.325446
21
-0.674526
31
0.057135
12
-0.325095
22
-0.674526
32
0.057111
13
-0.325095
23
-0.674526
33
0.057111
62
0
0
3DFACE
8
GEM
10
0.325446
20
-0.674526
30
0.057135
11
-0.325095
21
-0.674526
31
0.057111
12
0.325095
22
-0.674526
32
0.057111
13
0.325095
23
-0.674526
33
0.057111
62
0
0
3DFACE
8
GEM
10
0.325446
20
0.674526
30
0.057135
11
0.325446
21
0.674526
31
0.085220
12
0.607019
22
0.511960
32
0.085220
13
0.607019
23
0.511960
33
0.085220
62
0
0
3DFACE
8
GEM
10
0.325446
20
0.674526
30
0.057135
11
0.607019
21
0.511960
31
0.085220
12
0.607389
22
0.511746
32
0.085126
13
0.607389
23
0.511746
33
0.085126
62
0
0
3DFACE
8
GEM
10
0.325446
20
0.674526
30
0.057135
11
0.607389
21
0.511746
31
0.085126
12
0.607389
22
0.511746
32
0.057156
13
0.607389
23
0.511746
33
0.057156
62
0
0
3DFACE
8
GEM
10
0.325446
20
0.674526
30
0.057135
11
0.607389
21
0.511746
31
0.057156
12
0.607278
22
0.511810
32
0.057123
13
0.607278
23
0.511810
33
0.057123
62
0
0
3DFACE
8
GEM
10
0.325446
20
0.674526
30
0.057135
11
0.607278
21
0.511810
31
0.057123
12
0.325474
22
0.674510
32
0.057123
13
0.325474
23
0.674510
33
0.057123
62
0
0
3DFACE
8
GEM
10
0.325446
20
0.674526
30
0.057135
11
0.325474
21
0.674510
31
0.057123
12
0.325468
22
0.674513
32
0.057123
13
0.325468
23
0.674513
33
0.057123
62
0
0
3DFACE
8
GEM
10
0.325446
20
-0.674526
30
0.085220
11
0.325446
21
-0.674526
31
0.057135
12
0.325468
22
-0.674513
32
0.057123
13
0.325468
23
-0.674513
33
0.057123
62
0
0
3DFACE
8
GEM
10
0.325446
20
-0.674526
30
0.085220
11
0.325468
21
-0.674513
31
0.057123
12
0.325474
22
-0.674510
32
0.057123
13
0.325474
23
-0.674510
33
0.057123
62
0
0
3DFACE
8
GEM
10
0.325446
20
-0.674526
30
0.085220
11
0.325474
21
-0.674510
31
0.057123
12
0.607278
22
-0.511810
32
0.057123
13
0.607278
23
-0.511810
33
0.057123
62
0
0
3DFACE
8
GEM
10
0.325446
20
-0.674526
30
0.085220
11
0.607278
21
-0.511810
31
0.057123
12
0.607389
22
-0.511746
32
0.057156
13
0.607389
23
-0.511746
33
0.057156
62
0
0
3DFACE
8
GEM
10
0.325446
20
-0.674526
30
0.085220
11
0.607389
21
-0.511746
31
0.057156
12
0.607389
22
-0.511746
32
0.085126
13
0.607389
23
-0.511746
33
0.085126
62
0
0
3DFACE
8
GEM
10
0.325446
20
-0.674526
30
0.085220
11
0.607389
21
-0.511746
31
0.085126
12
0.607019
22
-0.511960
32
0.085220
13
0.607019
23
-0.511960
33
0.085220
62
0
0
3DFACE
8
GEM
10
-0.325446
20
-0.674526
30
0.057135
11
-0.325446
21
-0.674526
31
0.085220
12
-0.607019
22
-0.511960
32
0.085220
13
-0.607019
23
-0.511960
33
0.085220
62
0
0
3DFACE
8
GEM
10
-0.325446
20
-0.674526
30
0.057135
11
-0.607019
21
-0.511960
31
0.085220
12
-0.607389
22
-0.511746
32
0.085126
13
-0.607389
23
-0.511746
33
0.085126
62
0
0
3DFACE
8
GEM
10
-0.325446
20
-0.674526
30
0.057135
11
-0.607389
21
-0.511746
31
0.085126
12
-0.607389
22
-0.511746
32
0.057156
13
-0.607389
23
-0.511746
33
0.057156
62
0
0
3DFACE
8
GEM
10
-0.325446
20
-0.674526
30
0.057135
11
-0.607389
21
-0.511746
31
0.057156
12
-0.607278
22
-0.511810
32
0.057123
13
-0.607278
23
-0.511810
33
0.057123
62
0
0
3DFACE
8
GEM
10
-0.325446
20
-0.674526
30
0.057135
11
-0.607278
21
-0.511810
31
0.057123
12
-0.325474
22
-0.674510
32
0.057123
13
-0.325474
23
-0.674510
33
0.057123
62
0
0
3DFACE
8
GEM
10
-0.325446
20
-0.674526
30
0.057135
11
-0.325474
21
-0.674510
31
0.057123
12
-0.325468
22
-0.674513
32
0.057123
13
-0.325468
23
-0.674513
33
0.057123
62
0
0
3DFACE
8
GEM
10
-0.325446
20
0.674526
30
0.085220
11
-0.325446
21
0.674526
31
0.057135
12
-0.325468
22
0.674513
32
0.057123
13
-0.325468
23
0.674513
33
0.057123
62
0
0
3DFACE
8
GEM
10
-0.325446
20
0.674526
30
0.085220
11
-0.325468
21
0.674513
31
0.057123
12
-0.325474
22
0.674510
32
0.057123
13
-0.325474
23
0.674510
33
0.057123
62
0
0
3DFACE
8
GEM
10
-0.325446
20
0.674526
30
0.085220
11
-0.325474
21
0.674510
31
0.057123
12
-0.607278
22
0.511810
32
0.057123
13
-0.607278
23
0.511810
33
0.057123
62
0
0
3DFACE
8
GEM
10
-0.325446
20
0.674526
30
0.085220
11
-0.607278
21
0.511810
31
0.057123
12
-0.607389
22
0.511746
32
0.057156
13
-0.607389
23
0.511746
33
0.057156
62
0
0
3DFACE
8
GEM
10
-0.325446
20
0.674526
30
0.085220
11
-0.607389
21
0.511746
31
0.057156
12
-0.607389
22
0.511746
32
0.085126
13
-0.607389
23
0.511746
33
0.085126
62
0
0
3DFACE
8
GEM
10
-0.325446
20
0.674526
30
0.085220
11
-0.607389
21
0.511746
31
0.085126
12
-0.607019
22
0.511960
32
0.085220
13
-0.607019
23
0.511960
33
0.085220
62
0
0
3DFACE
8
GEM
10
0.607389
20
0.511746
30
0.057156
11
0.607389
21
0.511746
31
0.085126
12
0.837258
22
0.281877
32
0.085126
13
0.837258
23
0.281877
33
0.085126
62
0
0
3DFACE
8
GEM
10
0.607389
20
0.511746
30
0.057156
11
0.837258
21
0.281877
31
0.085126
12
0.837258
22
0.281877
32
0.057156
13
0.837258
23
0.281877
33
0.057156
62
0
0
3DFACE
8
GEM
10
0.607389
20
-0.511746
30
0.085126
11
0.607389
21
-0.511746
31
0.057156
12
0.837258
22
-0.281877
32
0.057156
13
0.837258
23
-0.281877
33
0.057156
62
0
0
3DFACE
8
GEM
10
0.607389
20
-0.511746
30
0.085126
11
0.837258
21
-0.281877
31
0.057156
12
0.837258
22
-0.281877
32
0.085126
13
0.837258
23
-0.281877
33
0.085126
62
0
0
3DFACE
8
GEM
10
-0.607389
20
-0.511746
30
0.057156
11
-0.607389
21
-0.511746
31
0.085126
12
-0.837258
22
-0.281877
32
0.085126
13
-0.837258
23
-0.281877
33
0.085126
62
0
0
3DFACE
8
GEM
10
-0.607389
20
-0.511746
30
0.057156
11
-0.837258
21
-0.281877
31
0.085126
12
-0.837258
22
-0.281877
32
0.057156
13
-0.837258
23
-0.281877
33
0.057156
62
0
0
3DFACE
8
GEM
10
-0.607389
20
0.511746
30
0.085126
11
-0.607389
21
0.511746
31
0.057156
12
-0.837258
22
0.281877
32
0.057156
13
-0.837258
23
0.281877
33
0.057156
62
0
0
3DFACE
8
GEM
10
-0.607389
20
0.511746
30
0.085126
11
-0.837258
21
0.281877
31
0.057156
12
-0.837258
22
0.281877
32
0.085126
13
-0.837258
23
0.281877
33
0.085126
62
0
0
3DFACE
8
GEM
10
0.837258
20
0.281877
30
0.057156
11
0.837258
21
0.281877
31
0.085126
12
0.837514
22
0.281435
32
0.085238
13
0.837514
23
0.281435
33
0.085238
62
0
0
3DFACE
8
GEM
10
0.837258
20
0.281877
30
0.057156
11
0.837514
21
0.281435
31
0.085238
12
0.999850
22
0.000260
32
0.085238
13
0.999850
23
0.000260
33
0.085238
62
0
0
3DFACE
8
GEM
10
0.837258
20
0.281877
30
0.057156
11
0.999850
21
0.000260
31
0.085238
12
1.000000
22
0.000000
32
0.085208
13
1.000000
23
0.000000
33
0.085208
62
0
0
3DFACE
8
GEM
10
0.837258
20
0.281877
30
0.057156
11
1.000000
21
0.000000
31
0.085208
12
1.000000
22
0.000000
32
0.057153
13
1.000000
23
0.000000
33
0.057153
62
0
0
3DFACE
8
GEM
10
0.837258
20
0.281877
30
0.057156
11
1.000000
21
0.000000
31
0.057153
12
0.837264
22
0.281868
32
0.057153
13
0.837264
23
0.281868
33
0.057153
62
0
0
3DFACE
8
GEM
10
0.837258
20
-0.281877
30
0.085126
11
0.837258
21
-0.281877
31
0.057156
12
0.837264
22
-0.281868
32
0.057153
13
0.837264
23
-0.281868
33
0.057153
62
0
0
3DFACE
8
GEM
10
0.837258
20
-0.281877
30
0.085126
11
0.837264
21
-0.281868
31
0.057153
12
1.000000
22
0.000000
32
0.057153
13
1.000000
23
0.000000
33
0.057153
62
0
0
3DFACE
8
GEM
10
0.837258
20
-0.281877
30
0.085126
11
1.000000
21
0.000000
31
0.057153
12
1.000000
22
0.000000
32
0.085208
13
1.000000
23
0.000000
33
0.085208
62
0
0
3DFACE
8
GEM
10
0.837258
20
-0.281877
30
0.085126
11
1.000000
21
0.000000
31
0.085208
12
0.999850
22
-0.000260
32
0.085238
13
0.999850
23
-0.000260
33
0.085238
62
0
0
3DFACE
8
GEM
10
0.837258
20
-0.281877
30
0.085126
11
0.999850
21
-0.000260
31
0.085238
12
0.837514
22
-0.281435
32
0.085238
13
0.837514
23
-0.281435
33
0.085238
62
0
0
3DFACE
8
GEM
10
-0.837258
20
-0.281877
30
0.057156
11
-0.837258
21
-0.281877
31
0.085126
12
-0.837514
22
-0.281435
32
0.085238
13
-0.837514
23
-0.281435
33
0.085238
62
0
0
3DFACE
8
GEM
10
-0.837258
20
-0.281877
30
0.057156
11
-0.837514
21
-0.281435
31
0.085238
12
-0.999850
22
-0.000260
32
0.085238
13
-0.999850
23
-0.000260
33
0.085238
62
0
0
3DFACE
8
GEM
10
-0.837258
20
-0.281877
30
0.057156
11
-0.999850
21
-0.000260
31
0.085238
12
-1.000000
22
-0.000000
32
0.085208
13
-1.000000
23
-0.000000
33
0.085208
62
0
0
3DFACE
8
GEM
10
-0.837258
20
-0.281877
30
0.057156
11
-1.000000
21
-0.000000
31
0.085208
12
-1.000000
22
-0.000000
32
0.057153
13
-1.000000
23
-0.000000
33
0.057153
62
0
0
3DFACE
8
GEM
10
-0.837258
20
-0.281877
30
0.057156
11
-1.000000
21
-0.000000
31
0.057153
12
-0.837264
22
-0.281868
32
0.057153
13
-0.837264
23
-0.281868
33
0.057153
62
0
0
3DFACE
8
GEM
10
-0.837258
20
0.281877
30
0.085126
11
-0.837258
21
0.281877
31
0.057156
12
-0.837264
22
0.281868
32
0.057153
13
-0.837264
23
0.281868
33
0.057153
62
0
0
3DFACE
8
GEM
10
-0.837258
20
0.281877
30
0.085126
11
-0.837264
21
0.281868
31
0.057153
12
-1.000000
22
-0.000000
32
0.057153
13
-1.000000
23
-0.000000
33
0.057153
62
0
0
3DFACE
8
GEM
10
-0.837258
20
0.281877
30
0.085126
11
-1.000000
21
-0.000000
31
0.057153
12
-1.000000
22
-0.000000
32
0.085208
13
-1.000000
23
-0.000000
33
0.085208
62
0
0
3DFACE
8
GEM
10
-0.837258
20
0.281877
30
0.085126
11
-1.000000
21
-0.000000
31
0.085208
12
-0.999850
22
0.000260
32
0.085238
13
-0.999850
23
0.000260
33
0.085238
62
0
0
3DFACE
8
GEM
10
-0.837258
20
0.281877
30
0.085126
11
-0.999850
21
0.000260
31
0.085238
12
-0.837514
22
0.281435
32
0.085238
13
-0.837514
23
0.281435
33
0.085238
62
0
0
3DFACE
8
GEM
10
-0.325095
20
0.674526
30
0.057111
11
0.325095
21
0.674526
31
0.057111
12
0.000000
22
0.562198
32
-0.081330
13
0.000000
23
0.562198
33
-0.081330
62
0
0
3DFACE
8
GEM
10
0.325095
20
-0.674526
30
0.057111
11
-0.325095
21
-0.674526
31
0.057111
12
0.000000
22
-0.562198
32
-0.081330
13
0.000000
23
-0.562198
33
-0.081330
62
0
0
3DFACE
8
GEM
10
0.325095
20
0.674526
30
0.057111
11
0.325446
21
0.674526
31
0.057135
12
0.325468
22
0.674513
32
0.057123
13
0.325468
23
0.674513
33
0.057123
62
0
0
3DFACE
8
GEM
10
0.325095
20
0.674526
30
0.057111
11
0.325468
21
0.674513
31
0.057123
12
0.323078
22
0.669351
32
0.051613
13
0.323078
23
0.669351
33
0.051613
62
0
0
3DFACE
8
GEM
10
0.325095
20
0.674526
30
0.057111
11
0.323078
21
0.669351
31
0.051613
12
0.057650
22
0.295923
32
-0.353266
13
0.057650
23
0.295923
33
-0.353266
62
0
0
3DFACE
8
GEM
10
0.325095
20
0.674526
30
0.057111
11
0.057650
21
0.295923
31
-0.353266
12
0.056608
22
0.295606
32
-0.353664
13
0.056608
23
0.295606
33
-0.353664
62
0
0
3DFACE
8
GEM
10
0.325095
20
0.674526
30
0.057111
11
0.056608
21
0.295606
31
-0.353664
12
0.055612
22
0.296035
32
-0.353288
13
0.055612
23
0.296035
33
-0.353288
62
0
0
3DFACE
8
GEM
10
0.325095
20
0.674526
30
0.057111
11
0.055612
21
0.296035
31
-0.353288
12
0.000000
22
0.559450
32
-0.084177
13
0.000000
23
0.559450
33
-0.084177
62
0
0
3DFACE
8
GEM
10
0.325095
20
0.674526
30
0.057111
11
0.000000
21
0.559450
31
-0.084177
12
0.000000
22
0.562198
32
-0.081330
13
0.000000
23
0.562198
33
-0.081330
62
0
0
3DFACE
8
GEM
10
0.325446
20
-0.674526
30
0.057135
11
0.325095
21
-0.674526
31
0.057111
12
0.000000
22
-0.562198
32
-0.081330
13
0.000000
23
-0.562198
33
-0.081330
62
0
0
3DFACE
8
GEM
10
0.325446
20
-0.674526
30
0.057135
11
0.000000
21
-0.562198
31
-0.081330
12
0.000000
22
-0.559450
32
-0.084177
13
0.000000
23
-0.559450
33
-0.084177
62
0
0
3DFACE
8
GEM
10
0.325446
20
-0.674526
30
0.057135
11
0.000000
21
-0.559450
31
-0.084177
12
0.055612
22
-0.296035
32
-0.353288
13
0.055612
23
-0.296035
33
-0.353288
62
0
0
3DFACE
8
GEM
10
0.325446
20
-0.674526
30
0.057135
11
0.055612
21
-0.296035
31
-0.353288
12
0.056608
22
-0.295606
32
-0.353664
13
0.056608
23
-0.295606
33
-0.353664
62
0
0
3DFACE
8
GEM
10
0.325446
20
-0.674526
30
0.057135
11
0.056608
21
-0.295606
31
-0.353664
12
0.057650
22
-0.295923
32
-0.353266
13
0.057650
23
-0.295923
33
-0.353266
62
0
0
3DFACE
8
GEM
10
0.325446
20
-0.674526
30
0.057135
11
0.057650
21
-0.295923
31
-0.353266
12
0.323078
22
-0.669351
32
0.051613
13
0.323078
23
-0.669351
33
0.051613
62
0
0
3DFACE
8
GEM
10
0.325446
20
-0.674526
30
0.057135
11
0.323078
21
-0.669351
31
0.051613
12
0.325468
22
-0.674513
32
0.057123
13
0.325468
23
-0.674513
33
0.057123
62
0
0
3DFACE
8
GEM
10
-0.325095
20
-0.674526
30
0.057111
11
-0.325446
21
-0.674526
31
0.057135
12
-0.325468
22
-0.674513
32
0.057123
13
-0.325468
23
-0.674513
33
0.057123
62
0
0
3DFACE
8
GEM
10
-0.325095
20
-0.674526
30
0.057111
11
-0.325468
21
-0.674513
31
0.057123
12
-0.323078
22
-0.669351
32
0.051613
13
-0.323078
23
-0.669351
33
0.051613
62
0
0
3DFACE
8
GEM
10
-0.325095
20
-0.674526
30
0.057111
11
-0.323078
21
-0.669351
31
0.051613
12
-0.057650
22
-0.295923
32
-0.353266
13
-0.057650
23
-0.295923
33
-0.353266
62
0
0
3DFACE
8
GEM
10
-0.325095
20
-0.674526
30
0.057111
11
-0.057650
21
-0.295923
31
-0.353266
12
-0.056608
22
-0.295606
32
-0.353664
13
-0.056608
23
-0.295606
33
-0.353664
62
0
0
3DFACE
8
GEM
10
-0.325095
20
-0.674526
30
0.057111
11
-0.056608
21
-0.295606
31
-0.353664
12
-0.055612
22
-0.296035
32
-0.353288
13
-0.055612
23
-0.296035
33
-0.353288
62
0
0
3DFACE
8
GEM
10
-0.325095
20
-0.674526
30
0.057111
11
-0.055612
21
-0.296035
31
-0.353288
12
0.000000
22
-0.559450
32
-0.084177
13
0.000000
23
-0.559450
33
-0.084177
62
0
0
3DFACE
8
GEM
10
-0.325095
20
-0.674526
30
0.057111
11
0.000000
21
-0.559450
31
-0.084177
12
0.000000
22
-0.562198
32
-0.081330
13
0.000000
23
-0.562198
33
-0.081330
62
0
0
3DFACE
8
GEM
10
-0.325446
20
0.674526
30
0.057135
11
-0.325095
21
0.674526
31
0.057111
12
0.000000
22
0.562198
32
-0.081330
13
0.000000
23
0.562198
33
-0.081330
62
0
0
3DFACE
8
GEM
10
-0.325446
20
0.674526
30
0.057135
11
0.000000
21
0.562198
31
-0.081330
12
0.000000
22
0.559450
32
-0.084177
13
0.000000
23
0.559450
33
-0.084177
62
0
0
3DFACE
8
GEM
10
-0.325446
20
0.674526
30
0.057135
11
0.000000
21
0.559450
31
-0.084177
12
-0.055612
22
0.296035
32
-0.353288
13
-0.055612
23
0.296035
33
-0.353288
62
0
0
3DFACE
8
GEM
10
-0.325446
20
0.674526
30
0.057135
11
-0.055612
21
0.296035
31
-0.353288
12
-0.056608
22
0.295606
32
-0.353664
13
-0.056608
23
0.295606
33
-0.353664
62
0
0
3DFACE
8
GEM
10
-0.325446
20
0.674526
30
0.057135
11
-0.056608
21
0.295606
31
-0.353664
12
-0.057650
22
0.295923
32
-0.353266
13
-0.057650
23
0.295923
33
-0.353266
62
0
0
3DFACE
8
GEM
10
-0.325446
20
0.674526
30
0.057135
11
-0.057650
21
0.295923
31
-0.353266
12
-0.323078
22
0.669351
32
0.051613
13
-0.323078
23
0.669351
33
0.051613
62
0
0
3DFACE
8
GEM
10
-0.325446
20
0.674526
30
0.057135
11
-0.323078
21
0.669351
31
0.051613
12
-0.325468
22
0.674513
32
0.057123
13
-0.325468
23
0.674513
33
0.057123
62
0
0
3DFACE
8
GEM
10
0.325474
20
0.674510
30
0.057123
11
0.607278
21
0.511810
31
0.057123
12
0.605461
22
0.509915
32
0.054483
13
0.605461
23
0.509915
33
0.054483
62
0
0
3DFACE
8
GEM
10
0.325474
20
0.674510
30
0.057123
11
0.605461
21
0.509915
31
0.054483
12
0.328589
22
0.272516
32
-0.301771
13
0.328589
23
0.272516
33
-0.301771
62
0
0
3DFACE
8
GEM
10
0.607278
20
-0.511810
30
0.057123
11
0.325474
21
-0.674510
31
0.057123
12
0.328589
22
-0.272516
32
-0.301771
13
0.328589
23
-0.272516
33
-0.301771
62
0
0
3DFACE
8
GEM
10
0.607278
20
-0.511810
30
0.057123
11
0.328589
21
-0.272516
31
-0.301771
12
0.605461
22
-0.509915
32
0.054483
13
0.605461
23
-0.509915
33
0.054483
62
0
0
3DFACE
8
GEM
10
-0.325474
20
-0.674510
30
0.057123
11
-0.607278
21
-0.511810
31
0.057123
12
-0.605461
22
-0.509915
32
0.054483
13
-0.605461
23
-0.509915
33
0.054483
62
0
0
3DFACE
8
GEM
10
-0.325474
20
-0.674510
30
0.057123
11
-0.605461
21
-0.509915
31
0.054483
12
-0.328589
22
-0.272516
32
-0.301771
13
-0.328589
23
-0.272516
33
-0.301771
62
0
0
3DFACE
8
GEM
10
-0.607278
20
0.511810
30
0.057123
11
-0.325474
21
0.674510
31
0.057123
12
-0.328589
22
0.272516
32
-0.301771
13
-0.328589
23
0.272516
33
-0.301771
62
0
0
3DFACE
8
GEM
10
-0.607278
20
0.511810
30
0.057123
11
-0.328589
21
0.272516
31
-0.301771
12
-0.605461
22
0.509915
32
0.054483
13
-0.605461
23
0.509915
33
0.054483
62
0
0
3DFACE
8
GEM
10
0.000000
20
0.559450
30
-0.084177
11
0.055612
21
0.296035
31
-0.353288
12
-0.055612
22
0.296035
32
-0.353288
13
-0.055612
23
0.296035
33
-0.353288
62
0
0
3DFACE
8
GEM
10
0.055612
20
-0.296035
30
-0.353288
11
0.000000
21
-0.559450
31
-0.084177
12
-0.055612
22
-0.296035
32
-0.353288
13
-0.055612
23
-0.296035
33
-0.353288
62
0
0
3DFACE
8
GEM
10
-0.607278
20
-0.511810
30
0.057123
11
-0.607389
21
-0.511746
31
0.057156
12
-0.837258
22
-0.281877
32
0.057156
13
-0.837258
23
-0.281877
33
0.057156
62
0
0
3DFACE
8
GEM
10
-0.607278
20
-0.511810
30
0.057123
11
-0.837258
21
-0.281877
31
0.057156
12
-0.837264
22
-0.281868
32
0.057153
13
-0.837264
23
-0.281868
33
0.057153
62
0
0
3DFACE
8
GEM
10
-0.607278
20
-0.511810
30
0.057123
11
-0.837264
21
-0.281868
31
0.057153
12
-0.209117
22
-0.000175
32
-0.590019
13
-0.209117
23
-0.000175
33
-0.590019
62
0
0
3DFACE
8
GEM
10
-0.607278
20
-0.511810
30
0.057123
11
-0.209117
21
-0.000175
31
-0.590019
12
-0.209759
22
-0.001360
32
-0.588720
13
-0.209759
23
-0.001360
33
-0.588720
62
0
0
3DFACE
8
GEM
10
-0.607278
20
-0.511810
30
0.057123
11
-0.209759
21
-0.001360
31
-0.588720
12
-0.605461
22
-0.509915
32
0.054483
13
-0.605461
23
-0.509915
33
0.054483
62
0
0
3DFACE
8
GEM
10
-0.607389
20
0.511746
30
0.057156
11
-0.607278
21
0.511810
31
0.057123
12
-0.605461
22
0.509915
32
0.054483
13
-0.605461
23
0.509915
33
0.054483
62
0
0
3DFACE
8
GEM
10
-0.607389
20
0.511746
30
0.057156
11
-0.605461
21
0.509915
31
0.054483
12
-0.209759
22
0.001360
32
-0.588720
13
-0.209759
23
0.001360
33
-0.588720
62
0
0
3DFACE
8
GEM
10
-0.607389
20
0.511746
30
0.057156
11
-0.209759
21
0.001360
31
-0.588720
12
-0.209117
22
0.000175
32
-0.590019
13
-0.209117
23
0.000175
33
-0.590019
62
0
0
3DFACE
8
GEM
10
-0.607389
20
0.511746
30
0.057156
11
-0.209117
21
0.000175
31
-0.590019
12
-0.837264
22
0.281868
32
0.057153
13
-0.837264
23
0.281868
33
0.057153
62
0
0
3DFACE
8
GEM
10
-0.607389
20
0.511746
30
0.057156
11
-0.837264
21
0.281868
31
0.057153
12
-0.837258
22
0.281877
32
0.057156
13
-0.837258
23
0.281877
33
0.057156
62
0
0
3DFACE
8
GEM
10
0.607278
20
0.511810
30
0.057123
11
0.607389
21
0.511746
31
0.057156
12
0.837258
22
0.281877
32
0.057156
13
0.837258
23
0.281877
33
0.057156
62
0
0
3DFACE
8
GEM
10
0.607278
20
0.511810
30
0.057123
11
0.837258
21
0.281877
31
0.057156
12
0.837264
22
0.281868
32
0.057153
13
0.837264
23
0.281868
33
0.057153
62
0
0
3DFACE
8
GEM
10
0.607278
20
0.511810
30
0.057123
11
0.837264
21
0.281868
31
0.057153
12
0.209117
22
0.000175
32
-0.590019
13
0.209117
23
0.000175
33
-0.590019
62
0
0
3DFACE
8
GEM
10
0.607278
20
0.511810
30
0.057123
11
0.209117
21
0.000175
31
-0.590019
12
0.209759
22
0.001360
32
-0.588720
13
0.209759
23
0.001360
33
-0.588720
62
0
0
3DFACE
8
GEM
10
0.607278
20
0.511810
30
0.057123
11
0.209759
21
0.001360
31
-0.588720
12
0.605461
22
0.509915
32
0.054483
13
0.605461
23
0.509915
33
0.054483
62
0
0
3DFACE
8
GEM
10
0.607389
20
-0.511746
30
0.057156
11
0.607278
21
-0.511810
31
0.057123
12
0.605461
22
-0.509915
32
0.054483
13
0.605461
23
-0.509915
33
0.054483
62
0
0
3DFACE
8
GEM
10
0.607389
20
-0.511746
30
0.057156
11
0.605461
21
-0.509915
31
0.054483
12
0.209759
22
-0.001360
32
-0.588720
13
0.209759
23
-0.001360
33
-0.588720
62
0
0
3DFACE
8
GEM
10
0.607389
20
-0.511746
30
0.057156
11
0.209759
21
-0.001360
31
-0.588720
12
0.209117
22
-0.000175
32
-0.590019
13
0.209117
23
-0.000175
33
-0.590019
62
0
0
3DFACE
8
GEM
10
0.607389
20
-0.511746
30
0.057156
11
0.209117
21
-0.000175
31
-0.590019
12
0.837264
22
-0.281868
32
0.057153
13
0.837264
23
-0.281868
33
0.057153
62
0
0
3DFACE
8
GEM
10
0.607389
20
-0.511746
30
0.057156
11
0.837264
21
-0.281868
31
0.057153
12
0.837258
22
-0.281877
32
0.057156
13
0.837258
23
-0.281877
33
0.057156
62
0
0
3DFACE
8
GEM
10
-0.057650
20
-0.295923
30
-0.353266
11
-0.323078
21
-0.669351
31
0.051613
12
-0.168519
22
-0.281337
32
-0.353255
13
-0.168519
23
-0.281337
33
-0.353255
62
0
0
3DFACE
8
GEM
10
-0.057650
20
-0.295923
30
-0.353266
11
-0.168519
21
-0.281337
31
-0.353255
12
-0.168497
22
-0.281330
32
-0.353266
13
-0.168497
23
-0.281330
33
-0.353266
62
0
0
3DFACE
8
GEM
10
-0.323078
20
0.669351
30
0.051613
11
-0.057650
21
0.295923
31
-0.353266
12
-0.168497
22
0.281330
32
-0.353266
13
-0.168497
23
0.281330
33
-0.353266
62
0
0
3DFACE
8
GEM
10
-0.323078
20
0.669351
30
0.051613
11
-0.168497
21
0.281330
31
-0.353266
12
-0.168519
22
0.281337
32
-0.353255
13
-0.168519
23
0.281337
33
-0.353255
62
0
0
3DFACE
8
GEM
10
0.057650
20
0.295923
30
-0.353266
11
0.323078
21
0.669351
31
0.051613
12
0.168519
22
0.281337
32
-0.353255
13
0.168519
23
0.281337
33
-0.353255
62
0
0
3DFACE
8
GEM
10
0.057650
20
0.295923
30
-0.353266
11
0.168519
21
0.281337
31
-0.353255
12
0.168497
22
0.281330
32
-0.353266
13
0.168497
23
0.281330
33
-0.353266
62
0
0
3DFACE
8
GEM
10
0.323078
20
-0.669351
30
0.051613
11
0.057650
21
-0.295923
31
-0.353266
12
0.168497
22
-0.281330
32
-0.353266
13
0.168497
23
-0.281330
33
-0.353266
62
0
0
3DFACE
8
GEM
10
0.323078
20
-0.669351
30
0.051613
11
0.168497
21
-0.281330
31
-0.353266
12
0.168519
22
-0.281337
32
-0.353255
13
0.168519
23
-0.281337
33
-0.353255
62
0
0
3DFACE
8
GEM
10
-0.328589
20
-0.272516
30
-0.301771
11
-0.605461
21
-0.509915
31
0.054483
12
-0.209759
22
-0.001360
32
-0.588720
13
-0.209759
23
-0.001360
33
-0.588720
62
0
0
3DFACE
8
GEM
10
-0.605461
20
0.509915
30
0.054483
11
-0.328589
21
0.272516
31
-0.301771
12
-0.209759
22
0.001360
32
-0.588720
13
-0.209759
23
0.001360
33
-0.588720
62
0
0
3DFACE
8
GEM
10
0.328589
20
0.272516
30
-0.301771
11
0.605461
21
0.509915
31
0.054483
12
0.209759
22
0.001360
32
-0.588720
13
0.209759
23
0.001360
33
-0.588720
62
0
0
3DFACE
8
GEM
10
0.605461
20
-0.509915
30
0.054483
11
0.328589
21
-0.272516
31
-0.301771
12
0.209759
22
-0.001360
32
-0.588720
13
0.209759
23
-0.001360
33
-0.588720
62
0
0
3DFACE
8
GEM
10
-0.325468
20
-0.674513
30
0.057123
11
-0.325474
21
-0.674510
31
0.057123
12
-0.328589
22
-0.272516
32
-0.301771
13
-0.328589
23
-0.272516
33
-0.301771
62
0
0
3DFACE
8
GEM
10
-0.325468
20
-0.674513
30
0.057123
11
-0.328589
21
-0.272516
31
-0.301771
12
-0.209759
22
-0.001360
32
-0.588720
13
-0.209759
23
-0.001360
33
-0.588720
62
0
0
3DFACE
8
GEM
10
-0.325468
20
-0.674513
30
0.057123
11
-0.209759
21
-0.001360
31
-0.588720
12
-0.209117
22
-0.000175
32
-0.590019
13
-0.209117
23
-0.000175
33
-0.590019
62
0
0
3DFACE
8
GEM
10
-0.325468
20
-0.674513
30
0.057123
11
-0.209117
21
-0.000175
31
-0.590019
12
-0.208952
22
-0.000000
32
-0.590237
13
-0.208952
23
-0.000000
33
-0.590237
62
0
0
3DFACE
8
GEM
10
-0.325468
20
-0.674513
30
0.057123
11
-0.208952
21
-0.000000
31
-0.590237
12
-0.208808
22
-0.000000
32
-0.590290
13
-0.208808
23
-0.000000
33
-0.590290
62
0
0
3DFACE
8
GEM
10
-0.325468
20
-0.674513
30
0.057123
11
-0.208808
21
-0.000000
31
-0.590290
12
-0.168519
22
-0.281337
32
-0.353255
13
-0.168519
23
-0.281337
33
-0.353255
62
0
0
3DFACE
8
GEM
10
-0.325468
20
-0.674513
30
0.057123
11
-0.168519
21
-0.281337
31
-0.353255
12
-0.323078
22
-0.669351
32
0.051613
13
-0.323078
23
-0.669351
33
0.051613
62
0
0
3DFACE
8
GEM
10
-0.325474
20
0.674510
30
0.057123
11
-0.325468
21
0.674513
31
0.057123
12
-0.323078
22
0.669351
32
0.051613
13
-0.323078
23
0.669351
33
0.051613
62
0
0
3DFACE
8
GEM
10
-0.325474
20
0.674510
30
0.057123
11
-0.323078
21
0.669351
31
0.051613
12
-0.168519
22
0.281337
32
-0.353255
13
-0.168519
23
0.281337
33
-0.353255
62
0
0
3DFACE
8
GEM
10
-0.325474
20
0.674510
30
0.057123
11
-0.168519
21
0.281337
31
-0.353255
12
-0.208808
22
-0.000000
32
-0.590290
13
-0.208808
23
-0.000000
33
-0.590290
62
0
0
3DFACE
8
GEM
10
-0.325474
20
0.674510
30
0.057123
11
-0.208808
21
-0.000000
31
-0.590290
12
-0.208952
22
-0.000000
32
-0.590237
13
-0.208952
23
-0.000000
33
-0.590237
62
0
0
3DFACE
8
GEM
10
-0.325474
20
0.674510
30
0.057123
11
-0.208952
21
-0.000000
31
-0.590237
12
-0.209117
22
0.000175
32
-0.590019
13
-0.209117
23
0.000175
33
-0.590019
62
0
0
3DFACE
8
GEM
10
-0.325474
20
0.674510
30
0.057123
11
-0.209117
21
0.000175
31
-0.590019
12
-0.209759
22
0.001360
32
-0.588720
13
-0.209759
23
0.001360
33
-0.588720
62
0
0
3DFACE
8
GEM
10
-0.325474
20
0.674510
30
0.057123
11
-0.209759
21
0.001360
31
-0.588720
12
-0.328589
22
0.272516
32
-0.301771
13
-0.328589
23
0.272516
33
-0.301771
62
0
0
3DFACE
8
GEM
10
0.325468
20
0.674513
30
0.057123
11
0.325474
21
0.674510
31
0.057123
12
0.328589
22
0.272516
32
-0.301771
13
0.328589
23
0.272516
33
-0.301771
62
0
0
3DFACE
8
GEM
10
0.325468
20
0.674513
30
0.057123
11
0.328589
21
0.272516
31
-0.301771
12
0.209759
22
0.001360
32
-0.588720
13
0.209759
23
0.001360
33
-0.588720
62
0
0
3DFACE
8
GEM
10
0.325468
20
0.674513
30
0.057123
11
0.209759
21
0.001360
31
-0.588720
12
0.209117
22
0.000175
32
-0.590019
13
0.209117
23
0.000175
33
-0.590019
62
0
0
3DFACE
8
GEM
10
0.325468
20
0.674513
30
0.057123
11
0.209117
21
0.000175
31
-0.590019
12
0.208952
22
-0.000000
32
-0.590237
13
0.208952
23
-0.000000
33
-0.590237
62
0
0
3DFACE
8
GEM
10
0.325468
20
0.674513
30
0.057123
11
0.208952
21
-0.000000
31
-0.590237
12
0.208808
22
-0.000000
32
-0.590290
13
0.208808
23
-0.000000
33
-0.590290
62
0
0
3DFACE
8
GEM
10
0.325468
20
0.674513
30
0.057123
11
0.208808
21
-0.000000
31
-0.590290
12
0.168519
22
0.281337
32
-0.353255
13
0.168519
23
0.281337
33
-0.353255
62
0
0
3DFACE
8
GEM
10
0.325468
20
0.674513
30
0.057123
11
0.168519
21
0.281337
31
-0.353255
12
0.323078
22
0.669351
32
0.051613
13
0.323078
23
0.669351
33
0.051613
62
0
0
3DFACE
8
GEM
10
0.325474
20
-0.674510
30
0.057123
11
0.325468
21
-0.674513
31
0.057123
12
0.323078
22
-0.669351
32
0.051613
13
0.323078
23
-0.669351
33
0.051613
62
0
0
3DFACE
8
GEM
10
0.325474
20
-0.674510
30
0.057123
11
0.323078
21
-0.669351
31
0.051613
12
0.168519
22
-0.281337
32
-0.353255
13
0.168519
23
-0.281337
33
-0.353255
62
0
0
3DFACE
8
GEM
10
0.325474
20
-0.674510
30
0.057123
11
0.168519
21
-0.281337
31
-0.353255
12
0.208808
22
-0.000000
32
-0.590290
13
0.208808
23
-0.000000
33
-0.590290
62
0
0
3DFACE
8
GEM
10
0.325474
20
-0.674510
30
0.057123
11
0.208808
21
-0.000000
31
-0.590290
12
0.208952
22
-0.000000
32
-0.590237
13
0.208952
23
-0.000000
33
-0.590237
62
0
0
3DFACE
8
GEM
10
0.325474
20
-0.674510
30
0.057123
11
0.208952
21
-0.000000
31
-0.590237
12
0.209117
22
-0.000175
32
-0.590019
13
0.209117
23
-0.000175
33
-0.590019
62
0
0
3DFACE
8
GEM
10
0.325474
20
-0.674510
30
0.057123
11
0.209117
21
-0.000175
31
-0.590019
12
0.209759
22
-0.001360
32
-0.588720
13
0.209759
23
-0.001360
33
-0.588720
62
0
0
3DFACE
8
GEM
10
0.325474
20
-0.674510
30
0.057123
11
0.209759
21
-0.001360
31
-0.588720
12
0.328589
22
-0.272516
32
-0.301771
13
0.328589
23
-0.272516
33
-0.301771
62
0
0
3DFACE
8
GEM
10
-0.837264
20
-0.281868
30
0.057153
11
-1.000000
21
-0.000000
31
0.057153
12
-0.208952
22
-0.000000
32
-0.590237
13
-0.208952
23
-0.000000
33
-0.590237
62
0
0
3DFACE
8
GEM
10
-0.837264
20
-0.281868
30
0.057153
11
-0.208952
21
-0.000000
31
-0.590237
12
-0.209117
22
-0.000175
32
-0.590019
13
-0.209117
23
-0.000175
33
-0.590019
62
0
0
3DFACE
8
GEM
10
-1.000000
20
-0.000000
30
0.057153
11
-0.837264
21
0.281868
31
0.057153
12
-0.209117
22
0.000175
32
-0.590019
13
-0.209117
23
0.000175
33
-0.590019
62
0
0
3DFACE
8
GEM
10
-1.000000
20
-0.000000
30
0.057153
11
-0.209117
21
0.000175
31
-0.590019
12
-0.208952
22
-0.000000
32
-0.590237
13
-0.208952
23
-0.000000
33
-0.590237
62
0
0
3DFACE
8
GEM
10
0.837264
20
0.281868
30
0.057153
11
1.000000
21
0.000000
31
0.057153
12
0.208952
22
-0.000000
32
-0.590237
13
0.208952
23
-0.000000
33
-0.590237
62
0
0
3DFACE
8
GEM
10
0.837264
20
0.281868
30
0.057153
11
0.208952
21
-0.000000
31
-0.590237
12
0.209117
22
0.000175
32
-0.590019
13
0.209117
23
0.000175
33
-0.590019
62
0
0
3DFACE
8
GEM
10
1.000000
20
0.000000
30
0.057153
11
0.837264
21
-0.281868
31
0.057153
12
0.209117
22
-0.000175
32
-0.590019
13
0.209117
23
-0.000175
33
-0.590019
62
0
0
3DFACE
8
GEM
10
1.000000
20
0.000000
30
0.057153
11
0.209117
21
-0.000175
31
-0.590019
12
0.208952
22
-0.000000
32
-0.590237
13
0.208952
23
-0.000000
33
-0.590237
62
0
0
3DFACE
8
GEM
10
-0.056608
20
-0.295606
30
-0.353664
11
-0.057650
21
-0.295923
31
-0.353266
12
-0.168497
22
-0.281330
32
-0.353266
13
-0.168497
23
-0.281330
33
-0.353266
62
0
0
3DFACE
8
GEM
10
-0.056608
20
-0.295606
30
-0.353664
11
-0.168497
21
-0.281330
31
-0.353266
12
-0.112261
22
-0.000150
32
-0.606815
13
-0.112261
23
-0.000150
33
-0.606815
62
0
0
3DFACE
8
GEM
10
-0.056608
20
-0.295606
30
-0.353664
11
-0.112261
21
-0.000150
31
-0.606815
12
-0.056616
22
-0.293028
32
-0.355928
13
-0.056616
23
-0.293028
33
-0.355928
62
0
0
3DFACE
8
GEM
10
-0.057650
20
0.295923
30
-0.353266
11
-0.056608
21
0.295606
31
-0.353664
12
-0.056616
22
0.293028
32
-0.355928
13
-0.056616
23
0.293028
33
-0.355928
62
0
0
3DFACE
8
GEM
10
-0.057650
20
0.295923
30
-0.353266
11
-0.056616
21
0.293028
31
-0.355928
12
-0.112261
22
0.000150
32
-0.606815
13
-0.112261
23
0.000150
33
-0.606815
62
0
0
3DFACE
8
GEM
10
-0.057650
20
0.295923
30
-0.353266
11
-0.112261
21
0.000150
31
-0.606815
12
-0.168497
22
0.281330
32
-0.353266
13
-0.168497
23
0.281330
33
-0.353266
62
0
0
3DFACE
8
GEM
10
0.056608
20
0.295606
30
-0.353664
11
0.057650
21
0.295923
31
-0.353266
12
0.168497
22
0.281330
32
-0.353266
13
0.168497
23
0.281330
33
-0.353266
62
0
0
3DFACE
8
GEM
10
0.056608
20
0.295606
30
-0.353664
11
0.168497
21
0.281330
31
-0.353266
12
0.112261
22
0.000150
32
-0.606815
13
0.112261
23
0.000150
33
-0.606815
62
0
0
3DFACE
8
GEM
10
0.056608
20
0.295606
30
-0.353664
11
0.112261
21
0.000150
31
-0.606815
12
0.056616
22
0.293028
32
-0.355928
13
0.056616
23
0.293028
33
-0.355928
62
0
0
3DFACE
8
GEM
10
0.057650
20
-0.295923
30
-0.353266
11
0.056608
21
-0.295606
31
-0.353664
12
0.056616
22
-0.293028
32
-0.355928
13
0.056616
23
-0.293028
33
-0.355928
62
0
0
3DFACE
8
GEM
10
0.057650
20
-0.295923
30
-0.353266
11
0.056616
21
-0.293028
31
-0.355928
12
0.112261
22
-0.000150
32
-0.606815
13
0.112261
23
-0.000150
33
-0.606815
62
0
0
3DFACE
8
GEM
10
0.057650
20
-0.295923
30
-0.353266
11
0.112261
21
-0.000150
31
-0.606815
12
0.168497
22
-0.281330
32
-0.353266
13
0.168497
23
-0.281330
33
-0.353266
62
0
0
3DFACE
8
GEM
10
-0.168497
20
-0.281330
30
-0.353266
11
-0.168519
21
-0.281337
31
-0.353255
12
-0.208808
22
-0.000000
32
-0.590290
13
-0.208808
23
-0.000000
33
-0.590290
62
0
0
3DFACE
8
GEM
10
-0.168497
20
-0.281330
30
-0.353266
11
-0.208808
21
-0.000000
31
-0.590290
12
-0.112261
22
-0.000000
32
-0.606945
13
-0.112261
23
-0.000000
33
-0.606945
62
0
0
3DFACE
8
GEM
10
-0.168497
20
-0.281330
30
-0.353266
11
-0.112261
21
-0.000000
31
-0.606945
12
-0.112261
22
-0.000150
32
-0.606815
13
-0.112261
23
-0.000150
33
-0.606815
62
0
0
3DFACE
8
GEM
10
-0.168519
20
0.281337
30
-0.353255
11
-0.168497
21
0.281330
31
-0.353266
12
-0.112261
22
0.000150
32
-0.606815
13
-0.112261
23
0.000150
33
-0.606815
62
0
0
3DFACE
8
GEM
10
-0.168519
20
0.281337
30
-0.353255
11
-0.112261
21
0.000150
31
-0.606815
12
-0.112261
22
-0.000000
32
-0.606945
13
-0.112261
23
-0.000000
33
-0.606945
62
0
0
3DFACE
8
GEM
10
-0.168519
20
0.281337
30
-0.353255
11
-0.112261
21
-0.000000
31
-0.606945
12
-0.208808
22
-0.000000
32
-0.590290
13
-0.208808
23
-0.000000
33
-0.590290
62
0
0
3DFACE
8
GEM
10
0.168497
20
0.281330
30
-0.353266
11
0.168519
21
0.281337
31
-0.353255
12
0.208808
22
-0.000000
32
-0.590290
13
0.208808
23
-0.000000
33
-0.590290
62
0
0
3DFACE
8
GEM
10
0.168497
20
0.281330
30
-0.353266
11
0.208808
21
-0.000000
31
-0.590290
12
0.112261
22
-0.000000
32
-0.606945
13
0.112261
23
-0.000000
33
-0.606945
62
0
0
3DFACE
8
GEM
10
0.168497
20
0.281330
30
-0.353266
11
0.112261
21
-0.000000
31
-0.606945
12
0.112261
22
0.000150
32
-0.606815
13
0.112261
23
0.000150
33
-0.606815
62
0
0
3DFACE
8
GEM
10
0.168519
20
-0.281337
30
-0.353255
11
0.168497
21
-0.281330
31
-0.353266
12
0.112261
22
-0.000150
32
-0.606815
13
0.112261
23
-0.000150
33
-0.606815
62
0
0
3DFACE
8
GEM
10
0.168519
20
-0.281337
30
-0.353255
11
0.112261
21
-0.000150
31
-0.606815
12
0.112261
22
-0.000000
32
-0.606945
13
0.112261
23
-0.000000
33
-0.606945
62
0
0
3DFACE
8
GEM
10
0.168519
20
-0.281337
30
-0.353255
11
0.112261
21
-0.000000
31
-0.606945
12
0.208808
22
-0.000000
32
-0.590290
13
0.208808
23
-0.000000
33
-0.590290
62
0
0
3DFACE
8
GEM
10
0.055612
20
0.296035
30
-0.353288
11
0.056608
21
0.295606
31
-0.353664
12
0.056616
22
0.293028
32
-0.355928
13
0.056616
23
0.293028
33
-0.355928
62
0
0
3DFACE
8
GEM
10
0.055612
20
0.296035
30
-0.353288
11
0.056616
21
0.293028
31
-0.355928
12
0.000942
22
-0.000000
32
-0.613274
13
0.000942
23
-0.000000
33
-0.613274
62
0
0
3DFACE
8
GEM
10
0.055612
20
0.296035
30
-0.353288
11
0.000942
21
-0.000000
31
-0.613274
12
-0.000942
22
-0.000000
32
-0.613274
13
-0.000942
23
-0.000000
33
-0.613274
62
0
0
3DFACE
8
GEM
10
0.055612
20
0.296035
30
-0.353288
11
-0.000942
21
-0.000000
31
-0.613274
12
-0.056616
22
0.293028
32
-0.355928
13
-0.056616
23
0.293028
33
-0.355928
62
0
0
3DFACE
8
GEM
10
0.055612
20
0.296035
30
-0.353288
11
-0.056616
21
0.293028
31
-0.355928
12
-0.056608
22
0.295606
32
-0.353664
13
-0.056608
23
0.295606
33
-0.353664
62
0
0
3DFACE
8
GEM
10
0.055612
20
0.296035
30
-0.353288
11
-0.056608
21
0.295606
31
-0.353664
12
-0.055612
22
0.296035
32
-0.353288
13
-0.055612
23
0.296035
33
-0.353288
62
0
0
3DFACE
8
GEM
10
0.056608
20
-0.295606
30
-0.353664
11
0.055612
21
-0.296035
31
-0.353288
12
-0.055612
22
-0.296035
32
-0.353288
13
-0.055612
23
-0.296035
33
-0.353288
62
0
0
3DFACE
8
GEM
10
0.056608
20
-0.295606
30
-0.353664
11
-0.055612
21
-0.296035
31
-0.353288
12
-0.056608
22
-0.295606
32
-0.353664
13
-0.056608
23
-0.295606
33
-0.353664
62
0
0
3DFACE
8
GEM
10
0.056608
20
-0.295606
30
-0.353664
11
-0.056608
21
-0.295606
31
-0.353664
12
-0.056616
22
-0.293028
32
-0.355928
13
-0.056616
23
-0.293028
33
-0.355928
62
0
0
3DFACE
8
GEM
10
0.056608
20
-0.295606
30
-0.353664
11
-0.056616
21
-0.293028
31
-0.355928
12
-0.000942
22
-0.000000
32
-0.613274
13
-0.000942
23
-0.000000
33
-0.613274
62
0
0
3DFACE
8
GEM
10
0.056608
20
-0.295606
30
-0.353664
11
-0.000942
21
-0.000000
31
-0.613274
12
0.000942
22
-0.000000
32
-0.613274
13
0.000942
23
-0.000000
33
-0.613274
62
0
0
3DFACE
8
GEM
10
0.056608
20
-0.295606
30
-0.353664
11
0.000942
21
-0.000000
31
-0.613274
12
0.056616
22
-0.293028
32
-0.355928
13
0.056616
23
-0.293028
33
-0.355928
62
0
0
3DFACE
8
GEM
10
0.056616
20
0.293028
30
-0.355928
11
0.112261
21
0.000150
31
-0.606815
12
0.112261
22
-0.000000
32
-0.606945
13
0.112261
23
-0.000000
33
-0.606945
62
0
0
3DFACE
8
GEM
10
0.056616
20
0.293028
30
-0.355928
11
0.112261
21
-0.000000
31
-0.606945
12
0.000942
22
-0.000000
32
-0.613274
13
0.000942
23
-0.000000
33
-0.613274
62
0
0
3DFACE
8
GEM
10
0.112261
20
-0.000150
30
-0.606815
11
0.056616
21
-0.293028
31
-0.355928
12
0.000942
22
-0.000000
32
-0.613274
13
0.000942
23
-0.000000
33
-0.613274
62
0
0
3DFACE
8
GEM
10
0.112261
20
-0.000150
30
-0.606815
11
0.000942
21
-0.000000
31
-0.613274
12
0.112261
22
-0.000000
32
-0.606945
13
0.112261
23
-0.000000
33
-0.606945
62
0
0
3DFACE
8
GEM
10
-0.056616
20
-0.293028
30
-0.355928
11
-0.112261
21
-0.000150
31
-0.606815
12
-0.112261
22
-0.000000
32
-0.606945
13
-0.112261
23
-0.000000
33
-0.606945
62
0
0
3DFACE
8
GEM
10
-0.056616
20
-0.293028
30
-0.355928
11
-0.112261
21
-0.000000
31
-0.606945
12
-0.000942
22
-0.000000
32
-0.613274
13
-0.000942
23
-0.000000
33
-0.613274
62
0
0
3DFACE
8
GEM
10
-0.112261
20
0.000150
30
-0.606815
11
-0.056616
21
0.293028
31
-0.355928
12
-0.000942
22
-0.000000
32
-0.613274
13
-0.000942
23
-0.000000
33
-0.613274
62
0
0
3DFACE
8
GEM
10
-0.112261
20
0.000150
30
-0.606815
11
-0.000942
21
-0.000000
31
-0.613274
12
-0.112261
22
-0.000000
32
-0.606945
13
-0.112261
23
-0.000000
33
-0.606945
62
0
0
3DFACE
8
GEM
10
0.325415
20
0.674526
30
0.085232
11
-0.325415
21
0.674526
31
0.085232
12
-0.325141
22
0.674075
32
0.085659
13
-0.325141
23
0.674075
33
0.085659
62
0
0
3DFACE
8
GEM
10
0.325415
20
0.674526
30
0.085232
11
-0.325141
21
0.674075
31
0.085659
12
-0.126895
22
0.534005
32
0.218275
13
-0.126895
23
0.534005
33
0.218275
62
0
0
3DFACE
8
GEM
10
0.325415
20
0.674526
30
0.085232
11
-0.126895
21
0.534005
31
0.218275
12
-0.126813
22
0.533981
32
0.218297
13
-0.126813
23
0.533981
33
0.218297
62
0
0
3DFACE
8
GEM
10
0.325415
20
0.674526
30
0.085232
11
-0.126813
21
0.533981
31
0.218297
12
0.126813
22
0.533981
32
0.218297
13
0.126813
23
0.533981
33
0.218297
62
0
0
3DFACE
8
GEM
10
0.325415
20
0.674526
30
0.085232
11
0.126813
21
0.533981
31
0.218297
12
0.126895
22
0.534005
32
0.218275
13
0.126895
23
0.534005
33
0.218275
62
0
0
3DFACE
8
GEM
10
0.325415
20
0.674526
30
0.085232
11
0.126895
21
0.534005
31
0.218275
12
0.325141
22
0.674075
32
0.085659
13
0.325141
23
0.674075
33
0.085659
62
0
0
3DFACE
8
GEM
10
-0.325415
20
-0.674526
30
0.085232
11
0.325415
21
-0.674526
31
0.085232
12
0.325141
22
-0.674075
32
0.085659
13
0.325141
23
-0.674075
33
0.085659
62
0
0
3DFACE
8
GEM
10
-0.325415
20
-0.674526
30
0.085232
11
0.325141
21
-0.674075
31
0.085659
12
0.126895
22
-0.534005
32
0.218275
13
0.126895
23
-0.534005
33
0.218275
62
0
0
3DFACE
8
GEM
10
-0.325415
20
-0.674526
30
0.085232
11
0.126895
21
-0.534005
31
0.218275
12
0.126813
22
-0.533981
32
0.218297
13
0.126813
23
-0.533981
33
0.218297
62
0
0
3DFACE
8
GEM
10
-0.325415
20
-0.674526
30
0.085232
11
0.126813
21
-0.533981
31
0.218297
12
-0.126813
22
-0.533981
32
0.218297
13
-0.126813
23
-0.533981
33
0.218297
62
0
0
3DFACE
8
GEM
10
-0.325415
20
-0.674526
30
0.085232
11
-0.126813
21
-0.533981
31
0.218297
12
-0.126895
22
-0.534005
32
0.218275
13
-0.126895
23
-0.534005
33
0.218275
62
0
0
3DFACE
8
GEM
10
-0.325415
20
-0.674526
30
0.085232
11
-0.126895
21
-0.534005
31
0.218275
12
-0.325141
22
-0.674075
32
0.085659
13
-0.325141
23
-0.674075
33
0.085659
62
0
0
3DFACE
8
GEM
10
0.999850
20
0.000260
30
0.085238
11
0.837514
21
0.281435
31
0.085238
12
0.836553
22
0.280401
32
0.086429
13
0.836553
23
0.280401
33
0.086429
62
0
0
3DFACE
8
GEM
10
0.999850
20
0.000260
30
0.085238
11
0.836553
21
0.280401
31
0.086429
12
0.769451
22
0.109535
32
0.213284
13
0.769451
23
0.109535
33
0.213284
62
0
0
3DFACE
8
GEM
10
0.999850
20
0.000260
30
0.085238
11
0.769451
21
0.109535
31
0.213284
12
0.769469
22
0.108297
32
0.213817
13
0.769469
23
0.108297
33
0.213817
62
0
0
3DFACE
8
GEM
10
0.837514
20
-0.281435
30
0.085238
11
0.999850
21
-0.000260
31
0.085238
12
0.769469
22
-0.108297
32
0.213817
13
0.769469
23
-0.108297
33
0.213817
62
0
0
3DFACE
8
GEM
10
0.837514
20
-0.281435
30
0.085238
11
0.769469
21
-0.108297
31
0.213817
12
0.769451
22
-0.109535
32
0.213284
13
0.769451
23
-0.109535
33
0.213284
62
0
0
3DFACE
8
GEM
10
0.837514
20
-0.281435
30
0.085238
11
0.769451
21
-0.109535
31
0.213284
12
0.836553
22
-0.280401
32
0.086429
13
0.836553
23
-0.280401
33
0.086429
62
0
0
3DFACE
8
GEM
10
-0.999850
20
-0.000260
30
0.085238
11
-0.837514
21
-0.281435
31
0.085238
12
-0.836553
22
-0.280401
32
0.086429
13
-0.836553
23
-0.280401
33
0.086429
62
0
0
3DFACE
8
GEM
10
-0.999850
20
-0.000260
30
0.085238
11
-0.836553
21
-0.280401
31
0.086429
12
-0.769451
22
-0.109535
32
0.213284
13
-0.769451
23
-0.109535
33
0.213284
62
0
0
3DFACE
8
GEM
10
-0.999850
20
-0.000260
30
0.085238
11
-0.769451
21
-0.109535
31
0.213284
12
-0.769469
22
-0.108297
32
0.213817
13
-0.769469
23
-0.108297
33
0.213817
62
0
0
3DFACE
8
GEM
10
-0.837514
20
0.281435
30
0.085238
11
-0.999850
21
0.000260
31
0.085238
12
-0.769469
22
0.108297
32
0.213817
13
-0.769469
23
0.108297
33
0.213817
62
0
0
3DFACE
8
GEM
10
-0.837514
20
0.281435
30
0.085238
11
-0.769469
21
0.108297
31
0.213817
12
-0.769451
22
0.109535
32
0.213284
13
-0.769451
23
0.109535
33
0.213284
62
0
0
3DFACE
8
GEM
10
-0.837514
20
0.281435
30
0.085238
11
-0.769451
21
0.109535
31
0.213284
12
-0.836553
22
0.280401
32
0.086429
13
-0.836553
23
0.280401
33
0.086429
62
0
0
3DFACE
8
GEM
10
0.607389
20
0.511746
30
0.085126
11
0.607019
21
0.511960
31
0.085220
12
0.606882
22
0.511706
32
0.085453
13
0.606882
23
0.511706
33
0.085453
62
0
0
3DFACE
8
GEM
10
0.607389
20
0.511746
30
0.085126
11
0.606882
21
0.511706
31
0.085453
12
0.576227
22
0.321829
32
0.217255
13
0.576227
23
0.321829
33
0.217255
62
0
0
3DFACE
8
GEM
10
0.607389
20
0.511746
30
0.085126
11
0.576227
21
0.321829
31
0.217255
12
0.576579
22
0.320019
32
0.218127
13
0.576579
23
0.320019
33
0.218127
62
0
0
3DFACE
8
GEM
10
0.607389
20
0.511746
30
0.085126
11
0.576579
21
0.320019
31
0.218127
12
0.836553
22
0.280401
32
0.086429
13
0.836553
23
0.280401
33
0.086429
62
0
0
3DFACE
8
GEM
10
0.607389
20
0.511746
30
0.085126
11
0.836553
21
0.280401
31
0.086429
12
0.837514
22
0.281435
32
0.085238
13
0.837514
23
0.281435
33
0.085238
62
0
0
3DFACE
8
GEM
10
0.607389
20
0.511746
30
0.085126
11
0.837514
21
0.281435
31
0.085238
12
0.837258
22
0.281877
32
0.085126
13
0.837258
23
0.281877
33
0.085126
62
0
0
3DFACE
8
GEM
10
0.607019
20
-0.511960
30
0.085220
11
0.607389
21
-0.511746
31
0.085126
12
0.837258
22
-0.281877
32
0.085126
13
0.837258
23
-0.281877
33
0.085126
62
0
0
3DFACE
8
GEM
10
0.607019
20
-0.511960
30
0.085220
11
0.837258
21
-0.281877
31
0.085126
12
0.837514
22
-0.281435
32
0.085238
13
0.837514
23
-0.281435
33
0.085238
62
0
0
3DFACE
8
GEM
10
0.607019
20
-0.511960
30
0.085220
11
0.837514
21
-0.281435
31
0.085238
12
0.836553
22
-0.280401
32
0.086429
13
0.836553
23
-0.280401
33
0.086429
62
0
0
3DFACE
8
GEM
10
0.607019
20
-0.511960
30
0.085220
11
0.836553
21
-0.280401
31
0.086429
12
0.576579
22
-0.320019
32
0.218127
13
0.576579
23
-0.320019
33
0.218127
62
0
0
3DFACE
8
GEM
10
0.607019
20
-0.511960
30
0.085220
11
0.576579
21
-0.320019
31
0.218127
12
0.576227
22
-0.321829
32
0.217255
13
0.576227
23
-0.321829
33
0.217255
62
0
0
3DFACE
8
GEM
10
0.607019
20
-0.511960
30
0.085220
11
0.576227
21
-0.321829
31
0.217255
12
0.606882
22
-0.511706
32
0.085453
13
0.606882
23
-0.511706
33
0.085453
62
0
0
3DFACE
8
GEM
10
-0.607389
20
-0.511746
30
0.085126
11
-0.607019
21
-0.511960
31
0.085220
12
-0.606882
22
-0.511706
32
0.085453
13
-0.606882
23
-0.511706
33
0.085453
62
0
0
3DFACE
8
GEM
10
-0.607389
20
-0.511746
30
0.085126
11
-0.606882
21
-0.511706
31
0.085453
12
-0.576227
22
-0.321829
32
0.217255
13
-0.576227
23
-0.321829
33
0.217255
62
0
0
3DFACE
8
GEM
10
-0.607389
20
-0.511746
30
0.085126
11
-0.576227
21
-0.321829
31
0.217255
12
-0.576579
22
-0.320019
32
0.218127
13
-0.576579
23
-0.320019
33
0.218127
62
0
0
3DFACE
8
GEM
10
-0.607389
20
-0.511746
30
0.085126
11
-0.576579
21
-0.320019
31
0.218127
12
-0.836553
22
-0.280401
32
0.086429
13
-0.836553
23
-0.280401
33
0.086429
62
0
0
3DFACE
8
GEM
10
-0.607389
20
-0.511746
30
0.085126
11
-0.836553
21
-0.280401
31
0.086429
12
-0.837514
22
-0.281435
32
0.085238
13
-0.837514
23
-0.281435
33
0.085238
62
0
0
3DFACE
8
GEM
10
-0.607389
20
-0.511746
30
0.085126
11
-0.837514
21
-0.281435
31
0.085238
12
-0.837258
22
-0.281877
32
0.085126
13
-0.837258
23
-0.281877
33
0.085126
62
0
0
3DFACE
8
GEM
10
-0.607019
20
0.511960
30
0.085220
11
-0.607389
21
0.511746
31
0.085126
12
-0.837258
22
0.281877
32
0.085126
13
-0.837258
23
0.281877
33
0.085126
62
0
0
3DFACE
8
GEM
10
-0.607019
20
0.511960
30
0.085220
11
-0.837258
21
0.281877
31
0.085126
12
-0.837514
22
0.281435
32
0.085238
13
-0.837514
23
0.281435
33
0.085238
62
0
0
3DFACE
8
GEM
10
-0.607019
20
0.511960
30
0.085220
11
-0.837514
21
0.281435
31
0.085238
12
-0.836553
22
0.280401
32
0.086429
13
-0.836553
23
0.280401
33
0.086429
62
0
0
3DFACE
8
GEM
10
-0.607019
20
0.511960
30
0.085220
11
-0.836553
21
0.280401
31
0.086429
12
-0.576579
22
0.320019
32
0.218127
13
-0.576579
23
0.320019
33
0.218127
62
0
0
3DFACE
8
GEM
10
-0.607019
20
0.511960
30
0.085220
11
-0.576579
21
0.320019
31
0.218127
12
-0.576227
22
0.321829
32
0.217255
13
-0.576227
23
0.321829
33
0.217255
62
0
0
3DFACE
8
GEM
10
-0.607019
20
0.511960
30
0.085220
11
-0.576227
21
0.321829
31
0.217255
12
-0.606882
22
0.511706
32
0.085453
13
-0.606882
23
0.511706
33
0.085453
62
0
0
3DFACE
8
GEM
10
0.325446
20
0.674526
30
0.085220
11
0.325415
21
0.674526
31
0.085232
12
0.325141
22
0.674075
32
0.085659
13
0.325141
23
0.674075
33
0.085659
62
0
0
3DFACE
8
GEM
10
0.325446
20
0.674526
30
0.085220
11
0.325141
21
0.674075
31
0.085659
12
0.339256
22
0.463563
32
0.227569
13
0.339256
23
0.463563
33
0.227569
62
0
0
3DFACE
8
GEM
10
0.325446
20
0.674526
30
0.085220
11
0.339256
21
0.463563
31
0.227569
12
0.339937
22
0.462476
32
0.228056
13
0.339937
23
0.462476
33
0.228056
62
0
0
3DFACE
8
GEM
10
0.325446
20
0.674526
30
0.085220
11
0.339937
21
0.462476
31
0.228056
12
0.606882
22
0.511706
32
0.085453
13
0.606882
23
0.511706
33
0.085453
62
0
0
3DFACE
8
GEM
10
0.325446
20
0.674526
30
0.085220
11
0.606882
21
0.511706
31
0.085453
12
0.607019
22
0.511960
32
0.085220
13
0.607019
23
0.511960
33
0.085220
62
0
0
3DFACE
8
GEM
10
0.325415
20
-0.674526
30
0.085232
11
0.325446
21
-0.674526
31
0.085220
12
0.607019
22
-0.511960
32
0.085220
13
0.607019
23
-0.511960
33
0.085220
62
0
0
3DFACE
8
GEM
10
0.325415
20
-0.674526
30
0.085232
11
0.607019
21
-0.511960
31
0.085220
12
0.606882
22
-0.511706
32
0.085453
13
0.606882
23
-0.511706
33
0.085453
62
0
0
3DFACE
8
GEM
10
0.325415
20
-0.674526
30
0.085232
11
0.606882
21
-0.511706
31
0.085453
12
0.339937
22
-0.462476
32
0.228056
13
0.339937
23
-0.462476
33
0.228056
62
0
0
3DFACE
8
GEM
10
0.325415
20
-0.674526
30
0.085232
11
0.339937
21
-0.462476
31
0.228056
12
0.339256
22
-0.463563
32
0.227569
13
0.339256
23
-0.463563
33
0.227569
62
0
0
3DFACE
8
GEM
10
0.325415
20
-0.674526
30
0.085232
11
0.339256
21
-0.463563
31
0.227569
12
0.325141
22
-0.674075
32
0.085659
13
0.325141
23
-0.674075
33
0.085659
62
0
0
3DFACE
8
GEM
10
-0.325446
20
-0.674526
30
0.085220
11
-0.325415
21
-0.674526
31
0.085232
12
-0.325141
22
-0.674075
32
0.085659
13
-0.325141
23
-0.674075
33
0.085659
62
0
0
3DFACE
8
GEM
10
-0.325446
20
-0.674526
30
0.085220
11
-0.325141
21
-0.674075
31
0.085659
12
-0.339256
22
-0.463563
32
0.227569
13
-0.339256
23
-0.463563
33
0.227569
62
0
0
3DFACE
8
GEM
10
-0.325446
20
-0.674526
30
0.085220
11
-0.339256
21
-0.463563
31
0.227569
12
-0.339937
22
-0.462476
32
0.228056
13
-0.339937
23
-0.462476
33
0.228056
62
0
0
3DFACE
8
GEM
10
-0.325446
20
-0.674526
30
0.085220
11
-0.339937
21
-0.462476
31
0.228056
12
-0.606882
22
-0.511706
32
0.085453
13
-0.606882
23
-0.511706
33
0.085453
62
0
0
3DFACE
8
GEM
10
-0.325446
20
-0.674526
30
0.085220
11
-0.606882
21
-0.511706
31
0.085453
12
-0.607019
22
-0.511960
32
0.085220
13
-0.607019
23
-0.511960
33
0.085220
62
0
0
3DFACE
8
GEM
10
-0.325415
20
0.674526
30
0.085232
11
-0.325446
21
0.674526
31
0.085220
12
-0.607019
22
0.511960
32
0.085220
13
-0.607019
23
0.511960
33
0.085220
62
0
0
3DFACE
8
GEM
10
-0.325415
20
0.674526
30
0.085232
11
-0.607019
21
0.511960
31
0.085220
12
-0.606882
22
0.511706
32
0.085453
13
-0.606882
23
0.511706
33
0.085453
62
0
0
3DFACE
8
GEM
10
-0.325415
20
0.674526
30
0.085232
11
-0.606882
21
0.511706
31
0.085453
12
-0.339937
22
0.462476
32
0.228056
13
-0.339937
23
0.462476
33
0.228056
62
0
0
3DFACE
8
GEM
10
-0.325415
20
0.674526
30
0.085232
11
-0.339937
21
0.462476
31
0.228056
12
-0.339256
22
0.463563
32
0.227569
13
-0.339256
23
0.463563
33
0.227569
62
0
0
3DFACE
8
GEM
10
-0.325415
20
0.674526
30
0.085232
11
-0.339256
21
0.463563
31
0.227569
12
-0.325141
22
0.674075
32
0.085659
13
-0.325141
23
0.674075
33
0.085659
62
0
0
3DFACE
8
GEM
10
0.769451
20
0.109535
30
0.213284
11
0.836553
21
0.280401
31
0.086429
12
0.576579
22
0.320019
32
0.218127
13
0.576579
23
0.320019
33
0.218127
62
0
0
3DFACE
8
GEM
10
0.769451
20
0.109535
30
0.213284
11
0.576579
21
0.320019
31
0.218127
12
0.517433
22
0.152394
32
0.338668
13
0.517433
23
0.152394
33
0.338668
62
0
0
3DFACE
8
GEM
10
0.836553
20
-0.280401
30
0.086429
11
0.769451
21
-0.109535
31
0.213284
12
0.517433
22
-0.152394
32
0.338668
13
0.517433
23
-0.152394
33
0.338668
62
0
0
3DFACE
8
GEM
10
0.836553
20
-0.280401
30
0.086429
11
0.517433
21
-0.152394
31
0.338668
12
0.576579
22
-0.320019
32
0.218127
13
0.576579
23
-0.320019
33
0.218127
62
0
0
3DFACE
8
GEM
10
-0.769451
20
-0.109535
30
0.213284
11
-0.836553
21
-0.280401
31
0.086429
12
-0.576579
22
-0.320019
32
0.218127
13
-0.576579
23
-0.320019
33
0.218127
62
0
0
3DFACE
8
GEM
10
-0.769451
20
-0.109535
30
0.213284
11
-0.576579
21
-0.320019
31
0.218127
12
-0.517433
22
-0.152394
32
0.338668
13
-0.517433
23
-0.152394
33
0.338668
62
0
0
3DFACE
8
GEM
10
-0.836553
20
0.280401
30
0.086429
11
-0.769451
21
0.109535
31
0.213284
12
-0.517433
22
0.152394
32
0.338668
13
-0.517433
23
0.152394
33
0.338668
62
0
0
3DFACE
8
GEM
10
-0.836553
20
0.280401
30
0.086429
11
-0.517433
21
0.152394
31
0.338668
12
-0.576579
22
0.320019
32
0.218127
13
-0.576579
23
0.320019
33
0.218127
62
0
0
3DFACE
8
GEM
10
0.576227
20
0.321829
30
0.217255
11
0.606882
21
0.511706
31
0.085453
12
0.339937
22
0.462476
32
0.228056
13
0.339937
23
0.462476
33
0.228056
62
0
0
3DFACE
8
GEM
10
0.576227
20
0.321829
30
0.217255
11
0.339937
21
0.462476
31
0.228056
12
0.365393
22
0.267706
32
0.339433
13
0.365393
23
0.267706
33
0.339433
62
0
0
3DFACE
8
GEM
10
0.606882
20
-0.511706
30
0.085453
11
0.576227
21
-0.321829
31
0.217255
12
0.365393
22
-0.267706
32
0.339433
13
0.365393
23
-0.267706
33
0.339433
62
0
0
3DFACE
8
GEM
10
0.606882
20
-0.511706
30
0.085453
11
0.365393
21
-0.267706
31
0.339433
12
0.339937
22
-0.462476
32
0.228056
13
0.339937
23
-0.462476
33
0.228056
62
0
0
3DFACE
8
GEM
10
-0.576227
20
-0.321829
30
0.217255
11
-0.606882
21
-0.511706
31
0.085453
12
-0.339937
22
-0.462476
32
0.228056
13
-0.339937
23
-0.462476
33
0.228056
62
0
0
3DFACE
8
GEM
10
-0.576227
20
-0.321829
30
0.217255
11
-0.339937
21
-0.462476
31
0.228056
12
-0.365393
22
-0.267706
32
0.339433
13
-0.365393
23
-0.267706
33
0.339433
62
0
0
3DFACE
8
GEM
10
-0.606882
20
0.511706
30
0.085453
11
-0.576227
21
0.321829
31
0.217255
12
-0.365393
22
0.267706
32
0.339433
13
-0.365393
23
0.267706
33
0.339433
62
0
0
3DFACE
8
GEM
10
-0.606882
20
0.511706
30
0.085453
11
-0.365393
21
0.267706
31
0.339433
12
-0.339937
22
0.462476
32
0.228056
13
-0.339937
23
0.462476
33
0.228056
62
0
0
3DFACE
8
GEM
10
1.000000
20
0.000000
30
0.085208
11
0.999850
21
0.000260
31
0.085238
12
0.769469
22
0.108297
32
0.213817
13
0.769469
23
0.108297
33
0.213817
62
0
0
3DFACE
8
GEM
10
1.000000
20
0.000000
30
0.085208
11
0.769469
21
0.108297
31
0.213817
12
0.632713
22
0.000000
32
0.339615
13
0.632713
23
0.000000
33
0.339615
62
0
0
3DFACE
8
GEM
10
0.999850
20
-0.000260
30
0.085238
11
1.000000
21
0.000000
31
0.085208
12
0.632713
22
0.000000
32
0.339615
13
0.632713
23
0.000000
33
0.339615
62
0
0
3DFACE
8
GEM
10
0.999850
20
-0.000260
30
0.085238
11
0.632713
21
0.000000
31
0.339615
12
0.769469
22
-0.108297
32
0.213817
13
0.769469
23
-0.108297
33
0.213817
62
0
0
3DFACE
8
GEM
10
-1.000000
20
-0.000000
30
0.085208
11
-0.999850
21
-0.000260
31
0.085238
12
-0.769469
22
-0.108297
32
0.213817
13
-0.769469
23
-0.108297
33
0.213817
62
0
0
3DFACE
8
GEM
10
-1.000000
20
-0.000000
30
0.085208
11
-0.769469
21
-0.108297
31
0.213817
12
-0.632713
22
-0.000000
32
0.339615
13
-0.632713
23
-0.000000
33
0.339615
62
0
0
3DFACE
8
GEM
10
-0.999850
20
0.000260
30
0.085238
11
-1.000000
21
-0.000000
31
0.085208
12
-0.632713
22
-0.000000
32
0.339615
13
-0.632713
23
-0.000000
33
0.339615
62
0
0
3DFACE
8
GEM
10
-0.999850
20
0.000260
30
0.085238
11
-0.632713
21
-0.000000
31
0.339615
12
-0.769469
22
0.108297
32
0.213817
13
-0.769469
23
0.108297
33
0.213817
62
0
0
3DFACE
8
GEM
10
0.769469
20
0.108297
30
0.213817
11
0.769451
21
0.109535
31
0.213284
12
0.517433
22
0.152394
32
0.338668
13
0.517433
23
0.152394
33
0.338668
62
0
0
3DFACE
8
GEM
10
0.769469
20
0.108297
30
0.213817
11
0.517433
21
0.152394
31
0.338668
12
0.516353
22
0.151220
32
0.339801
13
0.516353
23
0.151220
33
0.339801
62
0
0
3DFACE
8
GEM
10
0.769469
20
0.108297
30
0.213817
11
0.516353
21
0.151220
31
0.339801
12
0.632388
22
0.000000
32
0.339801
13
0.632388
23
0.000000
33
0.339801
62
0
0
3DFACE
8
GEM
10
0.769469
20
0.108297
30
0.213817
11
0.632388
21
0.000000
31
0.339801
12
0.632713
22
0.000000
32
0.339615
13
0.632713
23
0.000000
33
0.339615
62
0
0
3DFACE
8
GEM
10
0.769451
20
-0.109535
30
0.213284
11
0.769469
21
-0.108297
31
0.213817
12
0.632713
22
0.000000
32
0.339615
13
0.632713
23
0.000000
33
0.339615
62
0
0
3DFACE
8
GEM
10
0.769451
20
-0.109535
30
0.213284
11
0.632713
21
0.000000
31
0.339615
12
0.632388
22
0.000000
32
0.339801
13
0.632388
23
0.000000
33
0.339801
62
0
0
3DFACE
8
GEM
10
0.769451
20
-0.109535
30
0.213284
11
0.632388
21
0.000000
31
0.339801
12
0.516353
22
-0.151220
32
0.339801
13
0.516353
23
-0.151220
33
0.339801
62
0
0
3DFACE
8
GEM
10
0.769451
20
-0.109535
30
0.213284
11
0.516353
21
-0.151220
31
0.339801
12
0.517433
22
-0.152394
32
0.338668
13
0.517433
23
-0.152394
33
0.338668
62
0
0
3DFACE
8
GEM
10
-0.769469
20
-0.108297
30
0.213817
11
-0.769451
21
-0.109535
31
0.213284
12
-0.517433
22
-0.152394
32
0.338668
13
-0.517433
23
-0.152394
33
0.338668
62
0
0
3DFACE
8
GEM
10
-0.769469
20
-0.108297
30
0.213817
11
-0.517433
21
-0.152394
31
0.338668
12
-0.516353
22
-0.151220
32
0.339801
13
-0.516353
23
-0.151220
33
0.339801
62
0
0
3DFACE
8
GEM
10
-0.769469
20
-0.108297
30
0.213817
11
-0.516353
21
-0.151220
31
0.339801
12
-0.632388
22
-0.000000
32
0.339801
13
-0.632388
23
-0.000000
33
0.339801
62
0
0
3DFACE
8
GEM
10
-0.769469
20
-0.108297
30
0.213817
11
-0.632388
21
-0.000000
31
0.339801
12
-0.632713
22
-0.000000
32
0.339615
13
-0.632713
23
-0.000000
33
0.339615
62
0
0
3DFACE
8
GEM
10
-0.769451
20
0.109535
30
0.213284
11
-0.769469
21
0.108297
31
0.213817
12
-0.632713
22
-0.000000
32
0.339615
13
-0.632713
23
-0.000000
33
0.339615
62
0
0
3DFACE
8
GEM
10
-0.769451
20
0.109535
30
0.213284
11
-0.632713
21
-0.000000
31
0.339615
12
-0.632388
22
-0.000000
32
0.339801
13
-0.632388
23
-0.000000
33
0.339801
62
0
0
3DFACE
8
GEM
10
-0.769451
20
0.109535
30
0.213284
11
-0.632388
21
-0.000000
31
0.339801
12
-0.516353
22
0.151220
32
0.339801
13
-0.516353
23
0.151220
33
0.339801
62
0
0
3DFACE
8
GEM
10
-0.769451
20
0.109535
30
0.213284
11
-0.516353
21
0.151220
31
0.339801
12
-0.517433
22
0.152394
32
0.338668
13
-0.517433
23
0.152394
33
0.338668
62
0
0
3DFACE
8
GEM
10
0.126813
20
0.533981
30
0.218297
11
-0.126813
21
0.533981
31
0.218297
12
-0.000361
22
0.365106
32
0.339801
13
-0.000361
23
0.365106
33
0.339801
62
0
0
3DFACE
8
GEM
10
0.126813
20
0.533981
30
0.218297
11
-0.000361
21
0.365106
31
0.339801
12
0.000361
22
0.365106
32
0.339801
13
0.000361
23
0.365106
33
0.339801
62
0
0
3DFACE
8
GEM
10
-0.126813
20
-0.533981
30
0.218297
11
0.126813
21
-0.533981
31
0.218297
12
0.000361
22
-0.365106
32
0.339801
13
0.000361
23
-0.365106
33
0.339801
62
0
0
3DFACE
8
GEM
10
-0.126813
20
-0.533981
30
0.218297
11
0.000361
21
-0.365106
31
0.339801
12
-0.000361
22
-0.365106
32
0.339801
13
-0.000361
23
-0.365106
33
0.339801
62
0
0
3DFACE
8
GEM
10
0.576579
20
0.320019
30
0.218127
11
0.576227
21
0.321829
31
0.217255
12
0.365393
22
0.267706
32
0.339433
13
0.365393
23
0.267706
33
0.339433
62
0
0
3DFACE
8
GEM
10
0.576579
20
0.320019
30
0.218127
11
0.365393
21
0.267706
31
0.339433
12
0.365275
22
0.267146
32
0.339801
13
0.365275
23
0.267146
33
0.339801
62
0
0
3DFACE
8
GEM
10
0.576579
20
0.320019
30
0.218127
11
0.365275
21
0.267146
31
0.339801
12
0.516353
22
0.151220
32
0.339801
13
0.516353
23
0.151220
33
0.339801
62
0
0
3DFACE
8
GEM
10
0.576579
20
0.320019
30
0.218127
11
0.516353
21
0.151220
31
0.339801
12
0.517433
22
0.152394
32
0.338668
13
0.517433
23
0.152394
33
0.338668
62
0
0
3DFACE
8
GEM
10
0.576227
20
-0.321829
30
0.217255
11
0.576579
21
-0.320019
31
0.218127
12
0.517433
22
-0.152394
32
0.338668
13
0.517433
23
-0.152394
33
0.338668
62
0
0
3DFACE
8
GEM
10
0.576227
20
-0.321829
30
0.217255
11
0.517433
21
-0.152394
31
0.338668
12
0.516353
22
-0.151220
32
0.339801
13
0.516353
23
-0.151220
33
0.339801
62
0
0
3DFACE
8
GEM
10
0.576227
20
-0.321829
30
0.217255
11
0.516353
21
-0.151220
31
0.339801
12
0.365275
22
-0.267146
32
0.339801
13
0.365275
23
-0.267146
33
0.339801
62
0
0
3DFACE
8
GEM
10
0.576227
20
-0.321829
30
0.217255
11
0.365275
21
-0.267146
31
0.339801
12
0.365393
22
-0.267706
32
0.339433
13
0.365393
23
-0.267706
33
0.339433
62
0
0
3DFACE
8
GEM
10
-0.576579
20
-0.320019
30
0.218127
11
-0.576227
21
-0.321829
31
0.217255
12
-0.365393
22
-0.267706
32
0.339433
13
-0.365393
23
-0.267706
33
0.339433
62
0
0
3DFACE
8
GEM
10
-0.576579
20
-0.320019
30
0.218127
11
-0.365393
21
-0.267706
31
0.339433
12
-0.365275
22
-0.267146
32
0.339801
13
-0.365275
23
-0.267146
33
0.339801
62
0
0
3DFACE
8
GEM
10
-0.576579
20
-0.320019
30
0.218127
11
-0.365275
21
-0.267146
31
0.339801
12
-0.516353
22
-0.151220
32
0.339801
13
-0.516353
23
-0.151220
33
0.339801
62
0
0
3DFACE
8
GEM
10
-0.576579
20
-0.320019
30
0.218127
11
-0.516353
21
-0.151220
31
0.339801
12
-0.517433
22
-0.152394
32
0.338668
13
-0.517433
23
-0.152394
33
0.338668
62
0
0
3DFACE
8
GEM
10
-0.576227
20
0.321829
30
0.217255
11
-0.576579
21
0.320019
31
0.218127
12
-0.517433
22
0.152394
32
0.338668
13
-0.517433
23
0.152394
33
0.338668
62
0
0
3DFACE
8
GEM
10
-0.576227
20
0.321829
30
0.217255
11
-0.517433
21
0.152394
31
0.338668
12
-0.516353
22
0.151220
32
0.339801
13
-0.516353
23
0.151220
33
0.339801
62
0
0
3DFACE
8
GEM
10
-0.576227
20
0.321829
30
0.217255
11
-0.516353
21
0.151220
31
0.339801
12
-0.365275
22
0.267146
32
0.339801
13
-0.365275
23
0.267146
33
0.339801
62
0
0
3DFACE
8
GEM
10
-0.576227
20
0.321829
30
0.217255
11
-0.365275
21
0.267146
31
0.339801
12
-0.365393
22
0.267706
32
0.339433
13
-0.365393
23
0.267706
33
0.339433
62
0
0
3DFACE
8
GEM
10
-0.325141
20
-0.674075
30
0.085659
11
-0.126895
21
-0.534005
31
0.218275
12
-0.188984
22
-0.341542
32
0.338971
13
-0.188984
23
-0.341542
33
0.338971
62
0
0
3DFACE
8
GEM
10
-0.325141
20
-0.674075
30
0.085659
11
-0.188984
21
-0.341542
31
0.338971
12
-0.339256
22
-0.463563
32
0.227569
13
-0.339256
23
-0.463563
33
0.227569
62
0
0
3DFACE
8
GEM
10
-0.126895
20
0.534005
30
0.218275
11
-0.325141
21
0.674075
31
0.085659
12
-0.339256
22
0.463563
32
0.227569
13
-0.339256
23
0.463563
33
0.227569
62
0
0
3DFACE
8
GEM
10
-0.126895
20
0.534005
30
0.218275
11
-0.339256
21
0.463563
31
0.227569
12
-0.188984
22
0.341542
32
0.338971
13
-0.188984
23
0.341542
33
0.338971
62
0
0
3DFACE
8
GEM
10
0.325141
20
0.674075
30
0.085659
11
0.126895
21
0.534005
31
0.218275
12
0.188984
22
0.341542
32
0.338971
13
0.188984
23
0.341542
33
0.338971
62
0
0
3DFACE
8
GEM
10
0.325141
20
0.674075
30
0.085659
11
0.188984
21
0.341542
31
0.338971
12
0.339256
22
0.463563
32
0.227569
13
0.339256
23
0.463563
33
0.227569
62
0
0
3DFACE
8
GEM
10
0.126895
20
-0.534005
30
0.218275
11
0.325141
21
-0.674075
31
0.085659
12
0.339256
22
-0.463563
32
0.227569
13
0.339256
23
-0.463563
33
0.227569
62
0
0
3DFACE
8
GEM
10
0.126895
20
-0.534005
30
0.218275
11
0.339256
21
-0.463563
31
0.227569
12
0.188984
22
-0.341542
32
0.338971
13
0.188984
23
-0.341542
33
0.338971
62
0
0
3DFACE
8
GEM
10
0.126895
20
0.534005
30
0.218275
11
0.126813
21
0.533981
31
0.218297
12
0.000361
22
0.365106
32
0.339801
13
0.000361
23
0.365106
33
0.339801
62
0
0
3DFACE
8
GEM
10
0.126895
20
0.534005
30
0.218275
11
0.000361
21
0.365106
31
0.339801
12
0.188611
22
0.340323
32
0.339801
13
0.188611
23
0.340323
33
0.339801
62
0
0
3DFACE
8
GEM
10
0.126895
20
0.534005
30
0.218275
11
0.188611
21
0.340323
31
0.339801
12
0.188984
22
0.341542
32
0.338971
13
0.188984
23
0.341542
33
0.338971
62
0
0
3DFACE
8
GEM
10
0.126813
20
-0.533981
30
0.218297
11
0.126895
21
-0.534005
31
0.218275
12
0.188984
22
-0.341542
32
0.338971
13
0.188984
23
-0.341542
33
0.338971
62
0
0
3DFACE
8
GEM
10
0.126813
20
-0.533981
30
0.218297
11
0.188984
21
-0.341542
31
0.338971
12
0.188611
22
-0.340323
32
0.339801
13
0.188611
23
-0.340323
33
0.339801
62
0
0
3DFACE
8
GEM
10
0.126813
20
-0.533981
30
0.218297
11
0.188611
21
-0.340323
31
0.339801
12
0.000361
22
-0.365106
32
0.339801
13
0.000361
23
-0.365106
33
0.339801
62
0
0
3DFACE
8
GEM
10
-0.126895
20
-0.534005
30
0.218275
11
-0.126813
21
-0.533981
31
0.218297
12
-0.000361
22
-0.365106
32
0.339801
13
-0.000361
23
-0.365106
33
0.339801
62
0
0
3DFACE
8
GEM
10
-0.126895
20
-0.534005
30
0.218275
11
-0.000361
21
-0.365106
31
0.339801
12
-0.188611
22
-0.340323
32
0.339801
13
-0.188611
23
-0.340323
33
0.339801
62
0
0
3DFACE
8
GEM
10
-0.126895
20
-0.534005
30
0.218275
11
-0.188611
21
-0.340323
31
0.339801
12
-0.188984
22
-0.341542
32
0.338971
13
-0.188984
23
-0.341542
33
0.338971
62
0
0
3DFACE
8
GEM
10
-0.126813
20
0.533981
30
0.218297
11
-0.126895
21
0.534005
31
0.218275
12
-0.188984
22
0.341542
32
0.338971
13
-0.188984
23
0.341542
33
0.338971
62
0
0
3DFACE
8
GEM
10
-0.126813
20
0.533981
30
0.218297
11
-0.188984
21
0.341542
31
0.338971
12
-0.188611
22
0.340323
32
0.339801
13
-0.188611
23
0.340323
33
0.339801
62
0
0
3DFACE
8
GEM
10
-0.126813
20
0.533981
30
0.218297
11
-0.188611
21
0.340323
31
0.339801
12
-0.000361
22
0.365106
32
0.339801
13
-0.000361
23
0.365106
33
0.339801
62
0
0
3DFACE
8
GEM
10
0.339937
20
0.462476
30
0.228056
11
0.339256
21
0.463563
31
0.227569
12
0.188984
22
0.341542
32
0.338971
13
0.188984
23
0.341542
33
0.338971
62
0
0
3DFACE
8
GEM
10
0.339937
20
0.462476
30
0.228056
11
0.188984
21
0.341542
31
0.338971
12
0.188611
22
0.340323
32
0.339801
13
0.188611
23
0.340323
33
0.339801
62
0
0
3DFACE
8
GEM
10
0.339937
20
0.462476
30
0.228056
11
0.188611
21
0.340323
31
0.339801
12
0.365275
22
0.267146
32
0.339801
13
0.365275
23
0.267146
33
0.339801
62
0
0
3DFACE
8
GEM
10
0.339937
20
0.462476
30
0.228056
11
0.365275
21
0.267146
31
0.339801
12
0.365393
22
0.267706
32
0.339433
13
0.365393
23
0.267706
33
0.339433
62
0
0
3DFACE
8
GEM
10
0.339256
20
-0.463563
30
0.227569
11
0.339937
21
-0.462476
31
0.228056
12
0.365393
22
-0.267706
32
0.339433
13
0.365393
23
-0.267706
33
0.339433
62
0
0
3DFACE
8
GEM
10
0.339256
20
-0.463563
30
0.227569
11
0.365393
21
-0.267706
31
0.339433
12
0.365275
22
-0.267146
32
0.339801
13
0.365275
23
-0.267146
33
0.339801
62
0
0
3DFACE
8
GEM
10
0.339256
20
-0.463563
30
0.227569
11
0.365275
21
-0.267146
31
0.339801
12
0.188611
22
-0.340323
32
0.339801
13
0.188611
23
-0.340323
33
0.339801
62
0
0
3DFACE
8
GEM
10
0.339256
20
-0.463563
30
0.227569
11
0.188611
21
-0.340323
31
0.339801
12
0.188984
22
-0.341542
32
0.338971
13
0.188984
23
-0.341542
33
0.338971
62
0
0
3DFACE
8
GEM
10
-0.339937
20
-0.462476
30
0.228056
11
-0.339256
21
-0.463563
31
0.227569
12
-0.188984
22
-0.341542
32
0.338971
13
-0.188984
23
-0.341542
33
0.338971
62
0
0
3DFACE
8
GEM
10
-0.339937
20
-0.462476
30
0.228056
11
-0.188984
21
-0.341542
31
0.338971
12
-0.188611
22
-0.340323
32
0.339801
13
-0.188611
23
-0.340323
33
0.339801
62
0
0
3DFACE
8
GEM
10
-0.339937
20
-0.462476
30
0.228056
11
-0.188611
21
-0.340323
31
0.339801
12
-0.365275
22
-0.267146
32
0.339801
13
-0.365275
23
-0.267146
33
0.339801
62
0
0
3DFACE
8
GEM
10
-0.339937
20
-0.462476
30
0.228056
11
-0.365275
21
-0.267146
31
0.339801
12
-0.365393
22
-0.267706
32
0.339433
13
-0.365393
23
-0.267706
33
0.339433
62
0
0
3DFACE
8
GEM
10
-0.339256
20
0.463563
30
0.227569
11
-0.339937
21
0.462476
31
0.228056
12
-0.365393
22
0.267706
32
0.339433
13
-0.365393
23
0.267706
33
0.339433
62
0
0
3DFACE
8
GEM
10
-0.339256
20
0.463563
30
0.227569
11
-0.365393
21
0.267706
31
0.339433
12
-0.365275
22
0.267146
32
0.339801
13
-0.365275
23
0.267146
33
0.339801
62
0
0
3DFACE
8
GEM
10
-0.339256
20
0.463563
30
0.227569
11
-0.365275
21
0.267146
31
0.339801
12
-0.188611
22
0.340323
32
0.339801
13
-0.188611
23
0.340323
33
0.339801
62
0
0
3DFACE
8
GEM
10
-0.339256
20
0.463563
30
0.227569
11
-0.188611
21
0.340323
31
0.339801
12
-0.188984
22
0.341542
32
0.338971
13
-0.188984
23
0.341542
33
0.338971
62
0
0
3DFACE
8
GEM
10
0.632388
20
0.000000
30
0.339801
11
0.516353
21
0.151220
31
0.339801
12
0.365275
22
0.267146
32
0.339801
13
0.365275
23
0.267146
33
0.339801
62
0
0
3DFACE
8
GEM
10
0.632388
20
0.000000
30
0.339801
11
0.365275
21
0.267146
31
0.339801
12
0.188611
22
0.340323
32
0.339801
13
0.188611
23
0.340323
33
0.339801
62
0
0
3DFACE
8
GEM
10
0.632388
20
0.000000
30
0.339801
11
0.188611
21
0.340323
31
0.339801
12
0.000361
22
0.365106
32
0.339801
13
0.000361
23
0.365106
33
0.339801
62
0
0
3DFACE
8
GEM
10
0.632388
20
0.000000
30
0.339801
11
0.000361
21
0.365106
31
0.339801
12
-0.000361
22
0.365106
32
0.339801
13
-0.000361
23
0.365106
33
0.339801
62
0
0
3DFACE
8
GEM
10
0.632388
20
0.000000
30
0.339801
11
-0.000361
21
0.365106
31
0.339801
12
-0.188611
22
0.340323
32
0.339801
13
-0.188611
23
0.340323
33
0.339801
62
0
0
3DFACE
8
GEM
10
0.632388
20
0.000000
30
0.339801
11
-0.188611
21
0.340323
31
0.339801
12
-0.365275
22
0.267146
32
0.339801
13
-0.365275
23
0.267146
33
0.339801
62
0
0
3DFACE
8
GEM
10
0.632388
20
0.000000
30
0.339801
11
-0.365275
21
0.267146
31
0.339801
12
-0.516353
22
0.151220
32
0.339801
13
-0.516353
23
0.151220
33
0.339801
62
0
0
3DFACE
8
GEM
10
0.632388
20
0.000000
30
0.339801
11
-0.516353
21
0.151220
31
0.339801
12
-0.632388
22
-0.000000
32
0.339801
13
-0.632388
23
-0.000000
33
0.339801
62
0
0
3DFACE
8
GEM
10
0.632388
20
0.000000
30
0.339801
11
-0.632388
21
-0.000000
31
0.339801
12
-0.516353
22
-0.151220
32
0.339801
13
-0.516353
23
-0.151220
33
0.339801
62
0
0
3DFACE
8
GEM
10
0.632388
20
0.000000
30
0.339801
11
-0.516353
21
-0.151220
31
0.339801
12
-0.365275
22
-0.267146
32
0.339801
13
-0.365275
23
-0.267146
33
0.339801
62
0
0
3DFACE
8
GEM
10
0.632388
20
0.000000
30
0.339801
11
-0.365275
21
-0.267146
31
0.339801
12
-0.188611
22
-0.340323
32
0.339801
13
-0.188611
23
-0.340323
33
0.339801
62
0
0
3DFACE
8
GEM
10
0.632388
20
0.000000
30
0.339801
11
-0.188611
21
-0.340323
31
0.339801
12
-0.000361
22
-0.365106
32
0.339801
13
-0.000361
23
-0.365106
33
0.339801
62
0
0
3DFACE
8
GEM
10
0.632388
20
0.000000
30
0.339801
11
-0.000361
21
-0.365106
31
0.339801
12
0.000361
22
-0.365106
32
0.339801
13
0.000361
23
-0.365106
33
0.339801
62
0
0
3DFACE
8
GEM
10
0.632388
20
0.000000
30
0.339801
11
0.000361
21
-0.365106
31
0.339801
12
0.188611
22
-0.340323
32
0.339801
13
0.188611
23
-0.340323
33
0.339801
62
0
0
3DFACE
8
GEM
10
0.632388
20
0.000000
30
0.339801
11
0.188611
21
-0.340323
31
0.339801
12
0.365275
22
-0.267146
32
0.339801
13
0.365275
23
-0.267146
33
0.339801
62
0
0
3DFACE
8
GEM
10
0.632388
20
0.000000
30
0.339801
11
0.365275
21
-0.267146
31
0.339801
12
0.516353
22
-0.151220
32
0.339801
13
0.516353
23
-0.151220
33
0.339801
62
0
0
ENDSEC
0
EOF
