999
DXF gemstone file C:\Projects\pov_spectral\gems\pc08049.dxf created by GemCad for Windows
0
SECTION
2
HEADER
0
ENDSEC
0
SECTION
2
TABLES
0
TABLE
2
LAYER
70
153
0
LAYER
2
GEM
70
0
62
15
6
CONTINUOUS
0
ENDTAB
0
ENDSEC
0
SECTION
2
ENTITIES
0
3DFACE
8
GEM
10
0.000000
20
-0.750001
30
0.037498
11
0.000000
21
-0.749970
31
0.037524
12
-0.275649
22
-0.593963
32
0.155083
13
-0.275649
23
-0.593963
33
0.155083
62
0
0
3DFACE
8
GEM
10
0.000000
20
-0.750001
30
0.037498
11
-0.275649
21
-0.593963
31
0.155083
12
-0.275668
22
-0.593964
32
0.155081
13
-0.275668
23
-0.593964
33
0.155081
62
0
0
3DFACE
8
GEM
10
0.000000
20
-0.750001
30
0.037498
11
-0.275668
21
-0.593964
31
0.155081
12
-0.293676
22
-0.730752
32
0.037498
13
-0.293676
23
-0.730752
33
0.037498
62
0
0
3DFACE
8
GEM
10
0.000000
20
0.749970
30
0.037524
11
0.000000
21
0.750001
31
0.037498
12
-0.293676
22
0.730752
32
0.037498
13
-0.293676
23
0.730752
33
0.037498
62
0
0
3DFACE
8
GEM
10
0.000000
20
0.749970
30
0.037524
11
-0.293676
21
0.730752
31
0.037498
12
-0.275668
22
0.593964
32
0.155081
13
-0.275668
23
0.593964
33
0.155081
62
0
0
3DFACE
8
GEM
10
0.000000
20
0.749970
30
0.037524
11
-0.275668
21
0.593964
31
0.155081
12
-0.275649
22
0.593963
32
0.155083
13
-0.275649
23
0.593963
33
0.155083
62
0
0
3DFACE
8
GEM
10
0.000000
20
0.750001
30
0.037498
11
0.000000
21
0.749970
31
0.037524
12
0.275649
22
0.593963
32
0.155083
13
0.275649
23
0.593963
33
0.155083
62
0
0
3DFACE
8
GEM
10
0.000000
20
0.750001
30
0.037498
11
0.275649
21
0.593963
31
0.155083
12
0.275668
22
0.593964
32
0.155081
13
0.275668
23
0.593964
33
0.155081
62
0
0
3DFACE
8
GEM
10
0.000000
20
0.750001
30
0.037498
11
0.275668
21
0.593964
31
0.155081
12
0.293676
22
0.730752
32
0.037498
13
0.293676
23
0.730752
33
0.037498
62
0
0
3DFACE
8
GEM
10
0.000000
20
-0.749970
30
0.037524
11
0.000000
21
-0.750001
31
0.037498
12
0.293676
22
-0.730752
32
0.037498
13
0.293676
23
-0.730752
33
0.037498
62
0
0
3DFACE
8
GEM
10
0.000000
20
-0.749970
30
0.037524
11
0.293676
21
-0.730752
31
0.037498
12
0.275668
22
-0.593964
32
0.155081
13
0.275668
23
-0.593964
33
0.155081
62
0
0
3DFACE
8
GEM
10
0.000000
20
-0.749970
30
0.037524
11
0.275668
21
-0.593964
31
0.155081
12
0.275649
22
-0.593963
32
0.155083
13
0.275649
23
-0.593963
33
0.155083
62
0
0
3DFACE
8
GEM
10
-0.293676
20
-0.730752
30
0.037498
11
-0.275668
21
-0.593964
31
0.155081
12
-0.275757
22
-0.593934
32
0.155092
13
-0.275757
23
-0.593934
33
0.155092
62
0
0
3DFACE
8
GEM
10
-0.293676
20
-0.730752
30
0.037498
11
-0.275757
21
-0.593934
31
0.155092
12
-0.582447
22
-0.673297
32
0.037510
13
-0.582447
23
-0.673297
33
0.037510
62
0
0
3DFACE
8
GEM
10
-0.293676
20
-0.730752
30
0.037498
11
-0.582447
21
-0.673297
31
0.037510
12
-0.582308
22
-0.673344
32
0.037494
13
-0.582308
23
-0.673344
33
0.037494
62
0
0
3DFACE
8
GEM
10
-0.293676
20
-0.730752
30
0.037498
11
-0.582308
21
-0.673344
31
0.037494
12
-0.293711
22
-0.730750
32
0.037494
13
-0.293711
23
-0.730750
33
0.037494
62
0
0
3DFACE
8
GEM
10
-0.275668
20
0.593964
30
0.155081
11
-0.293676
21
0.730752
31
0.037498
12
-0.293711
22
0.730750
32
0.037494
13
-0.293711
23
0.730750
33
0.037494
62
0
0
3DFACE
8
GEM
10
-0.275668
20
0.593964
30
0.155081
11
-0.293711
21
0.730750
31
0.037494
12
-0.582308
22
0.673344
32
0.037494
13
-0.582308
23
0.673344
33
0.037494
62
0
0
3DFACE
8
GEM
10
-0.275668
20
0.593964
30
0.155081
11
-0.582308
21
0.673344
31
0.037494
12
-0.582447
22
0.673297
32
0.037510
13
-0.582447
23
0.673297
33
0.037510
62
0
0
3DFACE
8
GEM
10
-0.275668
20
0.593964
30
0.155081
11
-0.582447
21
0.673297
31
0.037510
12
-0.275757
22
0.593934
32
0.155092
13
-0.275757
23
0.593934
33
0.155092
62
0
0
3DFACE
8
GEM
10
0.293676
20
0.730752
30
0.037498
11
0.275668
21
0.593964
31
0.155081
12
0.275757
22
0.593934
32
0.155092
13
0.275757
23
0.593934
33
0.155092
62
0
0
3DFACE
8
GEM
10
0.293676
20
0.730752
30
0.037498
11
0.275757
21
0.593934
31
0.155092
12
0.582447
22
0.673297
32
0.037510
13
0.582447
23
0.673297
33
0.037510
62
0
0
3DFACE
8
GEM
10
0.293676
20
0.730752
30
0.037498
11
0.582447
21
0.673297
31
0.037510
12
0.582308
22
0.673344
32
0.037494
13
0.582308
23
0.673344
33
0.037494
62
0
0
3DFACE
8
GEM
10
0.293676
20
0.730752
30
0.037498
11
0.582308
21
0.673344
31
0.037494
12
0.293711
22
0.730750
32
0.037494
13
0.293711
23
0.730750
33
0.037494
62
0
0
3DFACE
8
GEM
10
0.275668
20
-0.593964
30
0.155081
11
0.293676
21
-0.730752
31
0.037498
12
0.293711
22
-0.730750
32
0.037494
13
0.293711
23
-0.730750
33
0.037494
62
0
0
3DFACE
8
GEM
10
0.275668
20
-0.593964
30
0.155081
11
0.293711
21
-0.730750
31
0.037494
12
0.582308
22
-0.673344
32
0.037494
13
0.582308
23
-0.673344
33
0.037494
62
0
0
3DFACE
8
GEM
10
0.275668
20
-0.593964
30
0.155081
11
0.582308
21
-0.673344
31
0.037494
12
0.582447
22
-0.673297
32
0.037510
13
0.582447
23
-0.673297
33
0.037510
62
0
0
3DFACE
8
GEM
10
0.275668
20
-0.593964
30
0.155081
11
0.582447
21
-0.673297
31
0.037510
12
0.275757
22
-0.593934
32
0.155092
13
0.275757
23
-0.593934
33
0.155092
62
0
0
3DFACE
8
GEM
10
-0.698966
20
-0.480802
30
0.154898
11
-0.821350
21
-0.592201
31
0.037536
12
-0.582955
22
-0.673125
32
0.037536
13
-0.582955
23
-0.673125
33
0.037536
62
0
0
3DFACE
8
GEM
10
-0.821350
20
0.592201
30
0.037536
11
-0.698966
21
0.480802
31
0.154898
12
-0.582955
22
0.673125
32
0.037536
13
-0.582955
23
0.673125
33
0.037536
62
0
0
3DFACE
8
GEM
10
0.698966
20
0.480802
30
0.154898
11
0.821350
21
0.592201
31
0.037536
12
0.582955
22
0.673125
32
0.037536
13
0.582955
23
0.673125
33
0.037536
62
0
0
3DFACE
8
GEM
10
0.821350
20
-0.592201
30
0.037536
11
0.698966
21
-0.480802
31
0.154898
12
0.582955
22
-0.673125
32
0.037536
13
0.582955
23
-0.673125
33
0.037536
62
0
0
3DFACE
8
GEM
10
-0.821350
20
-0.592201
30
0.037536
11
-0.698966
21
-0.480802
31
0.154898
12
-0.698926
22
-0.480758
32
0.154938
13
-0.698926
23
-0.480758
33
0.154938
62
0
0
3DFACE
8
GEM
10
-0.821350
20
-0.592201
30
0.037536
11
-0.698926
21
-0.480758
31
0.154938
12
-0.880661
22
-0.294140
32
0.037518
13
-0.880661
23
-0.294140
33
0.037518
62
0
0
3DFACE
8
GEM
10
-0.821350
20
-0.592201
30
0.037536
11
-0.880661
21
-0.294140
31
0.037518
12
-0.821374
22
-0.592192
32
0.037518
13
-0.821374
23
-0.592192
33
0.037518
62
0
0
3DFACE
8
GEM
10
-0.698966
20
0.480802
30
0.154898
11
-0.821350
21
0.592201
31
0.037536
12
-0.821374
22
0.592192
32
0.037518
13
-0.821374
23
0.592192
33
0.037518
62
0
0
3DFACE
8
GEM
10
-0.698966
20
0.480802
30
0.154898
11
-0.821374
21
0.592192
31
0.037518
12
-0.880661
22
0.294140
32
0.037518
13
-0.880661
23
0.294140
33
0.037518
62
0
0
3DFACE
8
GEM
10
-0.698966
20
0.480802
30
0.154898
11
-0.880661
21
0.294140
31
0.037518
12
-0.698926
22
0.480758
32
0.154938
13
-0.698926
23
0.480758
33
0.154938
62
0
0
3DFACE
8
GEM
10
0.821350
20
0.592201
30
0.037536
11
0.698966
21
0.480802
31
0.154898
12
0.698926
22
0.480758
32
0.154938
13
0.698926
23
0.480758
33
0.154938
62
0
0
3DFACE
8
GEM
10
0.821350
20
0.592201
30
0.037536
11
0.698926
21
0.480758
31
0.154938
12
0.880661
22
0.294140
32
0.037518
13
0.880661
23
0.294140
33
0.037518
62
0
0
3DFACE
8
GEM
10
0.821350
20
0.592201
30
0.037536
11
0.880661
21
0.294140
31
0.037518
12
0.821374
22
0.592192
32
0.037518
13
0.821374
23
0.592192
33
0.037518
62
0
0
3DFACE
8
GEM
10
0.698966
20
-0.480802
30
0.154898
11
0.821350
21
-0.592201
31
0.037536
12
0.821374
22
-0.592192
32
0.037518
13
0.821374
23
-0.592192
33
0.037518
62
0
0
3DFACE
8
GEM
10
0.698966
20
-0.480802
30
0.154898
11
0.821374
21
-0.592192
31
0.037518
12
0.880661
22
-0.294140
32
0.037518
13
0.880661
23
-0.294140
33
0.037518
62
0
0
3DFACE
8
GEM
10
0.698966
20
-0.480802
30
0.154898
11
0.880661
21
-0.294140
31
0.037518
12
0.698926
22
-0.480758
32
0.154938
13
0.698926
23
-0.480758
33
0.154938
62
0
0
3DFACE
8
GEM
10
-0.762244
20
0.000000
30
0.154901
11
-0.900001
21
0.000000
31
0.037498
12
-0.880757
22
-0.293612
32
0.037498
13
-0.880757
23
-0.293612
33
0.037498
62
0
0
3DFACE
8
GEM
10
-0.762244
20
0.000000
30
0.154901
11
-0.880757
21
-0.293612
31
0.037498
12
-0.762221
22
-0.000349
32
0.154901
13
-0.762221
23
-0.000349
33
0.154901
62
0
0
3DFACE
8
GEM
10
-0.900001
20
0.000000
30
0.037498
11
-0.762244
21
0.000000
31
0.154901
12
-0.762221
22
0.000349
32
0.154901
13
-0.762221
23
0.000349
33
0.154901
62
0
0
3DFACE
8
GEM
10
-0.900001
20
0.000000
30
0.037498
11
-0.762221
21
0.000349
31
0.154901
12
-0.880757
22
0.293612
32
0.037498
13
-0.880757
23
0.293612
33
0.037498
62
0
0
3DFACE
8
GEM
10
0.762244
20
-0.000000
30
0.154901
11
0.900001
21
-0.000000
31
0.037498
12
0.880757
22
0.293612
32
0.037498
13
0.880757
23
0.293612
33
0.037498
62
0
0
3DFACE
8
GEM
10
0.762244
20
-0.000000
30
0.154901
11
0.880757
21
0.293612
31
0.037498
12
0.762221
22
0.000349
32
0.154901
13
0.762221
23
0.000349
33
0.154901
62
0
0
3DFACE
8
GEM
10
0.900001
20
-0.000000
30
0.037498
11
0.762244
21
-0.000000
31
0.154901
12
0.762221
22
-0.000349
32
0.154901
13
0.762221
23
-0.000349
33
0.154901
62
0
0
3DFACE
8
GEM
10
0.900001
20
-0.000000
30
0.037498
11
0.762221
21
-0.000349
31
0.154901
12
0.880757
22
-0.293612
32
0.037498
13
0.880757
23
-0.293612
33
0.037498
62
0
0
3DFACE
8
GEM
10
-0.275649
20
-0.593963
30
0.155083
11
0.000000
21
-0.749970
31
0.037524
12
0.275649
22
-0.593963
32
0.155083
13
0.275649
23
-0.593963
33
0.155083
62
0
0
3DFACE
8
GEM
10
-0.275649
20
-0.593963
30
0.155083
11
0.275649
21
-0.593963
31
0.155083
12
-0.000000
22
-0.488284
32
0.234719
13
-0.000000
23
-0.488284
33
0.234719
62
0
0
3DFACE
8
GEM
10
0.000000
20
0.749970
30
0.037524
11
-0.275649
21
0.593963
31
0.155083
12
-0.000000
22
0.488284
32
0.234719
13
-0.000000
23
0.488284
33
0.234719
62
0
0
3DFACE
8
GEM
10
0.000000
20
0.749970
30
0.037524
11
-0.000000
21
0.488284
31
0.234719
12
0.275649
22
0.593963
32
0.155083
13
0.275649
23
0.593963
33
0.155083
62
0
0
3DFACE
8
GEM
10
-0.582447
20
-0.673297
30
0.037510
11
-0.275757
21
-0.593934
31
0.155092
12
-0.514556
22
-0.420589
32
0.234692
13
-0.514556
23
-0.420589
33
0.234692
62
0
0
3DFACE
8
GEM
10
-0.582447
20
-0.673297
30
0.037510
11
-0.514556
21
-0.420589
31
0.234692
12
-0.698914
22
-0.480748
32
0.154947
13
-0.698914
23
-0.480748
33
0.154947
62
0
0
3DFACE
8
GEM
10
-0.582447
20
-0.673297
30
0.037510
11
-0.698914
21
-0.480748
31
0.154947
12
-0.698926
22
-0.480758
32
0.154938
13
-0.698926
23
-0.480758
33
0.154938
62
0
0
3DFACE
8
GEM
10
-0.582447
20
-0.673297
30
0.037510
11
-0.698926
21
-0.480758
31
0.154938
12
-0.698966
22
-0.480802
32
0.154898
13
-0.698966
23
-0.480802
33
0.154898
62
0
0
3DFACE
8
GEM
10
-0.582447
20
-0.673297
30
0.037510
11
-0.698966
21
-0.480802
31
0.154898
12
-0.582955
22
-0.673125
32
0.037536
13
-0.582955
23
-0.673125
33
0.037536
62
0
0
3DFACE
8
GEM
10
-0.275757
20
0.593934
30
0.155092
11
-0.582447
21
0.673297
31
0.037510
12
-0.582955
22
0.673125
32
0.037536
13
-0.582955
23
0.673125
33
0.037536
62
0
0
3DFACE
8
GEM
10
-0.275757
20
0.593934
30
0.155092
11
-0.582955
21
0.673125
31
0.037536
12
-0.698966
22
0.480802
32
0.154898
13
-0.698966
23
0.480802
33
0.154898
62
0
0
3DFACE
8
GEM
10
-0.275757
20
0.593934
30
0.155092
11
-0.698966
21
0.480802
31
0.154898
12
-0.698926
22
0.480758
32
0.154938
13
-0.698926
23
0.480758
33
0.154938
62
0
0
3DFACE
8
GEM
10
-0.275757
20
0.593934
30
0.155092
11
-0.698926
21
0.480758
31
0.154938
12
-0.698914
22
0.480748
32
0.154947
13
-0.698914
23
0.480748
33
0.154947
62
0
0
3DFACE
8
GEM
10
-0.275757
20
0.593934
30
0.155092
11
-0.698914
21
0.480748
31
0.154947
12
-0.514556
22
0.420589
32
0.234692
13
-0.514556
23
0.420589
33
0.234692
62
0
0
3DFACE
8
GEM
10
0.582447
20
0.673297
30
0.037510
11
0.275757
21
0.593934
31
0.155092
12
0.514556
22
0.420589
32
0.234692
13
0.514556
23
0.420589
33
0.234692
62
0
0
3DFACE
8
GEM
10
0.582447
20
0.673297
30
0.037510
11
0.514556
21
0.420589
31
0.234692
12
0.698914
22
0.480748
32
0.154947
13
0.698914
23
0.480748
33
0.154947
62
0
0
3DFACE
8
GEM
10
0.582447
20
0.673297
30
0.037510
11
0.698914
21
0.480748
31
0.154947
12
0.698926
22
0.480758
32
0.154938
13
0.698926
23
0.480758
33
0.154938
62
0
0
3DFACE
8
GEM
10
0.582447
20
0.673297
30
0.037510
11
0.698926
21
0.480758
31
0.154938
12
0.698966
22
0.480802
32
0.154898
13
0.698966
23
0.480802
33
0.154898
62
0
0
3DFACE
8
GEM
10
0.582447
20
0.673297
30
0.037510
11
0.698966
21
0.480802
31
0.154898
12
0.582955
22
0.673125
32
0.037536
13
0.582955
23
0.673125
33
0.037536
62
0
0
3DFACE
8
GEM
10
0.275757
20
-0.593934
30
0.155092
11
0.582447
21
-0.673297
31
0.037510
12
0.582955
22
-0.673125
32
0.037536
13
0.582955
23
-0.673125
33
0.037536
62
0
0
3DFACE
8
GEM
10
0.275757
20
-0.593934
30
0.155092
11
0.582955
21
-0.673125
31
0.037536
12
0.698966
22
-0.480802
32
0.154898
13
0.698966
23
-0.480802
33
0.154898
62
0
0
3DFACE
8
GEM
10
0.275757
20
-0.593934
30
0.155092
11
0.698966
21
-0.480802
31
0.154898
12
0.698926
22
-0.480758
32
0.154938
13
0.698926
23
-0.480758
33
0.154938
62
0
0
3DFACE
8
GEM
10
0.275757
20
-0.593934
30
0.155092
11
0.698926
21
-0.480758
31
0.154938
12
0.698914
22
-0.480748
32
0.154947
13
0.698914
23
-0.480748
33
0.154947
62
0
0
3DFACE
8
GEM
10
0.275757
20
-0.593934
30
0.155092
11
0.698914
21
-0.480748
31
0.154947
12
0.514556
22
-0.420589
32
0.234692
13
0.514556
23
-0.420589
33
0.234692
62
0
0
3DFACE
8
GEM
10
-0.880661
20
-0.294140
30
0.037518
11
-0.698926
21
-0.480758
31
0.154938
12
-0.698914
22
-0.480748
32
0.154947
13
-0.698914
23
-0.480748
33
0.154947
62
0
0
3DFACE
8
GEM
10
-0.880661
20
-0.294140
30
0.037518
11
-0.698914
21
-0.480748
31
0.154947
12
-0.613190
22
-0.322310
32
0.234576
13
-0.613190
23
-0.322310
33
0.234576
62
0
0
3DFACE
8
GEM
10
-0.880661
20
-0.294140
30
0.037518
11
-0.613190
21
-0.322310
31
0.234576
12
-0.762221
22
-0.000349
32
0.154901
13
-0.762221
23
-0.000349
33
0.154901
62
0
0
3DFACE
8
GEM
10
-0.880661
20
-0.294140
30
0.037518
11
-0.762221
21
-0.000349
31
0.154901
12
-0.880757
22
-0.293612
32
0.037498
13
-0.880757
23
-0.293612
33
0.037498
62
0
0
3DFACE
8
GEM
10
-0.880661
20
-0.294140
30
0.037518
11
-0.880757
21
-0.293612
31
0.037498
12
-0.880752
22
-0.293681
32
0.037494
13
-0.880752
23
-0.293681
33
0.037494
62
0
0
3DFACE
8
GEM
10
-0.698926
20
0.480758
30
0.154938
11
-0.880661
21
0.294140
31
0.037518
12
-0.880752
22
0.293681
32
0.037494
13
-0.880752
23
0.293681
33
0.037494
62
0
0
3DFACE
8
GEM
10
-0.698926
20
0.480758
30
0.154938
11
-0.880752
21
0.293681
31
0.037494
12
-0.880757
22
0.293612
32
0.037498
13
-0.880757
23
0.293612
33
0.037498
62
0
0
3DFACE
8
GEM
10
-0.698926
20
0.480758
30
0.154938
11
-0.880757
21
0.293612
31
0.037498
12
-0.762221
22
0.000349
32
0.154901
13
-0.762221
23
0.000349
33
0.154901
62
0
0
3DFACE
8
GEM
10
-0.698926
20
0.480758
30
0.154938
11
-0.762221
21
0.000349
31
0.154901
12
-0.613190
22
0.322310
32
0.234576
13
-0.613190
23
0.322310
33
0.234576
62
0
0
3DFACE
8
GEM
10
-0.698926
20
0.480758
30
0.154938
11
-0.613190
21
0.322310
31
0.234576
12
-0.698914
22
0.480748
32
0.154947
13
-0.698914
23
0.480748
33
0.154947
62
0
0
3DFACE
8
GEM
10
0.880661
20
0.294140
30
0.037518
11
0.698926
21
0.480758
31
0.154938
12
0.698914
22
0.480748
32
0.154947
13
0.698914
23
0.480748
33
0.154947
62
0
0
3DFACE
8
GEM
10
0.880661
20
0.294140
30
0.037518
11
0.698914
21
0.480748
31
0.154947
12
0.613190
22
0.322310
32
0.234576
13
0.613190
23
0.322310
33
0.234576
62
0
0
3DFACE
8
GEM
10
0.880661
20
0.294140
30
0.037518
11
0.613190
21
0.322310
31
0.234576
12
0.762221
22
0.000349
32
0.154901
13
0.762221
23
0.000349
33
0.154901
62
0
0
3DFACE
8
GEM
10
0.880661
20
0.294140
30
0.037518
11
0.762221
21
0.000349
31
0.154901
12
0.880757
22
0.293612
32
0.037498
13
0.880757
23
0.293612
33
0.037498
62
0
0
3DFACE
8
GEM
10
0.880661
20
0.294140
30
0.037518
11
0.880757
21
0.293612
31
0.037498
12
0.880752
22
0.293681
32
0.037494
13
0.880752
23
0.293681
33
0.037494
62
0
0
3DFACE
8
GEM
10
0.698926
20
-0.480758
30
0.154938
11
0.880661
21
-0.294140
31
0.037518
12
0.880752
22
-0.293681
32
0.037494
13
0.880752
23
-0.293681
33
0.037494
62
0
0
3DFACE
8
GEM
10
0.698926
20
-0.480758
30
0.154938
11
0.880752
21
-0.293681
31
0.037494
12
0.880757
22
-0.293612
32
0.037498
13
0.880757
23
-0.293612
33
0.037498
62
0
0
3DFACE
8
GEM
10
0.698926
20
-0.480758
30
0.154938
11
0.880757
21
-0.293612
31
0.037498
12
0.762221
22
-0.000349
32
0.154901
13
0.762221
23
-0.000349
33
0.154901
62
0
0
3DFACE
8
GEM
10
0.698926
20
-0.480758
30
0.154938
11
0.762221
21
-0.000349
31
0.154901
12
0.613190
22
-0.322310
32
0.234576
13
0.613190
23
-0.322310
33
0.234576
62
0
0
3DFACE
8
GEM
10
0.698926
20
-0.480758
30
0.154938
11
0.613190
21
-0.322310
31
0.234576
12
0.698914
22
-0.480748
32
0.154947
13
0.698914
23
-0.480748
33
0.154947
62
0
0
3DFACE
8
GEM
10
-0.275668
20
-0.593964
30
0.155081
11
-0.275649
21
-0.593963
31
0.155083
12
-0.000000
22
-0.488284
32
0.234719
13
-0.000000
23
-0.488284
33
0.234719
62
0
0
3DFACE
8
GEM
10
-0.275668
20
-0.593964
30
0.155081
11
-0.000000
21
-0.488284
31
0.234719
12
-0.000000
22
-0.488281
32
0.234720
13
-0.000000
23
-0.488281
33
0.234720
62
0
0
3DFACE
8
GEM
10
-0.275668
20
-0.593964
30
0.155081
11
-0.000000
21
-0.488281
31
0.234720
12
-0.514514
22
-0.420544
32
0.234720
13
-0.514514
23
-0.420544
33
0.234720
62
0
0
3DFACE
8
GEM
10
-0.275668
20
-0.593964
30
0.155081
11
-0.514514
21
-0.420544
31
0.234720
12
-0.514556
22
-0.420589
32
0.234692
13
-0.514556
23
-0.420589
33
0.234692
62
0
0
3DFACE
8
GEM
10
-0.275668
20
-0.593964
30
0.155081
11
-0.514556
21
-0.420589
31
0.234692
12
-0.275757
22
-0.593934
32
0.155092
13
-0.275757
23
-0.593934
33
0.155092
62
0
0
3DFACE
8
GEM
10
-0.275649
20
0.593963
30
0.155083
11
-0.275668
21
0.593964
31
0.155081
12
-0.275757
22
0.593934
32
0.155092
13
-0.275757
23
0.593934
33
0.155092
62
0
0
3DFACE
8
GEM
10
-0.275649
20
0.593963
30
0.155083
11
-0.275757
21
0.593934
31
0.155092
12
-0.514556
22
0.420589
32
0.234692
13
-0.514556
23
0.420589
33
0.234692
62
0
0
3DFACE
8
GEM
10
-0.275649
20
0.593963
30
0.155083
11
-0.514556
21
0.420589
31
0.234692
12
-0.514514
22
0.420544
32
0.234720
13
-0.514514
23
0.420544
33
0.234720
62
0
0
3DFACE
8
GEM
10
-0.275649
20
0.593963
30
0.155083
11
-0.514514
21
0.420544
31
0.234720
12
-0.000000
22
0.488281
32
0.234720
13
-0.000000
23
0.488281
33
0.234720
62
0
0
3DFACE
8
GEM
10
-0.275649
20
0.593963
30
0.155083
11
-0.000000
21
0.488281
31
0.234720
12
-0.000000
22
0.488284
32
0.234719
13
-0.000000
23
0.488284
33
0.234719
62
0
0
3DFACE
8
GEM
10
0.275668
20
0.593964
30
0.155081
11
0.275649
21
0.593963
31
0.155083
12
-0.000000
22
0.488284
32
0.234719
13
-0.000000
23
0.488284
33
0.234719
62
0
0
3DFACE
8
GEM
10
0.275668
20
0.593964
30
0.155081
11
-0.000000
21
0.488284
31
0.234719
12
-0.000000
22
0.488281
32
0.234720
13
-0.000000
23
0.488281
33
0.234720
62
0
0
3DFACE
8
GEM
10
0.275668
20
0.593964
30
0.155081
11
-0.000000
21
0.488281
31
0.234720
12
0.514514
22
0.420544
32
0.234720
13
0.514514
23
0.420544
33
0.234720
62
0
0
3DFACE
8
GEM
10
0.275668
20
0.593964
30
0.155081
11
0.514514
21
0.420544
31
0.234720
12
0.514556
22
0.420589
32
0.234692
13
0.514556
23
0.420589
33
0.234692
62
0
0
3DFACE
8
GEM
10
0.275668
20
0.593964
30
0.155081
11
0.514556
21
0.420589
31
0.234692
12
0.275757
22
0.593934
32
0.155092
13
0.275757
23
0.593934
33
0.155092
62
0
0
3DFACE
8
GEM
10
0.275649
20
-0.593963
30
0.155083
11
0.275668
21
-0.593964
31
0.155081
12
0.275757
22
-0.593934
32
0.155092
13
0.275757
23
-0.593934
33
0.155092
62
0
0
3DFACE
8
GEM
10
0.275649
20
-0.593963
30
0.155083
11
0.275757
21
-0.593934
31
0.155092
12
0.514556
22
-0.420589
32
0.234692
13
0.514556
23
-0.420589
33
0.234692
62
0
0
3DFACE
8
GEM
10
0.275649
20
-0.593963
30
0.155083
11
0.514556
21
-0.420589
31
0.234692
12
0.514514
22
-0.420544
32
0.234720
13
0.514514
23
-0.420544
33
0.234720
62
0
0
3DFACE
8
GEM
10
0.275649
20
-0.593963
30
0.155083
11
0.514514
21
-0.420544
31
0.234720
12
-0.000000
22
-0.488281
32
0.234720
13
-0.000000
23
-0.488281
33
0.234720
62
0
0
3DFACE
8
GEM
10
0.275649
20
-0.593963
30
0.155083
11
-0.000000
21
-0.488281
31
0.234720
12
-0.000000
22
-0.488284
32
0.234719
13
-0.000000
23
-0.488284
33
0.234719
62
0
0
3DFACE
8
GEM
10
-0.698914
20
-0.480748
30
0.154947
11
-0.514556
21
-0.420589
31
0.234692
12
-0.514514
22
-0.420544
32
0.234720
13
-0.514514
23
-0.420544
33
0.234720
62
0
0
3DFACE
8
GEM
10
-0.698914
20
-0.480748
30
0.154947
11
-0.514514
21
-0.420544
31
0.234720
12
-0.612974
22
-0.322085
32
0.234720
13
-0.612974
23
-0.322085
33
0.234720
62
0
0
3DFACE
8
GEM
10
-0.698914
20
-0.480748
30
0.154947
11
-0.612974
21
-0.322085
31
0.234720
12
-0.613190
22
-0.322310
32
0.234576
13
-0.613190
23
-0.322310
33
0.234576
62
0
0
3DFACE
8
GEM
10
-0.514556
20
0.420589
30
0.234692
11
-0.698914
21
0.480748
31
0.154947
12
-0.613190
22
0.322310
32
0.234576
13
-0.613190
23
0.322310
33
0.234576
62
0
0
3DFACE
8
GEM
10
-0.514556
20
0.420589
30
0.234692
11
-0.613190
21
0.322310
31
0.234576
12
-0.612974
22
0.322085
32
0.234720
13
-0.612974
23
0.322085
33
0.234720
62
0
0
3DFACE
8
GEM
10
-0.514556
20
0.420589
30
0.234692
11
-0.612974
21
0.322085
31
0.234720
12
-0.514514
22
0.420544
32
0.234720
13
-0.514514
23
0.420544
33
0.234720
62
0
0
3DFACE
8
GEM
10
0.698914
20
0.480748
30
0.154947
11
0.514556
21
0.420589
31
0.234692
12
0.514514
22
0.420544
32
0.234720
13
0.514514
23
0.420544
33
0.234720
62
0
0
3DFACE
8
GEM
10
0.698914
20
0.480748
30
0.154947
11
0.514514
21
0.420544
31
0.234720
12
0.612974
22
0.322085
32
0.234720
13
0.612974
23
0.322085
33
0.234720
62
0
0
3DFACE
8
GEM
10
0.698914
20
0.480748
30
0.154947
11
0.612974
21
0.322085
31
0.234720
12
0.613190
22
0.322310
32
0.234576
13
0.613190
23
0.322310
33
0.234576
62
0
0
3DFACE
8
GEM
10
0.514556
20
-0.420589
30
0.234692
11
0.698914
21
-0.480748
31
0.154947
12
0.613190
22
-0.322310
32
0.234576
13
0.613190
23
-0.322310
33
0.234576
62
0
0
3DFACE
8
GEM
10
0.514556
20
-0.420589
30
0.234692
11
0.613190
21
-0.322310
31
0.234576
12
0.612974
22
-0.322085
32
0.234720
13
0.612974
23
-0.322085
33
0.234720
62
0
0
3DFACE
8
GEM
10
0.514556
20
-0.420589
30
0.234692
11
0.612974
21
-0.322085
31
0.234720
12
0.514514
22
-0.420544
32
0.234720
13
0.514514
23
-0.420544
33
0.234720
62
0
0
3DFACE
8
GEM
10
-0.762244
20
0.000000
30
0.154901
11
-0.762221
21
-0.000349
31
0.154901
12
-0.613190
22
-0.322310
32
0.234576
13
-0.613190
23
-0.322310
33
0.234576
62
0
0
3DFACE
8
GEM
10
-0.762244
20
0.000000
30
0.154901
11
-0.613190
21
-0.322310
31
0.234576
12
-0.612974
22
-0.322085
32
0.234720
13
-0.612974
23
-0.322085
33
0.234720
62
0
0
3DFACE
8
GEM
10
-0.762244
20
0.000000
30
0.154901
11
-0.612974
21
-0.322085
31
0.234720
12
-0.634084
22
0.000000
32
0.234720
13
-0.634084
23
0.000000
33
0.234720
62
0
0
3DFACE
8
GEM
10
-0.762221
20
0.000349
30
0.154901
11
-0.762244
21
0.000000
31
0.154901
12
-0.634084
22
0.000000
32
0.234720
13
-0.634084
23
0.000000
33
0.234720
62
0
0
3DFACE
8
GEM
10
-0.762221
20
0.000349
30
0.154901
11
-0.634084
21
0.000000
31
0.234720
12
-0.612974
22
0.322085
32
0.234720
13
-0.612974
23
0.322085
33
0.234720
62
0
0
3DFACE
8
GEM
10
-0.762221
20
0.000349
30
0.154901
11
-0.612974
21
0.322085
31
0.234720
12
-0.613190
22
0.322310
32
0.234576
13
-0.613190
23
0.322310
33
0.234576
62
0
0
3DFACE
8
GEM
10
0.762244
20
-0.000000
30
0.154901
11
0.762221
21
0.000349
31
0.154901
12
0.613190
22
0.322310
32
0.234576
13
0.613190
23
0.322310
33
0.234576
62
0
0
3DFACE
8
GEM
10
0.762244
20
-0.000000
30
0.154901
11
0.613190
21
0.322310
31
0.234576
12
0.612974
22
0.322085
32
0.234720
13
0.612974
23
0.322085
33
0.234720
62
0
0
3DFACE
8
GEM
10
0.762244
20
-0.000000
30
0.154901
11
0.612974
21
0.322085
31
0.234720
12
0.634084
22
-0.000000
32
0.234720
13
0.634084
23
-0.000000
33
0.234720
62
0
0
3DFACE
8
GEM
10
0.762221
20
-0.000349
30
0.154901
11
0.762244
21
-0.000000
31
0.154901
12
0.634084
22
-0.000000
32
0.234720
13
0.634084
23
-0.000000
33
0.234720
62
0
0
3DFACE
8
GEM
10
0.762221
20
-0.000349
30
0.154901
11
0.634084
21
-0.000000
31
0.234720
12
0.612974
22
-0.322085
32
0.234720
13
0.612974
23
-0.322085
33
0.234720
62
0
0
3DFACE
8
GEM
10
0.762221
20
-0.000349
30
0.154901
11
0.612974
21
-0.322085
31
0.234720
12
0.613190
22
-0.322310
32
0.234576
13
0.613190
23
-0.322310
33
0.234576
62
0
0
3DFACE
8
GEM
10
-0.514514
20
-0.420544
30
0.234720
11
-0.000000
21
-0.488281
31
0.234720
12
0.514514
22
-0.420544
32
0.234720
13
0.514514
23
-0.420544
33
0.234720
62
0
0
3DFACE
8
GEM
10
-0.514514
20
-0.420544
30
0.234720
11
0.514514
21
-0.420544
31
0.234720
12
0.612974
22
-0.322085
32
0.234720
13
0.612974
23
-0.322085
33
0.234720
62
0
0
3DFACE
8
GEM
10
-0.514514
20
-0.420544
30
0.234720
11
0.612974
21
-0.322085
31
0.234720
12
0.634084
22
-0.000000
32
0.234720
13
0.634084
23
-0.000000
33
0.234720
62
0
0
3DFACE
8
GEM
10
-0.514514
20
-0.420544
30
0.234720
11
0.634084
21
-0.000000
31
0.234720
12
0.612974
22
0.322085
32
0.234720
13
0.612974
23
0.322085
33
0.234720
62
0
0
3DFACE
8
GEM
10
-0.514514
20
-0.420544
30
0.234720
11
0.612974
21
0.322085
31
0.234720
12
0.514514
22
0.420544
32
0.234720
13
0.514514
23
0.420544
33
0.234720
62
0
0
3DFACE
8
GEM
10
-0.514514
20
-0.420544
30
0.234720
11
0.514514
21
0.420544
31
0.234720
12
-0.000000
22
0.488281
32
0.234720
13
-0.000000
23
0.488281
33
0.234720
62
0
0
3DFACE
8
GEM
10
-0.514514
20
-0.420544
30
0.234720
11
-0.000000
21
0.488281
31
0.234720
12
-0.514514
22
0.420544
32
0.234720
13
-0.514514
23
0.420544
33
0.234720
62
0
0
3DFACE
8
GEM
10
-0.514514
20
-0.420544
30
0.234720
11
-0.514514
21
0.420544
31
0.234720
12
-0.612974
22
0.322085
32
0.234720
13
-0.612974
23
0.322085
33
0.234720
62
0
0
3DFACE
8
GEM
10
-0.514514
20
-0.420544
30
0.234720
11
-0.612974
21
0.322085
31
0.234720
12
-0.634084
22
0.000000
32
0.234720
13
-0.634084
23
0.000000
33
0.234720
62
0
0
3DFACE
8
GEM
10
-0.514514
20
-0.420544
30
0.234720
11
-0.634084
21
0.000000
31
0.234720
12
-0.612974
22
-0.322085
32
0.234720
13
-0.612974
23
-0.322085
33
0.234720
62
0
0
3DFACE
8
GEM
10
0.000000
20
-0.000000
30
-0.932089
11
0.000000
21
-0.000000
31
-0.932089
12
0.120105
22
-0.147005
32
-0.755960
13
0.120105
23
-0.147005
33
-0.755960
62
0
0
3DFACE
8
GEM
10
0.000000
20
-0.000000
30
-0.932089
11
0.120105
21
-0.147005
31
-0.755960
12
0.120175
22
-0.147112
32
-0.755837
13
0.120175
23
-0.147112
33
-0.755837
62
0
0
3DFACE
8
GEM
10
0.000000
20
-0.000000
30
-0.932089
11
0.120175
21
-0.147112
31
-0.755837
12
0.229608
22
-0.580177
32
-0.301340
13
0.229608
23
-0.580177
33
-0.301340
62
0
0
3DFACE
8
GEM
10
0.000000
20
-0.000000
30
-0.932089
11
0.229608
21
-0.580177
31
-0.301340
12
0.000000
22
-0.227148
32
-0.708818
13
0.000000
23
-0.227148
33
-0.708818
62
0
0
3DFACE
8
GEM
10
0.000000
20
-0.000000
30
-0.932089
11
0.000000
21
-0.000000
31
-0.932089
12
0.000000
22
0.227148
32
-0.708818
13
0.000000
23
0.227148
33
-0.708818
62
0
0
3DFACE
8
GEM
10
0.000000
20
-0.000000
30
-0.932089
11
0.000000
21
0.227148
31
-0.708818
12
0.229608
22
0.580177
32
-0.301340
13
0.229608
23
0.580177
33
-0.301340
62
0
0
3DFACE
8
GEM
10
0.000000
20
-0.000000
30
-0.932089
11
0.229608
21
0.580177
31
-0.301340
12
0.120175
22
0.147112
32
-0.755837
13
0.120175
23
0.147112
33
-0.755837
62
0
0
3DFACE
8
GEM
10
0.000000
20
-0.000000
30
-0.932089
11
0.120175
21
0.147112
31
-0.755837
12
0.120105
22
0.147005
32
-0.755960
13
0.120105
23
0.147005
33
-0.755960
62
0
0
3DFACE
8
GEM
10
0.000000
20
0.227148
30
-0.708818
11
0.000000
21
-0.000000
31
-0.932089
12
-0.000000
22
-0.000000
32
-0.932089
13
-0.000000
23
-0.000000
33
-0.932089
62
0
0
3DFACE
8
GEM
10
0.000000
20
0.227148
30
-0.708818
11
-0.000000
21
-0.000000
31
-0.932089
12
-0.120105
22
0.147005
32
-0.755960
13
-0.120105
23
0.147005
33
-0.755960
62
0
0
3DFACE
8
GEM
10
0.000000
20
0.227148
30
-0.708818
11
-0.120105
21
0.147005
31
-0.755960
12
-0.120175
22
0.147112
32
-0.755837
13
-0.120175
23
0.147112
33
-0.755837
62
0
0
3DFACE
8
GEM
10
0.000000
20
0.227148
30
-0.708818
11
-0.120175
21
0.147112
31
-0.755837
12
-0.229608
22
0.580177
32
-0.301340
13
-0.229608
23
0.580177
33
-0.301340
62
0
0
3DFACE
8
GEM
10
0.000000
20
-0.000000
30
-0.932089
11
0.000000
21
-0.227148
31
-0.708818
12
-0.229608
22
-0.580177
32
-0.301340
13
-0.229608
23
-0.580177
33
-0.301340
62
0
0
3DFACE
8
GEM
10
0.000000
20
-0.000000
30
-0.932089
11
-0.229608
21
-0.580177
31
-0.301340
12
-0.120175
22
-0.147112
32
-0.755837
13
-0.120175
23
-0.147112
33
-0.755837
62
0
0
3DFACE
8
GEM
10
0.000000
20
-0.000000
30
-0.932089
11
-0.120175
21
-0.147112
31
-0.755837
12
-0.120105
22
-0.147005
32
-0.755960
13
-0.120105
23
-0.147005
33
-0.755960
62
0
0
3DFACE
8
GEM
10
0.000000
20
-0.000000
30
-0.932089
11
-0.120105
21
-0.147005
31
-0.755960
12
-0.000000
22
-0.000000
32
-0.932089
13
-0.000000
23
-0.000000
33
-0.932089
62
0
0
3DFACE
8
GEM
10
0.120105
20
-0.147005
30
-0.755960
11
0.000000
21
-0.000000
31
-0.932089
12
0.299338
22
-0.000000
32
-0.734710
13
0.299338
23
-0.000000
33
-0.734710
62
0
0
3DFACE
8
GEM
10
0.120105
20
-0.147005
30
-0.755960
11
0.299338
21
-0.000000
31
-0.734710
12
0.299882
22
-0.000529
32
-0.734002
13
0.299882
23
-0.000529
33
-0.734002
62
0
0
3DFACE
8
GEM
10
0.120105
20
-0.147005
30
-0.755960
11
0.299882
21
-0.000529
31
-0.734002
12
0.821232
22
-0.592041
32
-0.000195
13
0.821232
23
-0.592041
33
-0.000195
62
0
0
3DFACE
8
GEM
10
0.000000
20
-0.000000
30
-0.932089
11
0.120105
21
0.147005
31
-0.755960
12
0.821232
22
0.592041
32
-0.000195
13
0.821232
23
0.592041
33
-0.000195
62
0
0
3DFACE
8
GEM
10
0.000000
20
-0.000000
30
-0.932089
11
0.821232
21
0.592041
31
-0.000195
12
0.299882
22
0.000529
32
-0.734002
13
0.299882
23
0.000529
33
-0.734002
62
0
0
3DFACE
8
GEM
10
0.000000
20
-0.000000
30
-0.932089
11
0.299882
21
0.000529
31
-0.734002
12
0.299338
22
-0.000000
32
-0.734710
13
0.299338
23
-0.000000
33
-0.734710
62
0
0
3DFACE
8
GEM
10
-0.120105
20
0.147005
30
-0.755960
11
-0.000000
21
-0.000000
31
-0.932089
12
-0.299338
22
0.000000
32
-0.734710
13
-0.299338
23
0.000000
33
-0.734710
62
0
0
3DFACE
8
GEM
10
-0.120105
20
0.147005
30
-0.755960
11
-0.299338
21
0.000000
31
-0.734710
12
-0.299882
22
0.000529
32
-0.734002
13
-0.299882
23
0.000529
33
-0.734002
62
0
0
3DFACE
8
GEM
10
-0.120105
20
0.147005
30
-0.755960
11
-0.299882
21
0.000529
31
-0.734002
12
-0.821232
22
0.592041
32
-0.000195
13
-0.821232
23
0.592041
33
-0.000195
62
0
0
3DFACE
8
GEM
10
-0.000000
20
-0.000000
30
-0.932089
11
-0.120105
21
-0.147005
31
-0.755960
12
-0.821232
22
-0.592041
32
-0.000195
13
-0.821232
23
-0.592041
33
-0.000195
62
0
0
3DFACE
8
GEM
10
-0.000000
20
-0.000000
30
-0.932089
11
-0.821232
21
-0.592041
31
-0.000195
12
-0.299882
22
-0.000529
32
-0.734002
13
-0.299882
23
-0.000529
33
-0.734002
62
0
0
3DFACE
8
GEM
10
-0.000000
20
-0.000000
30
-0.932089
11
-0.299882
21
-0.000529
31
-0.734002
12
-0.299338
22
0.000000
32
-0.734710
13
-0.299338
23
0.000000
33
-0.734710
62
0
0
3DFACE
8
GEM
10
0.000000
20
-0.227148
30
-0.708818
11
0.229608
21
-0.580177
31
-0.301340
12
0.229639
22
-0.580248
32
-0.301261
13
0.229639
23
-0.580248
33
-0.301261
62
0
0
3DFACE
8
GEM
10
0.000000
20
-0.227148
30
-0.708818
11
0.229639
21
-0.580248
31
-0.301261
12
0.000000
22
-0.577047
32
-0.336808
13
0.000000
23
-0.577047
33
-0.336808
62
0
0
3DFACE
8
GEM
10
0.229608
20
0.580177
30
-0.301340
11
0.000000
21
0.227148
31
-0.708818
12
0.000000
22
0.577047
32
-0.336808
13
0.000000
23
0.577047
33
-0.336808
62
0
0
3DFACE
8
GEM
10
0.229608
20
0.580177
30
-0.301340
11
0.000000
21
0.577047
31
-0.336808
12
0.229639
22
0.580248
32
-0.301261
13
0.229639
23
0.580248
33
-0.301261
62
0
0
3DFACE
8
GEM
10
0.000000
20
0.227148
30
-0.708818
11
-0.229608
21
0.580177
31
-0.301340
12
-0.229639
22
0.580248
32
-0.301261
13
-0.229639
23
0.580248
33
-0.301261
62
0
0
3DFACE
8
GEM
10
0.000000
20
0.227148
30
-0.708818
11
-0.229639
21
0.580248
31
-0.301261
12
0.000000
22
0.577047
32
-0.336808
13
0.000000
23
0.577047
33
-0.336808
62
0
0
3DFACE
8
GEM
10
-0.229608
20
-0.580177
30
-0.301340
11
0.000000
21
-0.227148
31
-0.708818
12
0.000000
22
-0.577047
32
-0.336808
13
0.000000
23
-0.577047
33
-0.336808
62
0
0
3DFACE
8
GEM
10
-0.229608
20
-0.580177
30
-0.301340
11
0.000000
21
-0.577047
31
-0.336808
12
-0.229639
22
-0.580248
32
-0.301261
13
-0.229639
23
-0.580248
33
-0.301261
62
0
0
3DFACE
8
GEM
10
0.229608
20
-0.580177
30
-0.301340
11
0.120175
21
-0.147112
31
-0.755837
12
0.527984
22
-0.589068
32
-0.175476
13
0.527984
23
-0.589068
33
-0.175476
62
0
0
3DFACE
8
GEM
10
0.229608
20
-0.580177
30
-0.301340
11
0.527984
21
-0.589068
31
-0.175476
12
0.527922
22
-0.589083
32
-0.175486
13
0.527922
23
-0.589083
33
-0.175486
62
0
0
3DFACE
8
GEM
10
0.229608
20
-0.580177
30
-0.301340
11
0.527922
21
-0.589083
31
-0.175486
12
0.229729
22
-0.580272
32
-0.301203
13
0.229729
23
-0.580272
33
-0.301203
62
0
0
3DFACE
8
GEM
10
0.229608
20
-0.580177
30
-0.301340
11
0.229729
21
-0.580272
31
-0.301203
12
0.229639
22
-0.580248
32
-0.301261
13
0.229639
23
-0.580248
33
-0.301261
62
0
0
3DFACE
8
GEM
10
0.120175
20
0.147112
30
-0.755837
11
0.229608
21
0.580177
31
-0.301340
12
0.229639
22
0.580248
32
-0.301261
13
0.229639
23
0.580248
33
-0.301261
62
0
0
3DFACE
8
GEM
10
0.120175
20
0.147112
30
-0.755837
11
0.229639
21
0.580248
31
-0.301261
12
0.229729
22
0.580272
32
-0.301203
13
0.229729
23
0.580272
33
-0.301203
62
0
0
3DFACE
8
GEM
10
0.120175
20
0.147112
30
-0.755837
11
0.229729
21
0.580272
31
-0.301203
12
0.527922
22
0.589083
32
-0.175486
13
0.527922
23
0.589083
33
-0.175486
62
0
0
3DFACE
8
GEM
10
0.120175
20
0.147112
30
-0.755837
11
0.527922
21
0.589083
31
-0.175486
12
0.527984
22
0.589068
32
-0.175476
13
0.527984
23
0.589068
33
-0.175476
62
0
0
3DFACE
8
GEM
10
-0.229608
20
0.580177
30
-0.301340
11
-0.120175
21
0.147112
31
-0.755837
12
-0.527984
22
0.589068
32
-0.175476
13
-0.527984
23
0.589068
33
-0.175476
62
0
0
3DFACE
8
GEM
10
-0.229608
20
0.580177
30
-0.301340
11
-0.527984
21
0.589068
31
-0.175476
12
-0.527922
22
0.589083
32
-0.175486
13
-0.527922
23
0.589083
33
-0.175486
62
0
0
3DFACE
8
GEM
10
-0.229608
20
0.580177
30
-0.301340
11
-0.527922
21
0.589083
31
-0.175486
12
-0.229729
22
0.580272
32
-0.301203
13
-0.229729
23
0.580272
33
-0.301203
62
0
0
3DFACE
8
GEM
10
-0.229608
20
0.580177
30
-0.301340
11
-0.229729
21
0.580272
31
-0.301203
12
-0.229639
22
0.580248
32
-0.301261
13
-0.229639
23
0.580248
33
-0.301261
62
0
0
3DFACE
8
GEM
10
-0.120175
20
-0.147112
30
-0.755837
11
-0.229608
21
-0.580177
31
-0.301340
12
-0.229639
22
-0.580248
32
-0.301261
13
-0.229639
23
-0.580248
33
-0.301261
62
0
0
3DFACE
8
GEM
10
-0.120175
20
-0.147112
30
-0.755837
11
-0.229639
21
-0.580248
31
-0.301261
12
-0.229729
22
-0.580272
32
-0.301203
13
-0.229729
23
-0.580272
33
-0.301203
62
0
0
3DFACE
8
GEM
10
-0.120175
20
-0.147112
30
-0.755837
11
-0.229729
21
-0.580272
31
-0.301203
12
-0.527922
22
-0.589083
32
-0.175486
13
-0.527922
23
-0.589083
33
-0.175486
62
0
0
3DFACE
8
GEM
10
-0.120175
20
-0.147112
30
-0.755837
11
-0.527922
21
-0.589083
31
-0.175486
12
-0.527984
22
-0.589068
32
-0.175476
13
-0.527984
23
-0.589068
33
-0.175476
62
0
0
3DFACE
8
GEM
10
0.120175
20
-0.147112
30
-0.755837
11
0.120105
21
-0.147005
31
-0.755960
12
0.821232
22
-0.592041
32
-0.000195
13
0.821232
23
-0.592041
33
-0.000195
62
0
0
3DFACE
8
GEM
10
0.120175
20
-0.147112
30
-0.755837
11
0.821232
21
-0.592041
31
-0.000195
12
0.821375
22
-0.592189
32
0.000004
13
0.821375
23
-0.592189
33
0.000004
62
0
0
3DFACE
8
GEM
10
0.120175
20
-0.147112
30
-0.755837
11
0.821375
21
-0.592189
31
0.000004
12
0.821374
22
-0.592192
32
0.000006
13
0.821374
23
-0.592192
33
0.000006
62
0
0
3DFACE
8
GEM
10
0.120175
20
-0.147112
30
-0.755837
11
0.821374
21
-0.592192
31
0.000006
12
0.821343
22
-0.592203
32
-0.000004
13
0.821343
23
-0.592203
33
-0.000004
62
0
0
3DFACE
8
GEM
10
0.120175
20
-0.147112
30
-0.755837
11
0.821343
21
-0.592203
31
-0.000004
12
0.527984
22
-0.589068
32
-0.175476
13
0.527984
23
-0.589068
33
-0.175476
62
0
0
3DFACE
8
GEM
10
0.120105
20
0.147005
30
-0.755960
11
0.120175
21
0.147112
31
-0.755837
12
0.527984
22
0.589068
32
-0.175476
13
0.527984
23
0.589068
33
-0.175476
62
0
0
3DFACE
8
GEM
10
0.120105
20
0.147005
30
-0.755960
11
0.527984
21
0.589068
31
-0.175476
12
0.821343
22
0.592203
32
-0.000004
13
0.821343
23
0.592203
33
-0.000004
62
0
0
3DFACE
8
GEM
10
0.120105
20
0.147005
30
-0.755960
11
0.821343
21
0.592203
31
-0.000004
12
0.821374
22
0.592192
32
0.000006
13
0.821374
23
0.592192
33
0.000006
62
0
0
3DFACE
8
GEM
10
0.120105
20
0.147005
30
-0.755960
11
0.821374
21
0.592192
31
0.000006
12
0.821375
22
0.592189
32
0.000004
13
0.821375
23
0.592189
33
0.000004
62
0
0
3DFACE
8
GEM
10
0.120105
20
0.147005
30
-0.755960
11
0.821375
21
0.592189
31
0.000004
12
0.821232
22
0.592041
32
-0.000195
13
0.821232
23
0.592041
33
-0.000195
62
0
0
3DFACE
8
GEM
10
-0.120175
20
0.147112
30
-0.755837
11
-0.120105
21
0.147005
31
-0.755960
12
-0.821232
22
0.592041
32
-0.000195
13
-0.821232
23
0.592041
33
-0.000195
62
0
0
3DFACE
8
GEM
10
-0.120175
20
0.147112
30
-0.755837
11
-0.821232
21
0.592041
31
-0.000195
12
-0.821375
22
0.592189
32
0.000004
13
-0.821375
23
0.592189
33
0.000004
62
0
0
3DFACE
8
GEM
10
-0.120175
20
0.147112
30
-0.755837
11
-0.821375
21
0.592189
31
0.000004
12
-0.821374
22
0.592192
32
0.000006
13
-0.821374
23
0.592192
33
0.000006
62
0
0
3DFACE
8
GEM
10
-0.120175
20
0.147112
30
-0.755837
11
-0.821374
21
0.592192
31
0.000006
12
-0.821343
22
0.592203
32
-0.000004
13
-0.821343
23
0.592203
33
-0.000004
62
0
0
3DFACE
8
GEM
10
-0.120175
20
0.147112
30
-0.755837
11
-0.821343
21
0.592203
31
-0.000004
12
-0.527984
22
0.589068
32
-0.175476
13
-0.527984
23
0.589068
33
-0.175476
62
0
0
3DFACE
8
GEM
10
-0.120105
20
-0.147005
30
-0.755960
11
-0.120175
21
-0.147112
31
-0.755837
12
-0.527984
22
-0.589068
32
-0.175476
13
-0.527984
23
-0.589068
33
-0.175476
62
0
0
3DFACE
8
GEM
10
-0.120105
20
-0.147005
30
-0.755960
11
-0.527984
21
-0.589068
31
-0.175476
12
-0.821343
22
-0.592203
32
-0.000004
13
-0.821343
23
-0.592203
33
-0.000004
62
0
0
3DFACE
8
GEM
10
-0.120105
20
-0.147005
30
-0.755960
11
-0.821343
21
-0.592203
31
-0.000004
12
-0.821374
22
-0.592192
32
0.000006
13
-0.821374
23
-0.592192
33
0.000006
62
0
0
3DFACE
8
GEM
10
-0.120105
20
-0.147005
30
-0.755960
11
-0.821374
21
-0.592192
31
0.000006
12
-0.821375
22
-0.592189
32
0.000004
13
-0.821375
23
-0.592189
33
0.000004
62
0
0
3DFACE
8
GEM
10
-0.120105
20
-0.147005
30
-0.755960
11
-0.821375
21
-0.592189
31
0.000004
12
-0.821232
22
-0.592041
32
-0.000195
13
-0.821232
23
-0.592041
33
-0.000195
62
0
0
3DFACE
8
GEM
10
0.821232
20
-0.592041
30
-0.000195
11
0.299882
21
-0.000529
31
-0.734002
12
0.880781
22
-0.293248
32
-0.000063
13
0.880781
23
-0.293248
33
-0.000063
62
0
0
3DFACE
8
GEM
10
0.821232
20
-0.592041
30
-0.000195
11
0.880781
21
-0.293248
31
-0.000063
12
0.880752
22
-0.293681
32
0.000004
13
0.880752
23
-0.293681
33
0.000004
62
0
0
3DFACE
8
GEM
10
0.821232
20
-0.592041
30
-0.000195
11
0.880752
21
-0.293681
31
0.000004
12
0.821375
22
-0.592189
32
0.000004
13
0.821375
23
-0.592189
33
0.000004
62
0
0
3DFACE
8
GEM
10
0.299882
20
0.000529
30
-0.734002
11
0.821232
21
0.592041
31
-0.000195
12
0.821375
22
0.592189
32
0.000004
13
0.821375
23
0.592189
33
0.000004
62
0
0
3DFACE
8
GEM
10
0.299882
20
0.000529
30
-0.734002
11
0.821375
21
0.592189
31
0.000004
12
0.880752
22
0.293681
32
0.000004
13
0.880752
23
0.293681
33
0.000004
62
0
0
3DFACE
8
GEM
10
0.299882
20
0.000529
30
-0.734002
11
0.880752
21
0.293681
31
0.000004
12
0.880781
22
0.293248
32
-0.000063
13
0.880781
23
0.293248
33
-0.000063
62
0
0
3DFACE
8
GEM
10
-0.821232
20
0.592041
30
-0.000195
11
-0.299882
21
0.000529
31
-0.734002
12
-0.880781
22
0.293248
32
-0.000063
13
-0.880781
23
0.293248
33
-0.000063
62
0
0
3DFACE
8
GEM
10
-0.821232
20
0.592041
30
-0.000195
11
-0.880781
21
0.293248
31
-0.000063
12
-0.880752
22
0.293681
32
0.000004
13
-0.880752
23
0.293681
33
0.000004
62
0
0
3DFACE
8
GEM
10
-0.821232
20
0.592041
30
-0.000195
11
-0.880752
21
0.293681
31
0.000004
12
-0.821375
22
0.592189
32
0.000004
13
-0.821375
23
0.592189
33
0.000004
62
0
0
3DFACE
8
GEM
10
-0.299882
20
-0.000529
30
-0.734002
11
-0.821232
21
-0.592041
31
-0.000195
12
-0.821375
22
-0.592189
32
0.000004
13
-0.821375
23
-0.592189
33
0.000004
62
0
0
3DFACE
8
GEM
10
-0.299882
20
-0.000529
30
-0.734002
11
-0.821375
21
-0.592189
31
0.000004
12
-0.880752
22
-0.293681
32
0.000004
13
-0.880752
23
-0.293681
33
0.000004
62
0
0
3DFACE
8
GEM
10
-0.299882
20
-0.000529
30
-0.734002
11
-0.880752
21
-0.293681
31
0.000004
12
-0.880781
22
-0.293248
32
-0.000063
13
-0.880781
23
-0.293248
33
-0.000063
62
0
0
3DFACE
8
GEM
10
0.299882
20
-0.000529
30
-0.734002
11
0.299338
21
-0.000000
31
-0.734710
12
0.900001
22
-0.000000
32
-0.000063
13
0.900001
23
-0.000000
33
-0.000063
62
0
0
3DFACE
8
GEM
10
0.299882
20
-0.000529
30
-0.734002
11
0.900001
21
-0.000000
31
-0.000063
12
0.880781
22
-0.293248
32
-0.000063
13
0.880781
23
-0.293248
33
-0.000063
62
0
0
3DFACE
8
GEM
10
0.299338
20
-0.000000
30
-0.734710
11
0.299882
21
0.000529
31
-0.734002
12
0.880781
22
0.293248
32
-0.000063
13
0.880781
23
0.293248
33
-0.000063
62
0
0
3DFACE
8
GEM
10
0.299338
20
-0.000000
30
-0.734710
11
0.880781
21
0.293248
31
-0.000063
12
0.900001
22
-0.000000
32
-0.000063
13
0.900001
23
-0.000000
33
-0.000063
62
0
0
3DFACE
8
GEM
10
-0.299882
20
0.000529
30
-0.734002
11
-0.299338
21
0.000000
31
-0.734710
12
-0.900001
22
0.000000
32
-0.000063
13
-0.900001
23
0.000000
33
-0.000063
62
0
0
3DFACE
8
GEM
10
-0.299882
20
0.000529
30
-0.734002
11
-0.900001
21
0.000000
31
-0.000063
12
-0.880781
22
0.293248
32
-0.000063
13
-0.880781
23
0.293248
33
-0.000063
62
0
0
3DFACE
8
GEM
10
-0.299338
20
0.000000
30
-0.734710
11
-0.299882
21
-0.000529
31
-0.734002
12
-0.880781
22
-0.293248
32
-0.000063
13
-0.880781
23
-0.293248
33
-0.000063
62
0
0
3DFACE
8
GEM
10
-0.299338
20
0.000000
30
-0.734710
11
-0.880781
21
-0.293248
31
-0.000063
12
-0.900001
22
0.000000
32
-0.000063
13
-0.900001
23
0.000000
33
-0.000063
62
0
0
3DFACE
8
GEM
10
0.000000
20
-0.577047
30
-0.336808
11
0.229639
21
-0.580248
31
-0.301261
12
0.229729
22
-0.580272
32
-0.301203
13
0.229729
23
-0.580272
33
-0.301203
62
0
0
3DFACE
8
GEM
10
0.000000
20
-0.577047
30
-0.336808
11
0.229729
21
-0.580272
31
-0.301203
12
0.293888
22
-0.730715
32
-0.000030
13
0.293888
23
-0.730715
33
-0.000030
62
0
0
3DFACE
8
GEM
10
0.000000
20
-0.577047
30
-0.336808
11
0.293888
21
-0.730715
31
-0.000030
12
0.293711
22
-0.730750
32
0.000016
13
0.293711
23
-0.730750
33
0.000016
62
0
0
3DFACE
8
GEM
10
0.000000
20
-0.577047
30
-0.336808
11
0.293711
21
-0.730750
31
0.000016
12
0.000000
22
-0.750001
32
0.000016
13
0.000000
23
-0.750001
33
0.000016
62
0
0
3DFACE
8
GEM
10
0.229639
20
0.580248
30
-0.301261
11
0.000000
21
0.577047
31
-0.336808
12
0.000000
22
0.750001
32
0.000016
13
0.000000
23
0.750001
33
0.000016
62
0
0
3DFACE
8
GEM
10
0.229639
20
0.580248
30
-0.301261
11
0.000000
21
0.750001
31
0.000016
12
0.293711
22
0.730750
32
0.000016
13
0.293711
23
0.730750
33
0.000016
62
0
0
3DFACE
8
GEM
10
0.229639
20
0.580248
30
-0.301261
11
0.293711
21
0.730750
31
0.000016
12
0.293888
22
0.730715
32
-0.000030
13
0.293888
23
0.730715
33
-0.000030
62
0
0
3DFACE
8
GEM
10
0.229639
20
0.580248
30
-0.301261
11
0.293888
21
0.730715
31
-0.000030
12
0.229729
22
0.580272
32
-0.301203
13
0.229729
23
0.580272
33
-0.301203
62
0
0
3DFACE
8
GEM
10
0.000000
20
0.577047
30
-0.336808
11
-0.229639
21
0.580248
31
-0.301261
12
-0.229729
22
0.580272
32
-0.301203
13
-0.229729
23
0.580272
33
-0.301203
62
0
0
3DFACE
8
GEM
10
0.000000
20
0.577047
30
-0.336808
11
-0.229729
21
0.580272
31
-0.301203
12
-0.293888
22
0.730715
32
-0.000030
13
-0.293888
23
0.730715
33
-0.000030
62
0
0
3DFACE
8
GEM
10
0.000000
20
0.577047
30
-0.336808
11
-0.293888
21
0.730715
31
-0.000030
12
-0.293711
22
0.730750
32
0.000016
13
-0.293711
23
0.730750
33
0.000016
62
0
0
3DFACE
8
GEM
10
0.000000
20
0.577047
30
-0.336808
11
-0.293711
21
0.730750
31
0.000016
12
0.000000
22
0.750001
32
0.000016
13
0.000000
23
0.750001
33
0.000016
62
0
0
3DFACE
8
GEM
10
-0.229639
20
-0.580248
30
-0.301261
11
0.000000
21
-0.577047
31
-0.336808
12
0.000000
22
-0.750001
32
0.000016
13
0.000000
23
-0.750001
33
0.000016
62
0
0
3DFACE
8
GEM
10
-0.229639
20
-0.580248
30
-0.301261
11
0.000000
21
-0.750001
31
0.000016
12
-0.293711
22
-0.730750
32
0.000016
13
-0.293711
23
-0.730750
33
0.000016
62
0
0
3DFACE
8
GEM
10
-0.229639
20
-0.580248
30
-0.301261
11
-0.293711
21
-0.730750
31
0.000016
12
-0.293888
22
-0.730715
32
-0.000030
13
-0.293888
23
-0.730715
33
-0.000030
62
0
0
3DFACE
8
GEM
10
-0.229639
20
-0.580248
30
-0.301261
11
-0.293888
21
-0.730715
31
-0.000030
12
-0.229729
22
-0.580272
32
-0.301203
13
-0.229729
23
-0.580272
33
-0.301203
62
0
0
3DFACE
8
GEM
10
0.229729
20
-0.580272
30
-0.301203
11
0.527922
21
-0.589083
31
-0.175486
12
0.582200
22
-0.673366
32
-0.000030
13
0.582200
23
-0.673366
33
-0.000030
62
0
0
3DFACE
8
GEM
10
0.229729
20
-0.580272
30
-0.301203
11
0.582200
21
-0.673366
31
-0.000030
12
0.293888
22
-0.730715
32
-0.000030
13
0.293888
23
-0.730715
33
-0.000030
62
0
0
3DFACE
8
GEM
10
0.527922
20
0.589083
30
-0.175486
11
0.229729
21
0.580272
31
-0.301203
12
0.293888
22
0.730715
32
-0.000030
13
0.293888
23
0.730715
33
-0.000030
62
0
0
3DFACE
8
GEM
10
0.527922
20
0.589083
30
-0.175486
11
0.293888
21
0.730715
31
-0.000030
12
0.582200
22
0.673366
32
-0.000030
13
0.582200
23
0.673366
33
-0.000030
62
0
0
3DFACE
8
GEM
10
-0.229729
20
0.580272
30
-0.301203
11
-0.527922
21
0.589083
31
-0.175486
12
-0.582200
22
0.673366
32
-0.000030
13
-0.582200
23
0.673366
33
-0.000030
62
0
0
3DFACE
8
GEM
10
-0.229729
20
0.580272
30
-0.301203
11
-0.582200
21
0.673366
31
-0.000030
12
-0.293888
22
0.730715
32
-0.000030
13
-0.293888
23
0.730715
33
-0.000030
62
0
0
3DFACE
8
GEM
10
-0.527922
20
-0.589083
30
-0.175486
11
-0.229729
21
-0.580272
31
-0.301203
12
-0.293888
22
-0.730715
32
-0.000030
13
-0.293888
23
-0.730715
33
-0.000030
62
0
0
3DFACE
8
GEM
10
-0.527922
20
-0.589083
30
-0.175486
11
-0.293888
21
-0.730715
31
-0.000030
12
-0.582200
22
-0.673366
32
-0.000030
13
-0.582200
23
-0.673366
33
-0.000030
62
0
0
3DFACE
8
GEM
10
0.527922
20
-0.589083
30
-0.175486
11
0.527984
21
-0.589068
31
-0.175476
12
0.821343
22
-0.592203
32
-0.000004
13
0.821343
23
-0.592203
33
-0.000004
62
0
0
3DFACE
8
GEM
10
0.527922
20
-0.589083
30
-0.175486
11
0.821343
21
-0.592203
31
-0.000004
12
0.582308
22
-0.673344
32
-0.000004
13
0.582308
23
-0.673344
33
-0.000004
62
0
0
3DFACE
8
GEM
10
0.527922
20
-0.589083
30
-0.175486
11
0.582308
21
-0.673344
31
-0.000004
12
0.582200
22
-0.673366
32
-0.000030
13
0.582200
23
-0.673366
33
-0.000030
62
0
0
3DFACE
8
GEM
10
0.527984
20
0.589068
30
-0.175476
11
0.527922
21
0.589083
31
-0.175486
12
0.582200
22
0.673366
32
-0.000030
13
0.582200
23
0.673366
33
-0.000030
62
0
0
3DFACE
8
GEM
10
0.527984
20
0.589068
30
-0.175476
11
0.582200
21
0.673366
31
-0.000030
12
0.582308
22
0.673344
32
-0.000004
13
0.582308
23
0.673344
33
-0.000004
62
0
0
3DFACE
8
GEM
10
0.527984
20
0.589068
30
-0.175476
11
0.582308
21
0.673344
31
-0.000004
12
0.821343
22
0.592203
32
-0.000004
13
0.821343
23
0.592203
33
-0.000004
62
0
0
3DFACE
8
GEM
10
-0.527922
20
0.589083
30
-0.175486
11
-0.527984
21
0.589068
31
-0.175476
12
-0.821343
22
0.592203
32
-0.000004
13
-0.821343
23
0.592203
33
-0.000004
62
0
0
3DFACE
8
GEM
10
-0.527922
20
0.589083
30
-0.175486
11
-0.821343
21
0.592203
31
-0.000004
12
-0.582308
22
0.673344
32
-0.000004
13
-0.582308
23
0.673344
33
-0.000004
62
0
0
3DFACE
8
GEM
10
-0.527922
20
0.589083
30
-0.175486
11
-0.582308
21
0.673344
31
-0.000004
12
-0.582200
22
0.673366
32
-0.000030
13
-0.582200
23
0.673366
33
-0.000030
62
0
0
3DFACE
8
GEM
10
-0.527984
20
-0.589068
30
-0.175476
11
-0.527922
21
-0.589083
31
-0.175486
12
-0.582200
22
-0.673366
32
-0.000030
13
-0.582200
23
-0.673366
33
-0.000030
62
0
0
3DFACE
8
GEM
10
-0.527984
20
-0.589068
30
-0.175476
11
-0.582200
21
-0.673366
31
-0.000030
12
-0.582308
22
-0.673344
32
-0.000004
13
-0.582308
23
-0.673344
33
-0.000004
62
0
0
3DFACE
8
GEM
10
-0.527984
20
-0.589068
30
-0.175476
11
-0.582308
21
-0.673344
31
-0.000004
12
-0.821343
22
-0.592203
32
-0.000004
13
-0.821343
23
-0.592203
33
-0.000004
62
0
0
3DFACE
8
GEM
10
0.000000
20
-0.750001
30
0.037498
11
-0.293676
21
-0.730752
31
0.037498
12
-0.293711
22
-0.730750
32
0.037494
13
-0.293711
23
-0.730750
33
0.037494
62
0
0
3DFACE
8
GEM
10
0.000000
20
-0.750001
30
0.037498
11
-0.293711
21
-0.730750
31
0.037494
12
-0.293711
22
-0.730750
32
0.000016
13
-0.293711
23
-0.730750
33
0.000016
62
0
0
3DFACE
8
GEM
10
0.000000
20
-0.750001
30
0.037498
11
-0.293711
21
-0.730750
31
0.000016
12
0.000000
22
-0.750001
32
0.000016
13
0.000000
23
-0.750001
33
0.000016
62
0
0
3DFACE
8
GEM
10
-0.293676
20
0.730752
30
0.037498
11
0.000000
21
0.750001
31
0.037498
12
0.000000
22
0.750001
32
0.000016
13
0.000000
23
0.750001
33
0.000016
62
0
0
3DFACE
8
GEM
10
-0.293676
20
0.730752
30
0.037498
11
0.000000
21
0.750001
31
0.000016
12
-0.293711
22
0.730750
32
0.000016
13
-0.293711
23
0.730750
33
0.000016
62
0
0
3DFACE
8
GEM
10
-0.293676
20
0.730752
30
0.037498
11
-0.293711
21
0.730750
31
0.000016
12
-0.293711
22
0.730750
32
0.037494
13
-0.293711
23
0.730750
33
0.037494
62
0
0
3DFACE
8
GEM
10
0.000000
20
0.750001
30
0.037498
11
0.293676
21
0.730752
31
0.037498
12
0.293711
22
0.730750
32
0.037494
13
0.293711
23
0.730750
33
0.037494
62
0
0
3DFACE
8
GEM
10
0.000000
20
0.750001
30
0.037498
11
0.293711
21
0.730750
31
0.037494
12
0.293711
22
0.730750
32
0.000016
13
0.293711
23
0.730750
33
0.000016
62
0
0
3DFACE
8
GEM
10
0.000000
20
0.750001
30
0.037498
11
0.293711
21
0.730750
31
0.000016
12
0.000000
22
0.750001
32
0.000016
13
0.000000
23
0.750001
33
0.000016
62
0
0
3DFACE
8
GEM
10
0.293676
20
-0.730752
30
0.037498
11
0.000000
21
-0.750001
31
0.037498
12
0.000000
22
-0.750001
32
0.000016
13
0.000000
23
-0.750001
33
0.000016
62
0
0
3DFACE
8
GEM
10
0.293676
20
-0.730752
30
0.037498
11
0.000000
21
-0.750001
31
0.000016
12
0.293711
22
-0.730750
32
0.000016
13
0.293711
23
-0.730750
33
0.000016
62
0
0
3DFACE
8
GEM
10
0.293676
20
-0.730752
30
0.037498
11
0.293711
21
-0.730750
31
0.000016
12
0.293711
22
-0.730750
32
0.037494
13
0.293711
23
-0.730750
33
0.037494
62
0
0
3DFACE
8
GEM
10
0.582308
20
-0.673344
30
0.037494
11
0.293711
21
-0.730750
31
0.037494
12
0.293711
22
-0.730750
32
0.000016
13
0.293711
23
-0.730750
33
0.000016
62
0
0
3DFACE
8
GEM
10
0.582308
20
-0.673344
30
0.037494
11
0.293711
21
-0.730750
31
0.000016
12
0.293888
22
-0.730715
32
-0.000030
13
0.293888
23
-0.730715
33
-0.000030
62
0
0
3DFACE
8
GEM
10
0.582308
20
-0.673344
30
0.037494
11
0.293888
21
-0.730715
31
-0.000030
12
0.582200
22
-0.673366
32
-0.000030
13
0.582200
23
-0.673366
33
-0.000030
62
0
0
3DFACE
8
GEM
10
0.582308
20
-0.673344
30
0.037494
11
0.582200
21
-0.673366
31
-0.000030
12
0.582308
22
-0.673344
32
-0.000004
13
0.582308
23
-0.673344
33
-0.000004
62
0
0
3DFACE
8
GEM
10
-0.582308
20
0.673344
30
0.037494
11
-0.293711
21
0.730750
31
0.037494
12
-0.293711
22
0.730750
32
0.000016
13
-0.293711
23
0.730750
33
0.000016
62
0
0
3DFACE
8
GEM
10
-0.582308
20
0.673344
30
0.037494
11
-0.293711
21
0.730750
31
0.000016
12
-0.293888
22
0.730715
32
-0.000030
13
-0.293888
23
0.730715
33
-0.000030
62
0
0
3DFACE
8
GEM
10
-0.582308
20
0.673344
30
0.037494
11
-0.293888
21
0.730715
31
-0.000030
12
-0.582200
22
0.673366
32
-0.000030
13
-0.582200
23
0.673366
33
-0.000030
62
0
0
3DFACE
8
GEM
10
-0.582308
20
0.673344
30
0.037494
11
-0.582200
21
0.673366
31
-0.000030
12
-0.582308
22
0.673344
32
-0.000004
13
-0.582308
23
0.673344
33
-0.000004
62
0
0
3DFACE
8
GEM
10
0.293711
20
0.730750
30
0.037494
11
0.582308
21
0.673344
31
0.037494
12
0.582308
22
0.673344
32
-0.000004
13
0.582308
23
0.673344
33
-0.000004
62
0
0
3DFACE
8
GEM
10
0.293711
20
0.730750
30
0.037494
11
0.582308
21
0.673344
31
-0.000004
12
0.582200
22
0.673366
32
-0.000030
13
0.582200
23
0.673366
33
-0.000030
62
0
0
3DFACE
8
GEM
10
0.293711
20
0.730750
30
0.037494
11
0.582200
21
0.673366
31
-0.000030
12
0.293888
22
0.730715
32
-0.000030
13
0.293888
23
0.730715
33
-0.000030
62
0
0
3DFACE
8
GEM
10
0.293711
20
0.730750
30
0.037494
11
0.293888
21
0.730715
31
-0.000030
12
0.293711
22
0.730750
32
0.000016
13
0.293711
23
0.730750
33
0.000016
62
0
0
3DFACE
8
GEM
10
-0.293711
20
-0.730750
30
0.037494
11
-0.582308
21
-0.673344
31
0.037494
12
-0.582308
22
-0.673344
32
-0.000004
13
-0.582308
23
-0.673344
33
-0.000004
62
0
0
3DFACE
8
GEM
10
-0.293711
20
-0.730750
30
0.037494
11
-0.582308
21
-0.673344
31
-0.000004
12
-0.582200
22
-0.673366
32
-0.000030
13
-0.582200
23
-0.673366
33
-0.000030
62
0
0
3DFACE
8
GEM
10
-0.293711
20
-0.730750
30
0.037494
11
-0.582200
21
-0.673366
31
-0.000030
12
-0.293888
22
-0.730715
32
-0.000030
13
-0.293888
23
-0.730715
33
-0.000030
62
0
0
3DFACE
8
GEM
10
-0.293711
20
-0.730750
30
0.037494
11
-0.293888
21
-0.730715
31
-0.000030
12
-0.293711
22
-0.730750
32
0.000016
13
-0.293711
23
-0.730750
33
0.000016
62
0
0
3DFACE
8
GEM
10
-0.582308
20
-0.673344
30
0.037494
11
-0.582447
21
-0.673297
31
0.037510
12
-0.582955
22
-0.673125
32
0.037536
13
-0.582955
23
-0.673125
33
0.037536
62
0
0
3DFACE
8
GEM
10
-0.582308
20
-0.673344
30
0.037494
11
-0.582955
21
-0.673125
31
0.037536
12
-0.821350
22
-0.592201
32
0.037536
13
-0.821350
23
-0.592201
33
0.037536
62
0
0
3DFACE
8
GEM
10
-0.582308
20
-0.673344
30
0.037494
11
-0.821350
21
-0.592201
31
0.037536
12
-0.821374
22
-0.592192
32
0.037518
13
-0.821374
23
-0.592192
33
0.037518
62
0
0
3DFACE
8
GEM
10
-0.582308
20
-0.673344
30
0.037494
11
-0.821374
21
-0.592192
31
0.037518
12
-0.821374
22
-0.592192
32
0.000006
13
-0.821374
23
-0.592192
33
0.000006
62
0
0
3DFACE
8
GEM
10
-0.582308
20
-0.673344
30
0.037494
11
-0.821374
21
-0.592192
31
0.000006
12
-0.821343
22
-0.592203
32
-0.000004
13
-0.821343
23
-0.592203
33
-0.000004
62
0
0
3DFACE
8
GEM
10
-0.582308
20
-0.673344
30
0.037494
11
-0.821343
21
-0.592203
31
-0.000004
12
-0.582308
22
-0.673344
32
-0.000004
13
-0.582308
23
-0.673344
33
-0.000004
62
0
0
3DFACE
8
GEM
10
-0.582447
20
0.673297
30
0.037510
11
-0.582308
21
0.673344
31
0.037494
12
-0.582308
22
0.673344
32
-0.000004
13
-0.582308
23
0.673344
33
-0.000004
62
0
0
3DFACE
8
GEM
10
-0.582447
20
0.673297
30
0.037510
11
-0.582308
21
0.673344
31
-0.000004
12
-0.821343
22
0.592203
32
-0.000004
13
-0.821343
23
0.592203
33
-0.000004
62
0
0
3DFACE
8
GEM
10
-0.582447
20
0.673297
30
0.037510
11
-0.821343
21
0.592203
31
-0.000004
12
-0.821374
22
0.592192
32
0.000006
13
-0.821374
23
0.592192
33
0.000006
62
0
0
3DFACE
8
GEM
10
-0.582447
20
0.673297
30
0.037510
11
-0.821374
21
0.592192
31
0.000006
12
-0.821374
22
0.592192
32
0.037518
13
-0.821374
23
0.592192
33
0.037518
62
0
0
3DFACE
8
GEM
10
-0.582447
20
0.673297
30
0.037510
11
-0.821374
21
0.592192
31
0.037518
12
-0.821350
22
0.592201
32
0.037536
13
-0.821350
23
0.592201
33
0.037536
62
0
0
3DFACE
8
GEM
10
-0.582447
20
0.673297
30
0.037510
11
-0.821350
21
0.592201
31
0.037536
12
-0.582955
22
0.673125
32
0.037536
13
-0.582955
23
0.673125
33
0.037536
62
0
0
3DFACE
8
GEM
10
0.582308
20
0.673344
30
0.037494
11
0.582447
21
0.673297
31
0.037510
12
0.582955
22
0.673125
32
0.037536
13
0.582955
23
0.673125
33
0.037536
62
0
0
3DFACE
8
GEM
10
0.582308
20
0.673344
30
0.037494
11
0.582955
21
0.673125
31
0.037536
12
0.821350
22
0.592201
32
0.037536
13
0.821350
23
0.592201
33
0.037536
62
0
0
3DFACE
8
GEM
10
0.582308
20
0.673344
30
0.037494
11
0.821350
21
0.592201
31
0.037536
12
0.821374
22
0.592192
32
0.037518
13
0.821374
23
0.592192
33
0.037518
62
0
0
3DFACE
8
GEM
10
0.582308
20
0.673344
30
0.037494
11
0.821374
21
0.592192
31
0.037518
12
0.821374
22
0.592192
32
0.000006
13
0.821374
23
0.592192
33
0.000006
62
0
0
3DFACE
8
GEM
10
0.582308
20
0.673344
30
0.037494
11
0.821374
21
0.592192
31
0.000006
12
0.821343
22
0.592203
32
-0.000004
13
0.821343
23
0.592203
33
-0.000004
62
0
0
3DFACE
8
GEM
10
0.582308
20
0.673344
30
0.037494
11
0.821343
21
0.592203
31
-0.000004
12
0.582308
22
0.673344
32
-0.000004
13
0.582308
23
0.673344
33
-0.000004
62
0
0
3DFACE
8
GEM
10
0.582447
20
-0.673297
30
0.037510
11
0.582308
21
-0.673344
31
0.037494
12
0.582308
22
-0.673344
32
-0.000004
13
0.582308
23
-0.673344
33
-0.000004
62
0
0
3DFACE
8
GEM
10
0.582447
20
-0.673297
30
0.037510
11
0.582308
21
-0.673344
31
-0.000004
12
0.821343
22
-0.592203
32
-0.000004
13
0.821343
23
-0.592203
33
-0.000004
62
0
0
3DFACE
8
GEM
10
0.582447
20
-0.673297
30
0.037510
11
0.821343
21
-0.592203
31
-0.000004
12
0.821374
22
-0.592192
32
0.000006
13
0.821374
23
-0.592192
33
0.000006
62
0
0
3DFACE
8
GEM
10
0.582447
20
-0.673297
30
0.037510
11
0.821374
21
-0.592192
31
0.000006
12
0.821374
22
-0.592192
32
0.037518
13
0.821374
23
-0.592192
33
0.037518
62
0
0
3DFACE
8
GEM
10
0.582447
20
-0.673297
30
0.037510
11
0.821374
21
-0.592192
31
0.037518
12
0.821350
22
-0.592201
32
0.037536
13
0.821350
23
-0.592201
33
0.037536
62
0
0
3DFACE
8
GEM
10
0.582447
20
-0.673297
30
0.037510
11
0.821350
21
-0.592201
31
0.037536
12
0.582955
22
-0.673125
32
0.037536
13
0.582955
23
-0.673125
33
0.037536
62
0
0
3DFACE
8
GEM
10
-0.821374
20
-0.592192
30
0.037518
11
-0.880661
21
-0.294140
31
0.037518
12
-0.880752
22
-0.293681
32
0.037494
13
-0.880752
23
-0.293681
33
0.037494
62
0
0
3DFACE
8
GEM
10
-0.821374
20
-0.592192
30
0.037518
11
-0.880752
21
-0.293681
31
0.037494
12
-0.880752
22
-0.293681
32
0.000004
13
-0.880752
23
-0.293681
33
0.000004
62
0
0
3DFACE
8
GEM
10
-0.821374
20
-0.592192
30
0.037518
11
-0.880752
21
-0.293681
31
0.000004
12
-0.821375
22
-0.592189
32
0.000004
13
-0.821375
23
-0.592189
33
0.000004
62
0
0
3DFACE
8
GEM
10
-0.821374
20
-0.592192
30
0.037518
11
-0.821375
21
-0.592189
31
0.000004
12
-0.821374
22
-0.592192
32
0.000006
13
-0.821374
23
-0.592192
33
0.000006
62
0
0
3DFACE
8
GEM
10
-0.880661
20
0.294140
30
0.037518
11
-0.821374
21
0.592192
31
0.037518
12
-0.821374
22
0.592192
32
0.000006
13
-0.821374
23
0.592192
33
0.000006
62
0
0
3DFACE
8
GEM
10
-0.880661
20
0.294140
30
0.037518
11
-0.821374
21
0.592192
31
0.000006
12
-0.821375
22
0.592189
32
0.000004
13
-0.821375
23
0.592189
33
0.000004
62
0
0
3DFACE
8
GEM
10
-0.880661
20
0.294140
30
0.037518
11
-0.821375
21
0.592189
31
0.000004
12
-0.880752
22
0.293681
32
0.000004
13
-0.880752
23
0.293681
33
0.000004
62
0
0
3DFACE
8
GEM
10
-0.880661
20
0.294140
30
0.037518
11
-0.880752
21
0.293681
31
0.000004
12
-0.880752
22
0.293681
32
0.037494
13
-0.880752
23
0.293681
33
0.037494
62
0
0
3DFACE
8
GEM
10
0.821374
20
0.592192
30
0.037518
11
0.880661
21
0.294140
31
0.037518
12
0.880752
22
0.293681
32
0.037494
13
0.880752
23
0.293681
33
0.037494
62
0
0
3DFACE
8
GEM
10
0.821374
20
0.592192
30
0.037518
11
0.880752
21
0.293681
31
0.037494
12
0.880752
22
0.293681
32
0.000004
13
0.880752
23
0.293681
33
0.000004
62
0
0
3DFACE
8
GEM
10
0.821374
20
0.592192
30
0.037518
11
0.880752
21
0.293681
31
0.000004
12
0.821375
22
0.592189
32
0.000004
13
0.821375
23
0.592189
33
0.000004
62
0
0
3DFACE
8
GEM
10
0.821374
20
0.592192
30
0.037518
11
0.821375
21
0.592189
31
0.000004
12
0.821374
22
0.592192
32
0.000006
13
0.821374
23
0.592192
33
0.000006
62
0
0
3DFACE
8
GEM
10
0.880661
20
-0.294140
30
0.037518
11
0.821374
21
-0.592192
31
0.037518
12
0.821374
22
-0.592192
32
0.000006
13
0.821374
23
-0.592192
33
0.000006
62
0
0
3DFACE
8
GEM
10
0.880661
20
-0.294140
30
0.037518
11
0.821374
21
-0.592192
31
0.000006
12
0.821375
22
-0.592189
32
0.000004
13
0.821375
23
-0.592189
33
0.000004
62
0
0
3DFACE
8
GEM
10
0.880661
20
-0.294140
30
0.037518
11
0.821375
21
-0.592189
31
0.000004
12
0.880752
22
-0.293681
32
0.000004
13
0.880752
23
-0.293681
33
0.000004
62
0
0
3DFACE
8
GEM
10
0.880661
20
-0.294140
30
0.037518
11
0.880752
21
-0.293681
31
0.000004
12
0.880752
22
-0.293681
32
0.037494
13
0.880752
23
-0.293681
33
0.037494
62
0
0
3DFACE
8
GEM
10
-0.880757
20
-0.293612
30
0.037498
11
-0.900001
21
0.000000
31
0.037498
12
-0.900001
22
0.000000
32
-0.000063
13
-0.900001
23
0.000000
33
-0.000063
62
0
0
3DFACE
8
GEM
10
-0.880757
20
-0.293612
30
0.037498
11
-0.900001
21
0.000000
31
-0.000063
12
-0.880781
22
-0.293248
32
-0.000063
13
-0.880781
23
-0.293248
33
-0.000063
62
0
0
3DFACE
8
GEM
10
-0.880757
20
-0.293612
30
0.037498
11
-0.880781
21
-0.293248
31
-0.000063
12
-0.880752
22
-0.293681
32
0.000004
13
-0.880752
23
-0.293681
33
0.000004
62
0
0
3DFACE
8
GEM
10
-0.880757
20
-0.293612
30
0.037498
11
-0.880752
21
-0.293681
31
0.000004
12
-0.880752
22
-0.293681
32
0.037494
13
-0.880752
23
-0.293681
33
0.037494
62
0
0
3DFACE
8
GEM
10
-0.900001
20
0.000000
30
0.037498
11
-0.880757
21
0.293612
31
0.037498
12
-0.880752
22
0.293681
32
0.037494
13
-0.880752
23
0.293681
33
0.037494
62
0
0
3DFACE
8
GEM
10
-0.900001
20
0.000000
30
0.037498
11
-0.880752
21
0.293681
31
0.037494
12
-0.880752
22
0.293681
32
0.000004
13
-0.880752
23
0.293681
33
0.000004
62
0
0
3DFACE
8
GEM
10
-0.900001
20
0.000000
30
0.037498
11
-0.880752
21
0.293681
31
0.000004
12
-0.880781
22
0.293248
32
-0.000063
13
-0.880781
23
0.293248
33
-0.000063
62
0
0
3DFACE
8
GEM
10
-0.900001
20
0.000000
30
0.037498
11
-0.880781
21
0.293248
31
-0.000063
12
-0.900001
22
0.000000
32
-0.000063
13
-0.900001
23
0.000000
33
-0.000063
62
0
0
3DFACE
8
GEM
10
0.880757
20
0.293612
30
0.037498
11
0.900001
21
-0.000000
31
0.037498
12
0.900001
22
-0.000000
32
-0.000063
13
0.900001
23
-0.000000
33
-0.000063
62
0
0
3DFACE
8
GEM
10
0.880757
20
0.293612
30
0.037498
11
0.900001
21
-0.000000
31
-0.000063
12
0.880781
22
0.293248
32
-0.000063
13
0.880781
23
0.293248
33
-0.000063
62
0
0
3DFACE
8
GEM
10
0.880757
20
0.293612
30
0.037498
11
0.880781
21
0.293248
31
-0.000063
12
0.880752
22
0.293681
32
0.000004
13
0.880752
23
0.293681
33
0.000004
62
0
0
3DFACE
8
GEM
10
0.880757
20
0.293612
30
0.037498
11
0.880752
21
0.293681
31
0.000004
12
0.880752
22
0.293681
32
0.037494
13
0.880752
23
0.293681
33
0.037494
62
0
0
3DFACE
8
GEM
10
0.900001
20
-0.000000
30
0.037498
11
0.880757
21
-0.293612
31
0.037498
12
0.880752
22
-0.293681
32
0.037494
13
0.880752
23
-0.293681
33
0.037494
62
0
0
3DFACE
8
GEM
10
0.900001
20
-0.000000
30
0.037498
11
0.880752
21
-0.293681
31
0.037494
12
0.880752
22
-0.293681
32
0.000004
13
0.880752
23
-0.293681
33
0.000004
62
0
0
3DFACE
8
GEM
10
0.900001
20
-0.000000
30
0.037498
11
0.880752
21
-0.293681
31
0.000004
12
0.880781
22
-0.293248
32
-0.000063
13
0.880781
23
-0.293248
33
-0.000063
62
0
0
3DFACE
8
GEM
10
0.900001
20
-0.000000
30
0.037498
11
0.880781
21
-0.293248
31
-0.000063
12
0.900001
22
-0.000000
32
-0.000063
13
0.900001
23
-0.000000
33
-0.000063
62
0
0
ENDSEC
0
EOF
