999
DXF gemstone file C:\temp\_gems\pc15011.dxf created by GemCad for Windows
0
SECTION
2
HEADER
0
ENDSEC
0
SECTION
2
TABLES
0
TABLE
2
LAYER
70
153
0
LAYER
2
GEM
70
0
62
15
6
CONTINUOUS
0
ENDTAB
0
ENDSEC
0
SECTION
2
ENTITIES
0
3DFACE
8
GEM
10
0.087149
20
-0.087149
30
-1.020000
11
-0.000000
21
-0.123247
31
-1.020000
12
-0.087149
22
-0.087149
32
-1.020000
13
-0.087149
23
-0.087149
33
-1.020000
62
0
0
3DFACE
8
GEM
10
0.087149
20
-0.087149
30
-1.020000
11
-0.087149
21
-0.087149
31
-1.020000
12
-0.123247
22
0.000000
32
-1.020000
13
-0.123247
23
0.000000
33
-1.020000
62
0
0
3DFACE
8
GEM
10
0.087149
20
-0.087149
30
-1.020000
11
-0.123247
21
0.000000
31
-1.020000
12
-0.087149
22
0.087149
32
-1.020000
13
-0.087149
23
0.087149
33
-1.020000
62
0
0
3DFACE
8
GEM
10
0.087149
20
-0.087149
30
-1.020000
11
-0.087149
21
0.087149
31
-1.020000
12
0.000000
22
0.123247
32
-1.020000
13
0.000000
23
0.123247
33
-1.020000
62
0
0
3DFACE
8
GEM
10
0.087149
20
-0.087149
30
-1.020000
11
0.000000
21
0.123247
31
-1.020000
12
0.087149
22
0.087149
32
-1.020000
13
0.087149
23
0.087149
33
-1.020000
62
0
0
3DFACE
8
GEM
10
0.087149
20
-0.087149
30
-1.020000
11
0.087149
21
0.087149
31
-1.020000
12
0.123247
22
-0.000000
32
-1.020000
13
0.123247
23
-0.000000
33
-1.020000
62
0
0
3DFACE
8
GEM
10
-0.000000
20
-0.810003
30
0.031562
11
-0.000000
21
-0.688491
31
0.133032
12
-0.494673
22
-0.639770
32
0.133032
13
-0.494673
23
-0.639770
33
0.133032
62
0
0
3DFACE
8
GEM
10
-0.000000
20
-0.810003
30
0.031562
11
-0.494673
21
-0.639770
31
0.133032
12
-0.737375
22
-0.737378
32
0.031562
13
-0.737375
23
-0.737378
33
0.031562
62
0
0
3DFACE
8
GEM
10
-0.688491
20
-0.000000
30
0.133032
11
-0.810003
21
-0.000000
31
0.031562
12
-0.737378
22
-0.737375
32
0.031562
13
-0.737378
23
-0.737375
33
0.031562
62
0
0
3DFACE
8
GEM
10
-0.688491
20
-0.000000
30
0.133032
11
-0.737378
21
-0.737375
31
0.031562
12
-0.639770
22
-0.494673
32
0.133032
13
-0.639770
23
-0.494673
33
0.133032
62
0
0
3DFACE
8
GEM
10
-0.810003
20
-0.000000
30
0.031562
11
-0.688491
21
-0.000000
31
0.133032
12
-0.639770
22
0.494673
32
0.133032
13
-0.639770
23
0.494673
33
0.133032
62
0
0
3DFACE
8
GEM
10
-0.810003
20
-0.000000
30
0.031562
11
-0.639770
21
0.494673
31
0.133032
12
-0.737378
22
0.737375
32
0.031562
13
-0.737378
23
0.737375
33
0.031562
62
0
0
3DFACE
8
GEM
10
-0.000000
20
0.688491
30
0.133032
11
0.000000
21
0.810003
31
0.031562
12
-0.737375
22
0.737378
32
0.031562
13
-0.737375
23
0.737378
33
0.031562
62
0
0
3DFACE
8
GEM
10
-0.000000
20
0.688491
30
0.133032
11
-0.737375
21
0.737378
31
0.031562
12
-0.494673
22
0.639770
32
0.133032
13
-0.494673
23
0.639770
33
0.133032
62
0
0
3DFACE
8
GEM
10
0.000000
20
0.810003
30
0.031562
11
-0.000000
21
0.688491
31
0.133032
12
0.494673
22
0.639770
32
0.133032
13
0.494673
23
0.639770
33
0.133032
62
0
0
3DFACE
8
GEM
10
0.000000
20
0.810003
30
0.031562
11
0.494673
21
0.639770
31
0.133032
12
0.737375
22
0.737378
32
0.031562
13
0.737375
23
0.737378
33
0.031562
62
0
0
3DFACE
8
GEM
10
0.688491
20
0.000000
30
0.133032
11
0.810003
21
0.000000
31
0.031562
12
0.737378
22
0.737375
32
0.031562
13
0.737378
23
0.737375
33
0.031562
62
0
0
3DFACE
8
GEM
10
0.688491
20
0.000000
30
0.133032
11
0.737378
21
0.737375
31
0.031562
12
0.639770
22
0.494673
32
0.133032
13
0.639770
23
0.494673
33
0.133032
62
0
0
3DFACE
8
GEM
10
0.810003
20
0.000000
30
0.031562
11
0.688491
21
0.000000
31
0.133032
12
0.639770
22
-0.494673
32
0.133032
13
0.639770
23
-0.494673
33
0.133032
62
0
0
3DFACE
8
GEM
10
0.810003
20
0.000000
30
0.031562
11
0.639770
21
-0.494673
31
0.133032
12
0.737378
22
-0.737375
32
0.031562
13
0.737378
23
-0.737375
33
0.031562
62
0
0
3DFACE
8
GEM
10
-0.000000
20
-0.688491
30
0.133032
11
-0.000000
21
-0.810003
31
0.031562
12
0.737375
22
-0.737378
32
0.031562
13
0.737375
23
-0.737378
33
0.031562
62
0
0
3DFACE
8
GEM
10
-0.000000
20
-0.688491
30
0.133032
11
0.737375
21
-0.737378
31
0.031562
12
0.494673
22
-0.639770
32
0.133032
13
0.494673
23
-0.639770
33
0.133032
62
0
0
3DFACE
8
GEM
10
-0.737375
20
-0.737378
30
0.031562
11
-0.494673
21
-0.639770
31
0.133032
12
-0.375107
22
-0.530072
32
0.214573
13
-0.375107
23
-0.530072
33
0.214573
62
0
0
3DFACE
8
GEM
10
-0.737375
20
-0.737378
30
0.031562
11
-0.375107
21
-0.530072
31
0.214573
12
-0.420145
22
-0.420145
32
0.261314
13
-0.420145
23
-0.420145
33
0.261314
62
0
0
3DFACE
8
GEM
10
-0.737375
20
-0.737378
30
0.031562
11
-0.420145
21
-0.420145
31
0.261314
12
-0.737378
22
-0.737378
32
0.031562
13
-0.737378
23
-0.737378
33
0.031562
62
0
0
3DFACE
8
GEM
10
-0.639770
20
-0.494673
30
0.133032
11
-0.737378
21
-0.737375
31
0.031562
12
-0.737378
22
-0.737378
32
0.031562
13
-0.737378
23
-0.737378
33
0.031562
62
0
0
3DFACE
8
GEM
10
-0.639770
20
-0.494673
30
0.133032
11
-0.737378
21
-0.737378
31
0.031562
12
-0.420145
22
-0.420145
32
0.261314
13
-0.420145
23
-0.420145
33
0.261314
62
0
0
3DFACE
8
GEM
10
-0.639770
20
-0.494673
30
0.133032
11
-0.420145
21
-0.420145
31
0.261314
12
-0.530072
22
-0.375107
32
0.214573
13
-0.530072
23
-0.375107
33
0.214573
62
0
0
3DFACE
8
GEM
10
-0.737378
20
0.737375
30
0.031562
11
-0.639770
21
0.494673
31
0.133032
12
-0.530072
22
0.375107
32
0.214573
13
-0.530072
23
0.375107
33
0.214573
62
0
0
3DFACE
8
GEM
10
-0.737378
20
0.737375
30
0.031562
11
-0.530072
21
0.375107
31
0.214573
12
-0.420145
22
0.420145
32
0.261314
13
-0.420145
23
0.420145
33
0.261314
62
0
0
3DFACE
8
GEM
10
-0.737378
20
0.737375
30
0.031562
11
-0.420145
21
0.420145
31
0.261314
12
-0.737378
22
0.737378
32
0.031562
13
-0.737378
23
0.737378
33
0.031562
62
0
0
3DFACE
8
GEM
10
-0.494673
20
0.639770
30
0.133032
11
-0.737375
21
0.737378
31
0.031562
12
-0.737378
22
0.737378
32
0.031562
13
-0.737378
23
0.737378
33
0.031562
62
0
0
3DFACE
8
GEM
10
-0.494673
20
0.639770
30
0.133032
11
-0.737378
21
0.737378
31
0.031562
12
-0.420145
22
0.420145
32
0.261314
13
-0.420145
23
0.420145
33
0.261314
62
0
0
3DFACE
8
GEM
10
-0.494673
20
0.639770
30
0.133032
11
-0.420145
21
0.420145
31
0.261314
12
-0.375107
22
0.530072
32
0.214573
13
-0.375107
23
0.530072
33
0.214573
62
0
0
3DFACE
8
GEM
10
0.737375
20
0.737378
30
0.031562
11
0.494673
21
0.639770
31
0.133032
12
0.375107
22
0.530072
32
0.214573
13
0.375107
23
0.530072
33
0.214573
62
0
0
3DFACE
8
GEM
10
0.737375
20
0.737378
30
0.031562
11
0.375107
21
0.530072
31
0.214573
12
0.420145
22
0.420145
32
0.261314
13
0.420145
23
0.420145
33
0.261314
62
0
0
3DFACE
8
GEM
10
0.737375
20
0.737378
30
0.031562
11
0.420145
21
0.420145
31
0.261314
12
0.737378
22
0.737378
32
0.031562
13
0.737378
23
0.737378
33
0.031562
62
0
0
3DFACE
8
GEM
10
0.639770
20
0.494673
30
0.133032
11
0.737378
21
0.737375
31
0.031562
12
0.737378
22
0.737378
32
0.031562
13
0.737378
23
0.737378
33
0.031562
62
0
0
3DFACE
8
GEM
10
0.639770
20
0.494673
30
0.133032
11
0.737378
21
0.737378
31
0.031562
12
0.420145
22
0.420145
32
0.261314
13
0.420145
23
0.420145
33
0.261314
62
0
0
3DFACE
8
GEM
10
0.639770
20
0.494673
30
0.133032
11
0.420145
21
0.420145
31
0.261314
12
0.530072
22
0.375107
32
0.214573
13
0.530072
23
0.375107
33
0.214573
62
0
0
3DFACE
8
GEM
10
0.737378
20
-0.737375
30
0.031562
11
0.639770
21
-0.494673
31
0.133032
12
0.530072
22
-0.375107
32
0.214573
13
0.530072
23
-0.375107
33
0.214573
62
0
0
3DFACE
8
GEM
10
0.737378
20
-0.737375
30
0.031562
11
0.530072
21
-0.375107
31
0.214573
12
0.420145
22
-0.420145
32
0.261314
13
0.420145
23
-0.420145
33
0.261314
62
0
0
3DFACE
8
GEM
10
0.737378
20
-0.737375
30
0.031562
11
0.420145
21
-0.420145
31
0.261314
12
0.737378
22
-0.737378
32
0.031562
13
0.737378
23
-0.737378
33
0.031562
62
0
0
3DFACE
8
GEM
10
0.494673
20
-0.639770
30
0.133032
11
0.737375
21
-0.737378
31
0.031562
12
0.737378
22
-0.737378
32
0.031562
13
0.737378
23
-0.737378
33
0.031562
62
0
0
3DFACE
8
GEM
10
0.494673
20
-0.639770
30
0.133032
11
0.737378
21
-0.737378
31
0.031562
12
0.420145
22
-0.420145
32
0.261314
13
0.420145
23
-0.420145
33
0.261314
62
0
0
3DFACE
8
GEM
10
0.494673
20
-0.639770
30
0.133032
11
0.420145
21
-0.420145
31
0.261314
12
0.375107
22
-0.530072
32
0.214573
13
0.375107
23
-0.530072
33
0.214573
62
0
0
3DFACE
8
GEM
10
-0.494673
20
-0.639770
30
0.133032
11
-0.000000
21
-0.688491
31
0.133032
12
-0.000000
22
-0.567017
32
0.214573
13
-0.000000
23
-0.567017
33
0.214573
62
0
0
3DFACE
8
GEM
10
-0.494673
20
-0.639770
30
0.133032
11
-0.000000
21
-0.567017
31
0.214573
12
-0.375107
22
-0.530072
32
0.214573
13
-0.375107
23
-0.530072
33
0.214573
62
0
0
3DFACE
8
GEM
10
-0.688491
20
-0.000000
30
0.133032
11
-0.639770
21
-0.494673
31
0.133032
12
-0.530072
22
-0.375107
32
0.214573
13
-0.530072
23
-0.375107
33
0.214573
62
0
0
3DFACE
8
GEM
10
-0.688491
20
-0.000000
30
0.133032
11
-0.530072
21
-0.375107
31
0.214573
12
-0.567017
22
-0.000000
32
0.214573
13
-0.567017
23
-0.000000
33
0.214573
62
0
0
3DFACE
8
GEM
10
-0.639770
20
0.494673
30
0.133032
11
-0.688491
21
-0.000000
31
0.133032
12
-0.567017
22
-0.000000
32
0.214573
13
-0.567017
23
-0.000000
33
0.214573
62
0
0
3DFACE
8
GEM
10
-0.639770
20
0.494673
30
0.133032
11
-0.567017
21
-0.000000
31
0.214573
12
-0.530072
22
0.375107
32
0.214573
13
-0.530072
23
0.375107
33
0.214573
62
0
0
3DFACE
8
GEM
10
-0.000000
20
0.688491
30
0.133032
11
-0.494673
21
0.639770
31
0.133032
12
-0.375107
22
0.530072
32
0.214573
13
-0.375107
23
0.530072
33
0.214573
62
0
0
3DFACE
8
GEM
10
-0.000000
20
0.688491
30
0.133032
11
-0.375107
21
0.530072
31
0.214573
12
-0.000000
22
0.567017
32
0.214573
13
-0.000000
23
0.567017
33
0.214573
62
0
0
3DFACE
8
GEM
10
0.494673
20
0.639770
30
0.133032
11
-0.000000
21
0.688491
31
0.133032
12
-0.000000
22
0.567017
32
0.214573
13
-0.000000
23
0.567017
33
0.214573
62
0
0
3DFACE
8
GEM
10
0.494673
20
0.639770
30
0.133032
11
-0.000000
21
0.567017
31
0.214573
12
0.375107
22
0.530072
32
0.214573
13
0.375107
23
0.530072
33
0.214573
62
0
0
3DFACE
8
GEM
10
0.688491
20
0.000000
30
0.133032
11
0.639770
21
0.494673
31
0.133032
12
0.530072
22
0.375107
32
0.214573
13
0.530072
23
0.375107
33
0.214573
62
0
0
3DFACE
8
GEM
10
0.688491
20
0.000000
30
0.133032
11
0.530072
21
0.375107
31
0.214573
12
0.567017
22
0.000000
32
0.214573
13
0.567017
23
0.000000
33
0.214573
62
0
0
3DFACE
8
GEM
10
0.639770
20
-0.494673
30
0.133032
11
0.688491
21
0.000000
31
0.133032
12
0.567017
22
0.000000
32
0.214573
13
0.567017
23
0.000000
33
0.214573
62
0
0
3DFACE
8
GEM
10
0.639770
20
-0.494673
30
0.133032
11
0.567017
21
0.000000
31
0.214573
12
0.530072
22
-0.375107
32
0.214573
13
0.530072
23
-0.375107
33
0.214573
62
0
0
3DFACE
8
GEM
10
-0.000000
20
-0.688491
30
0.133032
11
0.494673
21
-0.639770
31
0.133032
12
0.375107
22
-0.530072
32
0.214573
13
0.375107
23
-0.530072
33
0.214573
62
0
0
3DFACE
8
GEM
10
-0.000000
20
-0.688491
30
0.133032
11
0.375107
21
-0.530072
31
0.214573
12
-0.000000
22
-0.567017
32
0.214573
13
-0.000000
23
-0.567017
33
0.214573
62
0
0
3DFACE
8
GEM
10
-0.420145
20
-0.420145
30
0.261314
11
-0.375107
21
-0.530072
31
0.214573
12
-0.000000
22
-0.567017
32
0.214573
13
-0.000000
23
-0.567017
33
0.214573
62
0
0
3DFACE
8
GEM
10
-0.420145
20
-0.420145
30
0.261314
11
-0.000000
21
-0.567017
31
0.214573
12
-0.000000
22
-0.461504
32
0.261324
13
-0.000000
23
-0.461504
33
0.261324
62
0
0
3DFACE
8
GEM
10
-0.420145
20
-0.420145
30
0.261314
11
-0.000000
21
-0.461504
31
0.261324
12
-0.420125
22
-0.420125
32
0.261324
13
-0.420125
23
-0.420125
33
0.261324
62
0
0
3DFACE
8
GEM
10
-0.530072
20
-0.375107
30
0.214573
11
-0.420145
21
-0.420145
31
0.261314
12
-0.420125
22
-0.420125
32
0.261324
13
-0.420125
23
-0.420125
33
0.261324
62
0
0
3DFACE
8
GEM
10
-0.530072
20
-0.375107
30
0.214573
11
-0.420125
21
-0.420125
31
0.261324
12
-0.461504
22
-0.000000
32
0.261324
13
-0.461504
23
-0.000000
33
0.261324
62
0
0
3DFACE
8
GEM
10
-0.530072
20
-0.375107
30
0.214573
11
-0.461504
21
-0.000000
31
0.261324
12
-0.567017
22
-0.000000
32
0.214573
13
-0.567017
23
-0.000000
33
0.214573
62
0
0
3DFACE
8
GEM
10
-0.420145
20
0.420145
30
0.261314
11
-0.530072
21
0.375107
31
0.214573
12
-0.567017
22
-0.000000
32
0.214573
13
-0.567017
23
-0.000000
33
0.214573
62
0
0
3DFACE
8
GEM
10
-0.420145
20
0.420145
30
0.261314
11
-0.567017
21
-0.000000
31
0.214573
12
-0.461504
22
-0.000000
32
0.261324
13
-0.461504
23
-0.000000
33
0.261324
62
0
0
3DFACE
8
GEM
10
-0.420145
20
0.420145
30
0.261314
11
-0.461504
21
-0.000000
31
0.261324
12
-0.420125
22
0.420125
32
0.261324
13
-0.420125
23
0.420125
33
0.261324
62
0
0
3DFACE
8
GEM
10
-0.375107
20
0.530072
30
0.214573
11
-0.420145
21
0.420145
31
0.261314
12
-0.420125
22
0.420125
32
0.261324
13
-0.420125
23
0.420125
33
0.261324
62
0
0
3DFACE
8
GEM
10
-0.375107
20
0.530072
30
0.214573
11
-0.420125
21
0.420125
31
0.261324
12
-0.000000
22
0.461504
32
0.261324
13
-0.000000
23
0.461504
33
0.261324
62
0
0
3DFACE
8
GEM
10
-0.375107
20
0.530072
30
0.214573
11
-0.000000
21
0.461504
31
0.261324
12
-0.000000
22
0.567017
32
0.214573
13
-0.000000
23
0.567017
33
0.214573
62
0
0
3DFACE
8
GEM
10
0.420145
20
0.420145
30
0.261314
11
0.375107
21
0.530072
31
0.214573
12
-0.000000
22
0.567017
32
0.214573
13
-0.000000
23
0.567017
33
0.214573
62
0
0
3DFACE
8
GEM
10
0.420145
20
0.420145
30
0.261314
11
-0.000000
21
0.567017
31
0.214573
12
-0.000000
22
0.461504
32
0.261324
13
-0.000000
23
0.461504
33
0.261324
62
0
0
3DFACE
8
GEM
10
0.420145
20
0.420145
30
0.261314
11
-0.000000
21
0.461504
31
0.261324
12
0.420125
22
0.420125
32
0.261324
13
0.420125
23
0.420125
33
0.261324
62
0
0
3DFACE
8
GEM
10
0.530072
20
0.375107
30
0.214573
11
0.420145
21
0.420145
31
0.261314
12
0.420125
22
0.420125
32
0.261324
13
0.420125
23
0.420125
33
0.261324
62
0
0
3DFACE
8
GEM
10
0.530072
20
0.375107
30
0.214573
11
0.420125
21
0.420125
31
0.261324
12
0.461504
22
0.000000
32
0.261324
13
0.461504
23
0.000000
33
0.261324
62
0
0
3DFACE
8
GEM
10
0.530072
20
0.375107
30
0.214573
11
0.461504
21
0.000000
31
0.261324
12
0.567017
22
0.000000
32
0.214573
13
0.567017
23
0.000000
33
0.214573
62
0
0
3DFACE
8
GEM
10
0.420145
20
-0.420145
30
0.261314
11
0.530072
21
-0.375107
31
0.214573
12
0.567017
22
0.000000
32
0.214573
13
0.567017
23
0.000000
33
0.214573
62
0
0
3DFACE
8
GEM
10
0.420145
20
-0.420145
30
0.261314
11
0.567017
21
0.000000
31
0.214573
12
0.461504
22
0.000000
32
0.261324
13
0.461504
23
0.000000
33
0.261324
62
0
0
3DFACE
8
GEM
10
0.420145
20
-0.420145
30
0.261314
11
0.461504
21
0.000000
31
0.261324
12
0.420125
22
-0.420125
32
0.261324
13
0.420125
23
-0.420125
33
0.261324
62
0
0
3DFACE
8
GEM
10
0.375107
20
-0.530072
30
0.214573
11
0.420145
21
-0.420145
31
0.261314
12
0.420125
22
-0.420125
32
0.261324
13
0.420125
23
-0.420125
33
0.261324
62
0
0
3DFACE
8
GEM
10
0.375107
20
-0.530072
30
0.214573
11
0.420125
21
-0.420125
31
0.261324
12
-0.000000
22
-0.461504
32
0.261324
13
-0.000000
23
-0.461504
33
0.261324
62
0
0
3DFACE
8
GEM
10
0.375107
20
-0.530072
30
0.214573
11
-0.000000
21
-0.461504
31
0.261324
12
-0.000000
22
-0.567017
32
0.214573
13
-0.000000
23
-0.567017
33
0.214573
62
0
0
3DFACE
8
GEM
10
-0.420125
20
-0.420125
30
0.261324
11
-0.000000
21
-0.461504
31
0.261324
12
0.420125
22
-0.420125
32
0.261324
13
0.420125
23
-0.420125
33
0.261324
62
0
0
3DFACE
8
GEM
10
-0.420125
20
-0.420125
30
0.261324
11
0.420125
21
-0.420125
31
0.261324
12
0.461504
22
0.000000
32
0.261324
13
0.461504
23
0.000000
33
0.261324
62
0
0
3DFACE
8
GEM
10
-0.420125
20
-0.420125
30
0.261324
11
0.461504
21
0.000000
31
0.261324
12
0.420125
22
0.420125
32
0.261324
13
0.420125
23
0.420125
33
0.261324
62
0
0
3DFACE
8
GEM
10
-0.420125
20
-0.420125
30
0.261324
11
0.420125
21
0.420125
31
0.261324
12
-0.000000
22
0.461504
32
0.261324
13
-0.000000
23
0.461504
33
0.261324
62
0
0
3DFACE
8
GEM
10
-0.420125
20
-0.420125
30
0.261324
11
-0.000000
21
0.461504
31
0.261324
12
-0.420125
22
0.420125
32
0.261324
13
-0.420125
23
0.420125
33
0.261324
62
0
0
3DFACE
8
GEM
10
-0.420125
20
-0.420125
30
0.261324
11
-0.420125
21
0.420125
31
0.261324
12
-0.461504
22
-0.000000
32
0.261324
13
-0.461504
23
-0.000000
33
0.261324
62
0
0
3DFACE
8
GEM
10
-0.000000
20
-0.123247
30
-1.020000
11
0.087149
21
-0.087149
31
-1.020000
12
0.417042
22
-0.417042
32
-0.645314
13
0.417042
23
-0.417042
33
-0.645314
62
0
0
3DFACE
8
GEM
10
-0.000000
20
-0.123247
30
-1.020000
11
0.417042
21
-0.417042
31
-0.645314
12
-0.000000
22
-0.209791
32
-0.950495
13
-0.000000
23
-0.209791
33
-0.950495
62
0
0
3DFACE
8
GEM
10
0.087149
20
-0.087149
30
-1.020000
11
0.123247
21
-0.000000
31
-1.020000
12
0.209791
22
-0.000000
32
-0.950495
13
0.209791
23
-0.000000
33
-0.950495
62
0
0
3DFACE
8
GEM
10
0.087149
20
-0.087149
30
-1.020000
11
0.209791
21
-0.000000
31
-0.950495
12
0.417042
22
-0.417042
32
-0.645314
13
0.417042
23
-0.417042
33
-0.645314
62
0
0
3DFACE
8
GEM
10
0.123247
20
-0.000000
30
-1.020000
11
0.087149
21
0.087149
31
-1.020000
12
0.417042
22
0.417042
32
-0.645314
13
0.417042
23
0.417042
33
-0.645314
62
0
0
3DFACE
8
GEM
10
0.123247
20
-0.000000
30
-1.020000
11
0.417042
21
0.417042
31
-0.645314
12
0.209791
22
-0.000000
32
-0.950495
13
0.209791
23
-0.000000
33
-0.950495
62
0
0
3DFACE
8
GEM
10
0.087149
20
0.087149
30
-1.020000
11
0.000000
21
0.123247
31
-1.020000
12
0.000000
22
0.209791
32
-0.950495
13
0.000000
23
0.209791
33
-0.950495
62
0
0
3DFACE
8
GEM
10
0.087149
20
0.087149
30
-1.020000
11
0.000000
21
0.209791
31
-0.950495
12
0.417042
22
0.417042
32
-0.645314
13
0.417042
23
0.417042
33
-0.645314
62
0
0
3DFACE
8
GEM
10
0.000000
20
0.123247
30
-1.020000
11
-0.087149
21
0.087149
31
-1.020000
12
-0.417042
22
0.417042
32
-0.645314
13
-0.417042
23
0.417042
33
-0.645314
62
0
0
3DFACE
8
GEM
10
0.000000
20
0.123247
30
-1.020000
11
-0.417042
21
0.417042
31
-0.645314
12
0.000000
22
0.209791
32
-0.950495
13
0.000000
23
0.209791
33
-0.950495
62
0
0
3DFACE
8
GEM
10
-0.087149
20
0.087149
30
-1.020000
11
-0.123247
21
0.000000
31
-1.020000
12
-0.209791
22
0.000000
32
-0.950495
13
-0.209791
23
0.000000
33
-0.950495
62
0
0
3DFACE
8
GEM
10
-0.087149
20
0.087149
30
-1.020000
11
-0.209791
21
0.000000
31
-0.950495
12
-0.417042
22
0.417042
32
-0.645314
13
-0.417042
23
0.417042
33
-0.645314
62
0
0
3DFACE
8
GEM
10
-0.123247
20
0.000000
30
-1.020000
11
-0.087149
21
-0.087149
31
-1.020000
12
-0.417042
22
-0.417042
32
-0.645314
13
-0.417042
23
-0.417042
33
-0.645314
62
0
0
3DFACE
8
GEM
10
-0.123247
20
0.000000
30
-1.020000
11
-0.417042
21
-0.417042
31
-0.645314
12
-0.209791
22
0.000000
32
-0.950495
13
-0.209791
23
0.000000
33
-0.950495
62
0
0
3DFACE
8
GEM
10
-0.087149
20
-0.087149
30
-1.020000
11
-0.000000
21
-0.123247
31
-1.020000
12
-0.000000
22
-0.209791
32
-0.950495
13
-0.000000
23
-0.209791
33
-0.950495
62
0
0
3DFACE
8
GEM
10
-0.087149
20
-0.087149
30
-1.020000
11
-0.000000
21
-0.209791
31
-0.950495
12
-0.417042
22
-0.417042
32
-0.645314
13
-0.417042
23
-0.417042
33
-0.645314
62
0
0
3DFACE
8
GEM
10
-0.000000
20
-0.209791
30
-0.950495
11
0.417042
21
-0.417042
31
-0.645314
12
0.417045
22
-0.417045
32
-0.645311
13
0.417045
23
-0.417045
33
-0.645311
62
0
0
3DFACE
8
GEM
10
-0.000000
20
-0.209791
30
-0.950495
11
0.417045
21
-0.417045
31
-0.645311
12
-0.000000
22
-0.458120
32
-0.645311
13
-0.000000
23
-0.458120
33
-0.645311
62
0
0
3DFACE
8
GEM
10
0.417042
20
-0.417042
30
-0.645314
11
0.209791
21
-0.000000
31
-0.950495
12
0.458120
22
0.000000
32
-0.645311
13
0.458120
23
0.000000
33
-0.645311
62
0
0
3DFACE
8
GEM
10
0.417042
20
-0.417042
30
-0.645314
11
0.458120
21
0.000000
31
-0.645311
12
0.417045
22
-0.417045
32
-0.645311
13
0.417045
23
-0.417045
33
-0.645311
62
0
0
3DFACE
8
GEM
10
0.209791
20
-0.000000
30
-0.950495
11
0.417042
21
0.417042
31
-0.645314
12
0.417045
22
0.417045
32
-0.645311
13
0.417045
23
0.417045
33
-0.645311
62
0
0
3DFACE
8
GEM
10
0.209791
20
-0.000000
30
-0.950495
11
0.417045
21
0.417045
31
-0.645311
12
0.458120
22
0.000000
32
-0.645311
13
0.458120
23
0.000000
33
-0.645311
62
0
0
3DFACE
8
GEM
10
0.417042
20
0.417042
30
-0.645314
11
0.000000
21
0.209791
31
-0.950495
12
0.000000
22
0.458120
32
-0.645311
13
0.000000
23
0.458120
33
-0.645311
62
0
0
3DFACE
8
GEM
10
0.417042
20
0.417042
30
-0.645314
11
0.000000
21
0.458120
31
-0.645311
12
0.417045
22
0.417045
32
-0.645311
13
0.417045
23
0.417045
33
-0.645311
62
0
0
3DFACE
8
GEM
10
0.000000
20
0.209791
30
-0.950495
11
-0.417042
21
0.417042
31
-0.645314
12
-0.417045
22
0.417045
32
-0.645311
13
-0.417045
23
0.417045
33
-0.645311
62
0
0
3DFACE
8
GEM
10
0.000000
20
0.209791
30
-0.950495
11
-0.417045
21
0.417045
31
-0.645311
12
0.000000
22
0.458120
32
-0.645311
13
0.000000
23
0.458120
33
-0.645311
62
0
0
3DFACE
8
GEM
10
-0.417042
20
0.417042
30
-0.645314
11
-0.209791
21
0.000000
31
-0.950495
12
-0.458120
22
-0.000000
32
-0.645311
13
-0.458120
23
-0.000000
33
-0.645311
62
0
0
3DFACE
8
GEM
10
-0.417042
20
0.417042
30
-0.645314
11
-0.458120
21
-0.000000
31
-0.645311
12
-0.417045
22
0.417045
32
-0.645311
13
-0.417045
23
0.417045
33
-0.645311
62
0
0
3DFACE
8
GEM
10
-0.209791
20
0.000000
30
-0.950495
11
-0.417042
21
-0.417042
31
-0.645314
12
-0.417045
22
-0.417045
32
-0.645311
13
-0.417045
23
-0.417045
33
-0.645311
62
0
0
3DFACE
8
GEM
10
-0.209791
20
0.000000
30
-0.950495
11
-0.417045
21
-0.417045
31
-0.645311
12
-0.458120
22
-0.000000
32
-0.645311
13
-0.458120
23
-0.000000
33
-0.645311
62
0
0
3DFACE
8
GEM
10
-0.417042
20
-0.417042
30
-0.645314
11
-0.000000
21
-0.209791
31
-0.950495
12
-0.000000
22
-0.458120
32
-0.645311
13
-0.000000
23
-0.458120
33
-0.645311
62
0
0
3DFACE
8
GEM
10
-0.417042
20
-0.417042
30
-0.645314
11
-0.000000
21
-0.458120
31
-0.645311
12
-0.417045
22
-0.417045
32
-0.645311
13
-0.417045
23
-0.417045
33
-0.645311
62
0
0
3DFACE
8
GEM
10
-0.000000
20
-0.458120
30
-0.645311
11
0.417045
21
-0.417045
31
-0.645311
12
0.417057
22
-0.417057
32
-0.645292
13
0.417057
23
-0.417057
33
-0.645292
62
0
0
3DFACE
8
GEM
10
-0.000000
20
-0.458120
30
-0.645311
11
0.417057
21
-0.417057
31
-0.645292
12
0.416598
22
-0.566472
32
-0.432997
13
0.416598
23
-0.566472
33
-0.432997
62
0
0
3DFACE
8
GEM
10
-0.000000
20
-0.458120
30
-0.645311
11
0.416598
21
-0.566472
31
-0.432997
12
-0.000000
22
-0.607503
32
-0.432997
13
-0.000000
23
-0.607503
33
-0.432997
62
0
0
3DFACE
8
GEM
10
0.417045
20
-0.417045
30
-0.645311
11
0.458120
21
0.000000
31
-0.645311
12
0.607503
22
0.000000
32
-0.432997
13
0.607503
23
0.000000
33
-0.432997
62
0
0
3DFACE
8
GEM
10
0.417045
20
-0.417045
30
-0.645311
11
0.607503
21
0.000000
31
-0.432997
12
0.566472
22
-0.416598
32
-0.432997
13
0.566472
23
-0.416598
33
-0.432997
62
0
0
3DFACE
8
GEM
10
0.417045
20
-0.417045
30
-0.645311
11
0.566472
21
-0.416598
31
-0.432997
12
0.417057
22
-0.417057
32
-0.645292
13
0.417057
23
-0.417057
33
-0.645292
62
0
0
3DFACE
8
GEM
10
0.458120
20
0.000000
30
-0.645311
11
0.417045
21
0.417045
31
-0.645311
12
0.417057
22
0.417057
32
-0.645292
13
0.417057
23
0.417057
33
-0.645292
62
0
0
3DFACE
8
GEM
10
0.458120
20
0.000000
30
-0.645311
11
0.417057
21
0.417057
31
-0.645292
12
0.566472
22
0.416598
32
-0.432997
13
0.566472
23
0.416598
33
-0.432997
62
0
0
3DFACE
8
GEM
10
0.458120
20
0.000000
30
-0.645311
11
0.566472
21
0.416598
31
-0.432997
12
0.607503
22
0.000000
32
-0.432997
13
0.607503
23
0.000000
33
-0.432997
62
0
0
3DFACE
8
GEM
10
0.417045
20
0.417045
30
-0.645311
11
0.000000
21
0.458120
31
-0.645311
12
0.000000
22
0.607503
32
-0.432997
13
0.000000
23
0.607503
33
-0.432997
62
0
0
3DFACE
8
GEM
10
0.417045
20
0.417045
30
-0.645311
11
0.000000
21
0.607503
31
-0.432997
12
0.416598
22
0.566472
32
-0.432997
13
0.416598
23
0.566472
33
-0.432997
62
0
0
3DFACE
8
GEM
10
0.417045
20
0.417045
30
-0.645311
11
0.416598
21
0.566472
31
-0.432997
12
0.417057
22
0.417057
32
-0.645292
13
0.417057
23
0.417057
33
-0.645292
62
0
0
3DFACE
8
GEM
10
0.000000
20
0.458120
30
-0.645311
11
-0.417045
21
0.417045
31
-0.645311
12
-0.417057
22
0.417057
32
-0.645292
13
-0.417057
23
0.417057
33
-0.645292
62
0
0
3DFACE
8
GEM
10
0.000000
20
0.458120
30
-0.645311
11
-0.417057
21
0.417057
31
-0.645292
12
-0.416598
22
0.566472
32
-0.432997
13
-0.416598
23
0.566472
33
-0.432997
62
0
0
3DFACE
8
GEM
10
0.000000
20
0.458120
30
-0.645311
11
-0.416598
21
0.566472
31
-0.432997
12
0.000000
22
0.607503
32
-0.432997
13
0.000000
23
0.607503
33
-0.432997
62
0
0
3DFACE
8
GEM
10
-0.417045
20
0.417045
30
-0.645311
11
-0.458120
21
-0.000000
31
-0.645311
12
-0.607503
22
-0.000000
32
-0.432997
13
-0.607503
23
-0.000000
33
-0.432997
62
0
0
3DFACE
8
GEM
10
-0.417045
20
0.417045
30
-0.645311
11
-0.607503
21
-0.000000
31
-0.432997
12
-0.566472
22
0.416598
32
-0.432997
13
-0.566472
23
0.416598
33
-0.432997
62
0
0
3DFACE
8
GEM
10
-0.417045
20
0.417045
30
-0.645311
11
-0.566472
21
0.416598
31
-0.432997
12
-0.417057
22
0.417057
32
-0.645292
13
-0.417057
23
0.417057
33
-0.645292
62
0
0
3DFACE
8
GEM
10
-0.458120
20
-0.000000
30
-0.645311
11
-0.417045
21
-0.417045
31
-0.645311
12
-0.417057
22
-0.417057
32
-0.645292
13
-0.417057
23
-0.417057
33
-0.645292
62
0
0
3DFACE
8
GEM
10
-0.458120
20
-0.000000
30
-0.645311
11
-0.417057
21
-0.417057
31
-0.645292
12
-0.566472
22
-0.416598
32
-0.432997
13
-0.566472
23
-0.416598
33
-0.432997
62
0
0
3DFACE
8
GEM
10
-0.458120
20
-0.000000
30
-0.645311
11
-0.566472
21
-0.416598
31
-0.432997
12
-0.607503
22
-0.000000
32
-0.432997
13
-0.607503
23
-0.000000
33
-0.432997
62
0
0
3DFACE
8
GEM
10
-0.417045
20
-0.417045
30
-0.645311
11
-0.000000
21
-0.458120
31
-0.645311
12
-0.000000
22
-0.607503
32
-0.432997
13
-0.000000
23
-0.607503
33
-0.432997
62
0
0
3DFACE
8
GEM
10
-0.417045
20
-0.417045
30
-0.645311
11
-0.000000
21
-0.607503
31
-0.432997
12
-0.416598
22
-0.566472
32
-0.432997
13
-0.416598
23
-0.566472
33
-0.432997
62
0
0
3DFACE
8
GEM
10
-0.417045
20
-0.417045
30
-0.645311
11
-0.416598
21
-0.566472
31
-0.432997
12
-0.417057
22
-0.417057
32
-0.645292
13
-0.417057
23
-0.417057
33
-0.645292
62
0
0
3DFACE
8
GEM
10
0.416598
20
-0.566472
30
-0.432997
11
0.417057
21
-0.417057
31
-0.645292
12
0.737368
22
-0.737368
32
-0.000847
13
0.737368
23
-0.737368
33
-0.000847
62
0
0
3DFACE
8
GEM
10
0.417057
20
-0.417057
30
-0.645292
11
0.566472
21
-0.416598
31
-0.432997
12
0.737368
22
-0.737368
32
-0.000847
13
0.737368
23
-0.737368
33
-0.000847
62
0
0
3DFACE
8
GEM
10
0.566472
20
0.416598
30
-0.432997
11
0.417057
21
0.417057
31
-0.645292
12
0.737368
22
0.737368
32
-0.000847
13
0.737368
23
0.737368
33
-0.000847
62
0
0
3DFACE
8
GEM
10
0.417057
20
0.417057
30
-0.645292
11
0.416598
21
0.566472
31
-0.432997
12
0.737368
22
0.737368
32
-0.000847
13
0.737368
23
0.737368
33
-0.000847
62
0
0
3DFACE
8
GEM
10
-0.416598
20
0.566472
30
-0.432997
11
-0.417057
21
0.417057
31
-0.645292
12
-0.737368
22
0.737368
32
-0.000847
13
-0.737368
23
0.737368
33
-0.000847
62
0
0
3DFACE
8
GEM
10
-0.417057
20
0.417057
30
-0.645292
11
-0.566472
21
0.416598
31
-0.432997
12
-0.737368
22
0.737368
32
-0.000847
13
-0.737368
23
0.737368
33
-0.000847
62
0
0
3DFACE
8
GEM
10
-0.566472
20
-0.416598
30
-0.432997
11
-0.417057
21
-0.417057
31
-0.645292
12
-0.737368
22
-0.737368
32
-0.000847
13
-0.737368
23
-0.737368
33
-0.000847
62
0
0
3DFACE
8
GEM
10
-0.417057
20
-0.417057
30
-0.645292
11
-0.416598
21
-0.566472
31
-0.432997
12
-0.737368
22
-0.737368
32
-0.000847
13
-0.737368
23
-0.737368
33
-0.000847
62
0
0
3DFACE
8
GEM
10
-0.000000
20
-0.607503
30
-0.432997
11
0.416598
21
-0.566472
31
-0.432997
12
0.737368
22
-0.737368
32
-0.000847
13
0.737368
23
-0.737368
33
-0.000847
62
0
0
3DFACE
8
GEM
10
-0.000000
20
-0.607503
30
-0.432997
11
0.737368
21
-0.737368
31
-0.000847
12
0.737378
22
-0.737378
32
-0.000825
13
0.737378
23
-0.737378
33
-0.000825
62
0
0
3DFACE
8
GEM
10
-0.000000
20
-0.607503
30
-0.432997
11
0.737378
21
-0.737378
31
-0.000825
12
-0.000000
22
-0.810003
32
-0.000825
13
-0.000000
23
-0.810003
33
-0.000825
62
0
0
3DFACE
8
GEM
10
0.566472
20
-0.416598
30
-0.432997
11
0.607503
21
0.000000
31
-0.432997
12
0.810003
22
0.000000
32
-0.000825
13
0.810003
23
0.000000
33
-0.000825
62
0
0
3DFACE
8
GEM
10
0.566472
20
-0.416598
30
-0.432997
11
0.810003
21
0.000000
31
-0.000825
12
0.737378
22
-0.737378
32
-0.000825
13
0.737378
23
-0.737378
33
-0.000825
62
0
0
3DFACE
8
GEM
10
0.566472
20
-0.416598
30
-0.432997
11
0.737378
21
-0.737378
31
-0.000825
12
0.737368
22
-0.737368
32
-0.000847
13
0.737368
23
-0.737368
33
-0.000847
62
0
0
3DFACE
8
GEM
10
0.607503
20
0.000000
30
-0.432997
11
0.566472
21
0.416598
31
-0.432997
12
0.737368
22
0.737368
32
-0.000847
13
0.737368
23
0.737368
33
-0.000847
62
0
0
3DFACE
8
GEM
10
0.607503
20
0.000000
30
-0.432997
11
0.737368
21
0.737368
31
-0.000847
12
0.737378
22
0.737378
32
-0.000825
13
0.737378
23
0.737378
33
-0.000825
62
0
0
3DFACE
8
GEM
10
0.607503
20
0.000000
30
-0.432997
11
0.737378
21
0.737378
31
-0.000825
12
0.810003
22
0.000000
32
-0.000825
13
0.810003
23
0.000000
33
-0.000825
62
0
0
3DFACE
8
GEM
10
0.416598
20
0.566472
30
-0.432997
11
0.000000
21
0.607503
31
-0.432997
12
0.000000
22
0.810003
32
-0.000825
13
0.000000
23
0.810003
33
-0.000825
62
0
0
3DFACE
8
GEM
10
0.416598
20
0.566472
30
-0.432997
11
0.000000
21
0.810003
31
-0.000825
12
0.737378
22
0.737378
32
-0.000825
13
0.737378
23
0.737378
33
-0.000825
62
0
0
3DFACE
8
GEM
10
0.416598
20
0.566472
30
-0.432997
11
0.737378
21
0.737378
31
-0.000825
12
0.737368
22
0.737368
32
-0.000847
13
0.737368
23
0.737368
33
-0.000847
62
0
0
3DFACE
8
GEM
10
0.000000
20
0.607503
30
-0.432997
11
-0.416598
21
0.566472
31
-0.432997
12
-0.737368
22
0.737368
32
-0.000847
13
-0.737368
23
0.737368
33
-0.000847
62
0
0
3DFACE
8
GEM
10
0.000000
20
0.607503
30
-0.432997
11
-0.737368
21
0.737368
31
-0.000847
12
-0.737378
22
0.737378
32
-0.000825
13
-0.737378
23
0.737378
33
-0.000825
62
0
0
3DFACE
8
GEM
10
0.000000
20
0.607503
30
-0.432997
11
-0.737378
21
0.737378
31
-0.000825
12
0.000000
22
0.810003
32
-0.000825
13
0.000000
23
0.810003
33
-0.000825
62
0
0
3DFACE
8
GEM
10
-0.566472
20
0.416598
30
-0.432997
11
-0.607503
21
-0.000000
31
-0.432997
12
-0.810003
22
-0.000000
32
-0.000825
13
-0.810003
23
-0.000000
33
-0.000825
62
0
0
3DFACE
8
GEM
10
-0.566472
20
0.416598
30
-0.432997
11
-0.810003
21
-0.000000
31
-0.000825
12
-0.737378
22
0.737378
32
-0.000825
13
-0.737378
23
0.737378
33
-0.000825
62
0
0
3DFACE
8
GEM
10
-0.566472
20
0.416598
30
-0.432997
11
-0.737378
21
0.737378
31
-0.000825
12
-0.737368
22
0.737368
32
-0.000847
13
-0.737368
23
0.737368
33
-0.000847
62
0
0
3DFACE
8
GEM
10
-0.607503
20
-0.000000
30
-0.432997
11
-0.566472
21
-0.416598
31
-0.432997
12
-0.737368
22
-0.737368
32
-0.000847
13
-0.737368
23
-0.737368
33
-0.000847
62
0
0
3DFACE
8
GEM
10
-0.607503
20
-0.000000
30
-0.432997
11
-0.737368
21
-0.737368
31
-0.000847
12
-0.737378
22
-0.737378
32
-0.000825
13
-0.737378
23
-0.737378
33
-0.000825
62
0
0
3DFACE
8
GEM
10
-0.607503
20
-0.000000
30
-0.432997
11
-0.737378
21
-0.737378
31
-0.000825
12
-0.810003
22
-0.000000
32
-0.000825
13
-0.810003
23
-0.000000
33
-0.000825
62
0
0
3DFACE
8
GEM
10
-0.416598
20
-0.566472
30
-0.432997
11
-0.000000
21
-0.607503
31
-0.432997
12
-0.000000
22
-0.810003
32
-0.000825
13
-0.000000
23
-0.810003
33
-0.000825
62
0
0
3DFACE
8
GEM
10
-0.416598
20
-0.566472
30
-0.432997
11
-0.000000
21
-0.810003
31
-0.000825
12
-0.737378
22
-0.737378
32
-0.000825
13
-0.737378
23
-0.737378
33
-0.000825
62
0
0
3DFACE
8
GEM
10
-0.416598
20
-0.566472
30
-0.432997
11
-0.737378
21
-0.737378
31
-0.000825
12
-0.737368
22
-0.737368
32
-0.000847
13
-0.737368
23
-0.737368
33
-0.000847
62
0
0
3DFACE
8
GEM
10
-0.000000
20
-0.810003
30
0.031562
11
-0.737375
21
-0.737378
31
0.031562
12
-0.737378
22
-0.737378
32
0.031562
13
-0.737378
23
-0.737378
33
0.031562
62
0
0
3DFACE
8
GEM
10
-0.000000
20
-0.810003
30
0.031562
11
-0.737378
21
-0.737378
31
0.031562
12
-0.737378
22
-0.737378
32
-0.000825
13
-0.737378
23
-0.737378
33
-0.000825
62
0
0
3DFACE
8
GEM
10
-0.000000
20
-0.810003
30
0.031562
11
-0.737378
21
-0.737378
31
-0.000825
12
-0.000000
22
-0.810003
32
-0.000825
13
-0.000000
23
-0.810003
33
-0.000825
62
0
0
3DFACE
8
GEM
10
-0.737378
20
-0.737375
30
0.031562
11
-0.810003
21
-0.000000
31
0.031562
12
-0.810003
22
-0.000000
32
-0.000825
13
-0.810003
23
-0.000000
33
-0.000825
62
0
0
3DFACE
8
GEM
10
-0.737378
20
-0.737375
30
0.031562
11
-0.810003
21
-0.000000
31
-0.000825
12
-0.737378
22
-0.737378
32
-0.000825
13
-0.737378
23
-0.737378
33
-0.000825
62
0
0
3DFACE
8
GEM
10
-0.737378
20
-0.737375
30
0.031562
11
-0.737378
21
-0.737378
31
-0.000825
12
-0.737378
22
-0.737378
32
0.031562
13
-0.737378
23
-0.737378
33
0.031562
62
0
0
3DFACE
8
GEM
10
-0.810003
20
-0.000000
30
0.031562
11
-0.737378
21
0.737375
31
0.031562
12
-0.737378
22
0.737378
32
0.031562
13
-0.737378
23
0.737378
33
0.031562
62
0
0
3DFACE
8
GEM
10
-0.810003
20
-0.000000
30
0.031562
11
-0.737378
21
0.737378
31
0.031562
12
-0.737378
22
0.737378
32
-0.000825
13
-0.737378
23
0.737378
33
-0.000825
62
0
0
3DFACE
8
GEM
10
-0.810003
20
-0.000000
30
0.031562
11
-0.737378
21
0.737378
31
-0.000825
12
-0.810003
22
-0.000000
32
-0.000825
13
-0.810003
23
-0.000000
33
-0.000825
62
0
0
3DFACE
8
GEM
10
-0.737375
20
0.737378
30
0.031562
11
0.000000
21
0.810003
31
0.031562
12
0.000000
22
0.810003
32
-0.000825
13
0.000000
23
0.810003
33
-0.000825
62
0
0
3DFACE
8
GEM
10
-0.737375
20
0.737378
30
0.031562
11
0.000000
21
0.810003
31
-0.000825
12
-0.737378
22
0.737378
32
-0.000825
13
-0.737378
23
0.737378
33
-0.000825
62
0
0
3DFACE
8
GEM
10
-0.737375
20
0.737378
30
0.031562
11
-0.737378
21
0.737378
31
-0.000825
12
-0.737378
22
0.737378
32
0.031562
13
-0.737378
23
0.737378
33
0.031562
62
0
0
3DFACE
8
GEM
10
0.000000
20
0.810003
30
0.031562
11
0.737375
21
0.737378
31
0.031562
12
0.737378
22
0.737378
32
0.031562
13
0.737378
23
0.737378
33
0.031562
62
0
0
3DFACE
8
GEM
10
0.000000
20
0.810003
30
0.031562
11
0.737378
21
0.737378
31
0.031562
12
0.737378
22
0.737378
32
-0.000825
13
0.737378
23
0.737378
33
-0.000825
62
0
0
3DFACE
8
GEM
10
0.000000
20
0.810003
30
0.031562
11
0.737378
21
0.737378
31
-0.000825
12
0.000000
22
0.810003
32
-0.000825
13
0.000000
23
0.810003
33
-0.000825
62
0
0
3DFACE
8
GEM
10
0.737378
20
0.737375
30
0.031562
11
0.810003
21
0.000000
31
0.031562
12
0.810003
22
0.000000
32
-0.000825
13
0.810003
23
0.000000
33
-0.000825
62
0
0
3DFACE
8
GEM
10
0.737378
20
0.737375
30
0.031562
11
0.810003
21
0.000000
31
-0.000825
12
0.737378
22
0.737378
32
-0.000825
13
0.737378
23
0.737378
33
-0.000825
62
0
0
3DFACE
8
GEM
10
0.737378
20
0.737375
30
0.031562
11
0.737378
21
0.737378
31
-0.000825
12
0.737378
22
0.737378
32
0.031562
13
0.737378
23
0.737378
33
0.031562
62
0
0
3DFACE
8
GEM
10
0.810003
20
0.000000
30
0.031562
11
0.737378
21
-0.737375
31
0.031562
12
0.737378
22
-0.737378
32
0.031562
13
0.737378
23
-0.737378
33
0.031562
62
0
0
3DFACE
8
GEM
10
0.810003
20
0.000000
30
0.031562
11
0.737378
21
-0.737378
31
0.031562
12
0.737378
22
-0.737378
32
-0.000825
13
0.737378
23
-0.737378
33
-0.000825
62
0
0
3DFACE
8
GEM
10
0.810003
20
0.000000
30
0.031562
11
0.737378
21
-0.737378
31
-0.000825
12
0.810003
22
0.000000
32
-0.000825
13
0.810003
23
0.000000
33
-0.000825
62
0
0
3DFACE
8
GEM
10
0.737375
20
-0.737378
30
0.031562
11
-0.000000
21
-0.810003
31
0.031562
12
-0.000000
22
-0.810003
32
-0.000825
13
-0.000000
23
-0.810003
33
-0.000825
62
0
0
3DFACE
8
GEM
10
0.737375
20
-0.737378
30
0.031562
11
-0.000000
21
-0.810003
31
-0.000825
12
0.737378
22
-0.737378
32
-0.000825
13
0.737378
23
-0.737378
33
-0.000825
62
0
0
3DFACE
8
GEM
10
0.737375
20
-0.737378
30
0.031562
11
0.737378
21
-0.737378
31
-0.000825
12
0.737378
22
-0.737378
32
0.031562
13
0.737378
23
-0.737378
33
0.031562
62
0
0
ENDSEC
0
EOF
