999
GemCutStudio DXF
0
SECTION
2
HEADER
9
$ACADVER
1
AC1006
9
$INSBASE
10
0.0
20
0.0
30
0.0
9
$EXTMIN
10
-1.0
20
-1.0
30
-1.0
9
$EXTMAX
10
1.0
20
1.0
30
1.0
0
ENDSEC
0
SECTION
2
TABLES
0
TABLE
2
LTYPE
70
1
0
LTYPE
2
CONTINUOUS
70
64
3
Solid line
72
65
73
0
40
0.00000
0
ENDTAB
0
TABLE
2
LAYER
70
6
0
LAYER
2
1
70
64
62
7
6
CONTINUOUS
0
ENDTAB
0
TABLE
2
STYLE
70
0
0
ENDTAB
0
ENDSEC
0
SECTION
2
BLOCKS
0
ENDSEC
0
SECTION
2
ENTITIES
0
3DFACE
8
1
62
1
10
-0.866025
20
-0.500000
30
0.119975
11
-0.000000
21
-0.000000
31
-0.533590
12
0.000000
22
-0.793976
32
0.119975
13
0.000000
23
-0.793976
33
0.119975
0
3DFACE
8
1
62
1
10
-0.000000
20
-0.000000
30
-0.533590
11
-0.866025
21
-0.500000
31
0.119975
12
-0.687603
22
0.396988
32
0.119975
13
-0.687603
23
0.396988
33
0.119975
0
3DFACE
8
1
62
1
10
-0.000000
20
-0.000000
30
-0.533590
11
-0.687603
21
0.396988
31
0.119975
12
-0.000000
22
1.000000
32
0.119975
13
-0.000000
23
1.000000
33
0.119975
0
3DFACE
8
1
62
1
10
-0.000000
20
-0.000000
30
-0.533590
11
-0.000000
21
1.000000
31
0.119975
12
0.687603
22
0.396988
32
0.119975
13
0.687603
23
0.396988
33
0.119975
0
3DFACE
8
1
62
1
10
-0.000000
20
-0.000000
30
-0.533590
11
0.687603
21
0.396988
31
0.119975
12
0.866025
22
-0.500000
32
0.119975
13
0.866025
23
-0.500000
33
0.119975
0
3DFACE
8
1
62
1
10
0.000000
20
-0.793976
30
0.119975
11
-0.000000
21
-0.000000
31
-0.533590
12
0.866025
22
-0.500000
32
0.119975
13
0.866025
23
-0.500000
33
0.119975
0
3DFACE
8
1
62
1
10
0.000000
20
-0.793976
30
0.119975
11
0.000000
21
-0.793976
31
0.162502
12
-0.866025
22
-0.500000
32
0.162502
13
-0.866025
23
-0.500000
33
0.162502
0
3DFACE
8
1
62
1
10
-0.866025
20
-0.500000
30
0.119975
11
0.000000
21
-0.793976
31
0.119975
12
-0.866025
22
-0.500000
32
0.162502
13
-0.866025
23
-0.500000
33
0.162502
0
3DFACE
8
1
62
1
10
-0.687603
20
0.396988
30
0.119975
11
-0.866025
21
-0.500000
31
0.119975
12
-0.866025
22
-0.500000
32
0.162502
13
-0.866025
23
-0.500000
33
0.162502
0
3DFACE
8
1
62
1
10
-0.687603
20
0.396988
30
0.162502
11
-0.687603
21
0.396988
31
0.119975
12
-0.866025
22
-0.500000
32
0.162502
13
-0.866025
23
-0.500000
33
0.162502
0
3DFACE
8
1
62
1
10
-0.687603
20
0.396988
30
0.119975
11
-0.687603
21
0.396988
31
0.162502
12
-0.000000
22
1.000000
32
0.162502
13
-0.000000
23
1.000000
33
0.162502
0
3DFACE
8
1
62
1
10
-0.000000
20
1.000000
30
0.119975
11
-0.687603
21
0.396988
31
0.119975
12
-0.000000
22
1.000000
32
0.162502
13
-0.000000
23
1.000000
33
0.162502
0
3DFACE
8
1
62
1
10
0.687603
20
0.396988
30
0.119975
11
-0.000000
21
1.000000
31
0.119975
12
-0.000000
22
1.000000
32
0.162502
13
-0.000000
23
1.000000
33
0.162502
0
3DFACE
8
1
62
1
10
0.687603
20
0.396988
30
0.162502
11
0.687603
21
0.396988
31
0.119975
12
-0.000000
22
1.000000
32
0.162502
13
-0.000000
23
1.000000
33
0.162502
0
3DFACE
8
1
62
1
10
0.687603
20
0.396988
30
0.119975
11
0.687603
21
0.396988
31
0.162502
12
0.866025
22
-0.500000
32
0.162502
13
0.866025
23
-0.500000
33
0.162502
0
3DFACE
8
1
62
1
10
0.866025
20
-0.500000
30
0.119975
11
0.687603
21
0.396988
31
0.119975
12
0.866025
22
-0.500000
32
0.162502
13
0.866025
23
-0.500000
33
0.162502
0
3DFACE
8
1
62
1
10
0.000000
20
-0.793976
30
0.119975
11
0.866025
21
-0.500000
31
0.119975
12
0.866025
22
-0.500000
32
0.162502
13
0.866025
23
-0.500000
33
0.162502
0
3DFACE
8
1
62
1
10
0.000000
20
-0.793976
30
0.162502
11
0.000000
21
-0.793976
31
0.119975
12
0.866025
22
-0.500000
32
0.162502
13
0.866025
23
-0.500000
33
0.162502
0
3DFACE
8
1
62
1
10
0.866025
20
-0.500000
30
0.162502
11
0.302640
21
-0.472322
31
0.432019
12
0.301943
22
-0.472358
32
0.432266
13
0.301943
23
-0.472358
33
0.432266
0
3DFACE
8
1
62
1
10
0.000000
20
-0.793976
30
0.162502
11
0.866025
21
-0.500000
31
0.162502
12
0.301943
22
-0.472358
32
0.432266
13
0.301943
23
-0.472358
33
0.432266
0
3DFACE
8
1
62
1
10
0.301636
20
-0.472413
30
0.432326
11
0.000000
21
-0.793976
31
0.162502
12
0.301943
22
-0.472358
32
0.432266
13
0.301943
23
-0.472358
33
0.432266
0
3DFACE
8
1
62
1
10
0.559940
20
-0.025018
30
0.432326
11
0.560045
21
-0.025312
31
0.432266
12
0.560363
22
-0.025933
32
0.432019
13
0.560363
23
-0.025933
33
0.432019
0
3DFACE
8
1
62
1
10
0.687603
20
0.396988
30
0.162502
11
0.559940
21
-0.025018
31
0.432326
12
0.560363
22
-0.025933
32
0.432019
13
0.560363
23
-0.025933
33
0.432019
0
3DFACE
8
1
62
1
10
0.866025
20
-0.500000
30
0.162502
11
0.687603
21
0.396988
31
0.162502
12
0.560363
22
-0.025933
32
0.432019
13
0.560363
23
-0.025933
33
0.432019
0
3DFACE
8
1
62
1
10
-0.000000
20
1.000000
30
0.162502
11
0.257723
21
0.498255
31
0.432019
12
0.258102
22
0.497669
32
0.432266
13
0.258102
23
0.497669
33
0.432266
0
3DFACE
8
1
62
1
10
0.687603
20
0.396988
30
0.162502
11
-0.000000
21
1.000000
31
0.162502
12
0.258102
22
0.497669
32
0.432266
13
0.258102
23
0.497669
33
0.432266
0
3DFACE
8
1
62
1
10
0.258303
20
0.497431
30
0.432326
11
0.687603
21
0.396988
31
0.162502
12
0.258102
22
0.497669
32
0.432266
13
0.258102
23
0.497669
33
0.432266
0
3DFACE
8
1
62
1
10
-0.687603
20
0.396988
30
0.162502
11
-0.258303
21
0.497431
31
0.432326
12
-0.258102
22
0.497669
32
0.432266
13
-0.258102
23
0.497669
33
0.432266
0
3DFACE
8
1
62
1
10
-0.000000
20
1.000000
30
0.162502
11
-0.687603
21
0.396988
31
0.162502
12
-0.258102
22
0.497669
32
0.432266
13
-0.258102
23
0.497669
33
0.432266
0
3DFACE
8
1
62
1
10
-0.257723
20
0.498255
30
0.432019
11
-0.000000
21
1.000000
31
0.162502
12
-0.258102
22
0.497669
32
0.432266
13
-0.258102
23
0.497669
33
0.432266
0
3DFACE
8
1
62
1
10
-0.866025
20
-0.500000
30
0.162502
11
-0.560363
21
-0.025933
31
0.432019
12
-0.560045
22
-0.025312
32
0.432266
13
-0.560045
23
-0.025312
33
0.432266
0
3DFACE
8
1
62
1
10
-0.687603
20
0.396988
30
0.162502
11
-0.866025
21
-0.500000
31
0.162502
12
-0.560045
22
-0.025312
32
0.432266
13
-0.560045
23
-0.025312
33
0.432266
0
3DFACE
8
1
62
1
10
-0.559940
20
-0.025018
30
0.432326
11
-0.687603
21
0.396988
31
0.162502
12
-0.560045
22
-0.025312
32
0.432266
13
-0.560045
23
-0.025312
33
0.432266
0
3DFACE
8
1
62
1
10
-0.301636
20
-0.472413
30
0.432326
11
-0.301943
21
-0.472358
31
0.432266
12
-0.302640
22
-0.472322
32
0.432019
13
-0.302640
23
-0.472322
33
0.432019
0
3DFACE
8
1
62
1
10
0.000000
20
-0.793976
30
0.162502
11
-0.301636
21
-0.472413
31
0.432326
12
-0.302640
22
-0.472322
32
0.432019
13
-0.302640
23
-0.472322
33
0.432019
0
3DFACE
8
1
62
1
10
-0.866025
20
-0.500000
30
0.162502
11
0.000000
21
-0.793976
31
0.162502
12
-0.302640
22
-0.472322
32
0.432019
13
-0.302640
23
-0.472322
33
0.432019
0
3DFACE
8
1
62
1
10
0.000000
20
-0.793976
30
0.162502
11
0.301636
21
-0.472413
31
0.432326
12
-0.000000
22
-0.351731
32
0.533590
13
-0.000000
23
-0.351731
33
0.533590
0
3DFACE
8
1
62
1
10
-0.301636
20
-0.472413
30
0.432326
11
0.000000
21
-0.793976
31
0.162502
12
-0.000000
22
-0.351731
32
0.533590
13
-0.000000
23
-0.351731
33
0.533590
0
3DFACE
8
1
62
1
10
0.687603
20
0.396988
30
0.162502
11
0.258303
21
0.497431
31
0.432326
12
0.304608
22
0.175866
32
0.533590
13
0.304608
23
0.175866
33
0.533590
0
3DFACE
8
1
62
1
10
0.559940
20
-0.025018
30
0.432326
11
0.687603
21
0.396988
31
0.162502
12
0.304608
22
0.175866
32
0.533590
13
0.304608
23
0.175866
33
0.533590
0
3DFACE
8
1
62
1
10
-0.687603
20
0.396988
30
0.162502
11
-0.559940
21
-0.025018
31
0.432326
12
-0.304608
22
0.175866
32
0.533590
13
-0.304608
23
0.175866
33
0.533590
0
3DFACE
8
1
62
1
10
-0.258303
20
0.497431
30
0.432326
11
-0.687603
21
0.396988
31
0.162502
12
-0.304608
22
0.175866
32
0.533590
13
-0.304608
23
0.175866
33
0.533590
0
3DFACE
8
1
62
1
10
0.302640
20
-0.472322
30
0.432019
11
0.866025
21
-0.500000
31
0.162502
12
0.560363
22
-0.025933
32
0.432019
13
0.560363
23
-0.025933
33
0.432019
0
3DFACE
8
1
62
1
10
0.257723
20
0.498255
30
0.432019
11
-0.000000
21
1.000000
31
0.162502
12
-0.257723
22
0.498255
32
0.432019
13
-0.257723
23
0.498255
33
0.432019
0
3DFACE
8
1
62
1
10
-0.560363
20
-0.025933
30
0.432019
11
-0.866025
21
-0.500000
31
0.162502
12
-0.302640
22
-0.472322
32
0.432019
13
-0.302640
23
-0.472322
33
0.432019
0
3DFACE
8
1
62
1
10
0.301636
20
-0.472413
30
0.432326
11
0.301943
21
-0.472358
31
0.432266
12
0.222989
22
-0.128743
32
0.533590
13
0.222989
23
-0.128743
33
0.533590
0
3DFACE
8
1
62
1
10
-0.000000
20
-0.351731
30
0.533590
11
0.301636
21
-0.472413
31
0.432326
12
0.222989
22
-0.128743
32
0.533590
13
0.222989
23
-0.128743
33
0.533590
0
3DFACE
8
1
62
1
10
0.559940
20
-0.025018
30
0.432326
11
0.304608
21
0.175866
31
0.533590
12
0.222989
22
-0.128743
32
0.533590
13
0.222989
23
-0.128743
33
0.533590
0
3DFACE
8
1
62
1
10
0.560045
20
-0.025312
30
0.432266
11
0.559940
21
-0.025018
31
0.432326
12
0.222989
22
-0.128743
32
0.533590
13
0.222989
23
-0.128743
33
0.533590
0
3DFACE
8
1
62
1
10
0.258303
20
0.497431
30
0.432326
11
0.258102
21
0.497669
31
0.432266
12
0.000000
22
0.257485
32
0.533590
13
0.000000
23
0.257485
33
0.533590
0
3DFACE
8
1
62
1
10
0.304608
20
0.175866
30
0.533590
11
0.258303
21
0.497431
31
0.432326
12
0.000000
22
0.257485
32
0.533590
13
0.000000
23
0.257485
33
0.533590
0
3DFACE
8
1
62
1
10
-0.258303
20
0.497431
30
0.432326
11
-0.304608
21
0.175866
31
0.533590
12
0.000000
22
0.257485
32
0.533590
13
0.000000
23
0.257485
33
0.533590
0
3DFACE
8
1
62
1
10
-0.258102
20
0.497669
30
0.432266
11
-0.258303
21
0.497431
31
0.432326
12
0.000000
22
0.257485
32
0.533590
13
0.000000
23
0.257485
33
0.533590
0
3DFACE
8
1
62
1
10
-0.559940
20
-0.025018
30
0.432326
11
-0.560045
21
-0.025312
31
0.432266
12
-0.222989
22
-0.128743
32
0.533590
13
-0.222989
23
-0.128743
33
0.533590
0
3DFACE
8
1
62
1
10
-0.304608
20
0.175866
30
0.533590
11
-0.559940
21
-0.025018
31
0.432326
12
-0.222989
22
-0.128743
32
0.533590
13
-0.222989
23
-0.128743
33
0.533590
0
3DFACE
8
1
62
1
10
-0.301636
20
-0.472413
30
0.432326
11
-0.000000
21
-0.351731
31
0.533590
12
-0.222989
22
-0.128743
32
0.533590
13
-0.222989
23
-0.128743
33
0.533590
0
3DFACE
8
1
62
1
10
-0.301943
20
-0.472358
30
0.432266
11
-0.301636
21
-0.472413
31
0.432326
12
-0.222989
22
-0.128743
32
0.533590
13
-0.222989
23
-0.128743
33
0.533590
0
3DFACE
8
1
62
1
10
0.560363
20
-0.025933
30
0.432019
11
0.560045
21
-0.025312
31
0.432266
12
0.222989
22
-0.128743
32
0.533590
13
0.222989
23
-0.128743
33
0.533590
0
3DFACE
8
1
62
1
10
0.302640
20
-0.472322
30
0.432019
11
0.560363
21
-0.025933
31
0.432019
12
0.222989
22
-0.128743
32
0.533590
13
0.222989
23
-0.128743
33
0.533590
0
3DFACE
8
1
62
1
10
0.301943
20
-0.472358
30
0.432266
11
0.302640
21
-0.472322
31
0.432019
12
0.222989
22
-0.128743
32
0.533590
13
0.222989
23
-0.128743
33
0.533590
0
3DFACE
8
1
62
1
10
-0.257723
20
0.498255
30
0.432019
11
-0.258102
21
0.497669
31
0.432266
12
0.000000
22
0.257485
32
0.533590
13
0.000000
23
0.257485
33
0.533590
0
3DFACE
8
1
62
1
10
0.257723
20
0.498255
30
0.432019
11
-0.257723
21
0.498255
31
0.432019
12
0.000000
22
0.257485
32
0.533590
13
0.000000
23
0.257485
33
0.533590
0
3DFACE
8
1
62
1
10
0.258102
20
0.497669
30
0.432266
11
0.257723
21
0.498255
31
0.432019
12
0.000000
22
0.257485
32
0.533590
13
0.000000
23
0.257485
33
0.533590
0
3DFACE
8
1
62
1
10
-0.302640
20
-0.472322
30
0.432019
11
-0.301943
21
-0.472358
31
0.432266
12
-0.222989
22
-0.128743
32
0.533590
13
-0.222989
23
-0.128743
33
0.533590
0
3DFACE
8
1
62
1
10
-0.560363
20
-0.025933
30
0.432019
11
-0.302640
21
-0.472322
31
0.432019
12
-0.222989
22
-0.128743
32
0.533590
13
-0.222989
23
-0.128743
33
0.533590
0
3DFACE
8
1
62
1
10
-0.560045
20
-0.025312
30
0.432266
11
-0.560363
21
-0.025933
31
0.432019
12
-0.222989
22
-0.128743
32
0.533590
13
-0.222989
23
-0.128743
33
0.533590
0
3DFACE
8
1
62
1
10
-0.304608
20
0.175866
30
0.533590
11
-0.222989
21
-0.128743
31
0.533590
12
-0.000000
22
-0.351731
32
0.533590
13
-0.000000
23
-0.351731
33
0.533590
0
3DFACE
8
1
62
1
10
0.000000
20
0.257485
30
0.533590
11
-0.304608
21
0.175866
31
0.533590
12
-0.000000
22
-0.351731
32
0.533590
13
-0.000000
23
-0.351731
33
0.533590
0
3DFACE
8
1
62
1
10
0.304608
20
0.175866
30
0.533590
11
0.000000
21
0.257485
31
0.533590
12
-0.000000
22
-0.351731
32
0.533590
13
-0.000000
23
-0.351731
33
0.533590
0
3DFACE
8
1
62
1
10
0.222989
20
-0.128743
30
0.533590
11
0.304608
21
0.175866
31
0.533590
12
-0.000000
22
-0.351731
32
0.533590
13
-0.000000
23
-0.351731
33
0.533590
0
ENDSEC
0
EOF
